<svg viewBox="-2 0 511 511.99938" xmlns="http://www.w3.org/2000/svg"><path d="m448.898438 143.5c-22.097657 0-42.25 12.578125-52.171876 31.925781-33.121093.339844-59.96875 27.375-59.96875 60.574219v142.410156c0 43.113282-35.074218 78.191406-78.1875 78.191406-20.894531 0-40.53125-8.132812-55.300781-22.902343-14.765625-14.769531-22.898437-34.402344-22.898437-55.289063v-10.230468c10.628906-1.964844 21.039062-5.070313 31.070312-9.277344.550782-.234375 1.097656-.464844 1.65625-.707032 5.070313-2.199218 7.394532-8.085937 5.195313-13.152343-2.195313-5.066407-8.085938-7.394531-13.152344-5.195313-.5.214844-.992187.425782-1.457031.621094-11.085938 4.648438-22.726563 7.753906-34.605469 9.230469-5.324219.660156-9.175781 5.417969-8.730469 10.765625.007813.113281.019532.226562.023438.246094v17.699218c0 26.230469 10.210937 50.886719 28.757812 69.433594 18.546875 18.542969 43.207032 28.757812 69.441406 28.757812 54.140626 0 98.1875-44.046874 98.1875-98.191406v-142.410156c0-20.09375 14.683594-36.8125 33.882813-40.023438-.210937 2.027344-.332031 4.070313-.332031 6.125 0 3.210938.273437 6.378907.78125 9.5-10.871094 2.789063-18.929688 12.671876-18.929688 24.398438v142.410156c0 30.339844-11.816406 58.863282-33.269531 80.320313-21.457031 21.453125-49.980469 33.269531-80.320313 33.269531-62.640624 0-113.601562-50.953125-113.601562-113.589844v-17.578125l.046875-.65625c.289063-5.25-3.535156-9.828125-8.75-10.476562-66-8.210938-115.765625-64.597657-115.765625-131.160157v-23.007812c0-5.050781 4.089844-9.160156 9.136719-9.207031.027343 0 .050781.003906.078125.003906.046875 0 .089844-.003906.136718-.007813l.210938.003907c4.890625.171875 8.867188 4.507812 8.867188 9.667969v22.546874c0 30.460938 11.925781 59.097657 33.582031 80.625 21.652343 21.53125 50.351562 33.246094 80.824219 33.117188 62.351562-.359375 113.074218-51.894531 113.074218-114.878906v-21.871094c0-5.050781 4.089844-9.160156 9.136719-9.207031.027344 0 .050781.003906.078125.003906.046875 0 .089844-.003906.136719-.007813l.210937.003907c4.890625.171875 8.867188 4.507812 8.867188 9.667969v22.546874c0 28.640626-9.042969 55.902344-26.15625 78.84375-3.300782 4.425782-2.390625 10.691407 2.039062 13.992188 4.425782 3.304688 10.691406 2.390625 13.992188-2.035156 19.710937-26.421875 30.125-57.820313 30.125-90.800782v-22.546874c0-12.886719-7.957032-23.808594-19.210938-27.921876v-93.863281c0-18.222656-12.664062-33.53125-29.648437-37.621093-3.914063-18.476563-19.699219-32.980469-39.136719-34.566407l-23.855469-1.9453122c-8.152343-.6679688-15.972656 3.1914062-20.40625 10.0664062-13.859375 21.484375-13.859375 49.246094 0 70.730469 4.105469 6.359375 11.109375 10.140625 18.59375 10.140625.601563 0 1.207031-.027344 1.8125-.074219l23.855469-1.945312c18.355469-1.496094 33.457031-14.515626 38.378906-31.519532 6.15625 3.066406 10.402344 9.40625 10.402344 16.734375v93.878907c-11.199219 4.089843-19.214844 14.847656-19.214844 27.445312v21.871094c0 52.019531-41.804687 94.582031-93.1875 94.878906-.1875 0-.367187 0-.554687 0-24.898438 0-48.339844-9.679688-66.058594-27.296875-17.851563-17.75-27.679687-41.34375-27.679687-66.441406v-22.550781c0-12.886719-7.957032-23.808594-19.214844-27.917969v-93.867188c0-7.328125 4.25-13.667969 10.402344-16.734375 4.921874 17.003906 20.023437 30.019532 38.382812 31.519532l23.851562 1.945312c.609376.046875 1.214844.074219 1.816407.074219 7.484375 0 14.488281-3.78125 18.589843-10.140625 13.859376-21.484375 13.859376-49.25 0-70.734375-4.433593-6.871094-12.25-10.726563-20.40625-10.0625002l-23.851562 1.9453122c-19.4375 1.585938-35.222656 16.089844-39.136719 34.566407-16.984375 4.089843-29.648437 19.398437-29.648437 37.621093v93.878907c-11.199219 4.089843-19.214844 14.847656-19.214844 27.445312v23.007812c0 73.636719 52.914062 136.453126 124.46875 149.644532v10.226562c0 73.660156 59.933594 133.589844 133.601562 133.589844 35.679688 0 69.226563-13.898438 94.460938-39.128906 25.230469-25.234375 39.128906-58.78125 39.128906-94.460938v-142.410156c0-2.859375 2.328125-5.1875 5.1875-5.1875h.46875c10.28125 18.347656 29.664063 29.878906 51.082032 29.878906 32.3125 0 58.601562-26.285156 58.601562-58.589844 0-32.3125-26.289062-58.601562-58.601562-58.601562zm-233.683594-74.441406-23.851563 1.945312c-.785156.0625-1.546875-.3125-1.976562-.976562-9.609375-14.898438-9.609375-34.148438 0-49.046875.398437-.613281 1.074219-.980469 1.796875-.980469.0625 0 .117187.003906.175781.007812l23.855469 1.945313c12.171875.992187 21.710937 11.339844 21.710937 23.550781 0 12.214844-9.535156 22.558594-21.710937 23.554688zm-125.089844-47.105469 23.855469-1.945313c.785156-.066406 1.542969.308594 1.972656.972657 9.609375 14.898437 9.609375 34.152343 0 49.046875-.429687.664062-1.179687 1.039062-1.972656.976562l-23.855469-1.945312c-12.171875-.996094-21.707031-11.339844-21.707031-23.554688 0-12.210937 9.535156-22.558594 21.707031-23.550781zm358.773438 218.738281c-15.621094 0-29.597657-9.308594-35.617188-23.726562-.011719-.023438-.019531-.046875-.027344-.066406-1.953125-4.6875-2.945312-9.667969-2.945312-14.796876 0-4.5625.785156-9.023437 2.332031-13.253906 5.542969-15.160156 20.117187-25.347656 36.257813-25.347656 21.285156 0 38.601562 17.316406 38.601562 38.601562 0 21.277344-17.316406 38.589844-38.601562 38.589844zm0 0"/><path d="m448.902344 172.484375c-5.523438 0-10 4.480469-10 10 0 5.523437 4.476562 10 10 10 5.300781 0 9.613281 4.3125 9.613281 9.613281 0 5.523438 4.476563 10 10 10s10-4.476562 10-10c0-16.328125-13.285156-29.613281-29.613281-29.613281zm0 0"/><path d="m249.089844 324.488281c-.359375-.546875-.78125-1.058593-1.242188-1.519531-.457031-.460938-.96875-.878906-1.519531-1.25-.539063-.359375-1.117187-.660156-1.730469-.910156-.597656-.25-1.226562-.449219-1.867187-.570313-1.292969-.257812-2.621094-.257812-3.910157 0-.640624.121094-1.261718.320313-1.871093.570313-.601563.25-1.179688.550781-1.71875.910156-.550781.371094-1.0625.789062-1.53125 1.25-.460938.460938-.871094.972656-1.238281 1.519531-.363282.542969-.671876 1.121094-.921876 1.722657-.25.609374-.441406 1.238281-.570312 1.867187-.128906.652344-.191406 1.3125-.191406 1.960937 0 .652344.0625 1.3125.191406 1.949219.128906.640625.320312 1.269531.570312 1.871094.25.609375.558594 1.191406.921876 1.730469.367187.550781.777343 1.058594 1.238281 1.519531.46875.460937.980469.878906 1.53125 1.242187.539062.359376 1.117187.667969 1.71875.917969.609375.25 1.230469.441407 1.871093.570313.648438.128906 1.300782.199218 1.957032.199218.652344 0 1.3125-.070312 1.953125-.199218s1.269531-.320313 1.867187-.570313c.613282-.25 1.191406-.558593 1.730469-.917969.550781-.363281 1.0625-.78125 1.519531-1.242187.460938-.460937.882813-.96875 1.242188-1.519531.359375-.539063.667968-1.121094.917968-1.730469.25-.601563.441407-1.230469.570313-1.871094.132813-.636719.199219-1.296875.199219-1.949219 0-.648437-.066406-1.308593-.199219-1.960937-.128906-.628906-.320313-1.257813-.570313-1.867187-.25-.601563-.558593-1.179688-.917968-1.722657zm0 0"/></svg>