<svg viewBox="-146 0 511 511.99763" xmlns="http://www.w3.org/2000/svg"><path d="m219.035156 404.453125-2.890625-197.957031-1.019531-70.191406c-.292969-19.71875-7.359375-38.957032-19.890625-54.167969l-63.3125-76.839844c-4.648437-5.660156-12.53125-6.949219-18.742187-3.0625-6.214844 3.886719-8.5 11.542969-5.445313 18.195313l41.738281 91.074218-1.371094 78.261719-13.75-55.554687c-4.734374-19.140626-15.96875-36.285157-31.625-48.273438l-79.03125-60.546875c-5.808593-4.457031-13.777343-3.929687-18.949218 1.253906-5.171875 5.1875-5.679688 13.160157-1.203125 18.960938l57.570312 74.507812c2.398438 3.105469 4.101563 6.78125 4.925781 10.628907l15.089844 70.617187c1.152344 5.402344 6.464844 8.84375 11.867188 7.6875 5.402344-1.152344 8.84375-6.464844 7.6875-11.867187l-15.089844-70.621094c-1.441406-6.753906-4.4375-13.210938-8.652344-18.671875l-31.269531-40.46875 44.894531 34.394531c12.066406 9.238281 20.722656 22.449219 24.371094 37.199219l31.808594 128.527343-2.351563 134.226563-28-131.058594c-1.152343-5.398437-6.464843-8.839843-11.867187-7.6875-5.402344 1.152344-8.84375 6.46875-7.691406 11.867188l43.429687 203.289062c2.066406 9.679688 8.765625 17.722657 17.921875 21.511719l.769531.320312 12.027344 8.589844c3.167969 2.265625 6.878906 3.398438 10.59375 3.398438 3.707031 0 7.414063-1.128906 10.578125-3.394532l15.296875-10.925781c8.011719-5.734375 12.714844-15.039062 12.578125-24.886719 0-.003906 0-.007812 0-.011718zm-52.269531-137.855469c0-.019531 0-.035156 0-.054687l.867187-49.902344h28.65625l2.597657 177.957031h-34.363281zm-22.917969-215.378906 35.949219 43.632812c9.660156 11.722657 15.105469 26.550782 15.328125 41.746094l.875 60.042969h-28.015625l1.492187-84.957031c.039063-2.910156-.578124-5.828125-1.785156-8.4375zm51.976563 430.191406-14.25 10.175782-12.09375-8.640626c-.015625-.007812-.027344-.019531-.042969-.03125l-2.074219-1.480468c-2.699219-1.929688-4.273437-5.0625-4.21875-8.371094l1.027344-58.464844h35.007813l.855468 58.464844c.046875 3.308594-1.53125 6.429688-4.210937 8.347656zm0 0"/><path d="m98.675781 245.648438c.652344 0 1.308594-.066407 1.960938-.199219.628906-.117188 1.257812-.320313 1.871093-.570313.597657-.25 1.179688-.558594 1.71875-.917968.550782-.359376 1.058594-.78125 1.519532-1.242188.46875-.457031.878906-.96875 1.25-1.519531.359375-.539063.671875-1.117188.921875-1.730469.25-.597656.4375-1.226562.566406-1.867188.132813-.640624.191406-1.300781.191406-1.949218 0-.652344-.058593-1.3125-.191406-1.953125-.128906-.640625-.316406-1.269531-.566406-1.867188-.25-.613281-.5625-1.191406-.921875-1.730469-.371094-.550781-.78125-1.0625-1.25-1.519531-.460938-.460937-.96875-.882812-1.519532-1.25-.539062-.363281-1.121093-.660156-1.71875-.910156-.613281-.25-1.242187-.453125-1.871093-.570313-1.289063-.261718-2.621094-.261718-3.910157 0-.640624.117188-1.269531.320313-1.871093.570313-.609375.25-1.1875.546875-1.730469.910156-.546875.367188-1.058594.789063-1.519531 1.25-.460938.457031-.878907.96875-1.238281 1.519531-.359376.539063-.671876 1.117188-.921876 1.730469-.25.597657-.4375 1.226563-.570312 1.867188-.128906.640625-.199219 1.300781-.199219 1.953125 0 .648437.070313 1.308594.199219 1.949218.132812.640626.320312 1.269532.570312 1.867188.25.613281.5625 1.191406.921876 1.730469.359374.550781.777343 1.0625 1.238281 1.519531.460937.460938.972656.882812 1.519531 1.242188.542969.359374 1.121094.667968 1.730469.917968.601562.25 1.230469.453125 1.871093.570313.640626.132812 1.300782.199219 1.949219.199219zm0 0"/></svg>