<svg viewBox="0 -35 512 512" xmlns="http://www.w3.org/2000/svg"><path d="m502 422.859375h-51.210938v-191.121094c0-16.433593-13.371093-29.804687-29.808593-29.804687h-21.980469v-7.671875c0-12.3125-10.019531-22.332031-22.332031-22.332031h-20.757813v-140.921876c0-17.097656-13.90625-31.007812-31.007812-31.007812h-143.667969c-17.097656 0-31.007813 13.910156-31.007813 31.007812v140.921876h-19.894531c-12.3125 0-22.332031 10.019531-22.332031 22.332031v7.671875h-22.84375c-16.433594 0-29.804688 13.371094-29.804688 29.804687v191.121094h-45.351562c-5.523438 0-10 4.476563-10 10s4.476562 10 10 10h492c5.523438 0 10-4.476563 10-10s-4.476562-10-10-10zm-331.773438-391.851563c0-6.070312 4.9375-11.007812 11.007813-11.007812h143.667969c6.070312 0 11.007812 4.9375 11.007812 11.007812v140.921876h-165.683594zm20.550782 391.851563v-59.597656c0-3.246094 2.644531-5.890625 5.890625-5.890625h49.332031v65.488281zm75.222656 0v-65.488281h49.332031c3.246094 0 5.890625 2.644531 5.890625 5.890625v59.597656zm75.222656 0v-59.597656c0-14.277344-11.613281-25.890625-25.890625-25.890625h-118.664062c-14.277344 0-25.890625 11.613281-25.890625 25.890625v59.597656h-95.425782v-191.121094c0-5.40625 4.398438-9.804687 9.804688-9.804687h191.84375c5.523438 0 10-4.476563 10-10 0-5.523438-4.476562-10-10-10h-149v-7.671875c0-1.285157 1.046875-2.332031 2.332031-2.332031h246.335938c1.285156 0 2.332031 1.046874 2.332031 2.332031v7.671875h-22c-5.523438 0-10 4.476562-10 10 0 5.523437 4.476562 10 10 10h63.980469c5.410156 0 9.808593 4.398437 9.808593 9.804687v191.121094zm0 0"/><path d="m306.832031 71.421875h-26.996093v-27c0-5.523437-4.480469-10-10-10h-33.53125c-5.523438 0-10 4.476563-10 10v27h-27c-5.523438 0-10 4.476563-10 10v33.527344c0 5.523437 4.476562 10 10 10h27v27c0 5.523437 4.476562 10 10 10h33.53125c5.519531 0 10-4.476563 10-10v-27h26.996093c5.523438 0 10-4.476563 10-10v-33.527344c0-5.523437-4.476562-10-10-10zm-10 33.527344h-26.996093c-5.523438 0-10 4.476562-10 10v27h-13.53125v-27c0-5.523438-4.476563-10-10-10h-27v-13.527344h27c5.523437 0 10-4.480469 10-10v-27h13.53125v27c0 5.519531 4.476562 10 10 10h26.996093zm0 0"/><path d="m167.5 246.929688h-49c-9.097656 0-16.5 7.402343-16.5 16.5v37c0 9.097656 7.402344 16.5 16.5 16.5h49c9.097656 0 16.5-7.402344 16.5-16.5v-37c0-9.097657-7.402344-16.5-16.5-16.5zm-3.5 50h-42v-30h42zm0 0"/><path d="m280.5 246.929688h-49c-9.097656 0-16.5 7.402343-16.5 16.5v37c0 9.097656 7.402344 16.5 16.5 16.5h49c9.097656 0 16.5-7.402344 16.5-16.5v-37c0-9.097657-7.402344-16.5-16.5-16.5zm-3.5 50h-42v-30h42zm0 0"/><path d="m393.5 246.929688h-49c-9.097656 0-16.5 7.402343-16.5 16.5v37c0 9.097656 7.402344 16.5 16.5 16.5h49c9.097656 0 16.5-7.402344 16.5-16.5v-37c0-9.097657-7.402344-16.5-16.5-16.5zm-3.5 50h-42v-30h42zm0 0"/><path d="m317.023438 201.933594h-.023438c-5.523438 0-9.988281 4.476562-9.988281 10 0 5.523437 4.492187 10 10.015625 10 5.523437 0 10-4.476563 10-10 0-5.523438-4.480469-10-10.003906-10zm0 0"/></svg>