<svg viewBox="-98 0 512 512" xmlns="http://www.w3.org/2000/svg"><path d="m315.003906 141.640625c-3.730468-35.953125-19.855468-69.828125-45.414062-95.382813-29.828125-29.832031-69.488282-46.257812-111.671875-46.257812-42.183594 0-81.84375 16.425781-111.667969 46.253906-25.558594 25.558594-41.6875 59.433594-45.414062 95.382813-3.730469 35.953125 5.105468 72.414062 24.878906 102.671875.199218.308594.421875.609375.65625.894531l71.429687 86.574219c-24.921875 18.773437-40.015625 48.480468-40.03125 80.027344v.148437c.058594 55.175781 44.960938 100.046875 100.148438 100.046875s100.09375-44.871094 100.148437-100.046875c0-.050781 0-.097656 0-.148437-.015625-31.546876-15.105468-61.25-40.03125-80.027344l71.433594-86.574219c.234375-.285156.453125-.582031.65625-.894531 19.769531-30.257813 28.605469-66.71875 24.878906-102.667969zm-160.445312 228.585937c1.117187.0625 2.234375.09375 3.359375.09375s2.246093-.03125 3.359375-.09375c7.808594-.429687 15.347656-2.363281 22.265625-5.621093.847656-.402344 1.6875-.832031 2.519531-1.273438 3.523438 16.578125 5.222656 33.4375 5.097656 50.273438-22.101562 2.519531-44.378906 2.519531-66.480468 0-.128907-16.835938 1.570312-33.695313 5.097656-50.273438 1.390625.738281 2.808594 1.40625 4.253906 2.03125 6.4375 2.789063 13.367188 4.46875 20.527344 4.863281zm-44.023438-23.015624.1875.226562.859375 1.042969c.285157.347656.59375.675781.886719 1.015625-.003906.015625-.011719.03125-.015625.042968-5.09375 20.058594-7.675781 40.574219-7.773437 61.082032-8.910157-1.636719-17.769532-3.691406-26.5625-6.160156 2.132812-22.761719 14-43.699219 32.417968-57.25zm-31.597656 78.183593c8.769531 2.273438 17.597656 4.171875 26.464844 5.675781 1.222656 16.019532 3.96875 31.9375 8.234375 47.542969-18.015625-11.988281-30.910157-31.066406-34.699219-53.21875zm58.742188 64.011719-3.089844-10.257812c-4.472656-14.835938-7.429688-30.019532-8.878906-45.320313 10.714843 1.105469 21.460937 1.671875 32.207031 1.671875 10.75 0 21.496093-.566406 32.207031-1.671875-1.445312 15.300781-4.402344 30.484375-8.875 45.320313l-3.089844 10.257812c-6.46875 1.6875-13.25 2.59375-20.242187 2.59375-6.988281 0-13.769531-.90625-20.238281-2.59375zm64.519531-10.792969c4.265625-15.601562 7.015625-31.523437 8.234375-47.542969 8.871094-1.503906 17.695312-3.402343 26.464844-5.675781-3.789063 22.152344-16.683594 41.230469-34.699219 53.21875zm35.519531-74.152343c-8.792969 2.46875-17.652344 4.523437-26.5625 6.160156-.097656-20.507813-2.679688-41.023438-7.773438-61.082032-.003906-.015624-.007812-.027343-.015624-.042968.296874-.339844.601562-.667969.886718-1.015625l1.046875-1.269531c18.421875 13.550781 30.289063 34.488281 32.417969 57.25zm35.960938-171.550782-78.09375 94.652344c-.003907.003906-.007813.007812-.011719.011719l-6.746094 8.175781c-1.402344 1.699219-2.925781 3.261719-4.554687 4.6875-6.136719 5.367188-13.75 8.734375-21.894532 9.636719-1.472656.164062-2.960937.246093-4.460937.246093s-2.988281-.082031-4.460938-.246093c-10.300781-1.144531-19.761719-6.222657-26.445312-14.324219l-6.746094-8.175781h-.003906l-78.105469-94.664063c-35.15625-54.28125-27.527344-126.75 18.234375-172.511718 26.050781-26.050782 60.6875-40.398438 97.527344-40.398438 36.84375 0 71.480469 14.347656 97.527343 40.398438 45.765626 45.761718 53.394532 118.230468 18.234376 172.511718zm0 0"/><path d="m251.613281 133.988281c1.53125 6.855469 2.304688 13.921875 2.304688 21.011719 0 52.933594-43.0625 96-96 96-52.933594 0-96-43.066406-96-96s43.066406-96 96-96c22.378906 0 44.164062 7.863281 61.335937 22.144531 4.246094 3.53125 10.550782 2.953125 14.082032-1.292969 3.53125-4.25 2.953124-10.550781-1.292969-14.085937-20.761719-17.257813-47.082031-26.765625-74.125-26.765625-63.960938 0-116 52.039062-116 116s52.039062 116 116 116c63.964843 0 116-52.039062 116-116 0-8.550781-.9375-17.085938-2.78125-25.367188-1.203125-5.390624-6.550781-8.78125-11.941407-7.582031-5.386718 1.203125-8.785156 6.546875-7.582031 11.9375zm0 0"/><path d="m210.40625 96.320312c-14.34375-11.484374-27.109375-7.25-37.363281-3.84375-5.054688 1.675782-9.832031 3.261719-15.125 3.386719-5.289063-.125-10.066407-1.710937-15.121094-3.386719-10.257813-3.40625-23.019531-7.640624-37.367187 3.84375-10.496094 8.402344-14.578126 23.359376-16.078126 31.527344-6.179687 33.664063 5.941407 74.289063 30.164063 101.085938 3.234375 3.582031 7.753906 5.554687 12.480469 5.554687.9375 0 1.886718-.078125 2.835937-.234375 5.730469-.964844 10.511719-4.734375 12.78125-10.082031 2.492188-5.867187 4.519531-11.25 6.019531-15.996094.59375-1.875 2.3125-3.132812 4.285157-3.132812 1.972656 0 3.695312 1.257812 4.289062 3.132812 1.5 4.75 3.523438 10.128907 6.015625 15.992188 2.273438 5.351562 7.050782 9.117187 12.785156 10.085937 5.707032.960938 11.4375-1.027344 15.316407-5.320312 24.222656-26.796875 36.34375-67.421875 30.160156-101.085938-1.5-8.167968-5.582031-23.125-16.078125-31.527344zm-25.679688 115.40625c-1.378906-3.472656-2.535156-6.679687-3.449218-9.578124v-.003907c-3.234375-10.226562-12.621094-17.101562-23.355469-17.101562-10.738281 0-20.125 6.875-23.359375 17.105469-.914062 2.898437-2.070312 6.105468-3.449219 9.578124-17.820312-22.097656-26.84375-54.367187-22.089843-80.269531 1.648437-8.964843 5.058593-16.445312 8.90625-19.523437 5.597656-4.480469 8.917968-3.679688 18.570312-.476563 5.714844 1.898438 12.832031 4.257813 21.246094 4.40625h.347656c8.414062-.148437 15.53125-2.507812 21.25-4.40625 9.648438-3.203125 12.96875-4.003906 18.566406.476563 3.847656 3.082031 7.261719 10.5625 8.90625 19.523437 4.753906 25.902344-4.269531 58.171875-22.089844 80.269531zm0 0"/><path d="m253.617188 90.910156c-.539063-.359375-1.117188-.671875-1.726563-.921875-.601563-.25-1.230469-.4375-1.871094-.566406-1.289062-.261719-2.609375-.261719-3.910156 0-.628906.128906-1.261719.316406-1.871094.566406-.597656.25-1.179687.5625-1.71875.921875-.550781.359375-1.058593.78125-1.519531 1.238282-.460938.460937-.882812.972656-1.25 1.523437-.359375.539063-.671875 1.117187-.921875 1.726563-.25.601562-.4375 1.230468-.570313 1.871093-.128906.640625-.1875 1.300781-.1875 1.949219 0 .652344.058594 1.3125.1875 1.960938.132813.628906.320313 1.261718.570313 1.871093.25.597657.5625 1.179688.921875 1.71875.367188.550781.789062 1.058594 1.25 1.519531.460938.460938.96875.882813 1.519531 1.25.539063.359376 1.121094.671876 1.71875.921876.609375.25 1.242188.4375 1.871094.570312.648437.117188 1.3125.1875 1.960937.1875.648438 0 1.308594-.070312 1.949219-.1875.640625-.132812 1.269531-.320312 1.871094-.570312.609375-.25 1.1875-.5625 1.726563-.921876.550781-.367187 1.0625-.789062 1.523437-1.25.457031-.460937.878906-.96875 1.238281-1.519531.359375-.539062.671875-1.121093.921875-1.71875.25-.609375.4375-1.242187.566407-1.871093.132812-.648438.199218-1.308594.199218-1.960938 0-.648438-.066406-1.308594-.199218-1.949219-.128907-.640625-.316407-1.269531-.566407-1.871093-.25-.609376-.5625-1.1875-.921875-1.726563-.359375-.550781-.78125-1.0625-1.238281-1.523437-.460937-.457032-.972656-.878907-1.523437-1.238282zm0 0"/></svg>