<svg viewBox="-96 0 512 512.001" xmlns="http://www.w3.org/2000/svg"><path d="m262.945312 66.003906h47.144532c5.523437 0 10-4.476562 10-10 0-5.523437-4.476563-10-10-10h-47.144532c-.042968-11.753906-9.613281-21.308594-21.378906-21.308594h-20.914062v-4.367187c0-11.207031-9.121094-20.328125-20.328125-20.328125h-60.863281c-30.878907 0-56 25.121094-56 56 0 14.96875 5.832031 29.035156 16.40625 39.597656 5.699218 5.703125 12.414062 10.011719 19.734374 12.785156l-9.621093 234.03125c-.664063 16.300782 7.8125 31.199219 21.59375 39.015626v30.730468c0 15.117188 9.996093 27.941406 23.722656 32.214844v11.621094c0 19.851562-16.148437 36.003906-36.003906 36.003906-19.851563 0-36.003907-16.152344-36.003907-36.003906v-191.746094c0-22.964844-18.679687-41.644531-41.644531-41.644531-22.960937 0-41.644531 18.679687-41.644531 41.644531v181.5c0 5.523438 4.476562 10 10 10s10-4.476562 10-10v-181.5c0-11.933594 9.710938-21.644531 21.644531-21.644531 11.9375 0 21.644531 9.707031 21.644531 21.644531v191.746094c0 30.882812 25.125 56.003906 56.003907 56.003906 30.882812 0 56.003906-25.121094 56.003906-56.003906v-11.617188c13.730469-4.273437 23.726563-17.097656 23.726563-32.21875v-30.726562c13.800781-7.832032 22.265624-22.734375 21.589843-39.023438l-9.597656-233.472656c5.773437-3.589844 9.636719-9.972656 9.636719-17.257812v-4.367188h20.917968c11.761719 0 21.332032-9.554688 21.375-21.308594zm-159.484374-10.003906c0-19.851562 16.152343-36 36-36h60.863281c.179687 0 .328125.148438.328125.328125v14.3125c0 .019531-.003906.035156-.003906.054687v42.617188c0 .019531.003906.035156.003906.054688v14.3125c0 .175781-.152344.332031-.328125.332031h-60.863281c-9.613282 0-18.652344-3.746094-25.453126-10.558594-6.800781-6.792969-10.546874-15.832031-10.546874-25.453125zm75.5625 356.160156c0 7.570313-6.15625 13.730469-13.722657 13.730469-7.570312 0-13.726562-6.160156-13.726562-13.730469v-25.121094c.421875.015626.84375.019532 1.269531.019532h24.917969c.421875 0 .839843-.003906 1.261719-.015625zm6.578124-46.476562c-.003906 0-.003906 0-.007812 0-2.5.914062-5.136719 1.375-7.832031 1.375h-24.921875c-2.703125 0-5.332032-.460938-7.851563-1.386719-9.394531-3.417969-15.433593-12.4375-15.027343-22.441406l9.507812-231.21875h51.65625l9.503906 231.222656c.417969 10.003906-5.625 19.027344-15.027344 22.449219zm35.050782-320.988282h20.914062c.761719 0 1.382813.621094 1.382813 1.382813v19.851563c0 .761718-.621094 1.382812-1.382813 1.382812h-20.914062zm0 0"/><path d="m158.914062 207.699219c-5.523437-.175781-10.132812 4.164062-10.304687 9.683593l-2.199219 71.167969c-.171875 5.519531 4.164063 10.136719 9.683594 10.304688.105469.003906.210938.003906.316406.003906 5.378906 0 9.820313-4.273437 9.988282-9.6875l2.199218-71.167969c.171875-5.523437-4.164062-10.136718-9.683594-10.304687zm0 0"/><path d="m164.402344 325.019531c-.25-.609375-.5625-1.191406-.921875-1.730469-.367188-.550781-.777344-1.058593-1.238281-1.519531-.460938-.460937-.980469-.878906-1.519532-1.238281-.550781-.359375-1.132812-.671875-1.730468-.921875-.601563-.25-1.230469-.4375-1.871094-.570313-1.289063-.257812-2.617188-.257812-3.910156 0-.640626.132813-1.269532.320313-1.867188.570313-.601562.25-1.179688.5625-1.730469.921875-.539062.359375-1.0625.777344-1.519531 1.238281-.460938.460938-.882812.96875-1.242188 1.519531-.359374.539063-.667968 1.121094-.917968 1.730469-.25.601563-.441406 1.230469-.570313 1.871094-.128906.640625-.191406 1.300781-.191406 1.949219 0 .648437.0625 1.308594.191406 1.960937.128907.628907.320313 1.257813.570313 1.871094.25.597656.558594 1.179687.917968 1.71875.359376.550781.78125 1.058594 1.242188 1.519531.457031.460938.976562.878906 1.519531 1.25.550781.359375 1.128907.667969 1.730469.917969.597656.25 1.226562.441406 1.867188.570313.652343.132812 1.300781.191406 1.960937.191406.648437 0 1.300781-.058594 1.949219-.191406.640625-.128907 1.269531-.320313 1.871094-.570313.601562-.25 1.179687-.558594 1.730468-.917969.539063-.371094 1.058594-.789062 1.519532-1.25.460937-.460937.871093-.96875 1.238281-1.519531.359375-.539063.671875-1.121094.921875-1.71875.25-.613281.4375-1.242187.570312-1.871094.128906-.652343.1875-1.3125.1875-1.960937 0-.648438-.058594-1.308594-.1875-1.949219-.132812-.640625-.320312-1.269531-.570312-1.871094zm0 0"/></svg>