<svg viewBox="-112 0 512 512.00014" xmlns="http://www.w3.org/2000/svg"><path d="m244.050781 405.777344v-43.988282l14.296875-7.800781c8.8125-4.804687 14.285156-14.027343 14.285156-24.066406v-291.3125c0-21.273437-17.308593-38.5820312-38.582031-38.5820312-21.273437 0-38.582031 17.3085942-38.582031 38.5820312v291.3125c0 10.039063 5.472656 19.261719 14.289062 24.066406l14.292969 7.800781v45.640626c0 7.183593 4.308594 13.570312 10.980469 16.265624 24.605469 9.949219 33.558594 19.976563 32.878906 23.136719-.632812 2.957031-8.121094 12.136719-31.921875 25.703125-17.960937 10.238282-36.644531 18.070313-43.226562 19.785156-5.34375 1.394532-8.542969 6.859376-7.152344 12.203126 1.175781 4.496093 5.230469 7.476562 9.671875 7.476562.832031 0 1.683594-.105469 2.53125-.324219 8.972656-2.34375 29.410156-11.125 48.078125-21.765625 37.867187-21.585937 40.660156-34.609375 41.578125-38.890625 4.414062-20.601562-20.796875-35.882812-43.417969-45.242187zm-28.582031-208.726563h18.582031c5.523438 0 10-4.476562 10-10 0-5.519531-4.476562-9.996093-10-9.996093h-18.582031v-41.75h37.164062v107.390624h-18.582031c-5.523437 0-10 4.476563-10 10 0 5.523438 4.476563 10 10 10h18.582031v30.425782h-37.164062zm18.582031-177.027343c10.246094 0 18.582031 8.335937 18.582031 18.585937v76.695313h-37.164062v-76.695313c0-10.246094 8.335938-18.585937 18.582031-18.585937zm-18.582031 309.898437v-16.800781h37.164062v16.800781c0 2.714844-1.480468 5.210937-3.863281 6.511719l-14.71875 8.027344-14.71875-8.027344c-2.382812-1.300782-3.863281-3.796875-3.863281-6.511719zm0 0"/><path d="m149.960938 10.148438c-12.921876-9.761719-29.664063-12.601563-47.144532-7.996094-16.605468 4.378906-32.011718 15.070312-43.371094 30.109375-19.488281 25.792969-22.125 58.183593-8.554687 79.929687l-9.5 10.042969c-9.097656 9.613281-14.105469 22.199219-14.105469 35.433594v48.265625l-13.410156 7.3125c-8.558594 4.667968-13.875 13.625-13.875 23.375v238.09375c0 20.558594 16.726562 37.285156 37.285156 37.285156s37.285156-16.726562 37.285156-37.285156c0-5.523438-4.476562-10-10-10-5.523437 0-10 4.476562-10 10 0 9.527344-7.753906 17.285156-17.285156 17.285156s-17.285156-7.753906-17.285156-17.285156v-72.765625h34.609375c.371094 5.183593 4.683594 9.277343 9.960937 9.277343 5.523438 0 10-4.476562 10-10v-164.605468c0-9.75-5.316406-18.707032-13.875-23.375l-13.410156-7.3125v-48.265625c0-8.101563 3.066406-15.804688 8.632813-21.691407l8.800781-9.300781c8.625 5.914063 18.714844 8.742188 29.214844 8.742188 21.101562 0 43.835937-11.429688 59.496094-32.15625 11.359374-15.039063 17.433593-32.777344 17.105468-49.949219-.34375-18.074219-7.652344-33.40625-20.574218-43.164062zm-129.960938 352.191406h12.285156c5.523438 0 10-4.476563 10-10 0-5.523438-4.476562-10-10-10h-12.285156v-70.136719h34.570312v17.472656h-12.285156c-5.523437 0-10 4.476563-10 10 0 5.523438 4.476563 10 10 10h12.285156v72.273438h-34.570312zm34.570312-125.71875v15.582031h-34.570312v-15.582031c0-2.425782 1.320312-4.65625 3.453125-5.816406l13.832031-7.546876 13.832032 7.546876c2.132812 1.160156 3.453124 3.390624 3.453124 5.816406zm82.902344-145.414063c-17.355468 22.96875-45.394531 31.136719-62.503906 18.210938-17.113281-12.929688-16.917969-42.132813.433594-65.101563 8.671875-11.480468 20.21875-19.585937 32.511718-22.824218 3.738282-.984376 7.394532-1.472657 10.898438-1.472657 7.203125 0 13.765625 2.058594 19.09375 6.085938 7.921875 5.984375 12.410156 15.78125 12.636719 27.589843.242187 12.710938-4.398438 26.035157-13.070313 37.511719zm0 0"/><path d="m72.277344 433.671875c-.359375-.550781-.777344-1.058594-1.238282-1.519531-.460937-.460938-.972656-.878906-1.519531-1.238282-.542969-.363281-1.121093-.671874-1.730469-.921874-.601562-.25-1.230468-.441407-1.871093-.570313-1.289063-.257813-2.621094-.257813-3.910157 0-.628906.128906-1.257812.320313-1.871093.570313-.597657.25-1.179688.558593-1.71875.921874-.550781.359376-1.058594.777344-1.519531 1.238282-.460938.460937-.878907.96875-1.25 1.519531-.359376.539063-.671876 1.121094-.921876 1.730469-.25.601562-.4375 1.230468-.570312 1.871094-.128906.640624-.1875 1.296874-.1875 1.949218 0 .648438.058594 1.308594.1875 1.960938.132812.628906.320312 1.257812.570312 1.867187.25.601563.5625 1.179688.921876 1.722657.371093.546874.789062 1.058593 1.25 1.519531.460937.460937.96875.878906 1.519531 1.25.539062.359375 1.121093.667969 1.71875.917969.613281.25 1.242187.441406 1.871093.570312.648438.132812 1.308594.191406 1.960938.191406.648438 0 1.308594-.058594 1.949219-.191406.640625-.128906 1.269531-.320312 1.871093-.570312.609376-.25 1.1875-.558594 1.730469-.917969.546875-.371094 1.058594-.789063 1.519531-1.25.460938-.460938.878907-.972657 1.238282-1.519531.359375-.542969.671875-1.121094.921875-1.722657.25-.609375.4375-1.238281.570312-1.867187.128907-.652344.199219-1.3125.199219-1.960938 0-.652344-.070312-1.308594-.199219-1.949218-.132812-.640626-.320312-1.269532-.570312-1.871094-.25-.609375-.5625-1.191406-.921875-1.730469zm0 0"/></svg>