<svg viewBox="0 -70 512 512" xmlns="http://www.w3.org/2000/svg"><path d="m243.835938 103.9375h-27.980469c-5.523438 0-10 4.476562-10 10 0 5.519531 4.476562 10 10 10h27.980469c23.824218 0 37.476562 25.777344 37.722656 26.25 1.765625 3.464844 5.277344 5.460938 8.917968 5.460938 1.515626 0 3.058594-.347657 4.503907-1.078126 4.929687-2.492187 6.902343-8.507812 4.410156-13.4375-.769531-1.519531-19.234375-37.195312-55.554687-37.195312zm0 0"/><path d="m251.507812 250.019531c.179688.011719.363282.015625.542969.015625 5.277344 0 9.691407-4.132812 9.976563-9.464844l1.117187-20.894531c.296875-5.515625-3.933593-10.222656-9.449219-10.519531-5.503906-.289062-10.226562 3.9375-10.519531 9.449219l-1.121093 20.894531c-.292969 5.515625 3.9375 10.226562 9.453124 10.519531zm0 0"/><path d="m143.003906 240.570312c.285156 5.332032 4.699219 9.464844 9.976563 9.464844.179687 0 .363281-.003906.542969-.015625 5.515624-.292969 9.75-5.003906 9.453124-10.519531l-1.121093-20.894531c-.292969-5.511719-5.007813-9.746094-10.519531-9.449219-5.515626.292969-9.746094 5.003906-9.449219 10.519531zm0 0"/><path d="m181.410156 105.617188c-.550781-.359376-1.128906-.667969-1.730468-.917969-.601563-.25-1.230469-.441407-1.871094-.570313-3.25-.648437-6.707032.410156-9.027344 2.738282-1.859375 1.863281-2.929688 4.433593-2.929688 7.070312 0 .652344.070313 1.3125.199219 1.953125.128907.636719.320313 1.269531.570313 1.867187.25.601563.558594 1.191407.917968 1.730469.359376.550781.78125 1.0625 1.242188 1.519531 1.859375 1.859376 4.4375 2.929688 7.070312 2.929688.660157 0 1.308594-.070312 1.957032-.199219.640625-.128906 1.269531-.320312 1.871094-.570312.601562-.25 1.179687-.558594 1.730468-.917969.539063-.359375 1.050782-.78125 1.519532-1.242188.460937-.457031.871093-.980468 1.242187-1.519531.359375-.539062.667969-1.128906.917969-1.730469.25-.597656.441406-1.230468.570312-1.867187.128906-.640625.191406-1.300781.191406-1.953125 0-2.628906-1.0625-5.207031-2.921874-7.070312-.46875-.457032-.980469-.878907-1.519532-1.25zm0 0"/><path d="m502 316.164062h-95.800781c-2.207031-11.046874-11.980469-19.394531-23.667969-19.394531h-11.296875l3.351563-90.425781c.296874-8.019531-2.605469-15.617188-8.171876-21.394531-5.566406-5.773438-13.050781-8.957031-21.074218-8.957031h-6.507813c6.699219-10.570313 8.441407-23.304688 4.726563-35.417969-6.621094-21.570313-19.714844-40.0625-37.859375-53.472657-18.144531-13.414062-39.664063-20.5-62.230469-20.5h-100.445312c-19.636719 0-38.023438-9.648437-49.179688-25.8125l-21.792969-31.566406c-5.332031-7.722656-14.933593-11.035156-23.890625-8.242187-8.957031 2.789062-14.976562 10.96875-14.976562 20.351562v76.757813c0 31.742187 15.1875 60.003906 38.675781 77.902344h-9.410156c-8.023438 0-15.507813 3.179687-21.074219 8.957031-5.566406 5.777343-8.46875 13.375-8.171875 21.390625l3.351563 90.464844c-20.28125.753906-36.554688 17.476562-36.554688 37.941406 0 20.941406 17.035156 37.980468 37.980469 37.980468h464.019531c5.523438 0 10-4.476562 10-10v-36.5625c0-5.523437-4.476562-10-10-10zm-448.816406-218.070312v-76.757812c0-.363282 0-.972657.925781-1.261719.199219-.0625.367187-.085938.515625-.085938.554688 0 .804688.359375.96875.597657l21.792969 31.566406c14.890625 21.570312 39.429687 34.449218 65.640625 34.449218h100.441406c37.441406 0 69.980469 24.046876 80.96875 59.84375 2.148438 7 .882812 14.390626-3.46875 20.28125-4.355469 5.886719-11.050781 9.265626-18.371094 9.265626h-171.515625c-42.953125 0-77.898437-34.945313-77.898437-77.898438zm2.59375 100.734375c1.761718-1.828125 4.128906-2.835937 6.671875-2.835937h282.890625c2.542968 0 4.910156 1.007812 6.671875 2.835937 1.765625 1.828125 2.683593 4.234375 2.589843 6.773437l-3.378906 91.167969h-35.777344l2.578126-65.671875c.214843-5.519531-4.082032-10.167968-9.601563-10.382812-5.53125-.222656-10.167969 4.082031-10.382813 9.601562l-2.605468 66.453125h-87.859375v-66.0625c0-5.523437-4.476563-10-10-10-5.523438 0-10 4.476563-10 10v66.0625h-70.667969l-2.605469-66.453125c-.214843-5.519531-4.882812-9.824218-10.386719-9.601562-5.515624.214844-9.816406 4.867187-9.597656 10.382812l2.578125 65.671875h-40.328125l-3.378906-91.167969c-.09375-2.539062.828125-4.945312 2.589844-6.773437zm-35.777344 135.917969c0-9.914063 8.066406-17.976563 17.980469-17.976563h344.554687c2.28125 0 4.136719 1.855469 4.136719 4.136719v31.820312h-348.691406c-9.914063 0-17.980469-8.066406-17.980469-17.980468zm472 17.980468h-85.328125v-16.5625h85.328125zm0 0"/></svg>