<svg viewBox="-33 0 512 512.001" xmlns="http://www.w3.org/2000/svg"><path d="m328.582031 104.386719c-13.140625-1.855469-26.261719-1.804688-39.046875.050781v-58.707031c0-25.214844-20.511718-45.730469-45.726562-45.730469h-198.082032c-25.214843 0-45.726562 20.515625-45.726562 45.730469v420.542969c0 25.214843 20.515625 45.726562 45.730469 45.726562h198.078125c25.214844 0 45.730468-20.511719 45.730468-45.726562v-89.738282c2.339844.34375 4.691407.644532 7.054688.867188 4.296875.40625 8.582031.605468 12.859375.605468 30.785156 0 60.636719-10.390624 85.199219-29.867187 27.964844-22.171875 46.035156-53.707031 50.882812-88.800781 10.34375-74.878906-42.121094-144.386719-116.953125-154.953125zm-308.582031-58.65625c0-12.859375 9.480469-23.542969 21.816406-25.433594 1.273438-.195313 2.582032-.296875 3.910156-.296875h198.082032c1.328125 0 2.636718.101562 3.914062.296875 12.335938 1.890625 21.816406 12.574219 21.816406 25.433594v27.363281h-249.539062zm249.535156 420.539062c0 12.859375-9.476562 23.542969-21.816406 25.433594-1.273438.195313-2.582031.296875-3.910156.296875h-198.082032c-1.328124 0-2.636718-.101562-3.910156-.296875-12.335937-1.890625-21.816406-12.574219-21.816406-25.433594v-27.363281h249.535156zm0-94.164062v46.800781h-249.535156v-325.8125h249.539062v15.808594c-7.214843 2.195312-14.253906 4.992187-21.0625 8.382812-.210937.101563-.417968.207032-.625.3125-.9375.472656-1.871093.957032-2.796874 1.449219-.441407.234375-.886719.46875-1.328126.707031-.457031.25-.90625.511719-1.363281.765625-1.542969.863281-3.070312 1.757813-4.578125 2.679688-.03125.019531-.058594.035156-.089844.054687-4.863281 2.976563-9.542968 6.261719-14.023437 9.839844-.035156.03125-.074219.0625-.113281.089844-1.140625.914062-2.269532 1.847656-3.382813 2.796875-.667969.570312-1.332031 1.136719-1.988281 1.714843-.261719.234376-.523438.472657-.78125.707032-.957031.859375-1.902344 1.730468-2.832031 2.613281-.027344.023437-.054688.050781-.082031.078125-18.785157 17.832031-31.988282 40.339844-38.34375 65.378906-.046876.175782-.089844.351563-.132813.527344-.394531 1.574219-.765625 3.15625-1.105469 4.75-.003906.019531-.007812.035156-.011718.054688-.328126 1.546874-.625 3.101562-.898438 4.660156-.0625.347656-.121094.691406-.179688 1.039062-.261718 1.542969-.507812 3.09375-.71875 4.65625v.011719c-.886718 6.582031-1.300781 13.152344-1.253906 19.675781.023438 2.796875.128906 5.582032.320313 8.359375.070312 1.019531.152343 2.035157.246093 3.046875.753907 8.210938 2.246094 16.316406 4.472657 24.246094 2.746093 9.773438 6.601562 19.277344 11.542969 28.386719.015624.027343.027343.050781.042968.078125.449219.828125.910156 1.65625 1.378906 2.480468 1.277344 2.242188 1.667969 4.898438 1.164063 7.5-.109375.582032-.253906 1.164063-.457031 1.738282l-14.1875 39.871094c-.398438 1.113281-.6875 2.242187-.890625 3.375-1.199219 6.652343.859375 13.453124 5.75 18.382812.449219.449219.917969.871094 1.394531 1.273438.136719.113281.273438.222656.414062.335937.386719.308594.78125.605469 1.1875.886719.113282.078125.226563.164062.34375.242187.503907.335938 1.023438.648438 1.550782.9375.128906.070313.261718.132813.394531.199219.421875.21875.855469.425781 1.289063.613281.160156.070313.320312.140625.480468.207031.554688.222657 1.117188.433594 1.691406.605469.042969.015625.085938.023438.128907.035157.535156.160156 1.078125.296874 1.628906.410156.171875.039062.34375.070312.519531.101562.472656.089844.953125.160156 1.433594.214844.128906.015625.261719.035156.390625.046875.59375.058594 1.191406.085937 1.789063.089844.050781 0 .097656.007812.144531.007812.140625 0 .277343-.015625.417969-.019531.347656-.007812.695312-.019531 1.042968-.042969.207032-.015625.417969-.035156.625-.054687.34375-.035156.683594-.078125 1.023438-.128906.207031-.03125.410156-.0625.613281-.097657.363281-.066406.726563-.148437 1.085937-.230469.179688-.042968.355469-.078124.53125-.125.535157-.140624 1.066407-.296874 1.597657-.480468l47.34375-16.445313c1.261719-.4375 2.582031-.640625 3.898437-.609375 1.3125.03125 2.621094.296875 3.859375.796875 1.347657.539063 2.707031 1.050781 4.078125 1.550781.332032.121094.660156.246094.992188.363282 1.273437.453125 2.554687.890625 3.84375 1.304687.417968.136719.832031.261719 1.25.390625.4375.136719.878906.28125 1.320312.414063zm156.1875-115.503907c-8.113281 58.730469-58.011718 101.417969-116.089844 101.414063-3.691406 0-7.425781-.171875-11.171874-.523437-5.597657-.527344-11.128907-1.449219-16.558594-2.75-.011719 0-.023438-.003907-.03125-.007813-5.59375-1.339844-11.097656-3.09375-16.363282-5.210937-6.960937-2.796876-14.691406-2.980469-21.777343-.519532l-47.34375 16.441406c-.207031.074219-.550781.191407-.960938-.21875-.410156-.414062-.289062-.757812-.214843-.964843l14.191406-39.871094c1.148437-3.234375 1.757812-6.578125 1.832031-9.90625.125-5.550781-1.226563-11.058594-4.003906-15.9375-11.085938-19.464844-16.273438-41.152344-15.238281-63.289063.160156-3.464843.460937-6.9375.929687-10.417968 0-.003906 0-.007813 0-.011719.1875-1.382813.402344-2.757813.636719-4.125.03125-.179687.0625-.359375.09375-.539063 8.050781-45.515624 42.976562-82.910156 88.238281-93.867187.125-.027344.242187-.070313.367187-.105469 8.777344-2.085937 17.796876-3.167968 26.921876-3.167968 5.511718 0 11.058593.386718 16.609374 1.171874 63.941407 9.023438 108.773438 68.421876 99.933594 132.40625zm0 0"/><path d="m310.246094 137.992188c-7.808594 0-15.59375.886718-23.132813 2.632812-5.382812 1.246094-8.734375 6.621094-7.484375 12 1.246094 5.382812 6.625 8.730469 12 7.484375 6.0625-1.40625 12.328125-2.117187 18.617188-2.117187 45.261718 0 82.082031 36.820312 82.082031 82.082031s-36.820313 82.082031-82.082031 82.082031c-45.261719 0-82.082032-36.820312-82.082032-82.082031 0-14.988281 4.074219-29.652344 11.78125-42.402344 2.859376-4.726563 1.34375-10.871094-3.382812-13.730469-4.730469-2.859375-10.871094-1.339844-13.730469 3.382813-9.597656 15.871093-14.667969 34.113281-14.667969 52.75 0 56.289062 45.792969 102.082031 102.082032 102.082031 56.289062 0 102.082031-45.792969 102.082031-102.082031 0-56.289063-45.792969-102.082031-102.082031-102.082031zm0 0"/><path d="m279.925781 295.828125c2.894531 3.199219 6.933594 4.96875 11.15625 4.96875.839844 0 1.6875-.070313 2.535157-.210937 5.121093-.863282 9.386718-4.230469 11.417968-9.007813 1.875-4.414063 3.398438-8.472656 4.535156-12.058594.09375-.292969.367188-.492187.679688-.492187.316406 0 .589844.199218.683594.492187 1.140625 3.597657 2.664062 7.65625 4.535156 12.058594 2.03125 4.777344 6.296875 8.144531 11.417969 9.007813 5.109375.855468 10.222656-.921876 13.691406-4.757813 18.421875-20.378906 27.636719-51.300781 22.925781-76.949219-2.027344-11.042968-6.582031-19.875-12.820312-24.871094-11.710938-9.375-22.324219-5.851562-30.074219-3.28125-3.523437 1.171876-6.855469 2.277344-10.355469 2.371094-3.503906-.09375-6.835937-1.199218-10.359375-2.371094-7.746093-2.570312-18.359375-6.09375-30.074219 3.28125-6.238281 4.996094-10.792968 13.828126-12.820312 24.871094-4.710938 25.644532 4.503906 56.570313 22.925781 76.949219zm-3.253906-73.335937c1.324219-7.222657 3.871094-11.445313 5.644531-12.871094 1.460938-1.167969 2.523438-1.722656 4.027344-1.722656 1.59375 0 3.679688.625 7.25 1.8125 4.394531 1.457031 9.863281 3.273437 16.480469 3.390624h.351562c6.617188-.117187 12.085938-1.933593 16.484375-3.390624 6.933594-2.300782 8.265625-2.496094 11.273438-.089844 1.777344 1.425781 4.320312 5.648437 5.648437 12.871094 3.128907 17.042968-2.136719 37.980468-12.992187 53.503906-.304688-.875-.585938-1.710938-.835938-2.503906-2.738281-8.652344-10.675781-14.464844-19.753906-14.464844s-17.015625 5.8125-19.753906 14.464844c-.25.800781-.53125 1.636718-.835938 2.503906-10.851562-15.523438-16.121094-36.460938-12.988281-53.503906zm0 0"/><path d="m246.242188 169.878906c.25.601563.558593 1.179688.917968 1.722656.359375.546876.78125 1.058594 1.242188 1.519532 1.859375 1.859375 4.4375 2.929687 7.066406 2.929687.652344 0 1.3125-.070312 1.960938-.199219.628906-.121093 1.261718-.320312 1.871093-.570312.601563-.25 1.179688-.5625 1.71875-.921875.550781-.359375 1.0625-.78125 1.523438-1.238281.457031-.460938.878906-.972656 1.238281-1.519532.371094-.542968.671875-1.121093.921875-1.722656.25-.609375.449219-1.238281.566406-1.878906.132813-.640625.199219-1.300781.199219-1.949219 0-2.628906-1.066406-5.210937-2.929688-7.070312-.457031-.460938-.96875-.878907-1.519531-1.242188-.539062-.359375-1.121093-.667969-1.71875-.917969-.609375-.25-1.242187-.449218-1.871093-.570312-1.289063-.261719-2.621094-.261719-3.910157 0-.640625.121094-1.269531.320312-1.871093.570312-.609376.25-1.1875.558594-1.726563.917969-.550781.363281-1.0625.78125-1.523437 1.242188-1.859376 1.859375-2.929688 4.441406-2.929688 7.070312 0 .648438.070312 1.308594.199219 1.949219.125.640625.324219 1.269531.574219 1.878906zm0 0"/><path d="m179.726562 37.191406h-69.917968c-5.519532 0-10 4.476563-10 10 0 5.523438 4.480468 10 10 10h69.917968c5.523438 0 10-4.476562 10-10 0-5.523437-4.476562-10-10-10zm0 0"/><path d="m135.929688 477.605469h17.679687c5.519531 0 10-4.476563 10-10 0-5.523438-4.480469-10-10-10h-17.679687c-5.523438 0-10 4.476562-10 10 0 5.523437 4.476562 10 10 10zm0 0"/><path d="m130.757812 126h-53.105468c-22.578125 0-40.945313 18.367188-40.945313 40.945312 0 13.464844 6.625 26.070313 17.726563 33.726563.144531.097656.230468.230469.230468.359375v13.597656c0 5.378906 2.96875 10.257813 7.75 12.726563 2.082032 1.074219 4.335938 1.601562 6.578126 1.601562 2.914062 0 5.808593-.894531 8.289062-2.65625l25.90625-18.40625h27.574219c22.578125 0 40.945312-18.371093 40.945312-40.949219 0-22.578124-18.371093-40.945312-40.949219-40.945312zm0 61.894531h-30.46875c-2.28125 0-4.472656.699219-6.324218 2.015625l-19.304688 13.71875v-2.597656c0-6.707031-3.316406-13-8.875-16.828125-5.6875-3.917969-9.078125-10.371094-9.078125-17.257813 0-11.546874 9.394531-20.945312 20.945313-20.945312h53.105468c11.550782 0 20.949219 9.398438 20.949219 20.945312 0 11.550782-9.398437 20.949219-20.949219 20.949219zm0 0"/><path d="m130.757812 272.453125h-53.105468c-22.578125 0-40.945313 18.367187-40.945313 40.945313 0 13.464843 6.625 26.070312 17.726563 33.722656.144531.101562.230468.234375.230468.363281v13.59375c0 5.382813 2.96875 10.261719 7.75 12.730469 2.082032 1.074218 4.335938 1.601562 6.578126 1.601562 2.914062 0 5.808593-.894531 8.289062-2.65625l25.90625-18.40625h27.574219c22.578125 0 40.945312-18.371094 40.945312-40.949218 0-22.578126-18.371093-40.945313-40.949219-40.945313zm0 61.894531h-30.46875c-2.28125 0-4.472656.699219-6.324218 2.019532l-19.304688 13.714843v-2.597656c0-6.707031-3.316406-13-8.875-16.828125-5.6875-3.917969-9.078125-10.371094-9.078125-17.253906 0-11.550782 9.394531-20.949219 20.945313-20.949219h53.105468c11.550782 0 20.949219 9.398437 20.949219 20.949219 0 11.550781-9.398437 20.945312-20.949219 20.945312zm0 0"/></svg>