<svg viewBox="-44 0 511 511.9959" xmlns="http://www.w3.org/2000/svg"><path d="m398.082031 55.71875-18.207031-13.570312c-4.414062-3.289063-10.652344-2.390626-13.960938 2l-24.113281 32c-1.609375 2.140624-2.296875 4.835937-1.902343 7.484374.390624 2.648438 1.828124 5.027344 3.992187 6.605469l1.78125 1.304688c5.386719 3.972656 8.476563 10.089843 8.476563 16.78125 0 4.53125-1.449219 8.847656-4.1875 12.488281-4.308594 5.71875-11.40625 8.855469-18.542969 8.1875l-32.210938-3.03125-18.707031-26.355469c-4.207031-5.9375-5.027344-13.476562-2.183594-20.171875 3.269532-7.699218 10.78125-12.675781 19.144532-12.675781 2.859374 0 5.660156.59375 8.351562 1.773437l2.070312.898438c2.449219 1.0625 5.214844 1.105469 7.695313.117188 2.472656-.988282 4.453125-2.925782 5.496094-5.378907l15.648437-36.882812c2.152344-5.0625-.195312-10.914063-5.25-13.089844l-20.859375-8.980469c-31.285156-13.46875-67.511719-.042968-82.464843 30.5625l-15.332032 31.363282c-4.0625 8.320312-4.265625 17.960937-.558594 26.449218l11.03125 25.269532c-31.386718-2.257813-62.207031 11.945312-80.824218 37.390624l-31.503906 43.054688c0 .003906-.003907.003906-.003907.003906l-34.0625 46.546875c-3.261719 4.457031-2.289062 10.714844 2.164063 13.976563 4.457031 3.261718 10.714844 2.292968 13.976562-2.164063l28.796875-39.355469 29.992188 17.316407-115.328125 155.382812c-1.265625 1.703125-2.976563 1.800781-3.882813 1.707031s-2.5625-.542968-3.445312-2.472656l-6.242188-13.59375c-4.035156-8.777344-2.992187-19.078125 2.726563-26.878906l26.078125-35.648438c3.261719-4.457031 2.289062-10.714843-2.167969-13.976562s-10.714844-2.289062-13.976562 2.167969l-26.074219 35.644531c-9.996094 13.644531-11.820313 31.671875-4.761719 47.039062l6.242188 13.589844c3.617187 7.878906 10.921874 13.117188 19.542968 14.019532.871094.089843 1.738282.132812 2.597656.132812 7.65625 0 14.78125-3.554688 19.425782-9.816406l121.878906-164.203125c.007812-.007813.011719-.015625.015625-.023438l20.207031-27.222656c3.398438-4.574219 8.582032-7.554687 14.230469-8.1875l48.859375-5.496094 19.664062 45.042969c2.273438 5.21875 2.28125 11.203125.019532 16.421875l-93.980469 217.023437-.761719 1.765626v.003906c-3.449218 7.960937-2.46875 16.90625 2.628906 23.925781 4.628907 6.375 11.816407 10.011719 19.558594 10.011719.777344 0 1.5625-.039063 2.347656-.109375l14.882813-1.390625c16.832031-1.5625 31.53125-12.152344 38.363281-27.628906l69.378906-157.246094c0-.003906.003907-.007813.003907-.011719l21.515625-48.746094v-.003906c12.730468-28.859375 9.613281-62.648437-8.039063-88.683594l27.414063-3.082031c9.203125-1.039062 17.445312-6.039062 22.617187-13.71875l19.492188-28.949219c19.019531-28.25 12.535156-66.335937-14.773438-86.707031zm-191.417969 127.707031c-11.132812 1.242188-21.359374 7.121094-28.058593 16.136719l-14.777344 19.910156-30.113281-17.386718 24.890625-34.019532c14.867187-20.320312 39.695312-31.484375 64.765625-29.136718l9.046875.851562 16.957031 38.839844zm35.507813 291.371094c-3.902344 8.847656-12.300781 14.898437-21.917969 15.789063l-14.898437 1.390624c-2.121094.199219-3.320313-1.003906-3.851563-1.738281-.539062-.742187-1.3125-2.273437-.464844-4.230469l76.902344-177.558593 29.988282 17.316406zm90.898437-206.003906-17.019531 38.566406-30.117187-17.386719 9.851562-22.757812c4.457032-10.285156 4.441406-22.078125-.039062-32.363282l-65.160156-149.257812c-1.355469-3.105469-1.28125-6.628906.199218-9.664062l15.332032-31.363282c10.261718-21.003906 35.117187-30.21875 56.589843-20.972656l11.722657 5.046875-8.109376 19.105469c-2.898437-.652344-5.859374-.980469-8.859374-.980469-16.40625 0-31.144532 9.761719-37.550782 24.859375-5.574218 13.125-3.976562 27.910156 4.277344 39.558594l61.730469 86.957031c14.574219 20.53125 17.316406 47.605469 7.152343 70.652344zm63.191407-137.53125-19.488281 28.945312c-1.894532 2.808594-4.910157 4.636719-8.273438 5.019531l-38.359375 4.3125-15.648437-22.046874 15.050781 1.417968c13.984375 1.316406 27.941406-4.84375 36.390625-16.070312 5.375-7.132813 8.214844-15.609375 8.214844-24.515625 0-10.257813-3.914063-20.121094-10.753907-27.601563l12.503907-16.59375 10.226562 7.621094c18.742188 13.980469 23.195312 40.121094 10.136719 59.511719zm0 0"/><path d="m289.960938 158.273438c-.25-.597657-.558594-1.179688-.921876-1.730469-.359374-.539063-.777343-1.058594-1.238281-1.519531-.460937-.460938-.96875-.878907-1.519531-1.238282-.539062-.359375-1.121094-.671875-1.730469-.921875-.597656-.25-1.226562-.4375-1.871093-.570312-1.289063-.257813-2.617188-.257813-3.90625 0-.632813.132812-1.261719.320312-1.871094.570312-.601563.25-1.179688.5625-1.722656.921875-.546876.359375-1.058594.777344-1.519532 1.238282-.457031.460937-.878906.980468-1.25 1.519531-.359375.550781-.667968 1.132812-.917968 1.730469-.25.601562-.441407 1.230468-.570313 1.871093-.121094.648438-.1875 1.300781-.1875 1.949219 0 .660156.066406 1.308594.1875 1.960938.128906.640624.320313 1.269531.570313 1.871093.25.597657.558593 1.179688.917968 1.726563.371094.542968.792969 1.050781 1.25 1.523437.460938.457031.972656.867188 1.519532 1.238281.542968.359376 1.121093.667969 1.722656.917969.609375.25 1.238281.441407 1.871094.570313.648437.132812 1.308593.191406 1.960937.191406.648437 0 1.308594-.058594 1.945313-.191406.644531-.128906 1.273437-.320313 1.871093-.570313.609375-.25 1.191407-.558593 1.730469-.917969.550781-.371093 1.058594-.78125 1.519531-1.238281.460938-.472656.878907-.980469 1.238281-1.523437.363282-.546875.671876-1.128906.921876-1.726563.25-.601562.441406-1.230469.570312-1.871093.128906-.652344.199219-1.300782.199219-1.960938 0-.648438-.070313-1.300781-.199219-1.949219-.128906-.640625-.320312-1.269531-.570312-1.871093zm0 0"/><path d="m54.9375 284.011719c.25.609375.5625 1.1875.921875 1.726562.367187.550781.789063 1.0625 1.25 1.523438.460937.457031.96875.878906 1.519531 1.238281.539063.359375 1.117188.667969 1.71875.917969.609375.25 1.238282.441406 1.871094.570312.648438.132813 1.308594.203125 1.957031.203125.652344 0 1.3125-.070312 1.953125-.203125.636719-.128906 1.269532-.320312 1.867188-.570312.613281-.25 1.191406-.558594 1.730468-.917969.550782-.359375 1.0625-.78125 1.519532-1.238281.460937-.460938.878906-.972657 1.242187-1.523438.355469-.539062.667969-1.117187.917969-1.726562.25-.601563.4375-1.230469.570312-1.871094.128907-.640625.199219-1.300781.199219-1.949219 0-.652344-.070312-1.3125-.199219-1.960937-.132812-.640625-.320312-1.261719-.570312-1.871094-.25-.597656-.5625-1.179687-.917969-1.71875-.363281-.550781-.78125-1.0625-1.242187-1.519531-.460938-.460938-.96875-.882813-1.519532-1.25-.539062-.359375-1.117187-.671875-1.730468-.921875-.597656-.25-1.230469-.4375-1.867188-.570313-1.292968-.257812-2.621094-.257812-3.910156 0-.632812.132813-1.261719.320313-1.871094.570313-.601562.25-1.179687.5625-1.71875.921875-.550781.367187-1.0625.789062-1.519531 1.25-.460937.457031-.882813.96875-1.25 1.519531-.359375.539063-.671875 1.121094-.921875 1.71875-.25.609375-.4375 1.230469-.570312 1.871094-.128907.648437-.1875 1.308593-.1875 1.960937 0 .648438.058593 1.308594.1875 1.949219.132812.640625.320312 1.269531.570312 1.871094zm0 0"/></svg>