<svg viewBox="0 -24 511.99995 511" xmlns="http://www.w3.org/2000/svg"><path d="m511.996094 175.542969c-.027344-8.867188-3.902344-17.277344-10.628906-23.074219-6.742188-5.8125-15.65625-8.414062-24.460938-7.128906l-15.910156 2.308594c-26.199219 3.808593-52.910156-2.78125-75.214844-18.550782l-22.816406-16.121094c-6.679688-4.71875-15.648438-4.714843-22.308594 0l-22.8125 16.121094c-6.949219 4.910156-14.304688 8.933594-21.980469 12.035156 1.917969-21.46875 1.132813-42.445312-2.355469-61.425781-5.382812-29.382812-16.871093-52.390625-32.347656-64.789062-27.515625-22.011719-51.042968-14.207031-73.792968-6.65625-12.128907 4.023437-24.667969 8.1875-38.933594 8.464843-14.265625-.277343-26.804688-4.441406-38.933594-8.464843-22.75-7.550781-46.28125-15.355469-73.792969 6.660156-15.460937 12.382813-26.945312 35.390625-32.34375 64.78125-6.347656 34.5625-3.652343 75.066406 7.59375 114.054687 11.824219 41.007813 32.121094 78.226563 58.707031 107.636719 5.945313 6.566407 14.714844 9.601563 23.460938 8.128907 8.792969-1.484376 16.117188-7.265626 19.589844-15.457032 5.605468-13.1875 10.125-25.1875 13.4375-35.675781 3.074218-9.75 12.03125-16.300781 22.28125-16.300781 5.015625 0 9.789062 1.558594 13.824218 4.515625 4.039063 2.953125 6.96875 7.027343 8.472657 11.785156 3.328125 10.546875 7.84375 22.546875 13.425781 35.675781 2.992188 7.042969 8.890625 12.378906 16.183594 14.640625 2.554687.792969 5.171875 1.183594 7.773437 1.183594.507813 0 1.011719-.023437 1.519531-.050781 9.140626 30.84375 21.605469 57.855468 37.140626 80.382812 21.078124 30.566406 47.964843 53.148438 79.910156 67.125 7.988281 3.488282 16.554687 5.230469 25.128906 5.230469 8.570312 0 17.148438-1.742187 25.136719-5.230469 53.675781-23.484375 92.175781-70.253906 114.4375-139.007812 18.15625-56.089844 20.707031-113.542969 20.609375-142.796875zm-309.433594 110.699219c-5.328125-12.539063-9.621094-23.933594-12.757812-33.871094-2.796876-8.851563-8.242188-16.433594-15.734376-21.90625-7.476562-5.476563-16.339843-8.375-25.632812-8.375-19.023438 0-35.644531 12.171875-41.359375 30.28125-3.117187 9.878906-7.414063 21.273437-12.769531 33.878906-1.152344 2.714844-3.539063 3.386719-4.507813 3.550781-.953125.164063-3.375.304688-5.300781-1.820312-48.46875-53.621094-73.746094-137.78125-61.464844-204.660157 4.464844-24.308593 13.640625-43.546874 25.171875-52.78125 9.210938-7.371093 17.3125-10.058593 25.675781-10.058593 8.921876 0 18.144532 3.058593 29.320313 6.765625 12.972656 4.304687 27.671875 9.183594 45.058594 9.484375h.347656c17.390625-.300781 32.089844-5.179688 45.058594-9.484375 21.660156-7.183594 35.96875-11.933594 54.992187 3.289062 11.546875 9.25 20.722656 28.488282 25.175782 52.785156 3.585937 19.488282 4.019531 41.410157 1.292968 63.792969-.070312.011719-.144531.027344-.21875.039063-1.171875.210937-2.347656.394531-3.527344.5625-.226562.03125-.453124.0625-.675781.09375-1.207031.160156-2.414062.308594-3.625.425781-.046875.003906-.09375.007813-.136719.011719-1.183593.113281-2.367187.199218-3.550781.273437-.214843.011719-.433593.027344-.652343.039063-1.175782.0625-2.351563.105468-3.53125.128906-.230469.003906-.460938.007812-.691407.007812-1.21875.015626-2.433593.015626-3.652343-.011718-.023438 0-.042969-.003906-.0625-.003906-1.207032-.027344-2.414063-.085938-3.625-.160157-.222657-.011719-.445313-.023437-.667969-.039062-1.179688-.078125-2.363281-.179688-3.542969-.296875-.226562-.023438-.453125-.050782-.675781-.074219-1.226563-.132813-2.453125-.28125-3.675781-.457031l-15.90625-2.3125c-8.808594-1.28125-17.714844 1.316406-24.457032 7.125-6.722656 5.800781-10.597656 14.210937-10.625 23.082031-.003906.914063-.003906 1.84375-.003906 2.785156.003906.277344.003906.558594.003906.835938.003906.675781.007813 1.351562.011719 2.042969.003906.332031.007813.675781.007813 1.015624.007812.644532.015624 1.289063.023437 1.945313.003906.371094.011719.742187.015625 1.113281.011719.636719.019531 1.277344.035156 1.921875.007813.398438.015625.804688.023438 1.207031.011718.625.027344 1.257813.042968 1.894532.011719.425781.023438.855468.035157 1.289062.019531.632813.035156 1.273438.054687 1.917969.015625.429687.027344.859375.042969 1.292969.023437.664062.046875 1.339844.074219 2.015625.015625.421875.027344.84375.046875 1.269531.027343.703125.058593 1.410156.089843 2.121094.015626.414062.035157.824218.054688 1.238281.035156.753906.070312 1.511719.109375 2.273437.019531.386719.039063.765626.058594 1.152344.042969.851563.09375 1.707032.144531 2.570313.015625.308593.03125.613281.050781.921875.140625 2.363281.296875 4.761718.476563 7.203125.019531.289062.042968.578125.066406.867187.070312.925782.140625 1.851563.214844 2.789063.035156.421875.070312.847656.105468 1.273437.066407.808594.132813 1.621094.207032 2.433594.042968.480469.085937.960938.128906 1.441406.070312.773438.140625 1.550782.214844 2.332032.046875.507812.097656 1.019531.148437 1.53125.074219.757812.152344 1.523437.230469 2.289062.054688.53125.109375 1.058594.167969 1.589844.078125.761718.160156 1.523437.246093 2.289062.0625.539063.121094 1.082032.183594 1.625.085938.765625.175782 1.53125.265625 2.300782.066407.550781.132813 1.101562.199219 1.652343.09375.777344.195312 1.558594.292969 2.339844.070312.546875.136719 1.089844.210937 1.640625.105469.8125.214844 1.632812.328125 2.449219.070313.523437.136719 1.039062.210938 1.5625.125.910156.257812 1.828125.390625 2.742187.0625.433594.121094.863282.1875 1.296875.183594 1.246094.375 2.5.570312 3.753907.015625.113281.03125.222656.050782.335937.214843 1.367187.4375 2.742187.667968 4.125.066406.394531.136719.792969.203125 1.191406.164063.984375.332031 1.96875.503907 2.957031.089843.507813.183593 1.019532.273437 1.523438.160156.882812.316406 1.761719.480469 2.644531.105468.5625.214844 1.128907.320312 1.691407.15625.835937.316406 1.675781.480469 2.515624.113281.582032.230469 1.167969.347656 1.753907.164063.824219.332031 1.648437.5 2.472656.125.601563.25 1.199219.375 1.800781.175781.820313.351563 1.644532.527344 2.46875.128906.597656.261719 1.195313.394531 1.792969.183594.835937.371094 1.671875.5625 2.511719.132813.589844.269532 1.179687.40625 1.769531.066406.292969.132813.585937.199219.882813-.5-.496094-.972656-1.136719-1.328125-1.96875zm166.375 152.777343c-10.882812 4.753907-23.363281 4.753907-34.242188 0-52.636718-23.027343-89.144531-71.523437-108.511718-144.144531-12.847656-48.125-14.632813-95.378906-14.554688-119.265625.011719-3.117187 1.320313-5.957031 3.6875-7.996094.273438-.238281.5625-.457031.851563-.660156.09375-.066406.191406-.125.289062-.191406.199219-.132813.40625-.257813.613281-.378907.113282-.0625.230469-.125.347657-.183593.199219-.105469.402343-.203125.605469-.292969.121093-.050781.238281-.105469.359374-.152344.222657-.089844.449219-.164062.675782-.238281.105468-.03125.207031-.070313.3125-.101563.332031-.09375.667968-.171874 1.007812-.234374.050782-.007813.101563-.011719.152344-.019532.292969-.046875.589844-.085937.890625-.109375.117187-.007812.238281-.007812.355469-.015625.25-.011718.5-.015625.753906-.007812.085938 0 .175781.003906.265625.007812.34375.019532.6875.046875 1.035156.097656l15.914063 2.308594c10.59375 1.535156 21.21875 1.671875 31.738281.425782.171875-.019532.34375-.035157.519531-.054688.304688-.039062.609375-.085938.917969-.125 3.578125-.46875 7.144531-1.089844 10.691406-1.878906.050781-.011719.097657-.023438.148438-.035156.90625-.203126 1.816406-.414063 2.722656-.640626h.007813.003906s.003906 0 .003906-.003906c15.285156-3.765625 29.714844-10.390625 42.886719-19.699218l22.425781-15.847657 22.425781 15.847657c26.507813 18.738281 58.335938 26.558593 89.632813 22.011718l15.917968-2.3125c3.109376-.453125 6.136719.429688 8.519532 2.484375 2.367187 2.042969 3.679687 4.882813 3.6875 7.992188v.003906c.207031 62.921875-11.367188 214.546875-123.058594 263.410156zm0 0"/><path d="m419.121094 253.292969h-32.671875c-1.058594 0-1.917969-.863281-1.917969-1.921875v-32.679688c0-8.355468-6.796875-15.152344-15.152344-15.152344h-35.132812c-8.359375 0-15.160156 6.796876-15.160156 15.152344v32.679688c0 1.058594-.855469 1.921875-1.910157 1.921875h-32.679687c-8.355469 0-15.152344 6.796875-15.152344 15.152343v35.128907c0 8.363281 6.796875 15.164062 15.152344 15.164062h32.679687c1.054688 0 1.910157.855469 1.910157 1.910157v32.679687c0 8.355469 6.800781 15.152344 15.160156 15.152344h35.132812c8.355469 0 15.152344-6.796875 15.152344-15.152344v-32.679687c0-1.054688.859375-1.910157 1.917969-1.910157h32.671875c8.359375 0 15.164062-6.800781 15.164062-15.164062v-35.128907c0-8.355468-6.804687-15.152343-15.164062-15.152343zm-4.839844 45.441406h-27.832031c-12.085938 0-21.917969 9.828125-21.917969 21.910156v27.832031h-25.445312v-27.832031c0-12.082031-9.828126-21.910156-21.910157-21.910156h-27.832031v-25.441406h27.832031c12.082031 0 21.910157-9.832031 21.910157-21.921875v-27.832032h25.445312v27.832032c0 12.089844 9.832031 21.921875 21.917969 21.921875h27.832031zm0 0"/><path d="m74.667969 152.789062c-13.703125-54.535156 5.730469-90.820312 6.03125-91.371093 2.6875-4.804688.984375-10.878907-3.816407-13.589844-4.804687-2.710937-10.90625-1.011719-13.621093 3.796875-.980469 1.734375-23.785157 43.203125-7.992188 106.039062 1.144531 4.539063 5.21875 7.5625 9.691407 7.5625.808593 0 1.628906-.097656 2.445312-.304687 5.359375-1.34375 8.609375-6.777344 7.261719-12.132813zm0 0"/><path d="m77.972656 178.546875c-5.523437 0-10.003906 4.476563-10.003906 10v.027344c0 5.523437 4.480469 9.988281 10.003906 9.988281 5.523438 0 10-4.492188 10-10.015625 0-5.519531-4.476562-10-10-10zm0 0"/></svg>