<svg viewBox="-129 0 512 512.00077" xmlns="http://www.w3.org/2000/svg"><path d="m233.34375 139.960938-14.980469-5.117188c-18.203125-6.21875-37.019531-10.574219-56.0625-12.996094v-15.292968c7.214844-.371094 12.972657-6.339844 12.972657-13.640626v-62.589843c0-10.800781-6.78125-20.636719-16.878907-24.472657-20.527343-7.800781-43.136719-7.800781-63.664062 0-10.097657 3.835938-16.882813 13.671876-16.882813 24.472657v62.589843c0 7.300782 5.761719 13.269532 12.976563 13.640626v15.292968c-19.042969 2.421875-37.859375 6.777344-56.0625 12.996094l-14.980469 5.121094c-11.828125 4.042968-19.77734375 15.15625-19.77734375 27.648437v79.421875c0 10.566406 6.73828175 19.886719 16.77343775 23.195313l6.816406 2.25v110.917969l-2.777344.917968c-12.449218 4.097656-20.81249975 15.664063-20.81249975 28.777344v42.882812c0 .027344-.00390625.054688-.00390625.078126 0 .027343.00390625.050781.00390625.078124v28.039063c0 15.34375 12.48046875 27.828125 27.82031275 27.828125h197.476562c15.339844 0 27.820313-12.484375 27.820313-27.828125v-71.078125c0-13.113281-8.363282-24.679688-20.808594-28.777344l-2.78125-.917968v-110.921876l6.824219-2.246093c10.027343-3.308594 16.765625-12.628907 16.765625-23.195313v-48.144531c0-.058594.003906-.113281 0-.167969v-31.109375c0-12.496093-7.949219-23.605469-19.777344-27.652343zm-135.496094-109.636719c0-2.550781 1.601563-4.871094 3.984375-5.777344 15.945313-6.058594 33.511719-6.058594 49.457031 0 2.382813.90625 3.984376 3.226563 3.984376 5.777344v56.265625h-2.875c-.035157 0-.066407-.003906-.097657-.003906h-51.480469c-.03125 0-.0625.003906-.097656.003906h-2.875zm44.453125 76.265625v13.433594c-.351562-.019532-.699219-.023438-1.050781-.042969-1.648438-.085938-3.300781-.148438-4.949219-.203125-.804687-.027344-1.609375-.066406-2.414062-.085938-2.382813-.0625-4.765625-.097656-7.148438-.097656-.058593 0-.117187-.003906-.175781-.003906s-.113281.003906-.171875.003906c-2.382813 0-4.769531.035156-7.15625.097656-.800781.019532-1.601563.058594-2.40625.082032-1.652344.058593-3.308594.121093-4.960937.207031-.347657.019531-.695313.023437-1.046876.042969v-13.433594zm90.820313 76.605468c-58.777344-25.800781-105.480469-21.355468-107.59375-21.136718-5.484375.566406-9.460938 5.46875-8.90625 10.957031.558594 5.484375 5.464844 9.492187 10.949218 8.9375.488282-.046875 48.078126-4.382813 105.550782 23.253906v41.828125c0 1.914063-1.21875 3.605469-3.03125 4.203125l-13.6875 4.507813c-4.101563 1.351562-6.871094 5.179687-6.871094 9.5v125.386718c0 4.316407 2.769531 8.144532 6.867188 9.5l9.652343 3.179688c4.230469 1.390625 7.070313 5.324219 7.070313 9.78125v71.078125c0 4.316406-3.507813 7.832031-7.820313 7.832031h-197.480469c-4.308593 0-7.816406-3.515625-7.816406-7.832031v-18.117187h161.894532c5.523437 0 10-4.476563 10-10 0-5.519532-4.476563-10-10-10h-161.894532v-32.960938c0-4.457031 2.839844-8.390625 7.066406-9.78125l9.652344-3.179688c4.097656-1.351562 6.871094-5.183593 6.871094-9.5v-125.386718c0-4.316406-2.773438-8.148438-6.871094-9.5l-13.6875-4.507813c-1.8125-.597656-3.03125-2.289062-3.03125-4.203125v-79.417968c0-3.941407 2.507813-7.453126 6.242188-8.726563l14.976562-5.121094c19.605469-6.695312 39.972656-11.074219 60.535156-13.015625 8.230469-.777344 16.515626-1.164062 24.804688-1.164062 5.925781 0 11.855469.207031 17.761719.605468.285156.019532.570312.027344.855469.046876.675781.050781 1.351562.117187 2.027343.167968 1.386719.109375 2.773438.210938 4.15625.34375 20.566407 1.941406 40.933594 6.324219 60.53125 13.015625l14.980469 5.121094c3.734375 1.277344 6.242188 4.785156 6.242188 8.726563v15.578124zm0 0"/><path d="m69.410156 240.3125c-10.820312 4.949219-17.808594 15.847656-17.808594 27.761719v105.160156c0 11.902344 9.679688 21.589844 21.578126 21.589844h106.757812c11.902344 0 21.582031-9.6875 21.582031-21.589844v-105.160156c0-11.914063-6.992187-22.8125-17.863281-27.789063l-.246094-.109375c-36.128906-16.570312-77.570312-16.570312-113.636718-.027343zm2.191406 27.761719c0-4.113281 2.40625-7.875 6.074219-9.554688l.375-.164062c15.40625-7.066407 31.945313-10.601563 48.492188-10.601563 16.566406 0 33.136719 3.539063 48.589843 10.625l.257813.117188c3.722656 1.703125 6.128906 5.460937 6.128906 9.578125v105.15625c0 .878906-.707031 1.589843-1.578125 1.589843h-106.761718c-.871094 0-1.578126-.710937-1.578126-1.589843zm0 0"/><path d="m80.011719 183.964844c.539062.359375 1.117187.667968 1.730469.917968.597656.25 1.226562.441407 1.867187.570313.640625.132813 1.300781.203125 1.949219.203125 2.632812 0 5.210937-1.070312 7.070312-2.933594 1.863282-1.859375 2.929688-4.4375 2.929688-7.066406 0-2.632812-1.066406-5.210938-2.929688-7.070312-2.320312-2.320313-5.769531-3.390626-9.019531-2.742188-.640625.132812-1.269531.332031-1.867187.582031-.613282.25-1.191407.550781-1.730469.910157-.550781.367187-1.0625.789062-1.519531 1.25-1.863282 1.859374-2.933594 4.4375-2.933594 7.070312 0 2.628906 1.070312 5.207031 2.933594 7.066406.457031.460938.96875.882813 1.519531 1.242188zm0 0"/></svg>