<svg viewBox="0 -24 512.00094 512" xmlns="http://www.w3.org/2000/svg"><path d="m204.601562 213.457031c.597657-.25 1.179688-.5625 1.71875-.921875.550782-.359375 1.058594-.777344 1.519532-1.238281 1.859375-1.859375 2.929687-4.441406 2.929687-7.070313 0-.648437-.058593-1.308593-.1875-1.949218-.132812-.640625-.320312-1.269532-.570312-1.871094-.25-.609375-.5625-1.191406-.921875-1.730469-.371094-.550781-.789063-1.058593-1.25-1.519531-.460938-.460938-.96875-.878906-1.519532-1.238281-.539062-.371094-1.121093-.671875-1.71875-.921875-.609374-.25-1.242187-.449219-1.871093-.578125-1.289063-.261719-2.621094-.25-3.910157 0-.640624.128906-1.269531.328125-1.871093.578125-.609375.25-1.1875.550781-1.730469.921875-.546875.359375-1.058594.777343-1.519531 1.238281-.457031.460938-.878907.96875-1.238281 1.519531-.359376.539063-.671876 1.121094-.921876 1.730469-.25.601562-.4375 1.230469-.570312 1.871094-.128906.640625-.199219 1.300781-.199219 1.949218 0 .648438.070313 1.308594.199219 1.949219.132812.640625.320312 1.269531.570312 1.878907.25.601562.5625 1.179687.921876 1.722656.359374.550781.78125 1.058594 1.238281 1.519531.460937.460937.972656.878906 1.519531 1.238281.542969.359375 1.121094.671875 1.730469.921875.601562.25 1.230469.449219 1.871093.570313.640626.128906 1.300782.199218 1.949219.199218.652344 0 1.3125-.070312 1.960938-.199218.628906-.121094 1.261719-.320313 1.871093-.570313zm0 0"/><path d="m308.199219 200.40625c-.25-.609375-.558594-1.191406-.917969-1.730469-.371094-.550781-.789062-1.058593-1.25-1.519531s-.972656-.878906-1.523438-1.238281c-.539062-.363281-1.117187-.671875-1.71875-.921875-.609374-.25-1.238281-.449219-1.871093-.570313-1.289063-.257812-2.617188-.257812-3.910157 0-.636718.121094-1.269531.320313-1.867187.570313-.609375.25-1.191406.558594-1.730469.921875-.550781.359375-1.0625.777343-1.519531 1.238281-.460937.460938-.882813.96875-1.242187 1.519531-.359376.539063-.667969 1.121094-.917969 1.730469-.25.601562-.441407 1.230469-.570313 1.871094s-.199218 1.300781-.199218 1.949218c0 .648438.070312 1.308594.199218 1.949219s.320313 1.269531.570313 1.871094c.25.609375.558593 1.1875.917969 1.730469.359374.550781.78125 1.058594 1.242187 1.519531.457031.460937.96875.878906 1.519531 1.238281.539063.359375 1.121094.671875 1.730469.921875.601563.25 1.230469.449219 1.867187.570313.640626.128906 1.300782.199218 1.953126.199218 2.628906 0 5.207031-1.070312 7.070312-2.929687.457031-.460937.878906-.96875 1.25-1.519531.355469-.542969.667969-1.121094.917969-1.730469.25-.601563.4375-1.230469.570312-1.871094.128907-.640625.1875-1.300781.1875-1.949219 0-.648437-.058593-1.308593-.1875-1.949218-.128906-.640625-.320312-1.269532-.570312-1.871094zm0 0"/><path d="m294.238281 263.609375c-26.539062-18.605469-62.203125-18.605469-88.742187 0-4.523438 3.171875-5.617188 9.410156-2.445313 13.929687 3.167969 4.523438 9.40625 5.621094 13.925781 2.449219 19.675782-13.792969 46.109376-13.792969 65.78125 0 1.746094 1.222657 3.75 1.8125 5.730469 1.8125 3.152344 0 6.253907-1.484375 8.195313-4.261719 3.171875-4.523437 2.078125-10.757812-2.445313-13.929687zm0 0"/><path d="m127.671875 68.621094c.8125.203125 1.628906.300781 2.433594.300781 4.480469 0 8.558593-3.035156 9.691406-7.578125l12.230469-48.917969c1.339844-5.355469-1.917969-10.785156-7.277344-12.125-5.355469-1.335937-10.785156 1.917969-12.125 7.277344l-12.230469 48.914063c-1.339843 5.359374 1.917969 10.789062 7.277344 12.128906zm0 0"/><path d="m73.828125 116.582031c-.730469-5.476562-5.761719-9.324219-11.234375-8.589843l-53.914062 7.191406c-5.476563.730468-9.320313 5.761718-8.5898442 11.234375.6679682 5.027343 4.9648442 8.679687 9.8984372 8.679687.441407 0 .886719-.03125 1.335938-.089844l53.914062-7.191406c5.476563-.730468 9.320313-5.761718 8.589844-11.234375zm0 0"/><path d="m50.511719 55.605469 28.054687 22.230469c1.839844 1.453124 4.03125 2.160156 6.207032 2.160156 2.949218 0 5.871093-1.296875 7.84375-3.789063 3.429687-4.328125 2.699218-10.617187-1.628907-14.046875l-28.054687-22.230468c-4.328125-3.429688-10.617188-2.703126-14.046875 1.625-3.433594 4.332031-2.703125 10.621093 1.625 14.050781zm0 0"/><path d="m433.570312 254.960938c2.632813-27.613282 1.695313-53.976563-2.804687-78.492188-6.71875-36.554688-20.917969-65.089844-39.976563-80.339844-33.671874-26.957031-62.738281-17.308594-90.851562-7.980468-15.542969 5.160156-31.609375 10.492187-50.070312 10.847656-18.457032-.359375-34.519532-5.6875-50.050782-10.839844-8.34375-2.769531-16.222656-5.382812-24.328125-7.222656-4.941406-1.125-10.035156.042968-13.988281 3.199218-3.945312 3.148438-6.210938 7.851563-6.210938 12.902344v18.410156c0 2.5625-1.90625 4.757813-4.445312 5.101563l-16.789062 2.300781c-5.910157.816406-11.273438 4.078125-14.710938 8.945313-3.441406 4.867187-4.722656 11.011719-3.515625 16.863281l6.9375 33.484375c.347656 1.675781-.410156 2.84375-.894531 3.394531-.484375.550782-1.550782 1.449219-3.246094 1.320313-12.4375-.957031-23.804688-2.460938-33.8125-4.476563-4.320312-.863281-8.832031.140625-12.375 2.757813-3.527344 2.601562-5.808594 6.59375-6.253906 10.953125-9.171875 89.105468 24.59375 190.582031 86.015625 258.519531 5.75 6.363281 13.789062 9.878906 22.199219 9.878906 1.671874 0 3.359374-.140625 5.046874-.421875 10.226563-1.71875 18.753907-8.441406 22.808594-17.980468 7-16.480469 12.667969-31.527344 16.851563-44.722657 4.28125-13.535156 16.644531-22.628906 30.765625-22.628906 6.902344 0 13.488281 2.164063 19.054687 6.265625 5.566407 4.09375 9.617188 9.753906 11.710938 16.363281 4.199219 13.257813 9.867187 28.304688 16.84375 44.726563 4.058593 9.539062 12.585937 16.257812 22.8125 17.976562 10.160156 1.707032 20.347656-1.828125 27.25-9.460937 4.316406-4.777344 8.523437-9.75 12.566406-14.84375 15.476563 9.1875 33.011719 14.003906 51.25 14.003906 55.496094 0 100.640625-45.144531 100.640625-100.632813 0-47.386718-33.089844-87.976562-78.429688-98.171874zm-22.210937 178.804687c-17.253906 0-33.714844-5.371094-47.601563-15.535156 0-.003907-.003906-.003907-.003906-.003907-4.332031-3.171874-8.355468-6.785156-11.957031-10.742187-3.71875-4.082031-10.042969-4.382813-14.128906-.664063-4.082031 3.71875-4.378907 10.042969-.664063 14.125 2.203125 2.421876 4.539063 4.734376 6.976563 6.933594-3.644531 4.566406-7.40625 9.03125-11.277344 13.316406-2.332031 2.582032-5.652344 3.726563-9.097656 3.148438-3.515625-.59375-6.332031-2.808594-7.722657-6.078125-6.726562-15.835937-12.171874-30.28125-16.179687-42.941406-3.386719-10.675781-9.933594-19.816407-18.921875-26.429688-9.019531-6.644531-19.707031-10.160156-30.910156-10.160156-22.882813 0-42.910156 14.707031-49.835938 36.589844-3.988281 12.59375-9.433594 27.042969-16.1875 42.941406-1.390625 3.269531-4.203125 5.488281-7.71875 6.078125-3.449218.578125-6.761718-.566406-9.089844-3.144531-56.707031-62.722657-88.371093-155.742188-81.40625-238.304688 9.566407 1.71875 20.125 3.03125 31.460938 3.902344 7.5625.582031 14.777344-2.351563 19.789062-8.046875 5.015626-5.699219 7.007813-13.226562 5.46875-20.664062l-6.9375-33.480469c-.121093-.574219.078126-1.007813.261719-1.273438.183594-.261719.527344-.589843 1.101563-.667969l16.769531-2.300781c12.394531-1.6875 21.742187-12.398437 21.742187-24.917969v-13.964843c5.851563 1.550781 11.898438 3.558593 18.226563 5.65625 16.21875 5.378906 34.597656 11.476562 56.179687 11.855469.113282.003906.230469.003906.347657 0 21.585937-.375 39.972656-6.476563 56.195312-11.863282 27.207031-9.027344 46.863281-15.554687 72.054688 4.613282 15.082031 12.070312 27.035156 36.980468 32.800781 68.339843 4.136719 22.539063 5.003906 46.875 2.609375 72.449219-.78125-.015625-1.5625-.035156-2.34375-.035156-25.292969 0-49.46875 9.414062-68.078125 26.515625-18.492188 16.996093-29.910156 40.082031-32.152344 65.007812-.492187 5.5 3.566406 10.359375 9.066406 10.855469.304688.027344.605469.039062.90625.039062 5.117188 0 9.480469-3.910156 9.949219-9.105468 3.753907-41.796875 38.277344-73.3125 80.308594-73.3125 3.335937 0 6.703125.207031 10.011719.621094h.007812c.003906 0 .003906 0 .003906.003906 40.257813 4.972656 70.617188 39.371094 70.617188 80.015625 0 44.460937-36.175781 80.628906-80.640625 80.628906zm0 0"/><path d="m442.46875 322.027344c-3.90625-3.90625-10.238281-3.90625-14.144531 0l-16.960938 16.960937-16.964843-16.960937c-3.902344-3.90625-10.234376-3.90625-14.140626 0-3.90625 3.902344-3.90625 10.234375 0 14.140625l16.960938 16.964843-16.960938 16.960938c-3.90625 3.90625-3.90625 10.238281 0 14.140625 1.953126 1.953125 4.511719 2.929687 7.070313 2.929687s5.117187-.976562 7.070313-2.929687l16.960937-16.960937 16.964844 16.960937c1.953125 1.953125 4.511719 2.929687 7.070312 2.929687 2.558594 0 5.117188-.976562 7.070313-2.929687 3.90625-3.902344 3.90625-10.234375 0-14.140625l-16.960938-16.960938 16.960938-16.964843c3.90625-3.90625 3.90625-10.238281.003906-14.140625zm0 0"/><path d="m335.699219 381.117188c-.25-.601563-.558594-1.179688-.917969-1.730469-.359375-.539063-.78125-1.0625-1.242188-1.519531-.457031-.460938-.96875-.882813-1.519531-1.242188-.539062-.359375-1.121093-.667969-1.730469-.917969-.601562-.25-1.230468-.441406-1.867187-.570312-1.292969-.261719-2.621094-.261719-3.902344 0-.640625.128906-1.269531.320312-1.878906.570312-.601563.25-1.179687.558594-1.71875.917969-.550781.359375-1.0625.78125-1.523437 1.242188-.460938.457031-.878907.980468-1.25 1.519531-.359376.550781-.667969 1.128906-.917969 1.730469-.25.597656-.441407 1.230468-.570313 1.867187-.128906.652344-.191406 1.300781-.191406 1.960937 0 .652344.0625 1.300782.191406 1.949219.128906.640625.320313 1.269531.570313 1.871094s.558593 1.179687.917969 1.730469c.371093.539062.789062 1.058594 1.25 1.519531.460937.460937.972656.878906 1.523437 1.238281.539063.363282 1.117187.671875 1.71875.921875.609375.25 1.238281.441407 1.878906.570313s1.300781.199218 1.949219.199218c.652344 0 1.3125-.070312 1.953125-.199218.636719-.128906 1.269531-.320313 1.867187-.570313.609376-.25 1.191407-.558593 1.730469-.921875.550781-.359375 1.0625-.777344 1.519531-1.238281.460938-.460937.882813-.980469 1.242188-1.519531.359375-.550782.667969-1.128906.917969-1.730469s.449219-1.230469.570312-1.871094c.128907-.648437.199219-1.296875.199219-1.949219 0-.660156-.070312-1.308593-.199219-1.960937-.121093-.636719-.320312-1.269531-.570312-1.867187zm0 0"/></svg>