<svg viewBox="0 -68 511.99933 511" xmlns="http://www.w3.org/2000/svg"><path d="m172.664062 126.421875c-.550781-.359375-1.128906-.667969-1.730468-.917969-.601563-.25-1.230469-.441406-1.871094-.570312-1.289062-.261719-2.617188-.261719-3.910156 0-.636719.128906-1.269532.320312-1.867188.570312-.601562.25-1.179687.558594-1.722656.917969-.546875.363281-1.058594.78125-1.519531 1.242187-1.871094 1.859376-2.929688 4.441407-2.929688 7.070313 0 .648437.058594 1.308594.1875 1.960937.132813.628907.320313 1.257813.570313 1.871094.25.597656.5625 1.179688.921875 1.71875.371093.550782.777343 1.058594 1.25 1.519532.460937.460937.96875.878906 1.519531 1.25.539062.359374 1.121094.671874 1.722656.921874.597656.25 1.230469.4375 1.867188.566407.648437.132812 1.300781.191406 1.960937.191406.648438 0 1.300781-.058594 1.949219-.191406.640625-.128907 1.269531-.316407 1.871094-.566407.601562-.25 1.179687-.5625 1.730468-.921874.539063-.371094 1.058594-.789063 1.519532-1.25.460937-.460938.878906-.96875 1.238281-1.519532.363281-.539062.671875-1.121094.921875-1.71875.25-.613281.441406-1.242187.570312-1.871094.128907-.652343.199219-1.3125.199219-1.960937 0-2.628906-1.070312-5.210937-2.929687-7.070313-.460938-.460937-.980469-.878906-1.519532-1.242187zm0 0"/><path d="m479.015625 225.628906-5.03125-2.765625c-75.058594-41.277343-155.371094-70.621093-239.121094-87.429687l7.8125-106.4375c.539063-7.335938-2.023437-14.632813-7.027343-20.019532-5.007813-5.386718-12.097657-8.476562-19.453126-8.476562h-189.640624c-7.355469 0-14.445313 3.089844-19.453126 8.476562-5.007812 5.390626-7.570312 12.683594-7.0312495 20.019532l21.8984375 298.261718.53125 7.238282c.695312 9.488281 6.578125 17.757812 15.050781 21.636718 1.210938.554688 2.476563 1.019532 3.785157 1.386719 24.542968 6.859375 49.746093 10.507813 74.988281 10.933594 1.683593.03125 3.367187.042969 5.050781.042969 26.929688 0 53.859375-3.660156 80.039062-10.976563 3.273438-.914062 6.257813-2.449219 8.847657-4.453125 5.582031-4.328125 9.285156-10.863281 9.941406-18.148437 11.683594 4.683593 24.164063 7.234375 36.925781 7.488281.179688.003906.355469.003906.53125.003906 3.492188 0 6.878906-.695312 10.019532-1.949218 1.917968 2.992187 4.429687 5.640624 7.46875 7.726562 16.9375 11.609375 36.742187 17.964844 57.273437 18.371094.179687.003906.355469.003906.53125.003906 9.4375 0 18.15625-4.996094 23.082031-12.777344 15.804688 7.183594 32.445313 12.421875 49.53125 15.539063 1.117188.203125 2.226563.300781 3.328125.300781 4.480469 0 8.757813-1.632812 12.082031-4.457031l3.976563 1.875c11.933594 5.625 25.214844 8.660156 38.40625 8.769531h.253906c12.757813 0 23.921875-8.132812 27.824219-20.300781l10.878906-33.910157c0-.007812.003906-.007812.003906-.011718l6.644532-20.710938c9.285156-28.953125-3.308594-60.597656-29.949219-75.25zm-278.714844 107.402344c-.15625 2.152344-1.492187 4.03125-3.414062 4.910156-.277344.125-.5625.230469-.859375.3125-48.839844 13.65625-100.46875 13.65625-149.308594 0-.296875-.082031-.582031-.1875-.855469-.3125-1.921875-.878906-3.257812-2.757812-3.414062-4.910156l-12.445313-169.5h66.054688c-.578125 1.4375-1.125 2.894531-1.601563 4.382812l-6.632812 20.671876v.003906c-.003907.011718-.007813.023437-.011719.035156l-10.878906 33.921875c-3.929688 12.25.503906 25.449219 11.027344 32.847656 10.796874 7.582031 23.363281 12.839844 36.339843 15.207031l4.335938.789063c1.324219 5.265625 4.914062 9.890625 10.109375 12.339844 15.707031 7.40625 32.292968 12.824219 49.324218 16.171875-.527343 9.371094 3.828126 18.671875 11.785157 24.128906.347656.238281.703125.460938 1.054687.699219zm-93.445312-138.289062c0-.003907 0-.007813.003906-.007813v-.007813c.023437-.074218.054687-.144531.082031-.222656.175782-.527344.371094-1.046875.585938-1.554687.09375-.21875.199218-.425781.296875-.640625.160156-.34375.324219-.683594.503906-1.019532.132813-.253906.277344-.5.421875-.746093.15625-.269531.324219-.53125.492188-.792969.175781-.269531.355468-.542969.542968-.800781.144532-.199219.300782-.390625.449219-.585938.808594-1.035156 1.703125-1.984375 2.679687-2.835937.132813-.117188.261719-.238282.398438-.351563.296875-.242187.601562-.476562.90625-.703125.179688-.132812.363281-.265625.546875-.390625.296875-.207031.601563-.410156.910156-.601562.21875-.132813.441407-.257813.664063-.382813.554687-.3125 1.121094-.601562 1.703125-.863281.222656-.101563.4375-.210937.660156-.300781.34375-.144532.695313-.265625 1.046875-.386719.210938-.074219.421875-.148437.632812-.214844.363282-.117187.726563-.21875 1.097657-.3125.199219-.050781.398437-.09375.597656-.140625.382813-.082031.765625-.164062 1.152344-.230468.164062-.027344.332031-.042969.496093-.066407.738282-.101562 1.480469-.160156 2.230469-.183593.214844-.003907.433594-.019532.648438-.019532.289062 0 .582031.019532.871093.03125.332032.015625.660157.035156.992188.066406.261719.023438.527344.058594.789062.09375.386719.050782.769532.117188 1.152344.1875.214844.042969.429688.078126.644532.128907.601562.136719 1.199218.289062 1.796874.480469 2.03125.652343 3.898438 1.59375 5.558594 2.761718 1.109375.777344 2.128906 1.660156 3.050782 2.625 5.0625 5.304688 7.148437 13.144532 4.753906 20.605469l-1.050782 3.28125c0 .003906-.003906.007813-.003906.011719l-13.160156 41.023437-4.113281-.75c-10.152344-1.851562-19.984375-5.964843-28.429688-11.898437-3.324219-2.335938-4.722656-6.503906-3.480469-10.371094zm86.496093 85.839843c-15.53125-2.933593-30.652343-7.785156-44.988281-14.433593l2.105469-6.570313c.003906-.007813.003906-.011719.007812-.015625l13.730469-42.8125c.144531-.441406.324219-.867188.488281-1.300781.117188-.300781.214844-.613281.34375-.90625.171876-.390625.371094-.761719.5625-1.140625.15625-.3125.296876-.636719.464844-.941406.195313-.347657.417969-.675782.628906-1.011719.195313-.316407.375-.640625.585938-.945313.222656-.324218.476562-.621094.714844-.933594.226562-.292968.441406-.601562.683594-.886718.269531-.316406.566406-.609375.851562-.910156.238281-.253907.464844-.523438.714844-.765626.332031-.316406.6875-.609374 1.039062-.90625.234375-.203124.453125-.417968.695313-.609374.425781-.339844.878906-.648438 1.332031-.957032.1875-.128906.359375-.273437.550781-.394531.65625-.421875 1.332031-.8125 2.035157-1.171875 5.609374-2.886719 12.007812-3.414062 18.015624-1.488281 6.011719 1.929687 10.910157 6.082031 13.792969 11.691406 2.886719 5.613281 3.414063 12.011719 1.488281 18.019531l-3.429687 10.695313zm71.242188 36.773438v.003906c-.972656 3.035156-3.882812 5.101563-7.070312 5.046875-16.617188-.328125-32.648438-5.46875-46.359376-14.871094-2.632812-1.804687-3.789062-5.183594-2.816406-8.222656l17.851563-55.652344c.15625-.484375.320312-.957031.496093-1.421875.027344-.066406.054688-.132812.082032-.199219.15625-.40625.316406-.808593.488281-1.203124.007813-.011719.011719-.023438.015625-.035157 5.585938-12.738281 19.445312-19.878906 33.058594-17.039062.03125.007812.066406.011719.097656.019531.398438.085938.800781.183594 1.199219.285156.089843.023438.179687.042969.269531.066406.480469.128907.960938.269532 1.441406.421876 2.421875.777343 4.675782 1.839843 6.734375 3.140624 1.238281.777344 2.402344 1.644532 3.492188 2.582032.363281.3125.71875.632812 1.066406.964844.691406.65625 1.347656 1.347656 1.972656 2.066406.308594.359375.613281.722656.90625 1.097656 4.101563 5.222656 6.398438 11.757812 6.34375 18.535156-.023437 2.902344-.480469 5.851563-1.414062 8.757813zm93.148438-31.507813-13.09375 40.820313-4.757813 14.839843c-.976563 3.039063-3.863281 5.113282-7.074219 5.054688-16.621094-.332031-32.652344-5.472656-46.363281-14.875-2.628906-1.804688-3.789063-5.183594-2.8125-8.222656l17.851563-55.652344c.15625-.480469.320312-.953125.496093-1.421875.027344-.066406.054688-.132813.082031-.199219.15625-.402344.316407-.808594.488282-1.203125.003906-.007812.011718-.023437.015625-.03125 5.59375-12.765625 19.5-19.914062 33.140625-17.023437h.007812c.433594.089844.867188.195312 1.300782.308594.054687.015624.113281.027343.167968.042968.484375.128906.96875.269532 1.449219.421875.480469.15625.953125.320313 1.421875.5.054688.019531.109375.042969.167969.066407.414062.160156.828125.324218 1.234375.503906 13.699218 5.984375 20.9375 21.535156 16.277344 36.070312zm66.074218 14.191406-10.359375 32.289063-3.371093 10.511719c0 .003906-.003907.003906-.003907.003906l-2.109375 6.582031c-15.53125-2.929687-30.652344-7.78125-44.988281-14.429687l13.800781-43.027344c0-.003906.003906-.003906.003906-.003906l2.039063-6.355469c.230469-.71875.496094-1.417969.785156-2.101563.019531-.042968.039063-.089843.058594-.136718.273437-.628906.578125-1.238282.898437-1.832032.054688-.101562.105469-.207031.164063-.304687.296875-.535156.625-1.046875.964844-1.554687.121093-.183594.242187-.367188.371093-.546876.292969-.414062.605469-.816406.929688-1.210937.199219-.246094.402344-.488281.609375-.722656.285156-.320313.578125-.632813.878906-.941407.253907-.253906.511719-.503906.773438-.746093.300781-.277344.609375-.546875.921875-.808594.265625-.222656.535156-.4375.8125-.648437.355468-.269532.722656-.53125 1.09375-.785157.25-.164062.496094-.328125.75-.484375.433594-.269531.878906-.527344 1.332031-.769531 4.75-2.546875 10.359375-3.480469 15.917969-2.328125.042968.007812.082031.015625.121094.023438.289062.0625.578124.132812.863281.207031.105469.023437.210937.046875.316406.074219.238281.066406.480469.140624.722656.214843.140625.039063.28125.078125.421875.121094.722656.234375 1.425782.5 2.113282.792969.039062.019531.082031.03125.121093.050781.628907.273437 1.242188.582031 1.84375.90625.097657.054687.199219.105469.296875.15625.53125.300781 1.046875.628906 1.554688.964844.183594.125.371094.25.554687.378906.40625.292969.804688.601563 1.195313.917969.253906.207031.507812.421875.753906.640625.308594.269531.605469.550781.898438.839843.273437.269532.539062.546876.800781.832032.257812.277344.503906.558594.75.851562.242187.292969.480469.589844.707031.890625.246094.328125.488281.660157.714844 1 .191406.28125.375.566407.554687.855469.246094.394531.476563.796875.699219 1.210938 2.945312 5.457031 3.761719 12.058593 1.722656 18.421874zm60.34375 11.121094c-.007812.074219-.007812.152344-.015625.226563-.054687.503906-.148437 1.007812-.238281 1.507812-.035156.1875-.050781.371094-.09375.554688-.089844.429687-.21875.859375-.339844 1.289062-.066406.246094-.117187.496094-.199218.742188l-10.878907 33.921875c-1.234375 3.84375-4.757812 6.410156-8.785156 6.410156-.027344 0-.054687 0-.082031 0-10.320313-.085938-20.710938-2.460938-30.042969-6.859375l-3.785156-1.785156 5.535156-17.25 8.683594-27.0625c1.683593-5.257813 5.316406-9.542969 10.226562-12.070313 4.910157-2.523437 10.507813-2.984375 15.765625-1.296875.671875.214844 1.324219.460938 1.960938.738281.089844.039063.171875.089844.261718.128907.550782.25 1.085938.507812 1.605469.800781.003907 0 .007813.003906.011719.007812 7.101562 4.003907 11.195312 11.894532 10.410156 19.996094zm-1.378906-37.851562c-.117188-.0625-.230469-.121094-.34375-.179688-.53125-.277344-1.070312-.539062-1.613281-.792968-.179688-.085938-.363281-.171876-.546875-.253907-.507813-.226562-1.023438-.441406-1.542969-.648437-.195313-.078125-.386719-.160156-.582031-.234375-.703125-.269531-1.410156-.523438-2.132813-.753907-1.292969-.417968-2.597656-.765624-3.90625-1.046874-7.644531-1.652344-15.503906-1.054688-22.804687 1.703124-1.460938.550782-2.902344 1.175782-4.3125 1.902344-.628906.324219-1.25.664063-1.859375 1.019532-.175781.101562-.339844.210937-.515625.3125-.429688.257812-.855469.519531-1.277344.789062-.035156.027344-.078125.046875-.117188.074219-.347656-.785157-.71875-1.558594-1.109374-2.328125-4.621094-8.980469-12.035157-15.929688-21.152344-19.945313-.054688-.023437-.109375-.050781-.164063-.074219-.53125-.230468-1.070312-.445312-1.613281-.65625-.152344-.058593-.300781-.125-.453125-.183593-.546875-.207031-1.105469-.394531-1.664063-.578125-.144531-.050782-.28125-.105469-.425781-.148438-.148437-.050781-.296875-.085937-.445312-.132812-.558594-.171875-1.117188-.339844-1.675781-.492188-.167969-.042968-.332032-.078125-.5-.121094-.554688-.140624-1.113282-.277343-1.667969-.394531-.070313-.015625-.136719-.027343-.207031-.039062-9.742188-2.035157-19.804688-.691407-28.777344 3.921875-2.128906 1.09375-4.140625 2.347656-6.03125 3.738281-.503906-1.210937-1.0625-2.40625-1.667969-3.585937-5.261719-10.234376-13.722656-18.148438-24.125-22.695313-.023437-.011719-.042969-.023437-.066406-.03125-.660157-.289063-1.332031-.558594-2.007813-.820313-.113281-.042968-.226562-.09375-.339844-.136718-.785156-.292969-1.578124-.574219-2.382812-.832032-.804688-.257812-1.613281-.492187-2.425781-.707031-.113281-.03125-.226563-.054687-.339844-.082031-.707031-.183594-1.414063-.355469-2.121094-.507812-.027343-.007813-.054687-.011719-.078125-.015626-11.105468-2.347656-22.585937-.828124-32.820312 4.429688-.628906.328125-1.234375.683594-1.847656 1.035156-.097657.054688-.195313.105469-.292969.160156-.640625.371094-1.269531.753907-1.890625 1.152344-.074219.046875-.152344.097656-.226563.148438-.546875.351562-1.105469.691406-1.636719 1.0625-.070312-.199219-.152343-.394532-.226562-.59375-.214844-.582032-.429688-1.160156-.664062-1.730469-.121094-.300781-.253907-.597656-.382813-.898437-.21875-.507813-.445313-1.015626-.679687-1.515626-.144532-.308593-.292969-.613281-.445313-.914062-.246094-.496094-.5-.984375-.761719-1.472656-.15625-.289063-.308594-.578125-.46875-.859375-.296875-.527344-.609375-1.046875-.921875-1.5625-.144531-.226563-.277343-.460938-.421875-.691407-.46875-.738281-.953125-1.464843-1.460937-2.179687-.027344-.039063-.058594-.078125-.089844-.117187-.476563-.667969-.976563-1.328126-1.488281-1.972657-.175782-.21875-.359375-.433593-.539063-.652343-.378906-.460938-.765625-.921876-1.160156-1.367188-.214844-.246094-.4375-.484375-.65625-.722656-.382813-.414063-.773437-.824219-1.167969-1.226563-.234375-.234375-.464844-.46875-.703125-.703125-.417969-.40625-.84375-.800781-1.277343-1.195312-.226563-.203125-.449219-.414063-.679688-.613282-.519531-.453124-1.054688-.898437-1.59375-1.332031-.152344-.121093-.300781-.25-.453125-.371093-.703125-.546876-1.417969-1.078126-2.152344-1.589844-.179687-.125-.367187-.242188-.546875-.367188-.558594-.378906-1.125-.75-1.703125-1.109375-.269531-.167969-.550781-.328125-.824219-.492187-.503906-.300782-1.011718-.59375-1.53125-.875-.304687-.164063-.609374-.328125-.917968-.488282-.515625-.265624-1.035156-.523437-1.558594-.773437-.3125-.144531-.621094-.292969-.9375-.433594-.566406-.257812-1.148438-.5-1.730469-.734375-.277343-.113281-.550781-.230468-.832031-.339844-.867188-.332031-1.742188-.644531-2.636719-.933593-.800781-.257813-1.609375-.492188-2.417969-.707031-.140624-.039063-.28125-.066407-.421874-.101563-.679688-.175781-1.359376-.34375-2.039063-.488281-.054687-.011719-.109375-.019532-.164063-.03125-11.082031-2.324219-22.535156-.800782-32.742187 4.445312-1.179687.609375-2.328125 1.257813-3.441406 1.945313-.039063-.109375-.078125-.21875-.117188-.328125-.074219-.222656-.152343-.441406-.230469-.664063-.144531-.410156-.292968-.820312-.449218-1.226562-.089844-.226563-.179688-.453125-.269532-.679688-.171874-.421875-.351562-.839843-.535156-1.257812-.085937-.195313-.167968-.390625-.257812-.585938-.277344-.605469-.566406-1.207031-.875-1.804687-5.328125-10.363282-14.375-18.03125-25.46875-21.589844-11.097656-3.5625-22.914063-2.582031-33.273438 2.746094-.71875.367187-1.417968.757812-2.105468 1.160156-.058594.03125-.117188.0625-.171876.09375-.027343-.0625-.054687-.125-.078124-.1875-.191407-.480469-.390626-.953125-.597657-1.421875-.074219-.171875-.140625-.347656-.21875-.515625-.289062-.640625-.59375-1.277344-.917969-1.898438-.054687-.105468-.113281-.207031-.167968-.3125-.269532-.515624-.550782-1.027343-.84375-1.527343-.121094-.207031-.25-.410157-.375-.613281-.238282-.398438-.480469-.789063-.734375-1.179688-.148438-.226562-.300781-.449219-.453125-.671875-.246094-.359375-.496094-.714844-.75-1.066406-.167969-.226563-.332032-.449219-.503906-.671875-.261719-.34375-.527344-.679688-.800782-1.015625-.175781-.21875-.351562-.429688-.53125-.644531-.285156-.339844-.582031-.671876-.882812-1.003907-.175782-.195312-.347656-.386719-.527344-.578125-.34375-.363281-.695312-.714844-1.050781-1.066406-.148438-.148438-.292969-.296875-.441407-.441406-.511718-.492188-1.039062-.96875-1.578124-1.433594-.054688-.050781-.113282-.09375-.167969-.140625-.484375-.414063-.980469-.816406-1.488281-1.207031-.1875-.144532-.382813-.28125-.574219-.425782-.382813-.285156-.765625-.566406-1.160157-.839843-.230468-.15625-.464843-.308594-.695312-.460938-.371094-.246093-.742188-.488281-1.121094-.71875-.25-.152343-.503906-.304687-.753906-.449219-.378906-.222656-.761719-.4375-1.152344-.648437-.257812-.136719-.515625-.277344-.78125-.414063-.398437-.203124-.808594-.402343-1.21875-.59375-.257812-.121093-.511718-.246093-.769531-.363281-.457031-.199219-.917969-.390625-1.382813-.578125-.226562-.089844-.445312-.1875-.675781-.273437-.695312-.265625-1.398437-.515625-2.117187-.75-.714844-.226563-1.429688-.433594-2.148438-.621094-.28125-.074219-.566406-.132813-.851562-.203125-.425782-.101562-.851563-.203125-1.277344-.292969-.371094-.074219-.742188-.140625-1.117188-.207031-.324218-.054688-.648437-.113281-.972656-.164062-.445312-.066407-.886718-.125-1.328125-.175782-.230469-.027344-.460937-.050781-.691406-.074218-.523437-.054688-1.046875-.097657-1.570313-.132813-.097656-.003906-.191406-.007813-.289062-.015625-2.789062-.152344-5.578125-.03125-8.332031.390625 3.753906-4.917969 8.554687-9.011719 14.160156-12.003906 4.871094-2.601563 6.714844-8.660157 4.113281-13.53125-2.597656-4.871094-8.65625-6.71875-13.53125-4.113281-6.121094 3.265624-11.574218 7.449218-16.234375 12.355468h-80.359375l-8.515625-116c-.183593-2.480468 1.007813-4.160156 1.730469-4.941406.730469-.78125 2.316406-2.09375 4.800781-2.09375h189.640625c2.484375 0 4.074219 1.3125 4.800782 2.09375.726562.78125 1.917968 2.460938 1.734374 4.941406l-7.648437 104.164063c-3.222656-.566407-6.453125-1.121094-9.6875-1.652344-5.445313-.890625-10.59375 2.800781-11.488281 8.25-.894532 5.449219 2.800781 10.59375 8.25 11.488281 6.789062 1.113282 13.554687 2.324219 20.300781 3.601563.019531.003906.035156.007812.054687.011719 84.789063 16.105468 166.054688 45.320312 241.835938 86.992187l5.03125 2.765625c13.789062 7.585938 22.09375 21.8125 22.597656 36.871094-2.71875-2.65625-5.808594-4.917969-9.191406-6.71875zm0 0"/></svg>