<svg viewBox="-163 0 512 512" xmlns="http://www.w3.org/2000/svg"><path d="m175.113281 402.386719h-16.253906v-226.804688c0-17.714843-14.414063-32.128906-32.128906-32.128906h-6.515625l-3.558594-52.269531c-.617188-9.082032-6.265625-16.746094-14.097656-20.335938v-60.847656c0-5.523438-4.480469-10-10-10-5.523438 0-10 4.476562-10 10v60.851562c-7.832032 3.585938-13.484375 11.253907-14.101563 20.335938l-3.554687 52.265625h-6.519532c-17.714843 0-32.128906 14.414063-32.128906 32.132813v226.800781h-16.253906c-5.523438 0-10 4.476562-10 10 0 5.523437 4.476562 10 10 10h56.820312v69.613281h-10.054687c-5.519531 0-10 4.476562-10 10s4.480469 10 10 10h71.582031c5.519532 0 10-4.476562 10-10s-4.480468-10-10-10h-10.054687v-69.613281h56.820312c5.523438 0 10-4.476563 10-10 0-5.523438-4.476562-10-10-10zm-86.703125-309.84375c.148438-2.171875 1.96875-3.875 4.148438-3.875 2.175781 0 3.996094 1.703125 4.144531 3.875l3.464844 50.910156h-15.222657zm9.882813 399.457031h-11.472657v-69.613281h11.472657zm10-89.613281h-62.039063v-23.566407h37.304688c5.519531 0 10-4.476562 10-10 0-5.523437-4.480469-10-10-10h-37.304688v-34.320312h17.382813c5.523437 0 10-4.476562 10-10s-4.476563-10-10-10h-17.382813v-31.832031h17.382813c5.523437 0 10-4.476563 10-10 0-5.523438-4.476563-10-10-10h-17.382813v-35.332031h17.382813c5.523437 0 10-4.480469 10-10 0-5.523438-4.476563-10-10-10h-17.382813v-21.75c0-6.691407 5.441406-12.132813 12.128906-12.132813h68.347657c6.6875 0 12.128906 5.441406 12.128906 12.132813v226.800781zm0 0"/><path d="m132.785156 364.988281c-.25-.597656-.558594-1.179687-.917968-1.71875-.359376-.550781-.78125-1.058593-1.242188-1.519531s-.96875-.878906-1.519531-1.238281c-.539063-.371094-1.121094-.671875-1.730469-.921875-.597656-.25-1.226562-.449219-1.867188-.570313-1.289062-.257812-2.609374-.257812-3.902343 0-.636719.121094-1.269531.320313-1.867188.570313-.609375.25-1.191406.550781-1.730469.921875-.550781.359375-1.0625.777343-1.519531 1.238281-.460937.460938-.882812.96875-1.242187 1.519531-.359375.539063-.667969 1.121094-.917969 1.71875-.25.613281-.449219 1.242188-.570313 1.882813-.128906.640625-.199218 1.300781-.199218 1.949218 0 .648438.070312 1.308594.199218 1.949219.121094.640625.320313 1.269531.570313 1.871094.25.609375.558594 1.1875.917969 1.730469.359375.550781.78125 1.058594 1.242187 1.519531.457031.460937.96875.878906 1.519531 1.238281.539063.359375 1.121094.671875 1.730469.921875.601563.25 1.230469.449219 1.867188.570313.640625.128906 1.300781.199218 1.953125.199218.648437 0 1.308594-.070312 1.949218-.199218.640626-.121094 1.269532-.320313 1.867188-.570313.609375-.25 1.191406-.5625 1.730469-.921875.550781-.359375 1.058593-.777344 1.519531-1.238281s.882812-.96875 1.242188-1.519531c.359374-.542969.667968-1.121094.917968-1.730469.25-.601563.449219-1.230469.570313-1.871094.128906-.640625.199219-1.300781.199219-1.949219 0-.648437-.070313-1.308593-.199219-1.949218-.117188-.640625-.320313-1.269532-.570313-1.882813zm0 0"/></svg>