<svg viewBox="0 -158 511.99896 511" xmlns="http://www.w3.org/2000/svg"><path d="m75.097656 15.351562c.25.613282.558594 1.191407.917969 1.730469.359375.550781.78125 1.0625 1.242187 1.523438.457032.457031.980469.878906 1.519532 1.238281.550781.359375 1.128906.667969 1.730468.917969.597657.25 1.230469.441406 1.867188.570312.640625.132813 1.300781.203125 1.953125.203125.660156 0 1.308594-.070312 1.957031-.203125.640625-.128906 1.261719-.320312 1.871094-.570312.601562-.25 1.179688-.558594 1.71875-.917969.550781-.359375 1.0625-.78125 1.523438-1.238281.457031-.460938.878906-.972657 1.25-1.523438.359374-.539062.667968-1.117187.917968-1.730469.25-.597656.441406-1.226562.570313-1.867187.128906-.640625.191406-1.300781.191406-1.949219 0-.652344-.0625-1.3125-.191406-1.960937-.128907-.628907-.320313-1.261719-.570313-1.871094-.25-.601563-.558594-1.179687-.917968-1.71875-.371094-.550781-.792969-1.0625-1.25-1.519531-2.320313-2.332032-5.773438-3.390625-9.023438-2.742188-.636719.128906-1.269531.320313-1.867188.570313-.601562.25-1.179687.558593-1.730468.921875-.539063.367187-1.0625.789062-1.519532 1.25-.460937.457031-.882812.96875-1.242187 1.519531-.359375.539063-.667969 1.117187-.917969 1.71875-.25.609375-.441406 1.242187-.570312 1.871094-.132813.648437-.199219 1.308593-.199219 1.960937 0 .648438.066406 1.308594.199219 1.949219.128906.640625.320312 1.269531.570312 1.867187zm0 0"/><path d="m505.9375 131.3125c-4.53125-5.089844-11.039062-8.003906-17.851562-8.003906h-13.433594l2.425781-30.125h10.292969c5.523437 0 10-4.476563 10-10 0-5.523438-4.476563-10-10-10h-8.6875l1.757812-21.851563c1.285156-15.964843-7.636718-31.164062-22.203125-37.820312l-1.980469-.910157c-35.304687-16.136718-75.796874-16.136718-111.101562 0l-1.984375.910157c-7.367187 3.367187-13.285156 8.921875-17.175781 15.652343-3.886719-6.730468-9.808594-12.285156-17.175782-15.652343l-1.984374-.90625c-35.300782-16.140625-75.796876-16.140625-111.097657 0l-1.984375.90625c-7.367187 3.367187-13.285156 8.921875-17.175781 15.652343-3.886719-6.730468-9.808594-12.285156-17.175781-15.652343l-1.984375-.90625c-12.191407-5.574219-25.109375-9.273438-38.394531-10.992188-5.476563-.703125-10.492188 3.160157-11.203126 8.636719-.707031 5.476562 3.15625 10.492188 8.632813 11.199219 11.300781 1.460937 22.285156 4.605469 32.652344 9.34375l1.980469.90625c6.941406 3.175781 11.195312 10.417969 10.585937 18.027343l-1.886719 23.460938h-21.460937c-2.101563-12.34375-12.867188-21.773438-25.800781-21.773438h-21.308594c-12.929688 0-23.695313 9.429688-25.800782 21.773438h-21.457031l-1.886719-23.457031c-.613281-7.609375 3.640626-14.855469 10.582032-18.027344 5.023437-2.296875 7.234375-8.230469 4.9375-13.253906-2.296875-5.023438-8.230469-7.234375-13.253906-4.9375-14.5625 6.660156-23.484376 21.859375-22.203126 37.820312l1.761719 21.890625c-5.179687.378906-9.265625 4.691406-9.265625 9.964844 0 5.523438 4.476563 10 10 10h.871094l2.425781 30.121094h-4.011719c-6.8125 0-13.320312 2.917968-17.851562 8.003906-4.535156 5.085938-6.6875 11.886719-5.90625 18.652344l.953125 8.257812c2.484375 21.515625 20.6875 37.742188 42.347656 37.742188h425.085938c21.660156 0 39.863281-16.226563 42.347656-37.742188l.949219-8.257812c.78125-6.769532-1.371094-13.566406-5.902344-18.652344zm-52.089844 1.191406-.738281 9.179688-6.828125 2.28125c-29.386719 9.835937-61.761719 9.835937-91.148438 0l-6.828124-2.28125-.738282-9.179688s0-.003906 0-.007812l-3.164062-39.3125h19.851562c2.101563 12.34375 12.867188 21.773437 25.796875 21.773437h21.308594c12.933594 0 23.699219-9.429687 25.800781-21.773437h19.851563zm-248.132812 11.460938-6.828125-2.28125-3.902344-48.5h19.847656c2.105469 12.34375 12.871094 21.773437 25.800781 21.773437h21.308594c12.933594 0 23.695313-9.429687 25.800782-21.773437h19.847656l-3.160156 39.320312-.738282 9.179688-6.828125 2.28125c-29.390625 9.835937-61.757812 9.835937-91.148437 0zm-29.136719-30.148438.765625 9.492188h-1.527344zm91.542969-25.039062c0 3.40625-2.773438 6.179687-6.179688 6.179687h-21.304687c-3.410157 0-6.179688-2.773437-6.179688-6.179687v-11.183594c0-3.40625 2.769531-6.179688 6.179688-6.179688h21.304687c3.40625 0 6.179688 2.773438 6.179688 6.179688zm57.875 25.042968.765625 9.484376h-1.527344zm91.542968-25.042968c0 3.40625-2.769531 6.179687-6.179687 6.179687h-21.308594c-3.40625 0-6.175781-2.773437-6.175781-6.179687v-11.183594c0-3.40625 2.769531-6.179688 6.175781-6.179688h21.308594c3.40625 0 6.179687 2.773438 6.179687 6.179688zm-66.050781-57.078125 1.984375-.90625c30.019532-13.722657 64.449219-13.722657 94.46875 0l1.984375.90625c6.941407 3.175781 11.195313 10.417969 10.582031 18.027343l-1.886718 23.457032h-21.460938c-2.101562-12.339844-12.867187-21.769532-25.800781-21.769532h-21.308594c-12.929687 0-23.695312 9.429688-25.796875 21.769532h-21.460937l-1.886719-23.457032c-.613281-7.609374 3.640625-14.851562 10.582031-18.027343zm-149.417969 0 1.984376-.90625c30.019531-13.722657 64.449218-13.722657 94.46875 0l1.984374.90625c6.941407 3.175781 11.195313 10.417969 10.582032 18.027343l-1.886719 23.457032h-21.460937c-2.101563-12.339844-12.867188-21.769532-25.800782-21.769532h-21.304687c-12.933594 0-23.699219 9.429688-25.800781 21.769532h-21.460938l-1.886719-23.457032c-.613281-7.609374 3.640625-14.851562 10.582031-18.027343zm-117.035156 45.894531c0-3.40625 2.773438-6.179688 6.179688-6.179688h21.308594c3.40625 0 6.179687 2.773438 6.179687 6.179688v11.183594c0 3.40625-2.773437 6.179687-6.179687 6.179687h-21.308594c-3.40625 0-6.179688-2.773437-6.179688-6.179687zm-19.621094 15.589844c2.105469 12.34375 12.871094 21.773437 25.800782 21.773437h21.308594c12.929687 0 23.695312-9.429687 25.800781-21.773437h19.847656l-3.160156 39.320312-.738281 9.179688-6.828126 2.28125c-29.390624 9.835937-61.761718 9.835937-91.148437 0l-6.828125-2.28125-.738281-9.179688-3.164063-39.320312zm426.558594 54.488281-.953125 8.253906c-1.316406 11.421875-10.980469 20.035157-22.476562 20.035157h-425.089844c-11.496094 0-21.160156-8.613282-22.476563-20.03125l-.953124-8.257813c-.175782-1.519531.53125-2.566406.964843-3.054687.4375-.488282 1.398438-1.308594 2.925781-1.308594h5.617188l.023438.277344c.082031.980468.230468 1.9375.445312 2.871093 1.523438 6.546875 6.328125 11.917969 12.835938 14.097657l7.113281 2.378906c1.046875.347656 2.097656.6875 3.148437 1.015625 15.792969 4.921875 32.28125 7.386719 48.773438 7.386719 9.4375 0 18.875-.816407 28.183594-2.429688 8.039062-1.390625 15.976562-3.378906 23.734374-5.972656l7.113282-2.378906c7.441406-2.488282 12.652344-9.148438 13.28125-16.96875l.023437-.277344h4.746094l.023437.277344c.078126.976562.226563 1.9375.445313 2.871093 1.519531 6.546875 6.324219 11.917969 12.832031 14.09375l7.113282 2.382813c33.484374 11.199218 70.363281 11.199218 103.839843 0l7.117188-2.382813c7.4375-2.488281 12.648437-9.144531 13.277343-16.964843l.023438-.28125h4.746094l.023437.28125c.058594.71875.167969 1.425781.300781 2.121093 1.320313 6.882813 6.226563 12.585938 12.980469 14.84375l7.113281 2.382813c1.046876.347656 2.09375.6875 3.148438 1.015625 15.789062 4.921875 32.28125 7.382812 48.769531 7.382812 15.664063 0 31.324219-2.226562 46.386719-6.667969 1.855469-.542968 3.699219-1.117187 5.535156-1.730468l7.113282-2.382813c7.4375-2.488281 12.652343-9.144531 13.28125-16.964843l.023437-.28125h15.039063c1.527343 0 2.488281.820312 2.925781 1.3125.433593.488281 1.136719 1.535156.960937 3.054687zm0 0"/></svg>