<svg viewBox="-121 0 511 512" xmlns="http://www.w3.org/2000/svg"><path d="m253.027344 153.636719-15.59375-22.535157v-27.328124c11.0625-1.753907 19.546875-11.355469 19.546875-22.90625v-57.671876c0-12.789062-10.40625-23.195312-23.195313-23.195312h-197.644531c-12.789063 0-23.195313 10.40625-23.195313 23.195312v57.671876c0 11.550781 8.484376 21.152343 19.546876 22.90625v27.328124l-15.59375 22.535157c-10.726563 15.503906-16.398438 33.664062-16.398438 52.519531v245.3125c0 33.378906 27.152344 60.53125 60.53125 60.53125h147.863281c33.378907 0 60.53125-27.152344 60.53125-60.53125v-245.3125c0-18.855469-5.671875-37.015625-16.398437-52.519531zm-200.535156-49.574219h164.941406v20.160156h-164.941406zm-19.546876-80.867188c0-1.761718 1.433594-3.195312 3.195313-3.195312h197.644531c1.761719 0 3.195313 1.433594 3.195313 3.195312v57.671876c0 1.761718-1.433594 3.195312-3.195313 3.195312h-197.644531c-1.761719 0-3.195313-1.433594-3.195313-3.195312zm175.949219 468.804688h-147.863281c-22.351562 0-40.53125-18.183594-40.53125-40.53125v-245.3125c0-2.84375.167969-5.667969.496094-8.460938h127.246094c5.523437 0 10-4.476562 10-10 0-5.523437-4.476563-10-10-10h-121.90625c1.894531-4.414062 4.230468-8.660156 7.011718-12.675781l14.386719-20.796875h174.457031l14.390625 20.796875c8.402344 12.140625 12.84375 26.367188 12.84375 41.136719v13.523438h-159.527343c-21.09375 0-38.253907 17.160156-38.253907 38.253906v136.519531c0 21.097656 17.160157 38.257813 38.253907 38.257813h159.527343v18.757812c0 22.347656-18.183593 40.53125-40.53125 40.53125zm40.53125-79.289062h-159.527343c-10.0625 0-18.253907-8.191407-18.253907-18.257813v-136.519531c0-10.066406 8.191407-18.253906 18.253907-18.253906h159.527343zm0 0"/><path d="m57.519531 73.925781c5.523438 0 10-4.476562 10-10v-23.789062c0-5.523438-4.476562-10-10-10-5.523437 0-10 4.476562-10 10v23.789062c0 5.523438 4.476563 10 10 10zm0 0"/><path d="m109.148438 73.925781c5.523437 0 10-4.476562 10-10v-23.789062c0-5.523438-4.476563-10-10-10-5.523438 0-10 4.476562-10 10v23.789062c0 5.523438 4.476562 10 10 10zm0 0"/><path d="m160.777344 73.925781c5.523437 0 10-4.476562 10-10v-23.789062c0-5.523438-4.476563-10-10-10-5.523438 0-10 4.476562-10 10v23.789062c0 5.523438 4.476562 10 10 10zm0 0"/><path d="m212.40625 73.925781c5.523438 0 10-4.476562 10-10v-23.789062c0-5.523438-4.476562-10-10-10-5.519531 0-10 4.476562-10 10v23.789062c0 5.523438 4.480469 10 10 10zm0 0"/><path d="m103.347656 348.859375c7.078125 6.257813 9.175782 11.007813 11.882813 22.105469.46875 1.921875.542969 4.355468.625 6.929687.066406 2.050781.132812 4.171875.386719 6.441407.183593 1.628906.476562 3.226562.863281 4.753906 2.488281 9.722656 11.300781 16.511718 21.433593 16.511718 9.765626 0 17.882813-7.632812 18.480469-17.378906l1.390625-22.605468h2.898438l1.390625 22.601562c.597656 9.746094 8.714843 17.382812 18.480469 17.382812 10.132812 0 18.941406-6.789062 21.433593-16.519531.390625-1.53125.683594-3.128906.863281-4.75.253907-2.265625.320313-4.386719.386719-6.433593.082031-2.578126.160157-5.011719.628907-6.933594.441406-1.8125.824218-3.515625 1.191406-5.128906 1.933594-8.570313 2.734375-12.117188 8.230468-16.980469 15.507813-13.714844 23.109376-34.503907 20.347657-55.613281 0 0 0 0 0-.003907-2.84375-21.671875-20.042969-42.644531-43.941407-40.226562-4.625.464843-10.484374 1.742187-16.691406 3.09375-1.167968.253906-2.335937.507812-3.484375.753906-6.824219 1.460937-13.742187 1.460937-20.566406 0-1.148437-.246094-2.3125-.5-3.476563-.753906-6.210937-1.351563-12.074218-2.628907-16.703124-3.09375-23.890626-2.410157-41.097657 18.554687-43.9375 40.230469-3.015626 22.996093 3.335937 42.75 17.886718 55.617187zm1.941406-53.019531c1.527344-11.640625 9.507813-23.011719 20.472657-23.011719.535156 0 1.078125.027344 1.625.082031 3.277343.332032 8.382812 1.417969 13.449219 2.519532 5.109374 8.671874 18.179687 26.042968 41.292968 27.007812.140625.003906.28125.007812.421875.007812 5.332031 0 9.761719-4.207031 9.984375-9.585937.230469-5.515625-4.058594-10.175781-9.574218-10.40625-5.714844-.238281-10.453126-2.339844-14.265626-5.089844 1.882813-.246093 3.761719-.542969 5.636719-.945312 1.171875-.25 2.359375-.507813 3.550781-.769531 5.386719-1.171876 10.957032-2.382813 14.449219-2.738282 11.820313-1.195312 20.5 10.726563 22.097657 22.933594 1.902343 14.511719-3.242188 28.730469-13.765626 38.035156-10.328124 9.136719-12.257812 17.671875-14.488281 27.554688-.339843 1.507812-.699219 3.101562-1.113281 4.796875-.964844 3.945312-1.082031 7.710937-1.1875 11.035156-.054688 1.734375-.105469 3.371094-.273438 4.84375-.078124.710937-.199218 1.394531-.363281 2.023437-.101562.402344-.351562.753907-.6875 1.011719l-1.519531-24.703125c-.511719-8.308594-7.433594-14.820312-15.757812-14.820312h-10.824219c-8.324219 0-15.246094 6.511718-15.757813 14.820312l-1.519531 24.707032c-.335937-.257813-.585937-.609376-.6875-1.015626-.160156-.628906-.285156-1.3125-.363281-2.027343-.167969-1.46875-.21875-3.109375-.273438-4.84375-.105468-3.324219-.226562-7.089844-1.1875-11.03125-3.378906-13.847657-7.097656-22.65625-18.0625-32.351563-12.703125-11.238281-12.539062-28.65625-11.308594-38.039062zm0 0"/><path d="m179.003906 191.519531c.25.601563.558594 1.191407.917969 1.730469.371094.539062.792969 1.058594 1.25 1.519531.460937.460938.972656.878907 1.519531 1.242188.542969.359375 1.121094.667969 1.722656.917969.609376.25 1.238282.441406 1.867188.570312.652344.128906 1.3125.199219 1.960938.199219.652343 0 1.3125-.070313 1.949218-.199219.644532-.128906 1.273438-.320312 1.871094-.570312.609375-.25 1.191406-.558594 1.730469-.917969.550781-.363281 1.058593-.78125 1.519531-1.242188.460938-.460937.878906-.980469 1.242188-1.519531.359374-.539062.667968-1.128906.917968-1.730469.25-.597656.441406-1.230469.570313-1.871093.128906-.636719.199219-1.296876.199219-1.949219 0-.660157-.070313-1.308594-.199219-1.960938-.128907-.636719-.320313-1.257812-.570313-1.867187-.25-.601563-.558594-1.179688-.917968-1.730469-.363282-.539063-.78125-1.0625-1.242188-1.519531-.460938-.460938-.96875-.871094-1.519531-1.242188-.539063-.359375-1.121094-.667968-1.730469-.917968-.597656-.25-1.226562-.441407-1.871094-.570313-1.289062-.261719-2.617187-.261719-3.910156 0-.628906.128906-1.257812.320313-1.867188.570313-.601562.25-1.179687.558593-1.722656.917968-.546875.371094-1.058594.78125-1.519531 1.242188-.457031.457031-.878906.980468-1.25 1.519531-.359375.550781-.667969 1.128906-.917969 1.730469-.25.609375-.441406 1.230468-.5625 1.867187-.128906.652344-.199218 1.300781-.199218 1.960938 0 .652343.070312 1.3125.199218 1.949219.121094.640624.3125 1.273437.5625 1.871093zm0 0"/></svg>