<svg viewBox="-99 0 512 512" xmlns="http://www.w3.org/2000/svg"><path d="m164.328125 188.246094c-5.011719 2.320312-7.191406 8.265625-4.867187 13.277344 2.320312 5.007812 8.261718 7.191406 13.277343 4.867187 10.765625-4.988281 20.523438 2.125 20.933594 2.429687l-.078125-.058593 12.265625-15.796875c-.789063-.609375-19.582031-14.894532-41.53125-4.71875zm0 0"/><path d="m115.5 206.390625c5.011719 2.324219 10.957031.140625 13.277344-4.867187 2.320312-5.011719.144531-10.957032-4.867188-13.277344-21.957031-10.175782-40.746094 4.105468-41.535156 4.71875l6.136719 7.898437 6.054687 7.957031c.410156-.304687 10.167969-7.417968 20.933594-2.429687zm0 0"/><path d="m189.910156 219.121094c-.25-.601563-.5625-1.179688-.921875-1.722656-.359375-.546876-.777343-1.058594-1.238281-1.519532-.460938-.457031-.972656-.878906-1.519531-1.25-.542969-.359375-1.121094-.667968-1.730469-.917968-.601562-.25-1.230469-.441407-1.871094-.570313-1.289062-.261719-2.609375-.261719-3.898437 0-.640625.128906-1.269531.320313-1.871094.570313-.609375.25-1.1875.558593-1.730469.917968-.550781.371094-1.058594.792969-1.519531 1.25-.460937.460938-.878906.972656-1.25 1.519532-.359375.542968-.660156 1.121093-.910156 1.722656-.25.609375-.449219 1.238281-.570313 1.878906-.128906.640625-.199218 1.300781-.199218 1.949219 0 .652343.070312 1.3125.199218 1.949219.121094.640624.320313 1.273437.570313 1.871093.25.609375.550781 1.191407.910156 1.730469.371094.550781.789063 1.058594 1.25 1.519531.460937.460938.96875.878907 1.519531 1.242188.542969.359375 1.121094.667969 1.730469.917969.601563.25 1.230469.441406 1.871094.570312s1.300781.199219 1.949219.199219c.648437 0 1.308593-.070313 1.949218-.199219s1.269532-.320312 1.871094-.570312c.609375-.25 1.1875-.558594 1.730469-.917969.546875-.363281 1.058593-.78125 1.519531-1.242188.460938-.460937.878906-.96875 1.238281-1.519531.359375-.539062.671875-1.121094.921875-1.730469.25-.597656.449219-1.230469.570313-1.871093.128906-.636719.199219-1.296876.199219-1.949219 0-.648438-.070313-1.308594-.199219-1.949219-.121094-.640625-.320313-1.269531-.570313-1.878906zm0 0"/><path d="m114.628906 230.019531c.460938-.460937.878906-.96875 1.238282-1.519531.359374-.539062.671874-1.121094.921874-1.730469.25-.597656.4375-1.230469.570313-1.871093.128906-.636719.199219-1.296876.199219-1.949219 0-2.628907-1.070313-5.210938-2.929688-7.070313-.460937-.457031-.972656-.878906-1.523437-1.25-.539063-.359375-1.117188-.667968-1.726563-.917968-.601562-.25-1.230468-.441407-1.871094-.570313-1.289062-.261719-2.621093-.261719-3.910156 0-.628906.128906-1.261718.320313-1.871094.570313-.597656.25-1.179687.558593-1.71875.917968-.550781.371094-1.0625.792969-1.519531 1.25-.460937.460938-.882812.972656-1.25 1.519532-.359375.542968-.671875 1.121093-.921875 1.722656-.25.609375-.4375 1.238281-.570312 1.867187-.128906.652344-.1875 1.3125-.1875 1.960938 0 .652343.058594 1.3125.1875 1.949219.128906.640624.320312 1.273437.570312 1.871093.25.609375.5625 1.191407.921875 1.730469.367188.550781.789063 1.058594 1.25 1.519531.457031.460938.96875.878907 1.519531 1.242188.539063.359375 1.121094.667969 1.71875.917969.609376.25 1.242188.441406 1.871094.570312.648438.128906 1.308594.199219 1.960938.199219.648437 0 1.308594-.070313 1.949218-.199219.640626-.128906 1.269532-.320312 1.871094-.570312.609375-.25 1.1875-.558594 1.726563-.917969.554687-.363281 1.0625-.78125 1.523437-1.242188zm0 0"/><path d="m161.765625 274.753906c-11.050781 5.894532-24.246094 5.894532-35.292969 0-4.871094-2.601562-10.933594-.757812-13.53125 4.113282-2.601562 4.871093-.757812 10.929687 4.113282 13.53125 8.476562 4.519531 17.765624 6.78125 27.0625 6.78125 9.292968 0 18.59375-2.261719 27.0625-6.78125 4.875-2.601563 6.714843-8.660157 4.117187-13.53125-2.601563-4.871094-8.660156-6.714844-13.53125-4.113282zm0 0"/><path d="m313.039062 65.820312c0-36.292968-29.527343-65.820312-65.820312-65.820312-17.230469 0-33.585938 6.703125-45.804688 18.5625-28.101562-7.128906-60.582031-2.929688-89.574218 11.53125l-.050782-1.996094c.074219-5.378906-1.945312-10.457031-5.703124-14.320312-3.832032-3.9375-8.964844-6.105469-14.457032-6.105469h-.132812c-11.941406.015625-22.648438 8.027344-26.035156 19.484375l-1.898438 6.410156c-14.5625-7.441406-25.667969-3.511718-30.417969-.992187-10.191406 5.40625-16.597656 16.839843-15.230469 27.191406 1 7.570313 6.167969 13.3125 13.472657 14.980469 2.707031.621094 5.546875 1.476562 8.480469 2.546875-3.714844 6.085937-6.484376 12.007812-8.417969 18.082031-1.851563.015625-3.699219.03125-5.574219.03125-5.523438 0-10 4.480469-10 10 0 5.523438 4.476562 10 10 10 .726562 0 1.4375-.007812 2.160156-.011719-.050781 1.257813-.085937 2.523438-.085937 3.816407v42.84375c-6.574219 1.449218-12.613281 4.730468-17.488281 9.605468-6.746094 6.742188-10.460938 15.710938-10.460938 25.25 0 19.695313 16.019531 35.722656 35.710938 35.722656h2.902343l3.410157 18.640626c6.316406 34.515624 29.695312 63.402343 61.746093 76.933593v10.183594l-34.070312 11.160156c-17.546875 2.019531-33.742188 10.269531-45.742188 23.371094-12.441406 13.585937-19.296875 31.222656-19.296875 49.660156v30.300781c0 .035157-.003906.066407-.003906.097657v49.019531c0 5.523438 4.476562 10 10 10h260.257812c5.523438 0 10-4.476562 10-10v-49.019531c0-.378907-.023437-.75-.066406-1.113281v-29.289063c0-37.941406-29.265625-69.828125-66.871094-73.214844l-33.519531-10.980469v-10.175781c32.046875-13.53125 55.429688-42.417969 61.757813-76.9375l3.410156-18.640625h2.894531c9.546875 0 18.515625-3.714844 25.265625-10.464844 6.742188-6.753906 10.453125-15.722656 10.453125-25.253906 0-16.574218-11.351562-30.542968-26.6875-34.550781v-32.28125c29.515625-6.609375 51.488281-33.222656 51.488281-64.257813zm-65.820312-45.820312c25.265625 0 45.820312 20.554688 45.820312 45.820312 0 23.808594-18.5625 43.878907-42.183593 45.695313-1.3125.089844-2.5.132813-3.636719.132813-.707031 0-1.410156-.019532-2.113281-.050782-.300781-.015625-.597657-.039062-.894531-.058594-.371094-.023437-.742188-.050781-1.109376-.082031-.410156-.039062-.824218-.078125-1.234374-.128906-.1875-.023437-.378907-.046875-.570313-.074219-11.980469-1.582031-22.808594-7.902344-30.152344-17.214844-.140625-.183593-.289062-.359374-.429687-.546874-.183594-.238282-.363282-.488282-.542969-.734376-.261719-.359374-.523437-.722656-.773437-1.089843-.105469-.148438-.207032-.300781-.308594-.453125-.355469-.53125-.703125-1.070313-1.035156-1.613282-.011719-.015624-.019532-.035156-.03125-.050781-2.480469-4.082031-4.328126-8.585937-5.4375-13.371093-.105469-.445313-.210938-.890626-.300782-1.335938-.078125-.382812-.140625-.769531-.207031-1.15625-.085937-.503906-.171875-1.011719-.238281-1.523438-.050782-.347656-.097656-.699218-.136719-1.054687-.066406-.585937-.121094-1.171875-.167969-1.761719-.019531-.289062-.046875-.574218-.0625-.867187-.050781-.882813-.085937-1.769531-.085937-2.660157 0-.675781.015625-1.347656.046875-2.019531.414062-9.410156 3.726562-18.484375 9.46875-25.929687.410156-.53125.832031-1.054688 1.265625-1.570313.003906 0 .003906-.003906.007812-.003906 8.726563-10.359375 21.5-16.296875 35.042969-16.296875zm-185.859375 50.773438c-1.324219-4.496094-4.550781-8.132813-8.851563-9.976563-4.996093-2.140625-9.886718-3.832031-14.578124-5.039063.492187-1.644531 1.90625-4.046874 4.476562-5.457031 4.921875-2.703125 12.277344-.210937 20.1875 6.820313 2.554688 2.273437 6.101562 3.082031 9.390625 2.144531 3.292969-.941406 5.875-3.5 6.84375-6.78125l5.8125-19.660156c.910156-3.078125 3.675781-5.152344 6.871094-5.15625h.117187c.035156 0 .070313 0 .117188.050781.050781.050781.046875.082031.046875.121094-.003907.171875-.003907.347656 0 .519531l.230469 9.621094c.117187 4.472656 2.140624 8.695312 5.546874 11.585937 3.410157 2.890625 7.898438 4.195313 12.335938 3.578125 1.289062-.179687 2.53125-.609375 3.65625-1.261719 23.402344-13.632812 50.945312-19.191406 74.808594-15.566406-.238282.480469-.46875.964844-.699219 1.449219-.03125.070313-.066406.136719-.097656.207031-.355469.765625-.695313 1.539063-1.019531 2.3125-.082032.195313-.164063.390625-.246094.585938-.296875.734375-.585938 1.46875-.859375 2.210937-.023438.0625-.046875.121094-.070313.183594-.289062.789063-.558594 1.589844-.816406 2.390625-.066406.203125-.128906.40625-.191406.609375-.238282.769531-.46875 1.539063-.679688 2.316406-.011718.050781-.027344.097657-.039062.144531-.222656.816407-.417969 1.636719-.609375 2.464844-.046875.207032-.09375.414063-.136719.621094-.175781.804688-.339844 1.609375-.484375 2.417969-.007813.03125-.015625.0625-.019531.097656-.148438.835937-.277344 1.675781-.390625 2.519531-.03125.210938-.058594.421875-.085938.632813-.105469.835937-.203125 1.667969-.277343 2.507812 0 .015625-.003907.03125-.003907.046875-.078125.855469-.128906 1.707032-.171875 2.566406-.007812.210938-.019531.425782-.027344.636719-.035156.859375-.058593 1.71875-.058593 2.582031 0 .949219.027343 1.898438.070312 2.847657.007813.226562.019531.457031.03125.683593.046875.933594.113281 1.863282.203125 2.789063.003906.078125.015625.15625.023438.234375.046875.472656.101562.945312.15625 1.417969-24.847656 7.765625-68.851563 18.425781-128.753906 21.019531 1.628906-3.511719 3.671874-7.050781 6.183593-10.761719 2.640625-3.914062 3.390625-8.753906 2.058594-13.277343zm125.929687 22.28125c.382813.828124.777344 1.644531 1.1875 2.453124.070313.136719.136719.269532.207032.402344.359375.695313.730468 1.382813 1.117187 2.0625.121094.21875.246094.4375.371094.65625.320313.554688.652344 1.105469.988281 1.648438.199219.316406.390625.636718.59375.949218.226563.355469.464844.703126.699219 1.050782 10.398437 15.566406 27.234375 26.472656 46.679687 28.863281.105469.015625.210938.023437.316407.035156.699219.085938 1.394531.171875 2.101562.230469v51.042969c0 1.714843-1.273437 3.167969-3.054687 3.390625-.097656.011718-.257813.023437-.527344.011718-1.78125-.085937-3.230469-1.78125-3.230469-3.78125v-38.71875c0-.460937-.03125-.917968-.09375-1.367187-.429687-3.140625-2.339843-5.925781-5.183593-7.449219-3.25-1.742187-7.191407-1.554687-10.261719.488282-30.855469 20.535156-119.496094-4.410157-151.042969-15.753907-3.066406-1.101562-6.476562-.644531-9.136719 1.230469-2.664062 1.871094-4.25 4.921875-4.25 8.179688v53.769531c0 1.269531-.660156 2.089843-1.054687 2.464843-.480469.457032-1.304688 1.007813-2.5.9375-.261719-.011718-.390625-.039062-.429688-.046874-.050781-.015626-.097656-.023438-.148437-.035157-1.320313-.300781-2.390625-1.582031-2.636719-3.058593-.035156-.210938-.054688-.425782-.054688-.640626v-62.859374c0-1.429688.046876-2.816407.128907-4.183594 64.636719-2.203125 112.335937-13.628906 139.214843-21.972656zm-167.289062 103.855468c0-4.199218 1.632812-8.144531 4.597656-11.109375 1.023438-1.019531 2.15625-1.882812 3.378906-2.574219.011719.203126.035157.402344.046876.605469.011718.160157.023437.324219.039062.484375.058594.597656.128906 1.191406.230469 1.773438.011719.0625.027343.125.035156.183594.097656.53125.214844 1.058593.34375 1.578124.039063.160157.082031.320313.125.480469.136719.5.289063.996094.457031 1.484375.023438.074219.046875.148438.070313.222656.195312.550782.417969 1.089844.648437 1.621094.0625.144532.132813.285156.199219.429688.195313.425781.40625.847656.628906 1.261718.0625.117188.121094.238282.183594.351563.28125.507813.578125 1 .894531 1.480469.070313.109375.148438.214844.222656.324218.261719.390626.539063.769532.824219 1.140626.09375.125.1875.25.285157.371093.355468.449219.726562.890625 1.117187 1.316407.050781.050781.105469.101562.15625.15625.351563.375.714844.734374 1.085937 1.085937.121094.109375.238282.21875.359376.328125.386718.347656.785156.6875 1.195312 1.007812.050781.039063.097656.082032.148438.121094.375.289063.753906.570313 1.148437.835938v10.757812h-2.710937c-8.664063 0-15.710938-7.050781-15.710938-15.71875zm107.554688 138.121094c1.121093.179688 2.246093.34375 3.375.488281.226562.027344.453124.058594.679687.085938 1.082031.128906 2.167969.238281 3.253906.332031.390625.035156.777344.070312 1.167969.101562 1.097656.082032 2.195312.152344 3.292969.203126.421875.019531.839843.03125 1.261719.042968.953124.035156 1.90625.054688 2.855468.058594.226563.003906.453125.015625.675782.015625.230468 0 .457031-.011719.6875-.015625.949218-.003906 1.894531-.023438 2.839843-.058594.421875-.011718.84375-.023437 1.261719-.042968 1.101562-.050782 2.199219-.121094 3.292969-.203126.390625-.03125.777343-.066406 1.164062-.097656 1.101563-.097656 2.203125-.207031 3.300781-.339844.207032-.027343.410157-.050781.617188-.078124 1.140625-.144532 2.277344-.3125 3.410156-.496094.25-.039063.503906-.078125.753906-.121094 1.007813-.167969 2.011719-.347656 3.015626-.546875v9.460937l-20.34375 30-18.226563-26.878906-2.121094-3.132812v-9.449219c1 .199219 2.003907.375 3.007813.546875.257812.042969.519531.082031.777344.125zm-17.09375 72.433594c-.019532 0-.03125.007812-.054688.003906-.070312-.011719-.109375-.035156-.148438-.0625-.054687-.039062-.09375-.082031-.117187-.125l-23.359375-42.285156 22.246094-7.285156 21.3125 31.429687-19.625 18.230469c-.050782.046875-.128906.097656-.253906.09375zm-85.800782 55.515625h33.542969v29.019531h-33.542969zm206.707032 29.019531v-29.019531h33.480468v29.019531zm33.480468-69.421875v20.398437h-33.480468v-8.871093c0-5.523438-4.476563-10-10-10-5.523438 0-10 4.476562-10 10v57.894531h-133.164063v-57.894531c0-5.523438-4.476563-10-10-10s-10 4.476562-10 10v8.875h-33.542969v-20.402344c0-25.644531 17.726563-47.132813 42.167969-52.339844l25.808594 46.71875c3.054687 5.523438 8.378906 9.265625 14.609375 10.261719.488281.078125.976562.132812 1.460937.175781.136719.011719.269531.019531.402344.027344.394531.027344.789063.042969 1.183594.046875.070312.003906.144531.011719.214843.011719.027344 0 .050782-.003907.078126-.003907.558593-.003906 1.117187-.03125 1.671874-.078124.105469-.011719.214844-.019532.320313-.03125.5625-.058594 1.121094-.132813 1.671875-.238282.042969-.007812.085938-.019531.125-.027344.53125-.101562 1.058594-.230468 1.578125-.375.082031-.023437.164063-.042968.246094-.066406.53125-.15625 1.054687-.335937 1.566406-.535156.101563-.035156.199219-.078125.296875-.117188.523438-.210937 1.039062-.4375 1.542969-.691406.023437-.011718.046875-.027344.070312-.039062.488281-.246094.964844-.523438 1.4375-.8125.085938-.054688.171875-.105469.257813-.15625.464844-.296875.921875-.617188 1.367187-.953125.085938-.066407.171875-.136719.257813-.203125.457031-.359375.902344-.726563 1.332031-1.128906l19.792969-18.386719 19.792968 18.386719c.429688.398437.875.769531 1.328126 1.125.089843.070312.179687.140624.265624.207031.441407.335937.894532.652343 1.359376.945312.089843.058594.183593.113281.277343.171875.457031.28125.921875.546875 1.398438.792969.035156.015625.066406.035156.101562.050781.496094.25 1.003907.472656 1.515625.679688.109375.046875.222656.09375.332032.136718.503906.191407 1.015624.367188 1.53125.519532.101562.027344.199218.054687.300781.082031.492187.136719.988281.257813 1.492187.355469.066406.011718.128906.027344.195313.042968.535156.097657 1.082031.171876 1.625.226563.125.015625.246093.027344.371093.039063.542969.042968 1.085938.074218 1.636719.074218.03125 0 .058594.003906.089844.003906.082031 0 .164063-.007812.246094-.007812.382812-.003906.761719-.019531 1.140625-.046875.140625-.007813.277344-.019531.417968-.03125.484376-.042969.972657-.09375 1.457032-.171875 6.230468-1 11.554687-4.738281 14.609375-10.265625l25.933593-46.933594c24.742188 4.800781 43.308594 26.765625 43.308594 52.558594zm-86.75-15.292969c-.039062.066406-.089844.15625-.261718.183594-.179688.03125-.253907-.042969-.3125-.09375l-19.628907-18.234375 21.308594-31.433594 22.257813 7.292969zm51.722656-177.53125-3.277343 17.910156c-5.464844 29.796876-26.660157 54.398438-55.320313 64.203126-8.710937 2.980468-17.832031 4.492187-27.105468 4.492187-2.316407 0-4.628907-.09375-6.921876-.28125-1.34375-.109375-2.679687-.261719-4.011718-.4375-5.503906-.71875-10.914063-1.972656-16.175782-3.773437h-.003906c-28.660156-9.808594-49.855468-34.40625-55.308594-64.195313l-3.273437-17.917969v-24.972656c.375-.117188.746094-.25 1.113281-.386719.003906 0 .011719-.003906.019532-.003906.246093-.09375.488281-.195313.730468-.296875.144532-.058594.285156-.113281.429688-.175781.214844-.09375.429687-.195313.644531-.296875.164063-.078125.328125-.15625.492187-.238282.203126-.101562.398438-.207031.597657-.3125.171875-.09375.347656-.1875.519531-.289062.183594-.105469.367188-.210938.550781-.324219.179688-.109375.363281-.226562.542969-.34375.167969-.109375.335938-.21875.503906-.332031.191406-.132812.382813-.269531.574219-.410156.148437-.109375.296875-.214844.445313-.328125.214843-.164063.425781-.339844.636718-.511719.117188-.097656.234375-.1875.347656-.289062.324219-.277344.644532-.5625.957032-.859376 4.601562-4.394531 7.242187-10.566406 7.242187-16.933593v-39.902344c12.085938 3.816406 31.148438 9.359375 52.277344 13.707031 37.859375 7.785156 67.238281 8.613282 87.691406 2.496094v23.320312c0 .566407.027344 1.128907.066407 1.6875.007812.117188.015624.238282.023437.355469.046875.542969.105469 1.078125.1875 1.609375.011719.089844.03125.175782.042969.261719.078125.484375.171875.964844.277344 1.4375.019531.089844.039062.179687.058593.269531.121094.515625.261719 1.023438.417969 1.523438.035156.109375.070312.21875.101562.324218.164063.5.335938.992188.527344 1.472657.003906.015625.011719.03125.015625.046875.199219.492187.414063.972656.644531 1.449218.046876.105469.097657.207032.148438.308594.230469.464844.472656.921875.730469 1.367188.039062.066406.082031.132812.121093.199218.242188.40625.496094.804688.761719 1.195313.050781.078125.097657.152344.152344.230469.292969.417968.597656.828125.914063 1.230468.066406.082032.136718.164063.203124.246094.320313.390625.644532.773438.988282 1.140625.015625.019531.03125.039063.050781.054688.355469.382812.726563.746093 1.105469 1.101562.078125.074219.160156.148438.242187.222657.378907.347656.765625.683593 1.167969 1.003906.050781.042968.105469.078125.160156.121094.375.292968.757813.574218 1.148438.847656.078125.050781.152344.105468.226562.15625.425782.285156.859375.554687 1.304688.8125.085937.050781.175781.101562.265625.152344.4375.242187.878906.480468 1.332031.695312.027344.015625.058594.03125.085938.042969.476562.226562.960937.429687 1.449218.625.054688.019531.105469.046875.160156.066406zm38.417969-32.84375c0 4.195313-1.636719 8.148438-4.601562 11.117188-2.964844 2.96875-6.914063 4.601562-11.117188 4.601562h-2.699219v-9.890625c.359376-.207031.707032-.429687 1.054688-.652343.042969-.03125.089844-.054688.132812-.082032.511719-.339844 1.003907-.703125 1.488282-1.078125.128906-.101562.253906-.203125.378906-.304687.414062-.335938.8125-.683594 1.203125-1.042969.070313-.066406.140625-.125.210937-.191406.441407-.421875.859376-.859375 1.265626-1.3125.105468-.117188.203124-.234375.304687-.351563.332031-.386718.652344-.78125.960937-1.191406.074219-.097656.152344-.195312.226563-.296875.359375-.492187.695313-.996094 1.015625-1.511719.074219-.125.144531-.25.21875-.371094.257812-.4375.5-.878906.730469-1.332031.066406-.128906.132812-.253906.195312-.382812.269531-.550781.515625-1.113281.738281-1.683594.046876-.117187.085938-.238281.128907-.359375.183593-.484375.34375-.972656.492187-1.46875.046875-.152344.09375-.304688.136719-.460938.164063-.597656.3125-1.203124.429687-1.816406.019532-.101562.03125-.203125.046876-.300781.097656-.535156.171874-1.078125.230468-1.621094.015625-.171875.035156-.34375.050782-.515625.011718-.128906.027343-.257812.035156-.390625 4.074218 2.84375 6.742187 7.5625 6.742187 12.890625zm0 0"/><path d="m247.214844 98.816406c18.191406 0 32.992187-14.800781 32.992187-32.992187 0-18.191407-14.800781-32.992188-32.992187-32.992188s-32.992188 14.800781-32.992188 32.992188c0 18.191406 14.800782 32.992187 32.992188 32.992187zm0-45.984375c7.164062 0 12.992187 5.828125 12.992187 12.992188 0 7.164062-5.828125 12.992187-12.992187 12.992187-7.164063 0-12.992188-5.828125-12.992188-12.992187 0-7.164063 5.828125-12.992188 12.992188-12.992188zm0 0"/><path d="m150.300781 426.21875c-.542969-.359375-1.121093-.667969-1.722656-.917969-.609375-.25-1.238281-.441406-1.871094-.570312-1.289062-.261719-2.617187-.261719-3.90625 0-.644531.128906-1.273437.320312-1.871093.570312-.609376.25-1.191407.558594-1.730469.917969-.550781.359375-1.058594.78125-1.519531 1.242188-1.859376 1.859374-2.933594 4.4375-2.933594 7.070312 0 .648438.070312 1.308594.203125 1.957031.128906.632813.320312 1.261719.570312 1.871094.25.601563.558594 1.179687.917969 1.71875.359375.550781.78125 1.0625 1.242188 1.523437.457031.457032.96875.878907 1.519531 1.25.539062.359376 1.117187.667969 1.730469.917969.597656.25 1.226562.441407 1.867187.570313s1.300781.191406 1.949219.191406c.652344 0 1.3125-.0625 1.960937-.191406.628907-.128906 1.261719-.320313 1.871094-.570313.601563-.25 1.179687-.558593 1.71875-.917969.550781-.371093 1.0625-.792968 1.53125-1.25.457031-.460937.867187-.972656 1.238281-1.523437.359375-.539063.671875-1.117187.921875-1.71875.25-.609375.4375-1.238281.570313-1.871094.128906-.648437.1875-1.308593.1875-1.957031 0-2.632812-1.058594-5.210938-2.921875-7.070312-.464844-.460938-.976563-.882813-1.523438-1.242188zm0 0"/><path d="m153.988281 468.058594c-.25-.609375-.558593-1.1875-.917969-1.730469-.371093-.546875-.78125-1.058594-1.242187-1.519531-.46875-.457032-.976563-.878906-1.527344-1.25-.539062-.359375-1.121093-.660156-1.722656-.910156-.609375-.25-1.238281-.449219-1.867187-.570313-1.292969-.257813-2.621094-.257813-3.910157 0-.640625.121094-1.273437.320313-1.871093.570313-.609376.25-1.191407.550781-1.730469.910156-.550781.371094-1.058594.792968-1.519531 1.25-.460938.460937-.878907.972656-1.238282 1.519531-.363281.542969-.671875 1.121094-.921875 1.730469-.25.601562-.441406 1.230468-.570312 1.871094-.128907.640624-.199219 1.300781-.199219 1.949218 0 .652344.070312 1.3125.199219 1.949219.128906.640625.320312 1.273437.570312 1.871094.25.609375.558594 1.191406.921875 1.730469.359375.550781.777344 1.058593 1.238282 1.519531.460937.460937.96875.878906 1.519531 1.242187.539062.359375 1.121093.667969 1.730469.917969.601562.25 1.230468.441406 1.871093.570313.640625.128906 1.300781.199218 1.949219.199218s1.308594-.070312 1.960938-.199218c.628906-.128907 1.257812-.320313 1.867187-.570313.601563-.25 1.183594-.558594 1.722656-.917969.550781-.363281 1.058594-.78125 1.527344-1.242187.460937-.460938.871094-.96875 1.242187-1.519531.359376-.539063.667969-1.121094.917969-1.730469.25-.597657.441407-1.230469.570313-1.871094.128906-.636719.1875-1.296875.1875-1.949219 0-.648437-.058594-1.308594-.1875-1.949218-.128906-.640626-.320313-1.269532-.570313-1.871094zm0 0"/></svg>