<svg viewBox="1 -22 511.999 511" xmlns="http://www.w3.org/2000/svg"><path d="m242.28125 358.40625h27.4375c5.519531 0 10-4.476562 10-10s-4.480469-10-10-10h-27.4375c-5.519531 0-10 4.476562-10 10s4.480469 10 10 10zm0 0"/><path d="m491.605469 6.636719c-6.402344-3.894531-13.910157-6.136719-21.933594-6.136719h-427.34375c-23.339844 0-42.328125 18.988281-42.328125 42.328125v307.859375c0 23.339844 18.988281 42.328125 42.328125 42.328125h165.699219v55.105469h-38.515625c-5.519531 0-10 4.476562-10 10 0 5.523437 4.480469 10 10 10h172.972656c5.523437 0 10-4.476563 10-10 0-5.523438-4.476563-10-10-10h-38.511719v-55.105469h165.699219c23.339844 0 42.328125-18.988281 42.328125-42.328125v-307.859375c0-15.316406-8.175781-28.757813-20.394531-36.191406zm.394531 343.210937c0 12.3125-10.015625 22.328125-22.328125 22.328125h-427.34375c-12.3125 0-22.328125-10.019531-22.328125-22.328125v-25.207031h472zm-449.671875-329.347656h145.992187v187.808594c0 5.523437 4.476563 10 10 10 5.519532 0 10-4.476563 10-10v-187.808594h261.351563c1.152344 0 2.289063.085938 3.394531.257812 10.707032 1.640626 18.933594 10.914063 18.933594 22.070313v261.8125h-283.679688v-16.332031c0-5.519532-4.480468-10-10-10-5.523437 0-10 4.480468-10 10v16.332031h-168.320312v-261.8125c0-12.3125 10.015625-22.328125 22.328125-22.328125zm241.644531 427.621094h-55.945312v-55.105469h55.945312zm0 0"/><path d="m80.578125 198.449219c5.714844-.960938 10.480469-4.71875 12.746094-10.050781 2.476562-5.824219 4.484375-11.167969 5.980469-15.886719.578124-1.828125 2.257812-3.058594 4.183593-3.058594s3.609375 1.230469 4.1875 3.058594c1.488281 4.714843 3.503907 10.0625 5.976563 15.886719 2.265625 5.332031 7.03125 9.089843 12.746094 10.050781.945312.160156 1.890624.238281 2.828124.238281 4.710938 0 9.214844-1.972656 12.441407-5.539062 24.0625-26.621094 36.105469-66.976563 29.964843-100.417969-1.492187-8.121094-5.554687-22.988281-15.988281-31.34375-14.277343-11.425781-26.96875-7.210938-37.164062-3.828125-5.011719 1.664062-9.75 3.234375-14.992188 3.359375-5.238281-.125-9.976562-1.695313-14.988281-3.359375-10.195312-3.386719-22.890625-7.597656-37.164062 3.828125-10.4375 8.355469-14.496094 23.226562-15.988282 31.34375-6.140625 33.441406 5.898438 73.796875 29.964844 100.417969 3.863281 4.277343 9.578125 6.257812 15.265625 5.300781zm-25.558594-102.105469c1.628907-8.882812 5.007813-16.292969 8.8125-19.339844 5.527344-4.421875 8.8125-3.632812 18.367188-.460937 5.679687 1.882812 12.75 4.230469 21.113281 4.378906h.351562c8.363282-.148437 15.433594-2.496094 21.113282-4.378906 9.554687-3.171875 12.839844-3.964844 18.367187.460937 3.804688 3.046875 7.183594 10.457032 8.8125 19.339844 4.710938 25.65625-4.207031 57.613281-21.835937 79.53125-1.347656-3.402344-2.480469-6.546875-3.378906-9.390625-3.21875-10.183594-12.5625-17.027344-23.253907-17.027344-10.691406 0-20.039062 6.84375-23.257812 17.027344-.898438 2.84375-2.03125 5.988281-3.378907 9.390625-17.625-21.917969-26.542968-53.875-21.832031-79.53125zm0 0"/><path d="m438 215.308594c-22.054688 0-40 17.945312-40 40 0 22.058594 17.945312 40 40 40s40-17.941406 40-40c0-22.054688-17.945312-40-40-40zm0 60c-11.027344 0-20-8.96875-20-20 0-11.027344 8.972656-20 20-20s20 8.972656 20 20c0 11.03125-8.972656 20-20 20zm0 0"/><path d="m232 178.308594h16.378906c11.179688 0 21.195313-7.078125 24.925782-17.617188l15.46875-43.707031 10.453124 96.132813c.625 5.765624 5.085938 10.273437 10.84375 10.964843.507813.0625 1.007813.089844 1.507813.089844 5.175781 0 9.828125-3.207031 11.625-8.179687l21.949219-60.660157 3.648437 5.46875c4.914063 7.371094 13.136719 11.769531 21.996094 11.769531h89.203125c5.523438 0 10-4.476562 10-10 0-5.523437-4.476562-10-10-10h-89.203125c-2.15625 0-4.160156-1.070312-5.359375-2.867187l-12.457031-18.679687c-2.519531-3.78125-6.902344-5.789063-11.40625-5.246094-4.511719.546875-8.277344 3.542968-9.824219 7.816406l-16.1875 44.738281-10.511719-96.65625c-.625-5.789062-5.101562-10.300781-10.886719-10.976562-5.78125-.675781-11.175781 2.6875-13.121093 8.175781l-26.59375 75.144531c-.90625 2.566407-3.347657 4.289063-6.070313 4.289063h-16.378906c-5.523438 0-10 4.476562-10 10 0 5.523437 4.476562 10 10 10zm0 0"/><path d="m189.078125 252.128906c.25.613282.5625 1.191406.921875 1.730469.371094.550781.789062 1.0625 1.25 1.519531 1.859375 1.863282 4.4375 2.929688 7.070312 2.929688.648438 0 1.308594-.058594 1.949219-.1875s1.269531-.332032 1.871094-.582032c.609375-.25 1.1875-.558593 1.726563-.917968.550781-.359375 1.0625-.78125 1.523437-1.242188.457031-.457031.878906-.96875 1.238281-1.519531.359375-.539063.671875-1.117187.921875-1.730469.25-.597656.449219-1.226562.566407-1.867187.132812-.640625.199218-1.300781.199218-1.953125 0-.648438-.066406-1.308594-.199218-1.949219-.117188-.640625-.316407-1.269531-.566407-1.867187-.25-.613282-.5625-1.191407-.921875-1.730469-.359375-.550781-.78125-1.0625-1.238281-1.519531-.460937-.460938-.972656-.882813-1.523437-1.242188-.539063-.359375-1.117188-.667969-1.726563-.917969-.601563-.25-1.230469-.453125-1.871094-.570312-1.289062-.261719-2.621093-.261719-3.898437 0-.640625.117187-1.273438.320312-1.882813.570312-.597656.25-1.179687.558594-1.71875.917969-.550781.359375-1.058593.78125-1.519531 1.242188-.460938.457031-.882812.96875-1.25 1.519531-.359375.539062-.671875 1.117187-.921875 1.730469-.238281.597656-.4375 1.226562-.558594 1.867187-.132812.640625-.203125 1.300781-.203125 1.949219 0 .652344.070313 1.3125.203125 1.953125.121094.640625.320313 1.269531.558594 1.867187zm0 0"/></svg>