<svg viewBox="-96 0 512 512" xmlns="http://www.w3.org/2000/svg"><path d="m319.027344 73.25c0-3.304688-.847656-6.582031-2.457032-9.472656-21.832031-39.339844-63.34375-63.777344-108.332031-63.777344-.691406 0-1.394531.0117188-2.089843.0195312-7.632813.1249998-14.53125 4.7226568-17.578126 11.7187498l-7.195312 16.535157c-11.261719-2.710938-22.832031-4.082032-34.515625-4.082032-34 0-67.199219 11.867188-93.488281 33.414063-26.289063 21.546875-44.441406 51.773437-51.117188 85.113281-1.496094 7.476562-2.253906 15.140625-2.253906 22.769531v234.683594c0 14.835937 12.070312 26.90625 26.910156 26.90625h14.457032c-5.113282 13.761719-7.789063 28.410156-7.789063 43.113281v23.4375c0 10.128906 8.242187 18.371094 18.371094 18.371094h194.902343c10.128907 0 18.367188-8.242188 18.367188-18.371094v-24.238281c0-14.410156-2.574219-28.789063-7.492188-42.3125h10.664063c14.835937 0 26.910156-12.070313 26.910156-26.90625v-226.171875c0-7.089844-.660156-14.230469-1.957031-21.214844l-1.503906-8.089844c-1.320313-7.082031-3.15625-14.066406-5.46875-20.835937l28.820312-38.992187c2.511719-3.382813 3.835938-7.402344 3.835938-11.617188zm-73.808594 418.75h-27.390625v-17.597656c0-5.523438-4.476563-10-10-10s-10 4.476562-10 10v17.597656h-99.703125v-17.597656c0-5.523438-4.476562-10-10-10s-10 4.476562-10 10v17.597656h-24.546875v-21.808594c0-16.820312 4.160156-33.570312 12.042969-48.457031 1.277344-2.433594 2.6875-4.863281 4.21875-7.265625l.089844-.144531c8.855468-13.886719 23.96875-22.175781 40.4375-22.175781h3.316406c.011718.25.035156.496093.050781.742187.015625.273437.035156.542969.054687.816406.03125.402344.070313.804688.113282 1.203125.027344.257813.050781.515625.082031.769532.046875.429687.109375.855468.167969 1.28125.03125.226562.058594.453124.09375.679687.082031.523437.175781 1.046875.269531 1.566406.023437.125.039063.25.0625.375.125.644531.261719 1.289063.40625 1.929688.039063.160156.082031.320312.121094.480469.113281.476562.230469.949218.355469 1.421874.0625.234376.132812.464844.199218.699219.109375.394531.222656.792969.34375 1.1875.078125.253907.164063.507813.246094.761719.117188.367188.238281.738281.367188 1.105469.089843.261719.1875.523437.28125.78125.128906.355469.261718.710937.398437 1.0625.105469.265625.210937.527343.316406.789062.140625.347657.285157.691407.433594 1.035157.113281.261718.226563.523437.34375.785156.15625.34375.3125.683594.476563 1.023437.121093.253907.242187.507813.367187.761719.171875.34375.347656.683594.523437 1.023438.128907.246093.253907.492187.386719.734374.191407.351563.386719.699219.585938 1.046876.128906.226562.253906.453124.386719.679687.222656.378906.457031.753906.6875 1.128906.117187.1875.230468.375.347656.5625.359375.558594.726562 1.113281 1.101562 1.660157l12.769532 18.476562c.949218 1.378906 2.089843 2.582031 3.375 3.585938v22.695312c0 5.523438 4.476562 10 10 10 5.523437 0 10-4.476562 10-10v-22.691406c1.28125-1 2.421874-2.203125 3.367187-3.574219l12.757813-18.476563c.378906-.546874.746093-1.101562 1.105468-1.660156.113282-.183594.222656-.367187.335938-.550781.238281-.378906.472656-.761719.703125-1.144531.128906-.222656.253906-.449219.382812-.671875.199219-.351563.398438-.703125.589844-1.054688.132813-.242187.257813-.484375.382813-.730469.179687-.339843.355468-.683593.527343-1.027343.125-.253907.246094-.507813.367188-.761719.164062-.339844.320312-.679688.476562-1.023438.117188-.261718.234375-.519531.34375-.78125.152344-.347656.296875-.691406.4375-1.039062.105469-.261719.210938-.523438.316407-.789062.136718-.351563.269531-.707032.398437-1.0625.09375-.261719.191406-.523438.28125-.785157.128906-.363281.25-.730469.367187-1.101562.082032-.253907.167969-.507813.246094-.765625.121094-.390625.234375-.78125.34375-1.175782.066406-.238281.140625-.472656.203125-.710937.125-.464844.238281-.929687.347657-1.394531.042968-.171875.089843-.339844.128906-.511719.144531-.640625.28125-1.28125.40625-1.925781.023437-.128906.042968-.253906.066406-.382813.09375-.519531.1875-1.039062.265625-1.5625.035156-.226562.0625-.457031.097656-.683593.058594-.425782.117188-.847657.167969-1.273438.03125-.257812.054688-.519531.082031-.78125.039063-.394531.078125-.796875.113281-1.195312.019532-.273438.039063-.546876.054688-.816407.015625-.25.039062-.496093.050781-.746093h3.816407c7.132812 0 14.203124 1.605468 20.621093 4.660156.917969.4375 1.820313.902344 2.710938 1.394531 7.128906 3.976563 13.160156 9.734375 17.441406 16.660156 1.386719 2.238281 2.683594 4.527344 3.871094 6.824219 7.617187 14.671875 11.644531 31.167969 11.644531 47.703125zm-86.152344-83.105469-9.667968 14.003907-9.679688-14.011719c-3.996094-5.785157-6.109375-12.5625-6.109375-19.597657v-16.5625c.105469.015626.214844.027344.320313.042969.933593.140625 1.871093.261719 2.804687.375.304687.039063.609375.085938.910156.117188 1.242188.140625 2.484375.253906 3.726563.34375.320312.023437.640625.035156.957031.054687.929687.058594 1.859375.109375 2.792969.136719.457031.015625.914062.019531 1.371094.027344.578124.007812 1.15625.03125 1.734374.03125.203126 0 .410157-.011719.613282-.011719.609375-.003906 1.21875-.023438 1.824218-.039062.695313-.015626 1.386719-.035157 2.078126-.066407.609374-.03125 1.214843-.070312 1.824218-.109375.691406-.046875 1.386719-.097656 2.078125-.15625.601563-.054687 1.207031-.121094 1.808594-.183594.691406-.074218 1.386719-.15625 2.078125-.246093.597656-.078125 1.195312-.164063 1.792969-.253907.691406-.105468 1.378906-.214843 2.070312-.332031.265625-.046875.53125-.078125.792969-.128906v16.960937c0 7.035157-2.113281 13.808594-6.121094 19.605469zm12.90625-58.921875c-14.570312 4.949219-30.703125 5.183594-45.433594.65625-13.613281-4.171875-25.65625-12.230468-34.8125-23.277344-.980468-1.191406-1.960937-2.398437-2.933593-3.636718-33.980469-43.253906-44.253907-101.027344-27.480469-154.542969l8.59375-27.4375c15.445312 15.035156 47.550781 40.117187 93.097656 44.5 45.5 4.371094 72.214844 14.667969 82.289063 19.285156 1.144531 46.976563-12.476563 87.9375-40.535157 121.8125-8.6875 10.488281-20.019531 18.3125-32.785156 22.640625zm95.132813-233.695312c-.003907.003906-.003907.003906-.007813.007812l-3.84375 5.199219c-1.339844-.402344-2.566406-.785156-3.722656-1.160156-5.257812-1.703125-10.894531 1.179687-12.59375 6.433593-1.703125 5.253907 1.175781 10.890626 6.429688 12.59375 1.734374.5625 3.59375 1.132813 5.710937 1.753907 1.632813.472656 3.296875.699219 4.945313.699219 2.214843 0 4.402343-.417969 6.453124-1.203126.644532 2.566407 1.214844 5.152344 1.699219 7.753907l1.5 8.082031c1.078125 5.789062 1.625 11.695312 1.625 17.5625v226.171875c0 3.808594-3.101562 6.90625-6.910156 6.90625h-20.03125c-.535156-.917969-1.082031-1.832031-1.644531-2.738281-6.066406-9.8125-14.613282-17.976563-24.71875-23.605469-10.082032-5.617187-21.515625-8.585937-33.066406-8.585937h-3.738282v-5.851563c13.492188-5.796875 25.484375-14.753906 34.96875-26.207031 32.492188-39.226563 47.597656-86.777344 44.898438-141.332032-.164063-3.335937-1.984375-6.367187-4.847656-8.085937-1.230469-.738281-30.925782-18.160156-95.292969-24.34375-40.050781-3.855469-68.335938-26.390625-81.632813-39.484375-4.875-4.796875-11.746094-6.671875-18.371094-5.019531-6.605468 1.652343-11.769531 6.515625-13.808593 13.019531l-8.878907 28.347656c-18.746093 59.8125-7.214843 124.441406 30.835938 172.875 1.070312 1.363282 2.152344 2.695313 3.25 4.027344 10.058594 12.136719 22.851562 21.425781 37.296875 27.164062v4.894532h-3.238281c-23.339844 0-44.757813 11.746094-57.332032 31.46875l-.09375.148437c-.621093.972657-1.222656 1.960938-1.816406 2.957031-.070312.117188-.148437.234376-.21875.355469h-24c-3.808594 0-6.910156-3.101562-6.910156-6.910156v-234.683594c0-6.316406.628906-12.65625 1.867188-18.847656 5.769531-28.816406 21.457031-54.941406 44.183593-73.566406 22.722657-18.628907 51.421875-28.886719 80.808594-28.886719 8.914063 0 17.746094.945312 26.382813 2.769531l-9.320313 21.394531c-1 2.273438-1.511719 4.695313-1.511719 7.199219 0 4.839844 2.007813 9.546875 5.523438 12.929688 7.53125 7.214843 15.625 13.941406 24.0625 19.988281 1.765625 1.261719 3.800781 1.871094 5.816406 1.871094 3.117188 0 6.183594-1.449219 8.136719-4.175782 3.21875-4.488281 2.1875-10.734374-2.304688-13.953124-7.28125-5.21875-14.285156-10.992188-20.820312-17.167969l13.433593-30.84375c0-.003907.003907-.003907.003907-.007813l10.519531-24.175781c.488281-.007813.976562-.015625 1.460938-.015625 37.621093 0 72.34375 20.378906 90.695312 53.214844zm0 0"/><path d="m258.792969 67.605469-4.882813-2.820313 2.277344-3.941406c2.761719-4.785156 1.121094-10.898438-3.660156-13.660156-4.785156-2.761719-10.898438-1.125-13.660156 3.660156l-2.277344 3.941406-4.878906-2.816406c-4.785157-2.757812-10.898438-1.121094-13.660157 3.660156-2.765625 4.78125-1.125 10.898438 3.660157 13.660156l4.878906 2.816407-2.277344 3.945312c-2.761719 4.785157-1.121094 10.898438 3.660156 13.660157 1.574219.910156 3.292969 1.339843 4.992188 1.339843 3.457031 0 6.816406-1.792969 8.667968-5l2.277344-3.945312 4.878906 2.820312c1.578126.910157 3.296876 1.339844 4.992188 1.339844 3.457031 0 6.816406-1.792969 8.667969-5 2.765625-4.785156 1.125-10.898437-3.65625-13.660156zm0 0"/><path d="m158.976562 314.878906c-6.175781 2.125-12.980468 2.125-19.160156 0-5.222656-1.800781-10.910156.976563-12.707031 6.199219s.980469 10.914063 6.203125 12.710937c5.183594 1.785157 10.636719 2.679688 16.085938 2.679688 5.449218 0 10.898437-.894531 16.085937-2.679688 5.222656-1.796874 8-7.488281 6.203125-12.710937s-7.488281-8-12.710938-6.199219zm0 0"/><path d="m136 235.917969c2.972656-4.652344 1.613281-10.835938-3.039062-13.8125-13.195313-8.433594-30.246094-8.433594-43.441407 0-4.652343 2.976562-6.011719 9.160156-3.039062 13.8125 2.972656 4.65625 9.160156 6.015625 13.8125 3.042969 6.648437-4.253907 15.242187-4.253907 21.894531 0 1.667969 1.0625 3.535156 1.574218 5.375 1.574218 3.300781 0 6.53125-1.632812 8.4375-4.617187zm0 0"/><path d="m212.316406 235.917969c2.972656-4.652344 1.613282-10.835938-3.042968-13.808594-13.191407-8.433594-30.242188-8.433594-43.4375 0-4.652344 2.972656-6.015626 9.15625-3.039063 13.808594 2.972656 4.65625 9.15625 6.015625 13.808594 3.042969 6.652343-4.25 15.246093-4.25 21.898437 0 1.667969 1.066406 3.53125 1.574218 5.375 1.574218 3.300782 0 6.527344-1.632812 8.4375-4.617187zm0 0"/><path d="m235.945312 113.921875c-.25-.601563-.5625-1.183594-.921874-1.722656-.359376-.550781-.78125-1.058594-1.238282-1.519531-.460937-.460938-.980468-.878907-1.519531-1.238282-.550781-.363281-1.132813-.671875-1.730469-.921875-.601562-.25-1.230468-.449219-1.871094-.570312-3.25-.660157-6.699218.410156-9.03125 2.730469-.457031.460937-.878906.96875-1.238281 1.519531-.359375.539062-.671875 1.121093-.921875 1.722656-.25.609375-.4375 1.238281-.570312 1.878906-.128906.640625-.199219 1.300781-.199219 1.949219 0 2.628906 1.070313 5.210938 2.929687 7.070312 1.859376 1.859376 4.441407 2.929688 7.070313 2.929688.660156 0 1.3125-.070312 1.960937-.199219.640626-.128906 1.269532-.320312 1.871094-.570312.597656-.25 1.179688-.558594 1.730469-.921875.539063-.359375 1.058594-.777344 1.519531-1.238282 1.859375-1.859374 2.929688-4.441406 2.929688-7.070312 0-.648438-.070313-1.308594-.199219-1.949219-.132813-.640625-.320313-1.269531-.570313-1.878906zm0 0"/></svg>