<svg viewBox="-70 0 511 511.99918" xmlns="http://www.w3.org/2000/svg"><path d="m114.25 218.785156c-4.132812 0-8.144531 1.707032-11.003906 4.6875-13.851563 14.433594-45.695313 52.503906-42.195313 94.195313 1.921875 22.917969 14.148438 42.886719 36.335938 59.359375 4.867187 3.609375 10.855469 5.597656 16.863281 5.597656s11.992188-1.988281 16.859375-5.597656c22.1875-16.472656 34.414063-36.441406 36.335937-59.359375 3.5-41.691407-28.339843-79.761719-42.195312-94.195313-2.859375-2.980468-6.871094-4.6875-11-4.6875zm33.269531 97.210938c-1.277343 15.210937-9.113281 28.957031-23.269531 40.941406v-44.925781c0-5.523438-4.476562-10-10-10s-10 4.476562-10 10v44.925781c-14.160156-11.984375-21.996094-25.726562-23.269531-40.941406-2.601563-31.011719 21.566406-61.964844 33.269531-74.980469 11.703125 13.015625 35.871094 43.96875 33.269531 74.980469zm0 0"/><path d="m352.472656 376.308594c16.6875-8.460938 23.382813-28.917969 14.925782-45.601563l-8.179688-16.128906c-8.460938-16.679687-28.917969-23.375-45.609375-14.921875l-9.796875 4.96875v-149.71875c0-19.4375-15.382812-35.34375-34.609375-36.1875v-44.582031c0-9.671875-7.867187-17.539063-17.539063-17.539063h-18.46875l1.917969-5.472656c6.183594-17.652344-3.148437-37.046875-20.800781-43.234375l-17.074219-5.980469c-17.65625-6.183594-37.054687 3.148438-43.242187 20.800782l-11.863282 33.886718h-89.484374c-9.671876 0-17.539063 7.867188-17.539063 17.539063v44.578125c-19.226563.847656-34.609375 16.753906-34.609375 36.1875v270.285156c0 32.007812 26.039062 58.046875 58.046875 58.046875h187.214844c1.042969 0 2.082031-.035156 3.121093-.089844 3.320313 9.609375 10.855469 17.453125 20.835938 20.949219l17.066406 5.980469c3.671875 1.285156 7.464844 1.925781 11.242188 1.925781 5.023437 0 10.023437-1.128906 14.683594-3.371094 8.164062-3.929687 14.3125-10.804687 17.308593-19.355468l23.570313-67.289063c2.996094-8.550781 2.480468-17.757813-1.445313-25.925781-2.695312-5.597656-6.777343-10.246094-11.832031-13.582032zm-179.601562-346.984375c2.542968-7.246094 10.503906-11.078125 17.757812-8.539063l17.066406 5.980469c7.25 2.539063 11.082032 10.5 8.542969 17.746094l-4.238281 12.085937h-48.679688zm-117.761719 47.273437h194.09375v12.347656h-155.519531c-5.523438 0-10 4.480469-10 10 0 5.523438 4.476562 10 10 10h155.519531v9.730469h-194.09375zm3.4375 386.640625c-20.976563 0-38.046875-17.070312-38.046875-38.050781v-14.835938h180.414062c12.941407 0 23.472657-10.53125 23.472657-23.476562v-80.417969c0-5.523437-4.476563-10-10-10-5.523438 0-10 4.476563-10 10v80.417969c0 1.917969-1.558594 3.476562-3.472657 3.476562h-180.410156v-177.242187h180.410156c1.914063 0 3.472657 1.558594 3.472657 3.476563v9.519531c0 5.523437 4.476562 10 10 10 5.523437 0 10-4.476563 10-10v-9.519531c0-12.945313-10.53125-23.476563-23.472657-23.476563h-180.414062v-38.207031c0-8.945313 7.277344-16.226563 16.21875-16.226563h230.875c8.945312 0 16.21875 7.28125 16.21875 16.226563v159.863281l-33.777344 17.132813c-.515625.261718-1.023437.535156-1.523437.820312-.0625.039062-.125.078125-.1875.117188-.441407.253906-.871094.511718-1.296875.785156-.007813.003906-.015625.007812-.019532.011718-6.554687 4.203126-11.429687 10.476563-13.882812 17.976563-2.453125 7.492187-2.238281 15.429687.5625 22.695313.003906.011718.007812.019531.007812.03125.179688.460937.371094.921874.570313 1.375.035156.078124.0625.152343.097656.230468.234375.523438.480469 1.046875.742188 1.5625l8.175781 16.128906c.339844.664063.703125 1.3125 1.078125 1.949219.117187.199219.242187.390625.363281.589844.269532.433594.546875.867187.835938 1.285156.144531.214844.289062.425781.441406.632813.292969.410156.597656.8125.90625 1.207031.144531.179687.28125.363281.429688.542969.429687.523437.871093 1.035156 1.328124 1.53125.03125.03125.054688.0625.085938.09375.488281.523437.996094 1.027344 1.511719 1.515625.15625.148437.320312.289062.480469.4375.371093.335937.75.667969 1.132812.988281.191406.15625.382812.3125.578125.464844.382813.304687.773437.601562 1.167969.886718.183594.132813.367187.269532.550781.398438.523437.363281 1.050781.710938 1.589844 1.042969.0625.035156.121093.078125.179687.117187.601563.363282 1.214844.707032 1.839844 1.03125.183594.097656.375.1875.5625.28125.445312.222656.894531.4375 1.347656.644532.226563.101562.453125.195312.679688.292968.445312.1875.890625.363282 1.34375.53125.214844.078125.433594.164063.652344.238282.566406.199218 1.136718.382812 1.714843.550781.097657.027343.195313.0625.292969.089843.613281.171876 1.226562.328126 1.847656.464844l-17.304687 49.410156c-.246094.695313-.457031 1.394532-.65625 2.101563-.019531.070313-.046875.136719-.0625.207031-.8125.054688-1.625.078125-2.4375.078125zm276.167969-47.867187-23.570313 67.289062c-1.230469 3.511719-3.753906 6.332032-7.105469 7.945313-3.347656 1.613281-7.128906 1.820312-10.636718.59375l-17.074219-5.980469c-5.617187-1.96875-9.367187-7.289062-9.324219-13.234375.015625-1.542969.277344-3.054687.789063-4.511719l22.050781-62.960937 1.519531-4.328125c.148438-.421875.316407-.835938.5-1.238282.007813-.015624.015625-.027343.023438-.042968.164062-.355469.347656-.699219.539062-1.039063.027344-.042969.046875-.089843.074219-.136719.429688-.734374.929688-1.421874 1.484375-2.0625.039063-.042968.074219-.085937.113281-.128906.25-.28125.515625-.550781.785156-.808594.003907-.003906.007813-.007812.007813-.007812.046875-.042969.09375-.089844.136719-.132812.304687-.28125.621094-.550782.949218-.804688.019532-.015625.039063-.027344.058594-.042969.324219-.25.660156-.480469 1.007813-.699219.050781-.03125.101562-.0625.148437-.09375.355469-.214843.714844-.421874 1.089844-.609374.464844-.230469.9375-.429688 1.414062-.609376.152344-.054687.308594-.097656.464844-.148437.328125-.109375.65625-.214844.988282-.296875.183593-.046875.371093-.082031.558593-.121094.304688-.0625.617188-.121094.925781-.164062.195313-.027344.390626-.050782.585938-.066406.308594-.03125.617188-.046876.929688-.054688.214843-.003906.429687-.011719.640624-.007812.164063.003906.328126.011718.488282.019531.273437.015625.542968.039062.816406.070312.160156.019531.320312.039063.480469.0625.289062.042969.574219.101563.863281.164063.136719.03125.273438.054687.410156.089844.421875.105468.839844.226562 1.253906.371093l3.730469 1.308594c.023438.007813.042969.011719.0625.019531l13.285157 4.652344c3.511718 1.230469 6.332031 3.753906 7.945312 7.105469 1.609375 3.355469 1.820312 7.132812.589844 10.640625zm8.714844-56.898438-28.003907 14.199219c-.234375-.082031-.476562-.152344-.714843-.226563-.253907-.082031-.507813-.164062-.765626-.238281-.289062-.085937-.582031-.160156-.875-.238281-.257812-.066406-.511718-.136719-.769531-.199219-.300781-.070312-.601562-.132812-.902343-.195312-.25-.050781-.496094-.109375-.746094-.15625-.324219-.058594-.648438-.109375-.96875-.160157-.230469-.035156-.457032-.074218-.683594-.105468-.363281-.050782-.726562-.085938-1.09375-.125-.1875-.019532-.371094-.042969-.5625-.058594-.429688-.039062-.859375-.0625-1.292969-.082031-.117187-.003907-.234375-.015625-.355469-.019531-.535156-.019532-1.070312-.027344-1.601562-.019532-.015625 0-.027344 0-.042969 0-5.023437.058594-10.003906 1.25-14.613281 3.550782-.015625.007812-.03125.015624-.046875.023437-.011719.007813-.027344.011719-.042969.019531-.027344.015625-.054687.03125-.082031.042969-.460937.230469-.890625.457031-1.28125.679687-.058594.03125-.117187.066407-.175781.097657-.015625.007812-.035156.019531-.050782.03125-.296874.167969-.585937.335937-.871093.511719-.0625.039062-.125.078124-.1875.117187-.335938.207031-.664063.421875-.992188.636719-.035156.023437-.074219.046875-.109375.070312-.140625.09375-.265625.175782-.375.25-.714844.492188-1.402344 1.015625-2.074218 1.554688-.054688.042968-.113282.085937-.164063.128906-.035156.03125-.070313.0625-.105469.089844-.328125.273437-.648437.550781-.964844.832031-.023437.019531-.050781.039063-.074218.0625-.003906.007813-.011719.011719-.019532.019531-.796874.714844-1.558593 1.464844-2.28125 2.25-.039062.042969-.074218.082032-.113281.121094-.71875.789062-1.402343 1.613281-2.042969 2.46875-.007812.007812-.011718.015625-.015624.023438-.003907.003906-.007813.003906-.007813.007812-.140625.1875-.285156.375-.421875.566406-.011719.015625-.023438.03125-.035156.046875-.011719.019531-.023438.039063-.035156.054688-.535157.75-1.039063 1.523437-1.507813 2.320312-.007813.007813-.015625.019531-.019531.03125-.472656.796875-.910156 1.621094-1.320313 2.460938-.011719.027343-.027343.050781-.042969.078125-.035156.070312-.070312.148437-.101562.21875-.058594.125-.125.25-.179688.375-.015624.027344-.027343.050781-.039062.074218-.132812.292969-.257812.597657-.386719.902344-.082031.195313-.167969.386719-.246093.582032-.007813.023437-.015626.039062-.023438.0625-.070312-.003907-.144531 0-.21875-.003907-.097656-.007812-.199219-.015625-.296875-.023437-.277344-.019532-.554687-.050782-.828125-.085938-.097656-.011718-.195312-.027344-.292969-.042968-.347656-.054688-.695312-.117188-1.039062-.199219-.007813-.003907-.015625-.003907-.023438-.007813-.355469-.082031-.707031-.1875-1.054687-.296875-.089844-.03125-.175782-.0625-.265625-.09375-.257813-.089843-.511719-.1875-.765625-.289062-.097656-.042969-.199219-.085938-.296875-.128907-.269531-.117187-.535157-.246093-.792969-.382812-.0625-.03125-.125-.058594-.183594-.09375-.320312-.167969-.628906-.351562-.929687-.546875-.074219-.046875-.144531-.101563-.21875-.148437-.226563-.15625-.453125-.3125-.671875-.480469-.09375-.074219-.183594-.144531-.277344-.21875-.207031-.167969-.414062-.339844-.613281-.523438-.074219-.066406-.148438-.128906-.222657-.199219-.261718-.246093-.515624-.503906-.761718-.773437-.046875-.050781-.085938-.105469-.132813-.15625-.199219-.222656-.390625-.457031-.574219-.695313-.074218-.097656-.144531-.191406-.214843-.289062-.160157-.214844-.308594-.4375-.457031-.660156-.0625-.097656-.125-.195313-.1875-.292969-.195313-.320313-.382813-.648437-.554688-.988281l-8.179688-16.125c-.214843-.425782-.40625-.855469-.574218-1.292969-.023438-.066406-.042969-.132813-.066406-.199219-.136719-.375-.265626-.753906-.371094-1.132812-.003906-.011719-.003906-.027344-.007813-.039063-1.550781-5.738281.742188-11.9375 5.78125-15.253906.050781-.035156.09375-.070313.140625-.101563.394532-.253906.804688-.488281 1.230469-.703124l39.257813-19.910157c.015624-.007812.027343-.019531.042968-.023437l24.269532-12.3125c2.015624-1.019532 4.160156-1.5 6.277343-1.5 5.089844 0 10.003907 2.792968 12.457031 7.632812l8.179688 16.125c3.46875 6.84375.71875 15.242188-6.132812 18.71875zm0 0"/><path d="m223.625 262.460938c-.25-.609376-.558594-1.1875-.921875-1.730469-.367187-.546875-.789063-1.058594-1.25-1.519531-.457031-.457032-.96875-.878907-1.519531-1.238282-.539063-.359375-1.117188-.671875-1.71875-.921875-.609375-.25-1.242188-.449219-1.871094-.570312-1.289062-.257813-2.621094-.257813-3.910156 0-.640625.121093-1.269532.320312-1.867188.570312-.613281.25-1.191406.5625-1.730468.921875-.550782.359375-1.0625.78125-1.519532 1.238282-.460937.460937-.882812.972656-1.242187 1.519531-.359375.542969-.667969 1.121093-.917969 1.730469-.25.601562-.441406 1.230468-.570312 1.871093-.132813.640625-.203126 1.300781-.203126 1.949219 0 .652344.070313 1.3125.203126 1.949219.128906.640625.320312 1.273437.570312 1.871093.25.609376.558594 1.191407.917969 1.730469.359375.550781.78125 1.058594 1.242187 1.519531.457032.460938.96875.878907 1.519532 1.242188.539062.359375 1.117187.667969 1.730468.917969.597656.25 1.226563.449219 1.867188.570312.640625.128907 1.300781.199219 1.949218.199219.652344 0 1.3125-.070312 1.960938-.199219.628906-.121093 1.261719-.320312 1.871094-.570312.601562-.25 1.179687-.558594 1.71875-.917969.550781-.363281 1.0625-.78125 1.519531-1.242188.460937-.460937.882813-.96875 1.25-1.519531.363281-.539062.671875-1.121093.921875-1.730469.25-.597656.441406-1.230468.570312-1.871093.128907-.636719.1875-1.296875.1875-1.949219 0-.648438-.058593-1.308594-.1875-1.949219-.128906-.640625-.320312-1.269531-.570312-1.871093zm0 0"/></svg>