<svg viewBox="-86 0 511 511.9991" xmlns="http://www.w3.org/2000/svg"><path d="m227.554688 357.714844h-13.597657c-.746093-.175782-1.511719-.269532-2.289062-.269532h-6.972657v-12.039062c16.847657-5.578125 32.363282-14.902344 45.214844-27.238281.300782-.285157.667969-.480469 1.0625-.5625 7.773438-1.609375 26.734375-7.234375 34.964844-24.6875 5.246094-11.152344 1.949219-25.277344-1.746094-35.179688-.128906-.335937-.144531-.761719-.054687-1.207031.21875-1.042969.429687-2.09375.605469-3.09375 1.410156-7.691406 2.464843-15.496094 3.164062-23.304688 20.535156-1.6875 36.730469-18.925781 36.730469-39.882812 0-10.691406-4.164063-20.746094-11.734375-28.320312-6.535156-6.519532-14.917969-10.503907-23.964844-11.472657v-23.199219c25.699219-12.167968 43.441406-37.308593 45.882812-65.847656 2.316407-27-2.078124-49.40625-2.265624-50.347656-.710938-3.554688-3.289063-6.445312-6.738282-7.554688-3.449218-1.113281-7.230468-.273437-9.882812 2.199219-.25.230469-25.464844 22.933594-81.398438 7.746094-77.601562-21.066406-134.429687-17.375-168.917968 10.96875-35.179688 28.914063-35.976563 74.726563-34.683594 93.078125.554687 7.890625.835937 16.148438.835937 24.546875v9.148437c-17.871093 4.007813-31.269531 19.992188-31.269531 39.054688 0 10.6875 4.160156 20.738281 11.726562 28.316406 7.566407 7.554688 17.617188 11.714844 28.304688 11.714844h5.867188c.003906.066406.007812.136719.015624.203125.710938 7.757813 1.769532 15.480469 3.140626 22.949219 7.875 43.011718 38.921874 78.34375 80.058593 91.960937v12.050781h-8.671875c-.777344 0-1.542968.09375-2.289062.269532h-11.910156c-37.300782 0-67.652344 30.351562-67.652344 67.660156v76.625c0 5.523438 4.476562 10 10 10h236.128906c5.523438 0 10-4.476562 10-10v-76.625c0-37.308594-30.355469-67.660156-67.664062-67.660156zm-77.941407 11.121094v-18.679688c.316407.046875.636719.082031.953125.125.859375.121094 1.722656.230469 2.582032.332031.515624.0625 1.027343.117188 1.542968.171875.917969.097656 1.839844.179688 2.761719.253906.445313.035157.890625.074219 1.339844.105469 1.089843.078125 2.1875.132813 3.28125.179688.28125.011719.558593.03125.835937.039062 1.414063.050781 2.828125.082031 4.242188.082031 1.414062 0 2.828125-.03125 4.242187-.082031.28125-.007812.558594-.027343.835938-.039062 1.097656-.046875 2.191406-.101563 3.285156-.179688.445313-.03125.886719-.070312 1.332031-.105469.925782-.074218 1.851563-.15625 2.777344-.253906.507812-.054687 1.011719-.109375 1.515625-.167968.875-.105469 1.75-.21875 2.621094-.339844.3125-.042969.621093-.074219.929687-.121094v18.679688c0 9.671874-7.867187 17.539062-17.539062 17.539062-9.667969 0-17.539063-7.867188-17.539063-17.539062zm149.152344-192.753907c3.789063 3.785157 5.871094 8.816407 5.871094 14.167969 0 9.558594-6.734375 17.578125-15.710938 19.5625.007813-.835938.011719-1.664062.011719-2.492188v-36.632812c3.695312.8125 7.089844 2.660156 9.828125 5.394531zm-220.449219-136.210937c12.941406-10.636719 30.515625-17.078125 52.230469-19.144532 26.746094-2.546874 59.96875 1.5 98.746094 12.03125 41.621093 11.300782 69.867187 4.101563 85.527343-3.1875.675782 8.007813 1.058594 18.632813.074219 30.132813-1.988281 23.214844-17.460937 43.449219-39.425781 51.554687-6.734375 2.488282-13.8125 3.75-21.042969 3.75h-157.707031c-17.636719 0-31.988281 14.355469-31.988281 32v46.671876c0 1.734374-.675781 3.363281-1.902344 4.589843-1.46875 1.472657-3.558594 2.171875-5.640625 1.792969l-.140625-.023438c-.214844-.039062-.417969-.109374-.625-.167968-.167969-.050782-.339844-.085938-.503906-.148438-.191407-.074218-.363281-.167968-.542969-.257812-.15625-.074219-.316406-.140625-.460938-.226563-.171874-.101562-.328124-.226562-.488281-.34375-.136719-.101562-.28125-.1875-.40625-.296875-.15625-.132812-.289062-.285156-.429687-.429687-.113282-.117188-.234375-.226563-.339844-.355469-.128906-.15625-.238281-.335938-.355469-.507812-.089843-.128907-.1875-.253907-.265625-.390626-.109375-.191406-.191406-.398437-.28125-.597656-.0625-.136718-.136718-.265625-.1875-.40625-.085937-.230468-.136718-.476562-.195312-.714844-.027344-.125-.074219-.242187-.097656-.367187-.066407-.375-.101563-.757813-.101563-1.148437v-51.632813c0-8.863281-.296875-17.597656-.882813-25.953125-1.070312-15.253906-.546874-53.222656 27.433594-76.222656zm-51.949218 164.554687c-3.785157-3.789062-5.867188-8.824219-5.867188-14.175781 0-7.90625 4.601562-14.757812 11.269531-18.011719v21.441407c0 .789062.035157 1.566406.105469 2.339843.019531.253907.066406.503907.09375.757813.0625.511718.117188 1.023437.207031 1.523437.050781.300781.125.59375.191407.890625.09375.449219.183593.894532.296874 1.332032.085938.3125.1875.617187.28125.925781.125.410156.25.824219.394532 1.226562.113281.3125.242187.613281.363281.917969.15625.390625.3125.777344.484375 1.15625.140625.304688.296875.597656.445312.898438.183594.363281.367188.726562.570313 1.082031.164063.292969.34375.578125.523437.863281.210938.347656.421876.6875.648438 1.019531.191406.28125.394531.550781.59375.824219.148438.199219.28125.40625.433594.601562-4.164063-.648437-8.003906-2.585937-11.035156-5.613281zm42.859374 45.402344c-1.265624-6.886719-2.238281-14.007813-2.894531-21.140625-.285156-3.214844-.507812-6.414062-.664062-9.574219.042969-.011719.082031-.027343.125-.039062.476562-.140625.953125-.292969 1.421875-.460938.050781-.019531.097656-.039062.148437-.058593.417969-.152344.835938-.316407 1.246094-.492188.144531-.0625.292969-.128906.4375-.195312.320313-.140626.640625-.289063.953125-.445313.148438-.074219.296875-.148437.445312-.226563.347657-.179687.691407-.371093 1.03125-.566406.09375-.054687.191407-.105468.289063-.160156.429687-.257812.851563-.527344 1.265625-.808594.101562-.066406.203125-.140625.300781-.210937.316407-.21875.628907-.445313.9375-.679688.132813-.101562.261719-.203125.390625-.304687.285156-.226563.570313-.460938.847656-.703125.113282-.097657.230469-.195313.34375-.296875.378907-.339844.757813-.6875 1.121094-1.050782 3.128906-3.128906 5.375-6.898437 6.625-11.015624.25-.824219.457032-1.660157.625-2.511719.167969-.847657.296875-1.707031.382813-2.574219.085937-.871094.125-1.75.125-2.632812v-46.671876c0-6.617187 5.378906-12 11.992187-12h157.703125c1.214844 0 2.421875-.027343 3.628907-.082031.386718-.015625.765624-.050781 1.152343-.074219.820313-.046874 1.640625-.09375 2.457031-.164062.453126-.042969.90625-.101562 1.359376-.152344.742187-.078125 1.484374-.152344 2.222656-.25.488281-.066406.96875-.152344 1.453125-.226562.703125-.105469 1.40625-.207032 2.101562-.332032.046875-.007812.09375-.015624.136719-.023437v73.617187c0 4.058594-.113281 8.238282-.335938 12.429688v.007812c-.527343 10.046876-1.714843 20.164063-3.542968 30.132813-.148438.84375-.316406 1.679687-.492188 2.507813l-.011718.046874c-.863282 4.167969-.550782 8.429688.902343 12.304688 3.125 8.371094 4.0625 16.085938 2.386719 19.648438-4.386719 9.289062-16.09375 12.621093-20.917969 13.621093-4.058593.839844-7.792969 2.792969-10.832031 5.691407-12.300781 11.804687-27.484375 20.289062-43.921875 24.546874-12.175781 3.171876-25.097656 3.964844-37.652344 2.378907-3.136719-.394531-6.253906-.941407-9.328125-1.636719-1.023437-.230469-2.042968-.480469-3.058594-.742188 0 0 0 0-.003906 0 0-.003906-.003906-.003906-.007812-.003906-37.332032-9.679687-65.941406-40.464844-72.894532-78.425781zm-10.136718 175.550781c0-26.28125 21.375-47.664062 47.652344-47.664062h6.09375l23.375 114.285156h-34.144532v-37.953125c0-5.523437-4.476562-10-10-10-5.523437 0-10 4.476563-10 10v37.953125h-22.976562zm97.535156 66.621094-21.039062-102.867188c.011718.015626.023437.035157.035156.050782.070312.109375.144531.214844.214844.320312.128906.191406.253906.382813.386718.574219.167969.246094.34375.488281.515625.730469.082031.109375.160157.222656.242188.332031.078125.105469.15625.207031.234375.3125.230468.304687.464844.601563.703125.894531.113281.144532.226562.285156.339843.425782.011719.015624.023438.03125.035157.046874.023437.027344.050781.054688.074219.085938.320312.378906.644531.753906.976562 1.121094.09375.101562.1875.195312.28125.296875.011719.015625.023438.027343.039062.039062.125.136719.25.273438.378907.40625.152343.160157.304687.320313.460937.476563.148438.148437.300782.292968.453125.441406.160157.15625.320313.320312.484375.476562.03125.03125.066406.058594.097656.089844.058594.054688.121094.105469.179688.160156.167969.15625.339844.308594.511719.460938.25.222656.503906.445312.765625.664062 0 0 0 0 .003906.003907.082031.070312.160156.144531.246094.210937.089844.078125.1875.148438.277344.222656.273437.222657.546874.433594.824218.648438.167969.128906.335938.261719.511719.390625.039063.03125.078125.0625.121094.09375.035156.023437.074219.050781.109375.078125.253906.183594.511718.359375.769531.539062.125.085938.246094.175782.375.261719.152344.105469.308594.203125.464844.300781.15625.101563.3125.203126.46875.300782.15625.101562.3125.203125.472656.300781.136719.085937.273437.160156.410156.242187.273438.160157.546875.324219.824219.480469.035156.019531.066406.039063.101562.054688.042969.027343.085938.046875.128907.070312.1875.101563.378906.203125.566406.300781.3125.167969.628906.328126.949219.488282.105468.050781.210937.105468.316406.160156.097656.042969.191406.085938.289062.128906 0 0 .003907.003906.003907.003906.316406.148438.636719.292969.957031.433594.207031.089844.410156.179688.621094.265625.089844.039063.183594.082031.273437.117188.027344.011719.054688.019531.078125.03125.226563.089843.453125.171875.679688.257812.1875.070313.375.148438.566406.214844.21875.078125.4375.152344.65625.226563.171875.058593.34375.117187.515625.171874.058594.019532.117187.039063.171875.058594.09375.03125.1875.0625.285156.09375.503906.15625 1.011719.304688 1.523438.4375.019531.007813.035156.011719.050781.015625.027344.007813.050781.011719.078125.019531.167969.042969.339844.082032.511719.121094.390625.097656.785156.191406 1.183593.273438.128907.027344.257813.054687.386719.082031.132813.027344.265625.046875.398438.074219.316406.058594.632812.113281.949219.167968.226562.035157.453124.070313.679687.101563.15625.023437.3125.050781.472656.074219h.015625c.203125.027344.410156.042968.613282.066406.222656.023438.445312.050781.671874.074219.28125.027343.566407.046875.851563.066406.164063.011719.328125.023437.492187.035156.148438.007813.292969.019531.4375.027344.597657.027344 1.199219.046875 1.800782.046875.605468 0 1.207031-.019531 1.800781-.046875.089844-.003906.183594-.007813.273437-.015625.160157-.007812.316407-.023438.480469-.035156.34375-.023438.6875-.046875 1.03125-.078125.179688-.019531.355469-.039063.535157-.054688.148437-.019531.296874-.035156.445312-.054687.265625-.03125.527344-.066406.792969-.105469.226562-.03125.453125-.066406.679687-.101563.144532-.023437.292969-.042968.4375-.066406.007813-.003906.019532-.003906.027344-.007812.210938-.035156.417969-.082032.628906-.121094.210938-.042969.425782-.082031.640625-.125.191407-.042969.386719-.085938.582031-.128906.183594-.042969.363282-.089844.546876-.132813.019531-.003906.035156-.011719.054687-.015625.167969-.039062.339844-.078125.507813-.121094.269531-.070312.535156-.148437.804687-.226562.175781-.046875.351563-.097656.527344-.152344.109375-.03125.21875-.058594.324219-.09375.09375-.027344.1875-.0625.277343-.089844.402344-.128906.800781-.257812 1.195313-.398437.015625-.007813.03125-.011719.046875-.019531.035156-.011719.070312-.027344.109375-.039063.1875-.070312.375-.144531.5625-.21875.347656-.128906.691406-.265625 1.03125-.40625.070312-.027343.148437-.054687.21875-.085937.136718-.054688.265625-.121094.398437-.179688.324219-.140625.644531-.285156.960938-.433594.144531-.066406.292969-.132812.433593-.203124.085938-.039063.167969-.082032.25-.125.296876-.144532.585938-.296876.878907-.453126.1875-.097656.375-.195312.5625-.296874.066406-.039063.140625-.074219.210937-.113282.019532-.011718.042969-.027344.066406-.039062.265626-.148438.523438-.304688.785157-.460938.132812-.078125.269531-.152344.402343-.234375.117188-.070312.230469-.144531.34375-.21875.15625-.09375.308594-.195312.460938-.292969.203125-.132812.40625-.257812.605469-.394531.125-.082031.242187-.167969.363281-.253906.0625-.042969.121094-.085937.179688-.125.144531-.101563.289062-.203125.433593-.304687.132813-.097657.265625-.191407.398438-.292969.171875-.125.335937-.253907.503906-.382813.191406-.144531.386719-.289062.574219-.4375.027344-.023437.054687-.050781.082031-.070312.058594-.050782.117187-.097656.175781-.148438.175782-.140625.347656-.285156.519532-.429687.214843-.179688.429687-.363281.636718-.546875.09375-.082032.1875-.167969.28125-.25.121094-.109375.242188-.21875.359375-.328125.261719-.242188.515625-.488281.773438-.738281.089843-.089844.1875-.175782.277343-.265626.058594-.054687.109376-.113281.164063-.167968.308594-.3125.609375-.628906.910156-.953125.082031-.089844.167969-.175781.25-.265625.015625-.015625.03125-.03125.046875-.050782.027344-.03125.058594-.066406.085938-.101562.328125-.363281.648437-.734375.960937-1.109375.0625-.078125.125-.15625.191407-.234375.035156-.042969.074218-.085938.109374-.128906l-20.371093 99.59375h-19.355469zm118.59375 0h-21.617188v-37.953125c0-5.523437-4.476562-10-10-10-5.519531 0-10 4.476563-10 10v37.953125h-37.203124l23.375-114.285156h7.78125c26.28125 0 47.664062 21.382812 47.664062 47.664062zm0 0"/><path d="m147.722656 166.132812c-1.054687-5.421874-6.296875-8.960937-11.726562-7.90625l-36.667969 7.132813c-5.421875 1.054687-8.960937 6.304687-7.90625 11.726563.929687 4.777343 5.113281 8.09375 9.804687 8.09375.632813 0 1.277344-.0625 1.921876-.1875l36.667968-7.132813c5.421875-1.054687 8.960938-6.304687 7.90625-11.726563zm0 0"/><path d="m194.484375 177.859375 36.671875 7.132813c.644531.125 1.285156.1875 1.921875.1875 4.6875 0 8.875-3.316407 9.804687-8.09375 1.054688-5.421876-2.484374-10.671876-7.90625-11.726563l-36.667968-7.132813c-5.425782-1.054687-10.671875 2.484376-11.726563 7.90625-1.058593 5.421876 2.480469 10.671876 7.902344 11.726563zm0 0"/><path d="m134.445312 203.03125c0-.652344-.070312-1.3125-.199218-1.960938-.121094-.628906-.320313-1.261718-.570313-1.871093-.25-.597657-.550781-1.179688-.921875-1.71875-.359375-.550781-.777344-1.058594-1.238281-1.519531-2.320313-2.332032-5.769531-3.390626-9.019531-2.742188-.640625.132812-1.273438.320312-1.871094.570312-.609375.25-1.191406.5625-1.730469.921876-.550781.371093-1.058593.789062-1.519531 1.25-.460938.460937-.878906.96875-1.242188 1.519531-.359374.539062-.667968 1.121093-.917968 1.71875-.25.609375-.449219 1.242187-.570313 1.871093-.128906.648438-.199219 1.308594-.199219 1.960938 0 2.628906 1.070313 5.210938 2.929688 7.070312.460938.460938.96875.878907 1.519531 1.238282.539063.359375 1.121094.671875 1.730469.921875.597656.25 1.230469.4375 1.871094.570312.636718.128907 1.296875.199219 1.949218.199219 2.640626 0 5.210938-1.070312 7.070313-2.929688 1.859375-1.859374 2.929687-4.441406 2.929687-7.070312zm0 0"/><path d="m219.085938 199.199219c-.25-.597657-.558594-1.179688-.917969-1.71875-.359375-.550781-.78125-1.058594-1.242188-1.519531-.457031-.460938-.96875-.878907-1.519531-1.25-.539062-.359376-1.117188-.671876-1.730469-.921876-.597656-.25-1.226562-.4375-1.867187-.570312-1.292969-.257812-2.621094-.257812-3.910156 0-.632813.132812-1.261719.320312-1.871094.570312-.601563.25-1.179688.5625-1.71875.921876-.550782.371093-1.0625.789062-1.523438 1.25-.457031.460937-.878906.96875-1.25 1.519531-.359375.539062-.667968 1.121093-.910156 1.71875-.25.609375-.449219 1.242187-.566406 1.871093-.132813.648438-.203125 1.308594-.203125 1.960938 0 .648438.070312 1.308594.203125 1.949219.117187.640625.316406 1.269531.566406 1.871093.242188.609376.550781 1.1875.910156 1.730469.371094.546875.792969 1.058594 1.25 1.519531.460938.460938.972656.878907 1.523438 1.238282.539062.359375 1.117187.671875 1.71875.921875.609375.25 1.238281.4375 1.871094.570312.648437.128907 1.308593.199219 1.957031.199219.652343 0 1.3125-.070312 1.953125-.199219.640625-.132812 1.269531-.320312 1.867187-.570312.613281-.25 1.191407-.5625 1.730469-.921875.550781-.359375 1.0625-.777344 1.519531-1.238282.460938-.460937.882813-.972656 1.242188-1.519531.359375-.542969.667969-1.121093.917969-1.730469.25-.601562.441406-1.230468.570312-1.871093.132812-.640625.199219-1.300781.199219-1.949219 0-.652344-.066407-1.3125-.199219-1.960938-.128906-.632812-.320312-1.261718-.570312-1.871093zm0 0"/><path d="m146.316406 292.574219c13.4375-5.269531 28.234375-5.269531 41.667969 0l1.507813.589843c1.199218.472657 2.4375.695313 3.648437.695313 3.996094 0 7.769531-2.410156 9.316406-6.351563 2.015625-5.140624-.519531-10.945312-5.660156-12.960937l-1.511719-.59375c-18.140625-7.113281-38.125-7.117187-56.269531 0l-1.511719.59375c-5.140625 2.015625-7.671875 7.820313-5.65625 12.960937 2.019532 5.140626 7.820313 7.671876 12.960938 5.65625zm0 0"/><path d="m339.03125 260.710938c-1.664062-5.269532-7.289062-8.1875-12.546875-6.523438l-20.652344 6.519531c-5.265625 1.664063-8.1875 7.28125-6.523437 12.546875 1.347656 4.265625 5.285156 6.992188 9.53125 6.992188 1 0 2.015625-.148438 3.015625-.46875l20.648437-6.519532c5.265625-1.664062 8.1875-7.28125 6.527344-12.546874zm0 0"/><path d="m329.367188 309.148438-16.449219-13c-4.332031-3.425782-10.621094-2.6875-14.046875 1.644531-3.421875 4.332031-2.6875 10.621093 1.648437 14.046875l16.449219 13c1.835938 1.449218 4.023438 2.15625 6.191406 2.15625 2.957032 0 5.878906-1.304688 7.855469-3.800782 3.421875-4.332031 2.6875-10.621093-1.648437-14.046874zm0 0"/><path d="m275.277344 317.9375c-5.28125 1.621094-8.242188 7.21875-6.617188 12.496094l6 19.503906c1.320313 4.296875 5.277344 7.0625 9.554688 7.0625.972656 0 1.964844-.144531 2.945312-.445312 5.277344-1.625 8.238282-7.222657 6.617188-12.5l-6-19.5c-1.625-5.28125-7.226563-8.246094-12.5-6.617188zm0 0"/><path d="m81.308594 90.25c.871094.234375 1.742187.34375 2.601562.34375 4.414063 0 8.453125-2.941406 9.652344-7.410156.019531-.074219 2.375-7.992188 9.507812-15.449219 10.074219-10.53125 24.542969-15.171875 42.996094-13.789063 5.511719.414063 10.304688-3.714843 10.71875-9.226562.410156-5.503906-3.71875-10.304688-9.226562-10.71875-30.769532-2.300781-49.035156 9.554688-58.941406 19.910156-10.683594 11.167969-14.023438 22.800782-14.371094 24.089844-1.433594 5.332031 1.730468 10.820312 7.0625 12.25zm0 0"/><path d="m180.214844 57.484375h.023437c5.523438 0 9.988281-4.476563 9.988281-10s-4.488281-10-10.011718-10c-5.523438 0-10.003906 4.476563-10.003906 10s4.480468 10 10.003906 10zm0 0"/></svg>