<svg viewBox="-12 0 511 512" xmlns="http://www.w3.org/2000/svg"><path d="m437.828125 156.519531h-13.0625v-16.410156c0-10.972656-8.925781-19.898437-19.898437-19.898437h-16.875v-61.402344c0-14.859375-12.089844-26.953125-26.953126-26.953125h-16.390624v-5.730469c0-14.40625-11.71875-26.125-26.125-26.125h-149.445313c-14.40625 0-26.125 11.71875-26.125 26.125v5.730469h-16.394531c-14.859375 0-26.953125 12.09375-26.953125 26.953125v61.402344h-16.199219c-10.96875 0-19.894531 8.925781-19.894531 19.898437v16.410156h-13.742188c-27.167969 0-49.269531 22.105469-49.269531 49.269531v247.242188c0 24.488281 19.921875 44.410156 44.410156 44.410156h6.710938c3.40625 8.519532 11.738281 14.558594 21.457031 14.558594h20.171875c9.722656 0 18.054688-6.039062 21.457031-14.558594h258.1875c3.402344 8.519532 11.734375 14.558594 21.453125 14.558594h20.171875c9.71875 0 18.050781-6.039062 21.457031-14.558594h6.714844c24.484375 0 44.40625-19.921875 44.40625-44.410156v-247.242188c.003906-27.167968-22.101562-49.269531-49.269531-49.269531zm-33.0625 0h-53.542969v-16.308593h53.542969zm-241.8125-130.394531c0-3.378906 2.746094-6.125 6.125-6.125h149.445313c3.375 0 6.125 2.746094 6.125 6.125v30.675781c0 3.375-2.75 6.125-6.125 6.125h-149.445313c-3.378906 0-6.125-2.75-6.125-6.125zm-43.347656 32.683594c0-3.832032 3.121093-6.953125 6.953125-6.953125h16.394531v4.945312c0 14.402344 11.71875 26.125 26.125 26.125h149.445313c14.40625 0 26.125-11.722656 26.125-26.125v-4.945312h16.390624c3.835938 0 6.953126 3.121093 6.953126 6.953125v61.402344h-16.871094c-10.972656 0-19.898438 8.925781-19.898438 19.898437v16.410156h-174.167968v-16.410156c0-10.972656-8.925782-19.898437-19.898438-19.898437h-17.550781zm-36.09375 81.402344h53.542969v16.308593h-53.542969zm12.839843 348.6875c0 1.710937-1.390624 3.101562-3.101562 3.101562h-20.171875c-1.707031 0-3.097656-1.390625-3.097656-3.101562v-55.636719h26.367187v55.636719zm321.269532 0c0 1.710937-1.390625 3.101562-3.101563 3.101562h-20.171875c-1.707031 0-3.097656-1.390625-3.097656-3.101562v-55.636719h26.367188v55.636719zm49.480468-35.867188c0 13.457031-10.953124 24.410156-24.410156 24.410156h-5.070312v-47.320312c0-9.296875-7.5625-16.859375-16.859375-16.859375h-32.648438c-9.296875 0-16.859375 7.5625-16.859375 16.859375v47.320312h-254.902344v-47.320312c0-9.296875-7.5625-16.859375-16.859374-16.859375h-32.652344c-9.296875 0-16.859375 7.5625-16.859375 16.859375v47.320312h-5.070313c-13.460937 0-24.410156-10.953125-24.410156-24.410156v-247.242188c0-16.140624 13.128906-29.269531 29.269531-29.269531h23.644531c.035157 0 .066407.003907.097657.003907h73.542969c.035156 0 .0625-.003907.097656-.003907h193.976562c.03125 0 .0625.003907.09375.003907h73.542969c.035156 0 .066406-.003907.097656-.003907h22.96875c16.140625 0 29.269531 13.128907 29.269531 29.269531zm0 0"/><path d="m335.746094 294.710938c-5.378906 1.253906-8.722656 6.632812-7.464844 12.011718 1.5 6.445313 2.265625 13.105469 2.265625 19.792969 0 47.832031-38.914063 86.746094-86.746094 86.746094s-86.746093-38.914063-86.746093-86.746094 38.914062-86.746094 86.746093-86.746094c16.011719 0 31.648438 4.394531 45.222657 12.707031 4.710937 2.882813 10.867187 1.402344 13.75-3.308593 2.886718-4.707031 1.40625-10.863281-3.304688-13.75-16.722656-10.238281-35.972656-15.648438-55.667969-15.648438-58.859375 0-106.746093 47.886719-106.746093 106.746094s47.886718 106.746094 106.746093 106.746094 106.746094-47.882813 106.746094-106.746094c0-8.214844-.9375-16.40625-2.789063-24.335937-1.253906-5.378907-6.632812-8.71875-12.011718-7.46875zm0 0"/><path d="m243.800781 374.1875c5.519531 0 10-4.476562 10-10v-27.671875h27.671875c5.519532 0 10-4.476563 10-10s-4.480468-10-10-10h-27.671875v-27.671875c0-5.523438-4.480469-10-10-10-5.523437 0-10 4.476562-10 10v27.671875h-27.671875c-5.523437 0-10 4.476563-10 10s4.476563 10 10 10h27.671875v27.671875c0 5.523438 4.476563 10 10 10zm0 0"/><path d="m312.890625 273.949219c.25.601562.558594 1.179687.917969 1.722656.363281.546875.78125 1.058594 1.242187 1.519531.460938.457032.96875.878906 1.519531 1.25.539063.359375 1.121094.667969 1.730469.917969.597657.25 1.226563.441406 1.871094.570313.636719.128906 1.296875.191406 1.945313.191406.652343 0 1.3125-.0625 1.960937-.191406.632813-.128907 1.261719-.320313 1.871094-.570313.601562-.25 1.179687-.558594 1.722656-.917969.546875-.371094 1.058594-.792968 1.519531-1.25 1.859375-1.863281 2.929688-4.429687 2.929688-7.070312 0-.652344-.0625-1.3125-.191406-1.949219-.128907-.640625-.320313-1.273437-.570313-1.871094-.25-.601562-.558594-1.179687-.917969-1.730469-.371094-.539062-.789062-1.058593-1.25-1.519531-.460937-.460937-.96875-.878906-1.519531-1.242187-.539063-.359375-1.121094-.667969-1.722656-.917969-.609375-.25-1.238281-.441406-1.867188-.570313-1.292969-.261718-2.621093-.261718-3.910156 0-.640625.128907-1.273437.320313-1.871094.570313-.609375.25-1.191406.558594-1.730469.917969-.550781.363281-1.058593.78125-1.519531 1.242187-.460937.460938-.878906.980469-1.238281 1.519531-.363281.539063-.671875 1.128907-.921875 1.730469-.25.597657-.441406 1.230469-.570313 1.871094-.128906.636719-.199218 1.296875-.199218 1.949219 0 .660156.070312 1.308594.199218 1.957031.128907.640625.320313 1.273437.570313 1.871094zm0 0"/></svg>