<svg viewBox="-96 0 512 512" xmlns="http://www.w3.org/2000/svg"><path d="m168.96875 429.710938c-.25-.601563-.558594-1.179688-.917969-1.722657-.359375-.546875-.78125-1.058593-1.242187-1.519531-2.320313-2.320312-5.777344-3.390625-9.019532-2.738281-.640624.128906-1.269531.328125-1.878906.578125-.601562.25-1.179687.5625-1.722656.921875-.550781.359375-1.058594.78125-1.519531 1.238281-.460938.460938-.878907.972656-1.25 1.519531-.359375.542969-.671875 1.121094-.921875 1.722657-.25.609374-.4375 1.238281-.566406 1.878906-.132813.640625-.191407 1.300781-.191407 1.949218 0 .652344.0625 1.3125.191407 1.949219.128906.640625.316406 1.273438.566406 1.871094.25.609375.5625 1.191406.921875 1.730469.371093.550781.789062 1.058594 1.25 1.519531.460937.460937.96875.878906 1.519531 1.242187.542969.359376 1.121094.667969 1.722656.917969.609375.25 1.238282.441407 1.878906.570313.640626.128906 1.300782.199218 1.949219.199218 2.628907 0 5.210938-1.070312 7.070313-2.929687.460937-.460937.878906-.96875 1.238281-1.519531.359375-.539063.671875-1.121094.921875-1.730469.25-.597656.4375-1.230469.570312-1.871094.128907-.636719.199219-1.296875.199219-1.949219 0-.648437-.070312-1.308593-.199219-1.949218-.132812-.640625-.320312-1.269532-.570312-1.878906zm0 0"/><path d="m168.96875 469.199219c-.25-.609375-.558594-1.1875-.917969-1.730469-.359375-.546875-.78125-1.058594-1.242187-1.519531-.460938-.460938-.96875-.878907-1.519532-1.238281-.539062-.359376-1.121093-.671876-1.730468-.921876-.597656-.25-1.230469-.4375-1.867188-.570312-1.292968-.257812-2.621094-.257812-3.902344 0-.640624.132812-1.269531.320312-1.878906.570312-.601562.25-1.179687.5625-1.71875.921876-.550781.359374-1.0625.777343-1.523437 1.238281-.457031.460937-.878907.972656-1.25 1.519531-.359375.542969-.667969 1.121094-.917969 1.730469-.25.601562-.441406 1.230469-.570312 1.871093-.128907.640626-.191407 1.300782-.191407 1.949219 0 .652344.0625 1.308594.191407 1.960938.128906.628906.320312 1.257812.570312 1.871093.25.597657.558594 1.179688.917969 1.71875.371093.550782.792969 1.058594 1.25 1.519532.460937.460937.972656.878906 1.523437 1.25.539063.359375 1.117188.671875 1.71875.921875.609375.25 1.238282.4375 1.878906.566406.640626.132813 1.300782.191406 1.949219.191406.652344 0 1.3125-.058593 1.953125-.191406.636719-.128906 1.269532-.316406 1.867188-.566406.609375-.25 1.191406-.5625 1.730468-.921875.550782-.371094 1.058594-.789063 1.519532-1.25.460937-.460938.882812-.96875 1.242187-1.519532.359375-.539062.667969-1.121093.917969-1.71875.25-.613281.441406-1.242187.570312-1.871093.128907-.652344.199219-1.308594.199219-1.960938 0-.648437-.070312-1.308593-.199219-1.949219-.128906-.640624-.320312-1.269531-.570312-1.871093zm0 0"/><path d="m165.589844 0h-11.699219c-22.578125 0-44.992187 5.011719-65.308594 14.523438-1.476562-1.183594-3.085937-2.214844-4.8125-3.074219-3.628906-1.796875-7.675781-2.75-11.699219-2.75-9.851562 0-18.707031 5.332031-23.316406 13.972656-6.140625-2.808594-13-3.167969-19.421875-.996094-6.683593 2.257813-12.089843 6.984375-15.210937 13.300781-1.800782 3.628907-2.753906 7.679688-2.753906 11.710938 0 9.71875 5.199218 18.464844 13.640624 23.121094-16.359374 25.015625-25.007812 54-25.007812 84.082031v148.859375c0 16.171875 13.15625 29.328125 29.328125 29.328125h68.570313c3.933593 3.269531 8.078124 6.203125 12.421874 8.796875-52.917968 9.464844-93.210937 55.824219-93.210937 111.414062v49.710938c0 5.523438 4.480469 10 10 10h265.261719c5.523437 0 10-4.476562 10-10v-49.710938c0-54.886718-39.28125-100.769531-91.210938-111.03125 4.542969-2.679687 8.875-5.746093 12.988282-9.179687h66.003906c16.171875 0 29.328125-13.15625 29.328125-29.328125v-148.859375c0-84.855469-69.035157-153.890625-153.890625-153.890625zm-133.546875 43.851562c.761719-1.535156 2.070312-2.679687 3.691406-3.230468.671875-.226563 1.363281-.339844 2.054687-.339844.976563 0 1.945313.226562 2.847657.671875l8.210937 4.0625c4.949219 2.445313 10.949219.417969 13.394532-4.53125l4.0625-8.207031c1.089843-2.207032 3.300781-3.578125 5.765624-3.578125.976563 0 1.921876.226562 2.8125.667969 1.15625.574218 2.066407 1.417968 2.707032 2.527343 1.089844 1.867188 1.167968 4.136719.207031 6.074219l-4.058594 8.210938c-2.449219 4.945312-.421875 10.941406 4.519531 13.390624l8.21875 4.074219c2.199219 1.085938 3.5625 3.292969 3.5625 5.757813 0 .980468-.226562 1.929687-.671874 2.832031-1.566407 3.167969-5.421876 4.472656-8.585938 2.90625l-8.210938-4.070313c-2.378906-1.179687-5.125-1.363281-7.640624-.515624-2.511719.851562-4.585938 2.664062-5.765626 5.042968l-4.0625 8.214844c-1.085937 2.199219-3.292968 3.570312-5.753906 3.570312-.980468 0-1.933594-.226562-2.835937-.675781-1.535157-.757812-2.683594-2.070312-3.230469-3.691406-.546875-1.625-.429688-3.363281.339844-4.917969l4.050781-8.191406c1.175781-2.375 1.359375-5.125.511719-7.636719-.851563-2.511719-2.664063-4.585937-5.042969-5.761719l-8.207031-4.058593c-2.199219-1.085938-3.566406-3.292969-3.566406-5.757813.003906-.980468.226562-1.933594.675781-2.839844zm24.957031 154.140626c-.003906-.082032-.007812-.167969-.015625-.25-.105469-1.433594-.199219-2.875-.277344-4.320313-.007812-.144531-.011719-.289063-.019531-.4375-.074219-1.382813-.136719-2.773437-.183594-4.167969-.007812-.296875-.011718-.59375-.019531-.886718-.039063-1.25-.070313-2.503907-.085937-3.761719-.007813-.410157-.003907-.820313-.003907-1.230469-.011719-1.148438-.019531-2.296875-.011719-3.457031.003907-.519531.019532-1.046875.023438-1.570313.015625-1.042968.027344-2.085937.054688-3.132812 10.566406-4.894532 39.324218-16.136719 88.667968-20.882813 49.210938-4.738281 83.714844-32.1875 99.902344-48.15625.035156-.003906.09375.015625.117188.0625l9.5 30.332031c11.035156 35.203126 11.324218 72.308594.835937 107.328126-.148437.503906-.285156 1.011718-.398437 1.527343-.707032 3.078125-.824219 6.308594-.351563 9.484375.078125.53125.175781 1.058594.285156 1.585938.390625 1.820312.972657 5.203125.917969 8.917968-.039062 2.476563-.363281 5.097657-1.21875 7.496094-.140625.402344-.296875.796875-.472656 1.179688-1.542969 3.4375-8.066406 8.890625-12.457032 11.117187-3.382812 1.722657-6.273437 4.097657-8.585937 7.042969l-8.074219 10.289062c-1.148437 1.457032-2.316406 2.90625-3.472656 4.296876-2.445312 2.9375-5.113281 5.714843-7.933594 8.261718-.003906.003906-.003906.003906-.007812.007813-9.019532 8.140625-19.488282 13.929687-31.121094 17.207031-8.195312 2.3125-16.628906 3.273438-25.023438 2.898438-.195312-.007813-.386718-.007813-.582031-.019532-.09375-.003906-.1875-.015625-.285156-.019531-5.628906-.3125-11.234375-1.226563-16.734375-2.746094-.929688-.257812-1.859375-.53125-2.78125-.824219-10.761719-3.40625-20.488281-8.964843-28.914062-16.53125-2.964844-2.660156-5.757813-5.566406-8.300782-8.644531-1.257812-1.515625-2.480468-3.054687-3.683594-4.597656-1.507812-1.9375-2.984374-3.886719-4.40625-5.867187-.082031-.113282-.164062-.230469-.246093-.347657-.765625-1.070312-1.527344-2.144531-2.269531-3.226562-.171876-.253907-.335938-.507813-.507813-.761719-18.59375-27.40625-29.265625-58.609375-31.859375-93.195312zm106.730469 189.882812-3.992188 2.382812-3.996093-2.386718c-7.136719-4.257813-11.570313-12.070313-11.570313-20.390625v-14.078125c.296875.054687.59375.089844.890625.136718.664062.109376 1.332031.214844 2 .308594.605469.085938 1.210938.167969 1.820312.246094.667969.082031 1.335938.15625 2.003907.226562.609375.0625 1.21875.121094 1.828125.175782.667968.054687 1.335937.101562 2.003906.144531.613281.042969 1.222656.078125 1.835938.105469.667968.03125 1.332031.050781 2 .066406.617187.015625 1.230468.03125 1.847656.035156.230468.003906.457031.015625.6875.015625.511718 0 1.023437-.019531 1.535156-.027343.46875-.007813.933594-.011719 1.402344-.023438.867187-.027344 1.734375-.070312 2.601562-.121094.355469-.019531.710938-.03125 1.0625-.054687 1.222656-.082031 2.441406-.183594 3.660156-.3125.226563-.023438.453126-.054688.675782-.082031 1-.109376 1.996094-.230469 2.988281-.375.097656-.011719.195313-.019532.292969-.035157v13.644531c0 8.324219-4.433594 16.136719-11.578125 20.398438zm118.640625 64.414062v39.710938h-26.75v-45.910156c0-5.523438-4.476563-10-10-10-5.523438 0-10 4.476562-10 10v45.910156h-150.230469v-45.910156c0-5.523438-4.476563-10-10-10-5.519531 0-10 4.476562-10 10v45.910156h-28.28125v-39.710938c0-49.316406 38.523437-89.8125 87.0625-92.980468v8.171875c0 15.324219 8.171875 29.722656 21.320313 37.566406l5.066406 3.023437c.355468.214844.714844.414063 1.078125.597657.683593.351562 1.386719.648437 2.101562.90625.042969.015625.089844.035156.132813.050781.300781.105469.605468.195312.910156.285156.078125.023438.160156.054688.238281.074219.226563.0625.457031.113281.683594.164063.160156.039062.320313.082031.484375.117187.164062.03125.328125.054687.492188.082031.226562.039063.457031.085938.683593.117188.109375.011718.21875.019531.324219.03125.289062.035156.578125.070312.867188.089844.042968 0 .089843 0 .136718.003906.347656.019531.699219.035156 1.050782.035156.054687 0 .105468-.007812.15625-.007812.34375 0 .6875-.007813 1.03125-.03125.011718 0 .019531-.003907.03125-.003907 2.757812-.191406 5.476562-1.023437 7.933593-2.496093l5.085938-3.039063c13.15625-7.847656 21.328125-22.242187 21.328125-37.566406v-8.171875c48.539062 3.167968 87.0625 43.664062 87.0625 92.980468zm17.109375-149.539062c0 5.144531-4.1875 9.328125-9.332031 9.328125h-47.425782l6.214844-7.917969c.511719-.648437 1.160156-1.175781 1.917969-1.5625 6.414062-3.257812 17.472656-11.472656 21.636719-20.75.917968-2.046875 1.613281-4.132812 2.128906-6.214844.011718-.046874.027344-.09375.039062-.140624.347656-1.417969.613282-2.832032.808594-4.226563 0-.007813 0-.011719 0-.015625 1.078125-7.722656.050781-14.964844-.886719-19.363281-.203125-.945313-.175781-1.886719.066407-2.707031 11.636718-38.839844 11.320312-80-.914063-119.027344l-9.503906-30.339844c-1.851563-5.890625-6.179688-10.484375-11.816407-12.679688-.804687-.316406-1.636718-.578124-2.488281-.792968-6.835937-1.699219-13.914062.234375-18.933593 5.175781-14.296876 14.085937-44.714844 38.328125-87.78125 42.472656-8.589844.824219-16.597657 1.835938-24.042969 2.980469-52.105469 7.992188-76.46875 22.285156-77.617188 22.976562-2.863281 1.714844-4.683593 4.746094-4.847656 8.082032-.089844 1.769531-.15625 3.535156-.210937 5.289062-.015626.585938-.019532 1.164063-.035157 1.746094-.027343 1.171875-.054687 2.347656-.066406 3.511719-.007813.683593 0 1.363281-.003906 2.042969 0 1.058593-.003907 2.117187.003906 3.171874.007813.722657.027344 1.445313.039063 2.167969.019531 1.003907.039062 2.007813.066406 3.003907.023437.738281.058594 1.476562.085937 2.214843.039063.972657.078125 1.949219.128907 2.917969.039062.746094.085937 1.492188.132812 2.238281.054688.949219.117188 1.902344.183594 2.847657.054687.75.117187 1.496093.179687 2.242187.078125.9375.15625 1.875.246094 2.8125.070313.742187.144531 1.484375.222656 2.226563.097657.929687.199219 1.859374.304688 2.78125.085937.738281.179687 1.472656.273437 2.207031.113282.921875.234375 1.84375.363282 2.761719.101562.730468.207031 1.460937.316406 2.1875.136718.914062.277344 1.828124.425781 2.742187.117187.71875.234375 1.4375.359375 2.15625.15625.914063.320312 1.824219.492188 2.734375.128906.707031.257812 1.410156.398437 2.113281.175781.917969.367187 1.832031.554687 2.746094.144532.6875.289063 1.375.4375 2.0625.203126.925781.417969 1.84375.632813 2.765625.152344.664062.304687 1.332031.46875 1.992188.226563.941406.46875 1.875.707031 2.808593.164063.632813.324219 1.273438.496094 1.90625.257812.96875.53125 1.929688.804688 2.894531.167968.589844.328124 1.183594.503906 1.773438.300781 1.027344.613281 2.042969.929687 3.0625.164063.519531.316407 1.042969.484375 1.5625.371094 1.167969.761719 2.332031 1.152344 3.488281.121094.363281.238281.730469.363281 1.089844 1.054688 3.058594 2.179688 6.085937 3.375 9.085937.136719.335938.28125.671876.417969 1.007813.464844 1.148437.929688 2.292969 1.417969 3.429687.207031.488282.425781.972657.640625 1.460938.425781.980469.855468 1.957031 1.296875 2.929688.253906.554687.515625 1.101562.769531 1.652343.421875.898438.839844 1.800781 1.273438 2.695313.28125.582031.574218 1.160156.859374 1.738281.425782.855469.851563 1.710937 1.289063 2.5625.304687.59375.621094 1.1875.933594 1.78125.433593.828125.871093 1.652344 1.316406 2.472656.328125.601563.664063 1.203125 1 1.800781.449219.804688.898437 1.605469 1.355469 2.402344.347656.609375.703125 1.210938 1.058594 1.816406.464843.78125.929687 1.5625 1.402343 2.34375.367188.605469.742188 1.210938 1.117188 1.816407.476562.765625.957031 1.53125 1.445312 2.292969.390625.605468.78125 1.210937 1.175781 1.8125.492188.753906.988282 1.503906 1.492188 2.25.40625.605468.8125 1.207031 1.226562 1.804687.511719.742187 1.027344 1.480469 1.550782 2.21875.417968.59375.839844 1.1875 1.269531 1.777344.53125.738281 1.070313 1.46875 1.613281 2.199219.433594.585937.867188 1.167968 1.308594 1.75.171875.226562.335938.457031.511719.683593h-49.933594c-5.144531 0-9.328125-4.1875-9.328125-9.332031v-148.859375c0-18.703125 3.828125-36.914063 11.203125-53.726563.007813.003907.011719.007813.019531.015626.414063.390624.847656.765624 1.292969 1.128906.109375.09375.222656.183594.335937.273437.429688.34375.871094.679688 1.324219.996094.023438.015625.046875.035156.070313.050781.472656.328125.964844.636719 1.460937.9375.128907.074219.253907.152344.382813.222656.507812.296876 1.019531.578126 1.550781.839844 3.679687 1.824219 7.621094 2.75 11.710937 2.75 9.847657 0 18.699219-5.328125 23.300782-13.960937.402344.183593.808594.355469 1.21875.519531.816406.324219 1.640625.605469 2.46875.84375.414062.121094.832031.226562 1.246094.324219 2.085937.492187 4.199218.714843 6.292968.691406 9.625-.109375 18.859375-5.488281 23.410156-14.683594 1.824219-3.683593 2.75-7.621093 2.75-11.710937 0-9.851563-5.328124-18.710938-13.960937-23.308594.238281-.527344.457031-1.058594.664063-1.59375.0625-.171875.117187-.34375.179687-.515625.132813-.371094.261719-.738281.375-1.113281.0625-.199219.117187-.40625.175781-.609375.097656-.347657.191406-.695313.273438-1.042969.050781-.214844.097656-.429688.144531-.644531.074219-.347657.140625-.695313.199219-1.046875.035156-.210938.070312-.421875.101562-.632813.054688-.363281.09375-.730469.132813-1.09375.019531-.195312.042969-.390625.058593-.585937.03125-.414063.050782-.832032.066407-1.246094.003906-.148438.015625-.289062.019531-.433594.015625-1.140625-.039062-2.277344-.167969-3.40625-.003906-.027344-.003906-.050781-.007812-.078125 17.34375-7.902343 36.398437-12.050781 55.597656-12.050781h11.699219c73.824218 0 133.890625 60.0625 133.890625 133.890625zm0 0"/><path d="m128.800781 185.808594c5.421875-1.054688 8.960938-6.304688 7.902344-11.722656-1.050781-5.421876-6.300781-8.960938-11.722656-7.90625l-41.195313 8.015624c-5.421875 1.054688-8.960937 6.304688-7.90625 11.726563.929688 4.773437 5.113282 8.089844 9.804688 8.089844.632812 0 1.277344-.0625 1.921875-.1875zm0 0"/><path d="m190.679688 185.808594 41.195312 8.015625c.644531.125 1.285156.1875 1.921875.1875 4.6875 0 8.875-3.316407 9.804687-8.089844 1.054688-5.421875-2.484374-10.671875-7.90625-11.726563l-41.195312-8.015624c-5.421875-1.054688-10.671875 2.480468-11.726562 7.90625-1.054688 5.417968 2.488281 10.667968 7.90625 11.722656zm0 0"/><path d="m121 211.46875c-.25-.597656-.558594-1.179688-.921875-1.71875-.359375-.550781-.777344-1.058594-1.238281-1.519531-.460938-.46875-.96875-.878907-1.519532-1.25-.539062-.359375-1.128906-.671875-1.730468-.921875-.601563-.25-1.230469-.4375-1.871094-.570313-1.289062-.257812-2.617188-.257812-3.910156 0-.628906.132813-1.257813.320313-1.867188.570313-.601562.25-1.179687.5625-1.722656.921875-.546875.371093-1.058594.78125-1.519531 1.25-.460938.460937-.878907.96875-1.25 1.519531-.359375.539062-.667969 1.121094-.917969 1.71875-.25.609375-.441406 1.230469-.570312 1.871094-.132813.648437-.191407 1.308594-.191407 1.960937 0 .648438.0625 1.308594.191407 1.949219.128906.640625.320312 1.269531.570312 1.871094.25.597656.558594 1.179687.917969 1.730468.371093.539063.789062 1.058594 1.25 1.519532.460937.457031.972656.878906 1.519531 1.238281.542969.359375 1.121094.671875 1.722656.921875.609375.25 1.238282.4375 1.867188.570312.652344.128907 1.3125.199219 1.960937.199219.652344 0 1.3125-.070312 1.949219-.199219.640625-.132812 1.273438-.320312 1.871094-.570312.601562-.25 1.191406-.5625 1.730468-.921875.550782-.359375 1.058594-.78125 1.519532-1.238281.460937-.460938.878906-.980469 1.238281-1.519532.363281-.550781.671875-1.132812.921875-1.730468.25-.601563.441406-1.230469.570312-1.871094.128907-.640625.199219-1.300781.199219-1.949219 0-.652343-.070312-1.3125-.199219-1.960937-.128906-.640625-.320312-1.261719-.570312-1.871094zm0 0"/><path d="m216.949219 211.46875c-.25-.597656-.558594-1.179688-.917969-1.730469-.371094-.539062-.792969-1.046875-1.25-1.519531-2.320312-2.320312-5.773438-3.378906-9.023438-2.730469-.640624.132813-1.269531.320313-1.867187.570313-.609375.25-1.191406.5625-1.730469.921875-.550781.371093-1.0625.78125-1.519531 1.238281-.460937.460938-.882813.980469-1.242187 1.519531-.359376.550781-.667969 1.132813-.917969 1.730469-.25.601562-.441407 1.230469-.570313 1.871094-.128906.648437-.199218 1.308594-.199218 1.960937 0 .648438.070312 1.308594.199218 1.949219s.320313 1.269531.570313 1.871094c.25.597656.558593 1.1875.917969 1.730468.359374.546876.78125 1.058594 1.242187 1.519532.457031.457031.96875.878906 1.519531 1.238281.539063.359375 1.121094.671875 1.730469.921875.597656.25 1.226563.4375 1.867187.570312.640626.128907 1.300782.199219 1.953126.199219.65625 0 1.308593-.070312 1.957031-.199219.632812-.132812 1.261719-.320312 1.871093-.570312.601563-.25 1.179688-.5625 1.71875-.921875.550782-.359375 1.0625-.78125 1.523438-1.238281.457031-.460938.878906-.972656 1.25-1.519532.359375-.550781.667969-1.132812.917969-1.730468.25-.601563.441406-1.230469.570312-1.871094.128907-.640625.191407-1.300781.191407-1.949219 0-.652343-.0625-1.3125-.191407-1.960937-.128906-.640625-.320312-1.269532-.570312-1.871094zm0 0"/><path d="m137.261719 297.777344c2.6875 4.824218 8.78125 6.558594 13.605469 3.867187 6.632812-3.695312 14.550781-3.695312 21.183593 0 1.539063.859375 3.210938 1.265625 4.855469 1.265625 3.511719 0 6.917969-1.851562 8.746094-5.132812 2.6875-4.824219.957031-10.914063-3.867188-13.601563-12.726562-7.09375-27.925781-7.09375-40.652344 0-4.828124 2.683594-6.558593 8.777344-3.871093 13.601563zm0 0"/><path d="m192.675781 31.941406c-22.015625-6.1875-46.566406-3.992187-47.605469-3.898437-5.496093.511719-9.53125 5.378906-9.023437 10.875.507813 5.496093 5.363281 9.53125 10.871094 9.039062.214843-.019531 21.972656-1.925781 40.34375 3.238281.90625.253907 1.816406.375 2.710937.375 4.371094 0 8.382813-2.882812 9.625-7.296874 1.492188-5.316407-1.605468-10.835938-6.921875-12.332032zm0 0"/><path d="m221.035156 43.332031c-5.519531 0-10 4.476563-10 10 0 5.523438 4.480469 10 10 10h.027344c5.519531 0 9.984375-4.476562 9.984375-10 0-5.523437-4.488281-10-10.011719-10zm0 0"/></svg>