<svg viewBox="-96 0 512 512" xmlns="http://www.w3.org/2000/svg"><path d="m168.96875 429.710938c-.25-.601563-.546875-1.179688-.917969-1.722657-.359375-.550781-.78125-1.058593-1.242187-1.519531-.457032-.460938-.96875-.878906-1.519532-1.25-.539062-.359375-1.117187-.667969-1.730468-.917969-.597656-.25-1.230469-.441406-1.867188-.570312-1.292968-.261719-2.613281-.261719-3.902344 0-.640624.128906-1.269531.320312-1.867187.570312-.613281.25-1.191406.558594-1.730469.917969-.550781.371094-1.0625.789062-1.519531 1.25-.460937.460938-.882813.96875-1.242187 1.519531-.359376.542969-.667969 1.121094-.917969 1.722657-.25.609374-.453125 1.238281-.570313 1.878906-.132812.640625-.203125 1.300781-.203125 1.949218 0 .648438.070313 1.3125.203125 1.949219.117188.640625.320313 1.273438.570313 1.871094.25.609375.558593 1.191406.917969 1.730469.359374.550781.78125 1.058594 1.242187 1.519531.457031.460937.96875.878906 1.519531 1.238281.539063.363282 1.117188.671875 1.730469.921875.597656.25 1.226563.441407 1.867187.570313.640626.128906 1.300782.199218 1.949219.199218.652344 0 1.3125-.070312 1.953125-.199218.636719-.128906 1.269532-.320313 1.867188-.570313.613281-.25 1.191406-.558593 1.730468-.921875.550782-.359375 1.0625-.777344 1.519532-1.238281.460937-.460937.882812-.96875 1.242187-1.519531.371094-.539063.667969-1.121094.917969-1.730469.25-.601563.453125-1.230469.582031-1.871094.128907-.640625.1875-1.300781.1875-1.949219 0-.648437-.058593-1.308593-.1875-1.949218-.128906-.640625-.332031-1.269532-.582031-1.878906zm0 0"/><path d="m168.96875 469.199219c-.25-.609375-.558594-1.1875-.917969-1.730469-.359375-.546875-.78125-1.058594-1.242187-1.519531-2.320313-2.320313-5.777344-3.390625-9.019532-2.730469-.640624.132812-1.269531.320312-1.867187.570312-.613281.25-1.191406.5625-1.730469.921876-.550781.359374-1.0625.777343-1.519531 1.238281-.460937.460937-.882813.972656-1.242187 1.519531-.359376.542969-.667969 1.121094-.917969 1.730469-.25.601562-.441407 1.230469-.570313 1.871093-.132812.640626-.203125 1.300782-.203125 1.949219 0 .648438.070313 1.308594.203125 1.960938.128906.628906.320313 1.257812.570313 1.867187.25.601563.558593 1.183594.917969 1.722656.359374.550782.78125 1.058594 1.242187 1.519532.457031.460937.96875.878906 1.519531 1.25.539063.359375 1.117188.671875 1.730469.921875.597656.25 1.226563.4375 1.867187.566406.640626.132813 1.300782.191406 1.949219.191406.652344 0 1.3125-.058593 1.953125-.191406.636719-.128906 1.269532-.316406 1.878906-.566406.601563-.25 1.179688-.5625 1.71875-.921875.550782-.371094 1.0625-.789063 1.519532-1.25.460937-.460938.882812-.96875 1.242187-1.519532.359375-.539062.667969-1.121093.917969-1.722656.25-.609375.453125-1.238281.570312-1.867187.132813-.652344.199219-1.3125.199219-1.960938 0-.648437-.066406-1.308593-.199219-1.949219-.117187-.640624-.320312-1.269531-.570312-1.871093zm0 0"/><path d="m165.589844 0h-11.699219c-84.855469 0-153.890625 69.035156-153.890625 153.890625v148.859375c0 16.171875 13.15625 29.328125 29.328125 29.328125h66.121094c4.132812 3.417969 8.492187 6.472656 13.070312 9.140625-51.496093 10.078125-90.597656 55.183594-91.386719 109.398438-.007812.125-.019531.246093-.019531.371093v1.109375c0 .0625-.003906.128906-.003906.191406v49.710938c0 5.523438 4.476563 10 10 10h265.257813c5.523437 0 10-4.476562 10-10v-49.710938c0-.0625 0-.128906 0-.191406v-1.109375c0-.125-.015626-.246093-.019532-.371093-.800781-54.878907-40.847656-100.425782-93.273437-109.757813 4.363281-2.582031 8.527343-5.515625 12.476562-8.78125h68.597657c16.171874 0 29.332031-13.15625 29.332031-29.328125v-148.859375c0-84.855469-69.035157-153.890625-153.890625-153.890625zm-91.210938 105.769531c.027344 0 .066406.007813.109375.039063 16.191407 15.929687 50.699219 43.359375 99.863281 48.085937 49.371094 4.75 78.132813 16 88.667969 20.878907.167969 6.328124.082031 12.550781-.246093 18.671874-2.074219 38.253907-13.859376 72.464844-35.179688 102.085938-2.558594 3.554688-5.253906 7.039062-8.085938 10.460938 0 0-.003906.003906-.003906.003906-2.558594 3.09375-5.347656 5.992187-8.3125 8.628906-8.398437 7.511719-18.109375 13.023438-28.867187 16.382812-1.242188.386719-2.492188.730469-3.742188 1.058594-11.804687 3.074219-24.085937 3.410156-36.015625.976563-.015625-.003907-.039062-.007813-.054687-.011719-.34375-.070312-.683594-.152344-1.023438-.226562-1.542969-.339844-3.085937-.710938-4.613281-1.140626-11.632812-3.269531-22.085938-9-31.085938-17.050781-2.945312-2.625-5.734374-5.523437-8.296874-8.621093-1.109376-1.339844-2.136719-2.609376-3.140626-3.890626-36.496093-46.453124-47.535156-108.5-29.519531-165.972656l9.484375-30.347656c.011719-.007812.035156-.011719.0625-.011719zm89.351563 282.105469-3.992188 2.382812-3.996093-2.386718c-7.136719-4.257813-11.570313-12.070313-11.570313-20.390625v-13.863281c.113281.019531.226563.027343.34375.042968.914063.128906 1.832031.242188 2.75.347656.300781.03125.601563.074219.902344.105469 1.222656.128907 2.445312.234375 3.667969.316407.300781.019531.597656.027343.898437.046874.925781.050782 1.851563.097657 2.777344.128907.441406.011719.886719.011719 1.328125.023437.554687.007813 1.109375.027344 1.664062.027344.21875 0 .433594-.011719.648438-.011719.59375-.003906 1.1875-.019531 1.78125-.035156.683594-.015625 1.371094-.035156 2.058594-.066406.59375-.027344 1.183593-.0625 1.773437-.101563.6875-.042968 1.375-.089844 2.0625-.148437.589844-.046875 1.175781-.105469 1.761719-.164063.691406-.074218 1.378906-.148437 2.070312-.230468.582032-.074219 1.160156-.152344 1.742188-.234376.691406-.097656 1.382812-.203124 2.074218-.3125.277344-.046874.558594-.082031.835938-.128906v14.257813c-.003906 8.320312-4.4375 16.132812-11.582031 20.394531zm-126.617188 73.113281h31.007813v31.011719h-31.007813zm214.246094 31.011719v-31.011719h31.007813v31.011719zm30.300781-51.011719h-30.300781v-5.988281c0-5.523438-4.476563-10-10-10s-10 4.476562-10 10v57h-143.238281v-57c0-5.523438-4.476563-10-10-10-5.523438 0-10 4.476562-10 10v5.988281h-30.300782c5.355469-44.070312 41.578126-78.757812 86.351563-81.679687v8.171875c0 15.324219 8.171875 29.722656 21.320313 37.5625l5.066406 3.027343c.355468.214844.714844.414063 1.078125.597657.09375.046875.1875.085937.28125.132812.273437.132813.546875.269531.824219.386719.203124.085938.40625.15625.609374.234375.171876.066406.34375.140625.519532.203125.3125.109375.628906.203125.945312.296875.070313.019531.136719.042969.207032.0625.335937.09375.671874.167969 1.011718.242187.054688.011719.101563.027344.152344.035157.332031.066406.664062.121093 1 .171875.058594.007812.117188.019531.179688.03125.339843.042968.683593.074218 1.027343.101562.050781.003906.105469.011719.15625.015625.289063.019531.578125.023438.871094.03125.105469 0 .210937.011719.320313.011719h.003906c.269531 0 .535156-.015625.804687-.027344.125-.007812.253907-.003906.378907-.011718.214843-.015626.429687-.042969.640624-.066407.183594-.019531.363282-.03125.546876-.054687.148437-.019532.300781-.050782.453124-.074219.238282-.039063.480469-.074219.722657-.125.074219-.011719.148437-.035156.222656-.050781 1.871094-.40625 3.691406-1.113282 5.382813-2.128906l5.085937-3.039063c13.15625-7.847656 21.328125-22.242187 21.328125-37.566406v-8.171875c44.769531 2.921875 80.992188 37.609375 86.347656 81.679687zm17.820313-138.238281c0 5.144531-4.1875 9.328125-9.332031 9.328125h-49.929688c.179688-.230469.351562-.46875.527344-.703125.425781-.5625.84375-1.125 1.261718-1.6875.558594-.75 1.113282-1.503906 1.660157-2.261719.414062-.574219.824219-1.152343 1.230469-1.726562.535156-.753907 1.066406-1.511719 1.585937-2.269531.402344-.585938.800781-1.171876 1.195313-1.757813.515624-.761719 1.023437-1.527344 1.523437-2.292969.386719-.59375.773437-1.1875 1.152344-1.78125.492187-.769531.980469-1.542968 1.460937-2.320312.375-.597656.742188-1.199219 1.109375-1.796875.472657-.785157.941407-1.570313 1.402344-2.355469.355469-.601562.710937-1.207031 1.058594-1.8125.457031-.792969.90625-1.59375 1.351562-2.394531.339844-.605469.675781-1.207031 1.007813-1.816407.441406-.8125.875-1.628906 1.304687-2.449218.316407-.601563.636719-1.203125.945313-1.804688.433594-.839844.851562-1.683594 1.269531-2.53125.292969-.589844.59375-1.179687.878906-1.773437.425781-.878907.835938-1.761719 1.25-2.644531.265625-.566407.535157-1.132813.792969-1.699219.429688-.941407.84375-1.890625 1.257812-2.839844.226563-.519531.460938-1.035156.683594-1.554687.464844-1.085938.910156-2.183594 1.355469-3.277344.15625-.386719.320313-.773438.476563-1.164063 1.191406-2.984375 2.316406-6.003906 3.367187-9.054687.152344-.4375.292969-.882813.441406-1.320313.363281-1.082031.726563-2.164062 1.074219-3.25.183594-.574219.355469-1.152343.53125-1.730469.300781-.960937.597656-1.925781.882812-2.894531.183594-.632812.359376-1.269531.539063-1.902343.257813-.921876.519531-1.839844.769531-2.761719.179688-.671875.347656-1.347657.523438-2.019531.230468-.898438.460937-1.792969.679687-2.695313.167969-.695313.328125-1.394531.492188-2.089844.207031-.886719.410156-1.777343.605469-2.667969.15625-.714843.308593-1.429687.457031-2.144531.183593-.886719.367187-1.773437.539062-2.660156.144531-.730469.277344-1.457031.414063-2.1875.164062-.886719.324218-1.773437.476562-2.664063.128906-.738281.25-1.480468.371094-2.222656.144531-.886718.28125-1.777344.414062-2.667968.113282-.75.222657-1.503907.324219-2.257813.125-.894531.242188-1.789063.359375-2.683594.09375-.757812.1875-1.519531.277344-2.28125.105469-.902343.203125-1.804687.296875-2.710937.082031-.761719.160156-1.527344.230469-2.292969.085937-.914063.164062-1.828125.242187-2.742187.0625-.769532.125-1.53125.183594-2.300782.066406-.929687.125-1.859375.183594-2.792968.046875-.765626.09375-1.527344.132812-2.296876.050781-.945312.085938-1.898437.125-2.851562.03125-.757812.0625-1.515625.085938-2.273438.03125-.976562.046875-1.960937.066406-2.941406.015625-.742187.035156-1.484375.042969-2.230468.007812-1.03125.003906-2.0625.003906-3.097657 0-.703125.003906-1.40625-.003906-2.109375-.011719-1.15625-.039063-2.316406-.066406-3.476562-.015626-.59375-.019532-1.179688-.039063-1.773438-.050781-1.757812-.121094-3.519531-.207031-5.292968-.167969-3.335938-1.984375-6.367188-4.847656-8.082032-1.3125-.785156-32.945313-19.34375-101.664063-25.957031-1.34375-.128906-2.675781-.277344-3.996094-.445313-32.996093-4.1875-58.230469-20.0625-74.03125-33.199218-.632812-.523438-1.25-1.046875-1.851562-1.5625-1.203125-1.03125-2.34375-2.042969-3.425781-3.023438-1.621094-1.472656-3.105469-2.878906-4.445313-4.199218-1.886719-1.863282-4.070313-3.296876-6.414063-4.277344-3.914062-1.628906-8.292968-1.988282-12.578124-.917969-6.832032 1.703125-12.167969 6.734375-14.277344 13.460937l-9.5 30.328126c-.617188 1.976562-1.207032 3.960937-1.765625 5.945312-.191407.6875-.363281 1.378906-.546875 2.070312-.351563 1.300782-.707032 2.597657-1.03125 3.902344-.207032.835938-.390625 1.679688-.589844 2.519532-.269531 1.15625-.554688 2.3125-.804688 3.472656-.199218.902344-.367187 1.808594-.550781 2.714844-.222656 1.097656-.457031 2.195312-.660156 3.292968-.175781.941406-.324219 1.882813-.484375 2.824219-.183594 1.066406-.378906 2.132813-.542969 3.199219-.152343.972656-.277343 1.945312-.414062 2.921875-.144531 1.035156-.300781 2.070312-.433594 3.105469-.121094.996093-.222656 1.992187-.332031 2.984374-.109375 1.019532-.234375 2.035157-.328125 3.054688-.097657 1.007812-.167969 2.015625-.25 3.023438-.078125 1.003906-.167969 2.007812-.234375 3.015624-.066406 1.015626-.109375 2.035157-.160156 3.050782-.050782.996094-.105469 1.988281-.140626 2.984375-.039062 1.027343-.050781 2.050781-.070312 3.078125-.019531.984375-.046875 1.964844-.054688 2.949218-.003906 1.035157.011719 2.066407.023438 3.101563.007812.972656.011719 1.945313.035156 2.914063.023438 1.039062.070313 2.074218.113282 3.109374.035156.964844.066406 1.933594.121093 2.894532.054688 1.042968.132813 2.082031.203125 3.117187.066406.957031.128906 1.914063.207032 2.867188.085937 1.042969.195312 2.082031.300781 3.121093.09375.949219.179687 1.898438.289062 2.84375.117188 1.039063.253907 2.074219.390625 3.109376.121094.941406.238282 1.886718.375 2.828124.148438 1.035157.316406 2.066407.480469 3.097657.148437.9375.296875 1.875.457031 2.808593.179688 1.03125.378906 2.058594.574219 3.085938.179687.929688.351563 1.863281.542969 2.789062.210937 1.023438.4375 2.042969.664062 3.0625.203125.925782.40625 1.851563.625 2.773438.238282 1.015625.496094 2.027344.753906 3.039062.230469.917969.460938 1.839844.707032 2.753907.269531 1.007812.558594 2.011719.84375 3.015625.257812.910156.515625 1.824218.792968 2.730468.296876 1 .613282 1.992188.929688 2.984376.289062.90625.574219 1.8125.875 2.714843.328125.984375.671875 1.964844 1.019531 2.945313.316407.902344.632813 1.804687.960938 2.699218.355469.972657.726562 1.9375 1.097656 2.902344.347656.898438.691406 1.792969 1.050781 2.6875.386719.957032.785156 1.90625 1.183594 2.859375.375.890625.75 1.78125 1.136719 2.664063.414062.941406.835937 1.878906 1.261719 2.8125.40625.886718.8125 1.769531 1.230468 2.648437.4375.925781.886719 1.84375 1.339844 2.761719.433594.878906.871094 1.757812 1.320312 2.628906.460938.90625.9375 1.808594 1.417969 2.707032.460938.875.929688 1.742187 1.40625 2.609374.492188.890626.992188 1.769532 1.496094 2.652344.492187.863282.992187 1.726563 1.5 2.585938.515625.867187 1.039063 1.730468 1.566406 2.59375.527344.859375 1.058594 1.714844 1.597657 2.566406.539062.84375 1.085937 1.6875 1.636718 2.523438.558594.855468 1.121094 1.703124 1.695313 2.542968.558593.828125 1.128906 1.648438 1.703125 2.46875.589844.84375 1.1875 1.679688 1.789062 2.515625.585938.800781 1.175782 1.601563 1.773438 2.398438.316406.425781.625.863281.949218 1.289062h-47.460937c-5.144531 0-9.328125-4.1875-9.328125-9.332031v-148.859375c0-73.828125 60.0625-133.890625 133.890625-133.890625h11.699219c73.828125 0 133.890625 60.0625 133.890625 133.890625zm0 0"/><path d="m191.828125 193.148438c12.890625-2.828126 26.609375-1.382813 38.625 4.066406l3.175781 1.441406c1.339844.609375 2.742188.894531 4.125.894531 3.804688 0 7.4375-2.183593 9.113282-5.871093 2.28125-5.027344.054687-10.957032-4.976563-13.238282l-3.175781-1.4375c-15.925782-7.226562-34.097656-9.140625-51.175782-5.390625-5.394531 1.1875-8.808593 6.519531-7.625 11.914063 1.1875 5.394531 6.523438 8.804687 11.914063 7.621094zm0 0"/><path d="m81.726562 199.554688c1.378907 0 2.785157-.289063 4.125-.898438l3.171876-1.4375c12.023437-5.453125 25.738281-6.898438 38.628906-4.066406 5.390625 1.183594 10.726562-2.230469 11.910156-7.625 1.183594-5.390625-2.226562-10.726563-7.625-11.910156-17.078125-3.75-35.25-1.835938-51.175781 5.390624l-3.175781 1.4375c-5.027344 2.28125-7.257813 8.207032-4.976563 13.238282 1.675781 3.6875 5.3125 5.871094 9.117187 5.871094zm0 0"/><path d="m216.949219 211.46875c-.25-.597656-.558594-1.179688-.917969-1.726562-.371094-.542969-.78125-1.050782-1.25-1.511719-.460938-.46875-.972656-.878907-1.519531-1.25-.542969-.359375-1.121094-.671875-1.722657-.921875-.609374-.25-1.238281-.4375-1.867187-.566406-1.292969-.261719-2.621094-.261719-3.910156 0-.640625.128906-1.273438.316406-1.871094.566406-.609375.25-1.191406.5625-1.730469.921875-.550781.371093-1.058594.78125-1.519531 1.25-.460937.460937-.878906.96875-1.242187 1.511719-.359376.546874-.667969 1.128906-.917969 1.726562-.25.601562-.441407 1.230469-.570313 1.871094-.128906.648437-.199218 1.308594-.199218 1.960937 0 .648438.070312 1.308594.199218 1.949219s.320313 1.269531.570313 1.871094c.25.597656.558593 1.179687.917969 1.726562.363281.542969.78125 1.0625 1.242187 1.523438.460937.457031.96875.878906 1.519531 1.238281.539063.359375 1.121094.671875 1.730469.921875.597656.25 1.230469.4375 1.871094.566406.636719.132813 1.296875.203125 1.949219.203125.648437 0 1.308593-.070312 1.960937-.203125.628906-.128906 1.257813-.316406 1.867187-.566406.601563-.25 1.179688-.5625 1.722657-.921875.546875-.359375 1.058593-.78125 1.519531-1.238281.457031-.460938.878906-.980469 1.25-1.523438.359375-.546875.667969-1.128906.917969-1.726562.25-.601563.441406-1.230469.570312-1.871094.128907-.640625.191407-1.300781.191407-1.949219 0-.652343-.0625-1.3125-.191407-1.960937-.128906-.640625-.320312-1.269532-.570312-1.871094zm0 0"/><path d="m121 211.46875c-.25-.597656-.558594-1.179688-.921875-1.726562-.359375-.542969-.777344-1.050782-1.238281-1.511719-2.328125-2.332031-5.78125-3.390625-9.03125-2.738281-.628906.128906-1.257813.316406-1.867188.566406-.601562.25-1.179687.5625-1.722656.921875-.546875.371093-1.058594.78125-1.519531 1.25-.460938.460937-.878907.96875-1.25 1.511719-.359375.546874-.667969 1.128906-.917969 1.726562-.25.601562-.441406 1.230469-.570312 1.871094-.132813.648437-.191407 1.308594-.191407 1.960937 0 .648438.058594 1.308594.191407 1.949219.128906.640625.320312 1.269531.570312 1.871094.25.597656.558594 1.179687.917969 1.726562.371093.542969.789062 1.0625 1.25 1.523438.460937.457031.972656.878906 1.519531 1.238281.542969.359375 1.121094.671875 1.722656.921875.609375.25 1.238282.4375 1.867188.566406.652344.132813 1.3125.203125 1.960937.203125.652344 0 1.308594-.070312 1.949219-.203125.640625-.128906 1.269531-.316406 1.871094-.566406.609375-.25 1.191406-.5625 1.730468-.921875.550782-.359375 1.058594-.78125 1.519532-1.238281.460937-.460938.878906-.980469 1.238281-1.523438.363281-.546875.671875-1.128906.921875-1.726562.25-.601563.441406-1.230469.570312-1.871094.128907-.640625.199219-1.300781.199219-1.949219 0-.652343-.070312-1.3125-.199219-1.960937-.128906-.640625-.320312-1.269532-.570312-1.871094zm0 0"/><path d="m133.828125 284.023438c-2.6875 4.824218-.957031 10.917968 3.867187 13.605468 6.363282 3.546875 13.34375 5.316406 20.328126 5.316406 6.980468 0 13.960937-1.769531 20.324218-5.316406 4.824219-2.6875 6.558594-8.777344 3.871094-13.605468-2.691406-4.824219-8.78125-6.554688-13.605469-3.867188-6.632812 3.695312-14.550781 3.695312-21.183593 0-4.824219-2.691406-10.914063-.957031-13.601563 3.867188zm0 0"/><path d="m186.796875 44.257812c-5.46875-.820312-10.554687 2.945313-11.371094 8.410157-.820312 5.460937 2.945313 10.550781 8.40625 11.367187 45.929688 6.878906 65.289063 51.125 65.558594 51.753906 1.605469 3.824219 5.316406 6.128907 9.222656 6.128907 1.285157 0 2.589844-.25 3.847657-.777344 5.097656-2.128906 7.503906-7.984375 5.375-13.078125-.941407-2.253906-23.679688-55.214844-81.039063-63.804688zm0 0"/><path d="m147.347656 39.667969h-.023437c-5.523438 0-9.988281 4.476562-9.988281 10 0 5.519531 4.488281 10 10.011718 10 5.523438 0 10-4.480469 10-10 0-5.523438-4.476562-10-10-10zm0 0"/></svg>