<svg viewBox="-57 0 512 512.00017" xmlns="http://www.w3.org/2000/svg"><path d="m329.332031 150.65625c-.75-2.839844-1.597656-5.6875-2.511719-8.464844-1.734374-5.242187-7.390624-8.085937-12.632812-6.351562-5.246094 1.734375-8.089844 7.390625-6.355469 12.632812.789063 2.390625 1.519531 4.84375 2.167969 7.292969 14.503906 54.875-9.742188 113.046875-58.960938 141.460937-29.191406 16.855469-63.199218 21.332032-95.757812 12.609376-32.558594-8.726563-59.769531-29.605469-76.625-58.796876-34.789062-60.261718-14.066406-137.589843 46.191406-172.382812 45.273438-26.136719 102.828125-21.417969 143.21875 11.746094 4.265625 3.503906 10.566406 2.886718 14.074219-1.382813 3.503906-4.265625 2.882813-10.570312-1.382813-14.074219-22.746093-18.675781-50.320312-29.953124-79.746093-32.617187-30.101563-2.726563-59.898438 3.847656-86.164063 19.011719-69.8125 40.304687-93.816406 129.886718-53.507812 199.699218 19.523437 33.816407 51.046875 58.007813 88.765625 68.113282 12.59375 3.375 25.375 5.042968 38.074219 5.042968 25.332031 0 50.332031-6.640624 72.859374-19.648437 57.015626-32.917969 85.101563-100.3125 68.292969-163.890625zm0 0"/><path d="m390.617188 431.082031-37.640626-65.195312c-2.808593-4.867188-7.347656-8.347657-12.777343-9.804688-4.242188-1.136719-8.625-.910156-12.664063.578125l-15.789062-27.351562c27.84375-24.28125 47.878906-56.257813 57.65625-92.746094 12.988281-48.46875 6.324218-99.09375-18.765625-142.550781-25.089844-43.457031-65.601563-74.542969-114.070313-87.527344-48.46875-12.992187-99.097656-6.324219-142.554687 18.765625s-74.542969 65.601562-87.53125 114.070312c-12.984375 48.472657-6.320313 99.097657 18.769531 142.554688 34.757812 60.199219 98.03125 93.894531 163.007812 93.890625 20.164063 0 40.492188-3.257813 60.1875-9.960937l15.8125 27.386718c-3.308593 2.753906-5.695312 6.4375-6.832031 10.679688-1.453125 5.429687-.707031 11.097656 2.101563 15.964844l37.640625 65.199218c9.984375 17.289063 28.15625 26.964844 46.816406 26.964844 9.148437 0 18.410156-2.324219 26.886719-7.21875 12.480468-7.203125 21.40625-18.839844 25.136718-32.757812 3.730469-13.921876 1.816407-28.460938-5.390624-40.941407zm-128.191407-92.710937c-.332031.164062-.664062.328125-1 .492187-1.398437.683594-2.800781 1.34375-4.207031 1.984375-.316406.140625-.628906.28125-.945312.421875-1.484376.664063-2.976563 1.3125-4.472657 1.925781-.121093.054688-.246093.101563-.371093.152344-20.488282 8.386719-41.945313 12.425782-63.203126 12.425782-58.058593-.003907-114.601562-30.109376-145.65625-83.898438-22.417968-38.832031-28.375-84.066406-16.769531-127.378906 11.605469-43.308594 39.378907-79.507813 78.210938-101.925782 25.867187-14.933593 54.570312-22.5625 83.65625-22.5625 14.582031 0 29.261719 1.917969 43.722656 5.792969 43.308594 11.605469 79.507813 39.378907 101.925781 78.210938 22.417969 38.832031 28.375 84.070312 16.769532 127.378906-9.394532 35.054687-29.386719 65.453125-57.257813 87.652344-.0625.046875-.128906.085937-.1875.136719-1.632813 1.296874-3.292969 2.566406-4.976563 3.808593-.007812.003907-.011718.007813-.015624.011719-3.230469 2.378906-6.550782 4.636719-9.941407 6.78125-.316406.199219-.632812.398438-.949219.59375-1.59375.996094-3.195312 1.96875-4.816406 2.902344-.023437.015625-.042968.027344-.066406.042968-1.503906.867188-3.019531 1.703126-4.539062 2.519532-.21875.117187-.4375.238281-.65625.355468-1.414063.746094-2.832032 1.46875-4.253907 2.175782zm7.550781 18.570312c.296876-.144531.597657-.285156.894532-.429687 1.613281-.792969 3.210937-1.621094 4.800781-2.460938.433594-.230469.871094-.460937 1.304687-.695312 1.644532-.886719 3.28125-1.789063 4.894532-2.71875.113281-.066407.226562-.136719.339844-.203125 1.140624-.660156 2.28125-1.335938 3.410156-2.023438.632812-.382812 1.253906-.777344 1.878906-1.167968.578125-.359376 1.15625-.71875 1.734375-1.085938.824219-.527344 1.640625-1.066406 2.460937-1.605469.332032-.222656.671876-.445312 1.003907-.667969.960937-.644531 1.914062-1.296874 2.863281-1.957031.089844-.0625.179688-.121093.269531-.183593l14.222657 24.632812-27.402344 15.820312-1.238282.714844-14.222656-24.632812c.933594-.4375 1.859375-.886719 2.785156-1.335938zm106.714844 109.90625c-2.347656 8.757813-7.964844 16.082032-15.820312 20.617188-16.210938 9.359375-37.019532 3.785156-46.382813-12.429688l-37.640625-65.195312c-.144531-.25-.179687-.515625-.105468-.789063.074218-.277343.238281-.488281.484374-.632812l28.503907-16.457031 22.980469-13.265626c.003906 0 .003906-.003906.003906-.003906l5.519531-3.1875c.164063-.09375.335937-.140625.511719-.140625.09375 0 .1875.011719.277344.035157.277343.074218.488281.238281.632812.484374l37.640625 65.199219c4.535156 7.855469 5.742187 17.003907 3.394531 25.765625zm0 0"/><path d="m243.773438 123.664062c-15.078126-12.070312-28.558594-7.597656-39.386719-4.003906-5.480469 1.816406-10.65625 3.535156-16.445313 3.671875-5.785156-.136719-10.964844-1.851562-16.441406-3.671875-10.832031-3.59375-24.308594-8.066406-39.386719 4.003906-11.070312 8.859376-15.390625 24.707032-16.980469 33.367188-6.589843 35.890625 6.335938 79.203125 32.167969 107.78125 3.332031 3.683594 7.980469 5.714844 12.847657 5.714844.964843 0 1.941406-.082032 2.917968-.246094 5.902344-.992188 10.824219-4.871094 13.164063-10.378906 2.664062-6.273438 4.828125-12.023438 6.425781-17.085938.730469-2.308594 2.855469-3.859375 5.285156-3.859375 2.433594 0 4.554688 1.550781 5.285156 3.859375 1.605469 5.078125 3.769532 10.828125 6.429688 17.085938 2.339844 5.507812 7.257812 9.386718 13.160156 10.378906 5.882813.988281 11.777344-1.054688 15.769532-5.472656 25.832031-28.574219 38.757812-71.886719 32.167968-107.777344-1.589844-8.65625-5.910156-24.507812-16.980468-33.367188zm-27.300782 124.585938c-1.6875-4.175781-3.085937-8.019531-4.175781-11.460938-3.371094-10.664062-13.160156-17.832031-24.355469-17.832031-11.195312 0-20.980468 7.164063-24.351562 17.832031-1.085938 3.433594-2.488282 7.277344-4.175782 11.460938-19.75-23.871094-29.816406-59.265625-24.609374-87.605469 1.820312-9.925781 5.488281-17.914062 9.808593-21.371093 6.273438-5.023438 10.191407-4.085938 20.589844-.632813 6.398437 2.125 13.65625 4.53125 22.566406 4.6875h.347657c8.914062-.15625 16.167968-2.5625 22.566406-4.6875 10.398437-3.449219 14.316406-4.390625 20.589844.632813 4.320312 3.457031 7.988281 11.445312 9.808593 21.371093 5.207031 28.339844-4.863281 63.738281-24.609375 87.605469zm0 0"/><path d="m292.355469 115.785156c.25.597656.5625 1.179688.921875 1.71875.371094.550782.789062 1.058594 1.25 1.519532.460937.472656.96875.878906 1.519531 1.25.539063.359374 1.117187.667968 1.71875.917968.609375.25 1.242187.441406 1.871094.570313.648437.132812 1.308593.191406 1.960937.191406.648438 0 1.308594-.0625 1.949219-.191406.640625-.128907 1.269531-.320313 1.867187-.570313.601563-.25 1.191407-.558594 1.730469-.917968.550781-.371094 1.0625-.777344 1.519531-1.25.460938-.460938.878907-.96875 1.242188-1.519532.359375-.539062.667969-1.121094.917969-1.71875.25-.609375.441406-1.230468.570312-1.871094.128907-.648437.199219-1.300781.199219-1.960937 0-.648437-.070312-1.308594-.199219-1.949219-.128906-.640625-.320312-1.269531-.570312-1.871094-.25-.597656-.558594-1.1875-.917969-1.730468-.363281-.546875-.78125-1.058594-1.242188-1.515625-.460937-.460938-.96875-.882813-1.519531-1.242188-.539062-.359375-1.128906-.667969-1.730469-.917969-.597656-.25-1.226562-.441406-1.867187-.570312-1.289063-.261719-2.621094-.261719-3.910156 0-.628907.128906-1.261719.320312-1.871094.570312-.601563.25-1.179687.558594-1.71875.917969-.550781.359375-1.0625.78125-1.519531 1.242188-.460938.457031-.878906.96875-1.25 1.515625-.359375.542968-.671875 1.132812-.921875 1.730468-.25.601563-.4375 1.230469-.570313 1.871094-.128906.640625-.1875 1.300782-.1875 1.949219 0 .660156.058594 1.308594.1875 1.960937.128906.640626.320313 1.261719.570313 1.871094zm0 0"/></svg>