<svg viewBox="-94 0 512 512.001" xmlns="http://www.w3.org/2000/svg"><path d="m324.140625 156.269531c0-13.328125-9.164063-24.554687-21.519531-27.71875v-30.421875c0-16.578125-13.484375-30.066406-30.0625-30.066406h-41.128906c-1.707032-14.386719-13.972657-25.582031-28.808594-25.582031h-16.738282c.480469-2.339844.738282-4.738281.738282-7.167969 0-19.472656-15.839844-35.3125-35.308594-35.3125-19.472656 0-35.3125 15.839844-35.3125 35.3125 0 2.429688.257812 4.828125.742188 7.167969h-16.742188c-14.839844 0-27.109375 11.195312-28.816406 25.582031h-41.121094c-16.574219 0-30.0625 13.488281-30.0625 30.066406v383.8125c0 16.574219 13.484375 30.058594 30.0625 30.058594h242.5c16.574219 0 30.058594-13.484375 30.058594-30.058594v-54.089844l10.425781-10.046874c.113281-.109376.222656-.230469.335937-.34375.285157-.28125.570313-.5625.84375-.855469.148438-.15625.289063-.316407.433594-.476563.25-.273437.496094-.546875.734375-.824218.132813-.152344.257813-.308594.382813-.460938.253906-.308594.503906-.617188.75-.933594.097656-.128906.199218-.257812.296875-.390625.28125-.371093.554687-.75.820312-1.132812.050781-.078125.105469-.15625.160157-.234375 3.046874-4.464844 5.082031-9.585938 5.910156-14.972656.011718-.058594.019531-.117188.027344-.175782.054687-.378906.109374-.757812.15625-1.136718.007812-.058594.003906-.117188.011718-.175782.148438-1.328125.230469-2.667968.230469-4.011718zm-20 228.445313h-55.710937c-9.683594 0-17.5625 7.875-17.5625 17.558594v52.21875h-159.84375c-4.75 0-8.613282-3.863282-8.613282-8.609376v-289.613281c0-4.746093 3.863282-8.609375 8.613282-8.609375h224.507812c4.75 0 8.609375 3.863282 8.609375 8.609375zm-53.269531 65.222656v-45.222656h46.933594zm-99.558594-429.9375c8.441406 0 15.308594 6.867188 15.308594 15.3125 0 3.867188-1.4375 7.554688-4.054688 10.382812-2.9375 3.175782-6.933594 4.925782-11.253906 4.925782-.539062 0-1.074219-.027344-1.605469-.082032-3.699219-.378906-7.082031-2.0625-9.652343-4.847656-2.613282-2.824218-4.054688-6.511718-4.054688-10.378906 0-8.445312 6.871094-15.3125 15.3125-15.3125zm-60.339844 51.5c0-4.972656 4.050782-9.019531 9.027344-9.019531h28.761719c.121093.101562.25.195312.371093.296875.167969.132812.335938.269531.507813.398437.289063.226563.582031.445313.878906.660157.164063.117187.324219.238281.488281.355468.351563.242188.703126.480469 1.0625.710938.113282.074218.226563.152344.34375.226562.472657.300782.949219.585938 1.433594.859375.136719.078125.273438.148438.410156.222657.355469.199218.714844.390624 1.078126.574218.1875.09375.375.183594.5625.273438.320312.15625.640624.308594.964843.453125.203125.089843.40625.179687.609375.265625.320313.136718.648438.269531.976563.398437.199219.078125.398437.15625.597656.230469.363281.136719.730469.261719 1.101563.382812.164062.058594.328124.117188.492187.167969.53125.167969 1.0625.328125 1.601563.46875.109374.03125.21875.054688.328124.082031.4375.109376.875.21875 1.316407.3125.191406.042969.386719.078126.582031.117188.363281.070312.726562.136719 1.089844.199219.214844.035156.425781.066406.640625.097656.355469.054687.710937.101563 1.070312.144531.210938.023438.421875.046875.632813.066406.382812.039063.769531.066407 1.152344.09375.183593.011719.367187.027344.550781.035157.566406.027343 1.136719.042969 1.703125.042969.570312 0 1.140625-.015626 1.707031-.042969.183594-.007813.367187-.023438.550781-.035157.382813-.027343.769532-.054687 1.152344-.09375.210938-.019531.421875-.042968.628906-.066406.363282-.042968.71875-.089844 1.078125-.144531.210938-.03125.421875-.0625.632813-.097656.367187-.058594.738281-.128907 1.101562-.203125.191406-.035156.378906-.070313.566406-.113282.460938-.097656.914063-.207031 1.367188-.324218.09375-.023438.183594-.042969.277344-.066406.542968-.144532 1.082031-.304688 1.617187-.472657.148438-.050781.300781-.101562.449219-.152343.382812-.128907.765625-.257813 1.144531-.402344.191407-.070313.378907-.144532.570313-.21875.339844-.132813.675781-.269532 1.007812-.410156.195313-.085938.390625-.167969.582032-.253907.335937-.152343.667968-.308593 1-.46875.175781-.085937.355468-.171875.535156-.261719.378906-.191406.753906-.390624 1.125-.597656.121094-.066406.242187-.128906.359375-.195312.492187-.277344.972656-.566406 1.449219-.867188.109374-.070312.210937-.144531.320312-.210937.367188-.238281.726562-.480469 1.085938-.730469.160156-.113281.316406-.230469.476562-.34375.300781-.21875.597656-.441406.890625-.667969.167969-.128906.335937-.261719.5-.394531.125-.101562.253906-.199219.378906-.300781h28.757813c4.972656 0 9.019531 4.046875 9.019531 9.019531v22.152344h-120.667969zm191.648438 375.621094v34.816406c0 5.550781-4.511719 10.0625-10.058594 10.0625h-242.5c-5.550781 0-10.0625-4.511719-10.0625-10.0625v-383.808594c0-5.550781 4.511719-10.066406 10.0625-10.066406h40.910156v15.589844c0 5.519531 4.476563 10 10 10h140.667969c5.523437 0 10-4.480469 10-10v-15.589844h40.921875c5.546875 0 10.058594 4.515625 10.058594 10.066406v29.53125h-211.597656c-15.777344 0-28.613282 12.832032-28.613282 28.609375v289.609375c0 15.773438 12.835938 28.609375 28.613282 28.609375h168.546874c9.429688 0 18.367188-3.601562 25.179688-10.148437zm0 0"/><path d="m120.488281 300.339844c5.335938-.898438 9.78125-4.40625 11.898438-9.386719 2.089843-4.921875 3.792969-9.445313 5.054687-13.441406.269532-.851563 1.054688-1.421875 1.949219-1.421875.898437 0 1.683594.570312 1.953125 1.417968v.003907c1.261719 3.992187 2.960938 8.515625 5.058594 13.441406 2.113281 4.980469 6.5625 8.488281 11.898437 9.386719.882813.148437 1.765625.222656 2.640625.222656 4.398438 0 8.605469-1.84375 11.617188-5.175781 20.46875-22.640625 30.703125-56.976563 25.476562-85.445313-1.289062-7.015625-4.816406-19.886718-13.96875-27.210937-12.636718-10.113281-24.195312-6.28125-32.640625-3.480469-4.0625 1.347656-7.902343 2.621094-12.035156 2.730469-4.128906-.105469-7.96875-1.382813-12.03125-2.730469-8.441406-2.800781-20-6.636719-32.640625 3.480469-9.152344 7.324219-12.679688 20.195312-13.96875 27.210937-5.226562 28.46875 5.011719 62.804688 25.472656 85.445313 3.613282 3.996093 8.945313 5.847656 14.265625 4.953125zm-20.066406-86.785156c1.550781-8.445313 4.527344-13.394532 6.796875-15.210938 3.820312-3.0625 5.742188-2.800781 13.839844-.109375 4.859375 1.609375 10.910156 3.617187 18.160156 3.746094h.347656c7.253906-.128907 13.300782-2.136719 18.160156-3.746094 8.101563-2.6875 10.019532-2.949219 13.84375.109375 2.265626 1.8125 5.242188 6.765625 6.792969 15.210938 3.707031 20.175781-2.878906 45.117187-16.191406 62.996093-.671875-1.796875-1.257813-3.492187-1.757813-5.066406-2.910156-9.207031-11.355468-15.394531-21.019531-15.394531-9.664062 0-18.109375 6.1875-21.023437 15.394531-.496094 1.578125-1.085938 3.269531-1.753906 5.066406-13.3125-17.878906-19.898438-42.820312-16.195313-62.996093zm0 0"/><path d="m277.417969 201h-47.347657c-5.519531 0-10 4.476562-10 10s4.480469 10 10 10h47.347657c5.519531 0 10-4.476562 10-10s-4.480469-10-10-10zm0 0"/><path d="m277.417969 246h-47.347657c-5.519531 0-10 4.476562-10 10s4.480469 10 10 10h47.347657c5.519531 0 10-4.476562 10-10s-4.480469-10-10-10zm0 0"/><path d="m239.300781 338.171875c-.25-.601563-.558593-1.183594-.921875-1.722656-.355468-.550781-.777344-1.058594-1.238281-1.519531-.460937-.460938-.96875-.878907-1.519531-1.242188-.539063-.367188-1.121094-.667969-1.730469-.917969-.601563-.25-1.230469-.449219-1.867187-.570312-1.292969-.261719-2.613282-.261719-3.902344 0-.640625.121093-1.269532.320312-1.871094.570312-.609375.25-1.1875.550781-1.726562.917969-.550782.363281-1.0625.78125-1.523438 1.242188-.457031.460937-.878906.96875-1.238281 1.519531-.371094.539062-.671875 1.121093-.921875 1.722656-.25.609375-.449219 1.238281-.578125 1.878906-.128907.640625-.191407 1.300781-.191407 1.949219 0 2.628906 1.070313 5.210938 2.929688 7.070312.460938.460938.972656.878907 1.523438 1.238282.539062.359375 1.117187.671875 1.726562.921875.601562.25 1.230469.449219 1.871094.570312.640625.128907 1.300781.199219 1.949218.199219.648438 0 1.3125-.070312 1.953126-.199219.636718-.121093 1.269531-.320312 1.867187-.570312.609375-.25 1.191406-.5625 1.730469-.921875.550781-.359375 1.058594-.777344 1.519531-1.238282 1.859375-1.859374 2.929687-4.441406 2.929687-7.070312 0-.648438-.070312-1.3125-.199218-1.949219-.121094-.640625-.320313-1.269531-.570313-1.878906zm0 0"/><path d="m190.070312 332h-94c-5.519531 0-10 4.476562-10 10s4.480469 10 10 10h94c5.523438 0 10-4.476562 10-10s-4.476562-10-10-10zm0 0"/><path d="m194.070312 383.441406h-98c-5.519531 0-10 4.476563-10 10 0 5.523438 4.480469 10 10 10h98c5.523438 0 10-4.476562 10-10 0-5.523437-4.476562-10-10-10zm0 0"/></svg>