<svg viewBox="-104 0 512 512" xmlns="http://www.w3.org/2000/svg"><path d="m187.46875 348.921875c36.804688-12.769531 64.546875-44.777344 71.632812-83.460937l3.640626-19.878907c.019531-.09375.023437-.1875.039062-.28125h3.554688c20.496093 0 37.171874-16.679687 37.171874-37.179687 0-9.933594-3.867187-19.269532-10.882812-26.285156-4.546875-4.550782-10.066406-7.769532-16.09375-9.476563 5.992188-13.777344 10.835938-31.484375 9.074219-50.832031 1.097656-.050782 2.195312-.097656 3.292969-.15625 5.515624-.292969 9.746093-5.003906 9.453124-10.519532-.296874-5.515624-5.011718-9.746093-10.523437-9.449218-2.132813.113281-4.269531.199218-6.410156.273437-2.929688-8.710937-7.429688-17.589843-13.941407-26.445312-4.523437-6.144531-12.492187-8.511719-19.5-6.257813-5.414062-13.097656-14.128906-24.617187-25.289062-33.222656-30.96875-23.867188-73.976562-31.476562-113.609375-20.457031-10.742187-9.78125-24.808594-15.292969-39.5-15.292969-32.367187 0-58.699219 26.332031-58.699219 58.699219 0 16.0625 6.699219 31.464843 18.195313 42.472656-1.160157 3.503906-2.394531 7.019531-3.6875 10.667969-1.097657 3.105468-2.234375 6.316406-3.316407 9.527344-2.757812 8.191406-6.300781 14.484374-10.542968 18.722656-3.894532 3.890625-5.519532 9.410156-4.355469 14.761718 1.160156 5.316407 4.902344 9.628907 10.019531 11.53125 4.09375 1.523438 8.839844 3.265626 13.933594 5.058594-17.632812 2.898438-31.125 18.238282-31.125 36.675782 0 20.5 16.679688 37.179687 37.179688 37.179687h3.550781c.015625.09375.023437.1875.039062.28125l3.640625 19.882813c6.988282 38.183593 33.195313 69.214843 69.179688 82.59375v3.425781l-29.355469 9.621093c-15.816406 1.839844-30.40625 9.28125-41.222656 21.089844-11.234375 12.269532-17.421875 28.195313-17.421875 44.847656v74.960938c0 5.523438 4.476562 10 10 10h231c5.519531 0 10-4.476562 10-10v-74.960938c0-34.242187-26.382813-63.011718-60.308594-66.113281l-28.8125-9.441406zm-7.265625 63.105469-15.972656-14.84375 17.894531-26.40625 17.675781 5.792968zm-43.179687-58.105469c.5625.078125 1.128906.148437 1.695312.214844.824219.097656 1.648438.1875 2.472656.269531.519532.046875 1.042969.097656 1.5625.140625.878906.070313 1.761719.128906 2.644532.179687.480468.03125.957031.058594 1.4375.078126.925781.042968 1.847656.066406 2.773437.085937.449219.007813.902344.019531 1.351563.023437.265624 0 .53125.015626.796874.015626.820313 0 1.636719-.023438 2.453126-.042969.238281-.003907.480468-.003907.71875-.011719 2.683593-.078125 5.363281-.253906 8.023437-.527344.402344-.039062.804687-.089844 1.203125-.136718.910156-.105469 1.816406-.214844 2.71875-.339844.195312-.027344.394531-.046875.59375-.074219v2.960937l-16.945312 25-6.621094-9.769531-10.316406-15.21875v-3.355469c.371093.0625.746093.105469 1.117187.164063.773437.125 1.542969.238281 2.320313.34375zm146.484374-145.800781c0 9.472656-7.703124 17.179687-17.171874 17.179687h-3.429688v-28.828125c.023438-.03125.042969-.0625.066406-.089844.21875-.3125.449219-.636718.6875-.976562.042969-.0625.085938-.121094.128906-.183594.261719-.375.527344-.761718.804688-1.171875.046875-.066406.09375-.136719.140625-.207031.277344-.40625.558594-.828125.847656-1.269531.015625-.023438.03125-.046875.046875-.070313.292969-.441406.589844-.90625.894532-1.378906.039062-.0625.078124-.121094.117187-.183594 4.476563.078125 8.667969 1.855469 11.835937 5.03125 3.246094 3.242188 5.03125 7.558594 5.03125 12.148438zm-213.929687-188.121094c11.148437 0 21.753906 4.808594 29.105469 13.199219 6.195312 7.046875 9.601562 16.105469 9.601562 25.5 0 21.347656-17.363281 38.710937-38.707031 38.710937-8.367187 0-16.324219-2.621094-23.015625-7.582031 0-.003906 0-.003906-.003906-.003906-9.964844-7.394531-15.679688-18.738281-15.679688-31.125 0-21.339844 17.359375-38.699219 38.699219-38.699219zm-28.554687 107.753906c1.03125-3.066406 2.144531-6.199218 3.21875-9.234375.6875-1.941406 1.382812-3.90625 2.070312-5.886719.074219.027344.148438.054688.222656.085938.824219.355469 1.652344.691406 2.492188 1.003906.101562.039063.203125.070313.304687.105469.742188.277344 1.492188.53125 2.25.777344.273438.085937.550781.167969.828125.253906.605469.183594 1.210938.359375 1.820313.523437.289062.078126.578125.15625.871093.230469.683594.171875 1.375.332031 2.070313.480469.191406.042969.382813.089844.574219.128906.882812.179688 1.769531.335938 2.664062.476563.226563.035156.453125.0625.679688.097656.675781.097656 1.359375.183594 2.042968.257813.300782.035156.601563.0625.90625.089843.644532.058594 1.292969.109375 1.945313.148438.277344.015625.558594.035156.835937.050781.917969.039062 1.835938.066406 2.757813.066406 20.808594 0 39.109375-10.890625 49.539063-27.261718 3.242187 1.480468 7.296874 3.242187 12.121093 5.179687 1.222657.492187 2.480469.722656 3.722657.722656 3.964843 0 7.714843-2.371093 9.28125-6.273437 2.058593-5.125-.425782-10.949219-5.550782-13.007813-4.820312-1.933593-8.796875-3.679687-11.867187-5.09375.945312-4.175781 1.464843-8.515625 1.464843-12.976562 0-1.035157-.035156-2.0625-.089843-3.09375-.019531-.316407-.042969-.628907-.066407-.945313-.046874-.730468-.113281-1.457031-.1875-2.183594-.039062-.339843-.074218-.679687-.117187-1.019531-.09375-.765625-.207031-1.527343-.332031-2.289062-.042969-.257813-.078125-.515625-.125-.773438-.175782-1.003906-.378906-2.003906-.609375-2.996093-.046875-.199219-.105469-.398438-.152344-.597657-.195313-.796875-.40625-1.585937-.632813-2.375-.089843-.316406-.1875-.628906-.28125-.941406-.214843-.695313-.441406-1.386719-.679687-2.074219-.105469-.296875-.207031-.597656-.316406-.894531-.308594-.84375-.636719-1.683594-.984375-2.515625-.046875-.109375-.085938-.222656-.132813-.328125-.402343-.941406-.832031-1.871094-1.285156-2.792969-.03125-.066406-.0625-.140625-.097656-.207031 31.386719-6.441406 64.238281.386719 88.28125 18.917969 10.957031 8.445312 18.789062 20.675781 22.058593 34.433594.746094 3.132812 2.953126 5.714843 5.929688 6.9375 2.980469 1.222656 6.367188.9375 9.097656-.769532l5.152344-3.21875c2.953125 4.25 5.320312 8.515625 7.191406 12.761719-19.230468-.546875-38.589844-2.695313-57.835937-6.4375-5.421875-1.058594-10.667969 2.480469-11.722657 7.902344-1.054687 5.421875 2.484376 10.671875 7.90625 11.726562 22.3125 4.34375 44.78125 6.632813 67.074219 6.902344 2.503907 22.109375-5.964843 41.972656-12.972656 54.109375 0 0-.003906 0-.003906.003906-.25.4375-.5.859375-.75 1.277344-.054688.09375-.113281.1875-.167969.285156-.203125.335938-.402344.664063-.597656.988282-.050782.074218-.097656.152343-.140625.226562-.492188.796875-.96875 1.546875-1.421875 2.25-.011719.015625-.019532.027344-.03125.046875-.964844-.671875-1.917969-1.359375-2.859375-2.066406-.140625-.105469-.277344-.214844-.417969-.320313-.816406-.621094-1.625-1.246094-2.421875-1.890625-.320313-.253906-.628906-.523437-.945313-.78125-.609374-.503906-1.21875-1.007812-1.816406-1.527343-.359375-.3125-.710937-.632813-1.070312-.953126-.539063-.480468-1.078125-.960937-1.609375-1.453124-.371094-.347657-.738281-.703126-1.101563-1.054688-.5-.476562-1-.957031-1.492187-1.445312-.371094-.375-.738281-.753907-1.105469-1.132813-.472656-.484375-.941406-.96875-1.398438-1.460937-.371093-.394532-.730468-.792969-1.09375-1.191407-.445312-.492187-.890624-.988281-1.324218-1.488281-.359375-.410156-.714844-.824219-1.066406-1.242188-.421876-.503906-.84375-1.011718-1.261719-1.523437-.34375-.425781-.6875-.855469-1.023438-1.285156-.410156-.519531-.808593-1.042969-1.207031-1.570313-.332031-.4375-.660156-.875-.980469-1.316406-.390625-.535156-.773437-1.074219-1.152343-1.613281-.3125-.449219-.628907-.894531-.933594-1.34375-.375-.554688-.742188-1.117188-1.105469-1.675781-.292969-.449219-.585937-.898438-.871094-1.355469-.367187-.578125-.71875-1.167969-1.070312-1.753907-.269531-.449218-.542969-.890624-.804688-1.34375-.359375-.617187-.703125-1.246093-1.046875-1.875-.238281-.429687-.480468-.855468-.714844-1.289062-.371093-.699219-.730468-1.410156-1.085937-2.121094-.1875-.367187-.378906-.730468-.5625-1.101562-.527344-1.085938-1.042969-2.183594-1.53125-3.285156-1.1875-2.65625-2.273437-5.4375-3.234375-8.265626-1.265625-3.730468-4.609375-6.371093-8.535156-6.738281-.3125-.027343-.625-.042969-.9375-.042969-.09375 0-.183594.015626-.273438.019532-.210937.003906-.421875.023437-.628906.039062-.25.023438-.5.054688-.746094.09375-.210937.035156-.417968.078125-.628906.128906-.238281.054688-.46875.121094-.703125.191407-.203125.066406-.40625.132812-.605469.207031-.226562.089844-.449218.191406-.667968.292969-.191407.089843-.382813.179687-.566407.28125-.21875.121093-.429687.257812-.640625.394531-.167968.113281-.339844.21875-.503906.339844-.214844.15625-.414062.335937-.613281.511718-.144531.125-.289063.242188-.425781.375-.214844.210938-.40625.441407-.601563.671876-.105469.121093-.21875.234374-.316406.363281-.269531.351562-.515625.722656-.742188 1.109375-.011719.023437-.027343.039062-.039062.058594-1.148438 2.035156-2.433594 4.03125-3.835938 5.960937-.46875.644531-.949219 1.277344-1.441406 1.90625-15.558594 19.824219-44.523437 32.035156-75.515625 31.804687-3.257812-.023437-6.558594-.15625-9.917969-.40625-1.253906-.09375-2.519531-.207031-3.789062-.332031-3.269531-.324219-6.597657-.75-10.003907-1.289062-.023437-.003907-.042968-.007813-.066406-.011719-7.078125-1.125-14.488281-2.730469-22.371094-4.832031-3.953124-1.054688-8.027343-2.238281-12.238281-3.546875h-.003906c-8.40625-2.617188-16.769531-5.566406-23.882813-8.164063 4.597657-5.863281 8.398438-13.210937 11.328126-21.921875zm-.417969 97.542969h-3.425781c-9.472657 0-17.179688-7.707031-17.179688-17.179687 0-9.472657 7.707031-17.175782 17.179688-17.175782h3.425781zm23.480469 36.5625c-2.316407-12.632813-3.476563-25.449219-3.476563-38.289063v-42.871093c.078125.023437.152344.039062.234375.0625.21875.058593.433594.113281.652344.171875 1.105468.289062 2.199218.574218 3.289062.84375.414063.105468.828125.207031 1.242188.308594.898437.21875 1.792968.4375 2.683594.644531.441406.105469.882812.207031 1.324218.308593.898438.207032 1.789063.40625 2.679688.597657.386718.085937.773437.171875 1.15625.253906 1.21875.257813 2.429687.507813 3.632812.742187.035156.007813.078125.015626.117188.023438 1.234375.242188 2.457031.46875 3.675781.683594.382813.070312.765625.132812 1.148437.199218.835938.144532 1.671876.28125 2.5.414063.441407.070313.878907.140625 1.316407.207031.789062.121094 1.574219.234375 2.355469.34375.425781.0625.847656.121094 1.269531.179688.875.117187 1.746093.222656 2.613281.328125.308594.035156.621094.078125.929688.113281 1.160156.132812 2.3125.253906 3.457031.363281.292969.027344.582031.050781.871093.074219.863282.078125 1.726563.152344 2.585938.21875.414062.03125.820312.058594 1.230469.085938.75.050781 1.496093.097656 2.242187.140624.417969.019532.835938.042969 1.253906.0625.777344.039063 1.550782.066407 2.320313.09375.363281.011719.722656.027344 1.085937.035157 1.121094.03125 2.238282.054687 3.355469.0625 35.222657.226562 67.34375-12.648438 87.375-34.714844.65625 1.253906 1.332031 2.492187 2.027344 3.71875.230469.402344.472656.796875.707031 1.199219.476563.816406.953125 1.636718 1.449219 2.441406.289063.476562.59375.941406.890625 1.410156.457031.722656.914062 1.445313 1.386719 2.160156.328125.492188.664062.976563.996093 1.464844.464844.675782.925782 1.351563 1.402344 2.019532.355469.496093.71875.984374 1.082032 1.476562.472656.648438.949218 1.289062 1.4375 1.925781.375.492188.761718.976563 1.144531 1.460938.492187.621093.984375 1.242187 1.488281 1.851562.394531.480469.796875.960938 1.199219 1.433594.511719.601563 1.023437 1.199219 1.546875 1.789063.414062.46875.828125.933593 1.25 1.398437.527344.585937 1.066406 1.164063 1.609375 1.734375.425781.453125.851562.902344 1.285156 1.347656.554687.570313 1.117187 1.132813 1.683594 1.691406.433593.429688.871093.863282 1.3125 1.285157.582031.558593 1.171875 1.105469 1.765625 1.652343.441406.410157.882812.820313 1.332031 1.222657.613281.550781 1.238281 1.085937 1.863281 1.625.441406.378906.878906.761719 1.328125 1.136719.664063.554687 1.339844 1.09375 2.015625 1.632812.421875.339844.839844.683594 1.265625 1.015625.761719.59375 1.539063 1.167969 2.316407 1.742187.355468.261719.699218.53125 1.054687.789063 1.140625.824219 2.292969 1.632813 3.464844 2.417969.019531.015625.046875.027344.070312.042968 1.097657.738282 2.207031 1.457032 3.328125 2.15625v34.511719c0 5.039063-.453125 10.0625-1.363281 15.019531l-2.113281 11.539063c-6.167969 33.679687-31.507813 61.167969-64.566406 70.027344-7.488282 2.019531-15.265626 3.042969-23.105469 3.042969-1.074219 0-2.148438-.019532-3.222657-.058594-2.578124-.09375-5.144531-.308594-7.699218-.621094-2.753906-.339844-5.488282-.789062-8.195313-1.382812-2.089843-.457032-4.160156-.988282-6.210937-1.59375-32.382813-9.597657-56.269532-36.195313-62.347656-69.414063zm54.835937 108.917969 17.894531 26.40625-15.96875 14.835937-19.589844-35.453125zm137.664063 56.261718v64.960938h-20.707032v-36.910156c0-5.523438-4.476562-10-10-10-5.523437 0-10 4.476562-10 10v36.910156h-128.246094v-36.910156c0-5.523438-4.476562-10-10-10-5.523437 0-10 4.476562-10 10v36.910156h-22.046874v-64.960938c0-21.949218 14.976562-40.378906 35.738281-45.1875l22.503906 40.726563c.539063.980469 1.152344 1.894531 1.835937 2.75 2.949219 3.691406 7.15625 6.164063 11.929688 6.933594.460938.074219.921875.125 1.382812.164062.128907.011719.261719.019531.390626.027344.363281.027344.722656.039063 1.082031.042969.078125 0 .15625.011718.234375.011718.03125 0 .054687-.003906.085937-.003906.515625-.003906 1.027344-.03125 1.539063-.074218.117187-.007813.238281-.019532.355468-.03125.511719-.054688 1.023438-.125 1.53125-.21875.0625-.011719.121094-.027344.183594-.039063.476563-.09375.949219-.207031 1.414063-.335937.089843-.027344.183593-.046876.273437-.074219.488282-.144531.972656-.3125 1.453125-.496094.101563-.039063.199219-.078125.300781-.117187.488282-.199219.96875-.410157 1.441407-.648438.027343-.011719.054687-.027344.082031-.042969.453125-.230469.898438-.488281 1.335938-.757812.082031-.050781.167968-.097657.25-.152344.4375-.28125.867187-.578125 1.285156-.894531.082031-.0625.164062-.128906.246094-.195313.429687-.335937.851562-.683593 1.253906-1.058593l16.808594-15.617188 16.816406 15.625c.40625.371094.824218.722656 1.253906 1.058594.082031.0625.167969.128906.25.195312.417969.3125.84375.609375 1.28125.890625.085938.054688.171875.105469.257812.15625.433594.265625.871094.515625 1.320313.746094.03125.019531.0625.039063.097656.054687.464844.234376.945313.441407 1.425781.636719.105469.042969.210938.085938.316407.125.476562.183594.953125.347657 1.441406.492188.09375.027343.191406.050781.289063.078125.460937.125.921874.238281 1.394531.332031.066406.011719.128906.03125.195312.042969.503907.09375 1.011719.160156 1.523438.214844.121093.011718.242187.023437.359375.035156.507812.042968 1.019531.066406 1.535156.070312.027344 0 .058594.003906.085938.003906.082031 0 .164062-.007812.246093-.011718.355469-.003906.707031-.015625 1.0625-.039063.132813-.011719.265625-.019531.402344-.03125.457031-.039062.914063-.089843 1.371094-.164062 5.871093-.941407 10.890625-4.464844 13.769531-9.671875l22.632812-40.949219c21.042969 4.476563 36.734376 23.3125 36.734376 45.398437zm0 0"/><path d="m121.746094 217.617188c5.015625 2.324218 10.957031.144531 13.28125-4.867188 2.320312-5.011719.140625-10.953125-4.871094-13.277344-22.890625-10.609375-42.484375 4.285156-43.308594 4.925782-4.359375 3.386718-5.152344 9.667968-1.761718 14.03125 1.96875 2.535156 4.921874 3.863281 7.902343 3.863281 2.144531 0 4.304688-.683594 6.128907-2.101563.105468-.082031 10.859374-8.03125 22.628906-2.574218zm0 0"/><path d="m182.117188 217.617188c-5.011719 2.324218-10.953126.144531-13.277344-4.867188-2.320313-5.011719-.140625-10.953125 4.871094-13.277344 22.890624-10.609375 42.484374 4.285156 43.308593 4.925782 4.359375 3.386718 5.152344 9.667968 1.761719 14.03125-1.96875 2.535156-4.921875 3.863281-7.902344 3.863281-2.144531 0-4.304687-.683594-6.128906-2.101563-.105469-.082031-10.859375-8.03125-22.632812-2.574218zm0 0"/><path d="m120.183594 242.710938c.460937-.460938.878906-.980469 1.242187-1.523438.359375-.539062.667969-1.128906.917969-1.726562.25-.601563.441406-1.230469.570312-1.871094.128907-.648438.199219-1.300782.199219-1.949219 0-.660156-.070312-1.3125-.199219-1.960937-.128906-.640626-.320312-1.269532-.570312-1.871094-.25-.597656-.558594-1.179688-.917969-1.71875-.363281-.550782-.78125-1.058594-1.242187-1.519532-.460938-.460937-.96875-.882812-1.519532-1.25-.539062-.359374-1.121093-.671874-1.730468-.921874-.597656-.25-1.230469-.4375-1.871094-.570313-1.289062-.257813-2.617188-.257813-3.910156 0-.628906.132813-1.257813.320313-1.867188.570313-.601562.25-1.179687.5625-1.722656.921874-.546875.367188-1.058594.789063-1.519531 1.25-.457031.460938-.878907.96875-1.25 1.519532-.359375.539062-.660157 1.121094-.910157 1.71875-.25.601562-.449218 1.230468-.570312 1.871094-.128906.648437-.199219 1.300781-.199219 1.960937 0 .648437.070313 1.300781.199219 1.949219.121094.640625.320312 1.269531.570312 1.871094.25.597656.550782 1.1875.910157 1.726562.371093.542969.792969 1.0625 1.25 1.523438.460937.460937.972656.878906 1.519531 1.238281.542969.359375 1.121094.671875 1.730469.921875.601562.25 1.230469.4375 1.871093.566406.640626.132812 1.300782.191406 1.949219.191406.652344 0 1.3125-.0625 1.949219-.191406.640625-.128906 1.273438-.316406 1.871094-.566406.609375-.25 1.191406-.5625 1.730468-.921875.550782-.359375 1.058594-.777344 1.519532-1.238281zm0 0"/><path d="m199.632812 231.808594c-.25-.597656-.558593-1.179688-.917968-1.71875-.359375-.550782-.78125-1.058594-1.242188-1.519532-.457031-.460937-.980468-.882812-1.519531-1.25-.550781-.359374-1.128906-.671874-1.730469-.921874-.597656-.25-1.230468-.4375-1.867187-.570313-1.292969-.257813-2.621094-.257813-3.910157 0-.640624.132813-1.269531.320313-1.871093.570313-.601563.25-1.179688.5625-1.730469.921874-.539062.367188-1.050781.789063-1.519531 1.25-.460938.460938-.871094.96875-1.238281 1.519532-.363282.539062-.671876 1.121094-.921876 1.71875-.25.601562-.441406 1.230468-.570312 1.871094-.128906.648437-.191406 1.300781-.191406 1.960937 0 .648437.0625 1.300781.191406 1.949219.128906.640625.320312 1.269531.570312 1.871094.25.597656.558594 1.1875.921876 1.726562.367187.542969.777343 1.0625 1.238281 1.523438.46875.460937.980469.878906 1.519531 1.238281.550781.359375 1.128906.671875 1.730469.921875.601562.25 1.230469.4375 1.871093.566406.648438.132812 1.296876.191406 1.957032.191406.652344 0 1.300781-.0625 1.953125-.191406.636719-.128906 1.269531-.316406 1.867187-.566406.601563-.25 1.179688-.5625 1.730469-.921875.539063-.359375 1.050781-.777344 1.519531-1.238281.460938-.460938.871094-.980469 1.242188-1.523438.359375-.539062.667968-1.128906.917968-1.726562.25-.601563.441407-1.230469.570313-1.871094.132813-.648438.191406-1.300782.191406-1.949219 0-.660156-.058593-1.3125-.191406-1.960937-.128906-.640626-.320313-1.269532-.570313-1.871094zm0 0"/><path d="m180.089844 308.535156c4.875-2.597656 6.714844-8.65625 4.113281-13.527344-2.597656-4.871093-8.65625-6.714843-13.527344-4.113281-11.847656 6.320313-25.992187 6.320313-37.839843 0-4.871094-2.605469-10.929688-.757812-13.527344 4.113281-2.601563 4.871094-.757813 10.929688 4.113281 13.527344 8.871094 4.734375 18.601563 7.105469 28.335937 7.105469 9.730469 0 19.460938-2.371094 28.332032-7.105469zm0 0"/><path d="m193.535156 446.617188h-32.394531c-5.523437 0-10 4.480468-10 10 0 5.523437 4.476563 10 10 10h32.394531c5.523438 0 10-4.476563 10-10 0-5.519532-4.476562-10-10-10zm0 0"/><path d="m49.566406 70.695312c5.523438 0 10-4.476562 10-10 0-7.171874 5.832032-13.003906 13.003906-13.003906 5.523438 0 10-4.480468 10-10 0-5.523437-4.476562-10-10-10-18.199218 0-33.003906 14.804688-33.003906 33.003906 0 5.523438 4.476563 10 10 10zm0 0"/><path d="m157.335938 101.488281c.25.609375.558593 1.191407.917968 1.730469.359375.550781.78125 1.0625 1.238282 1.519531 1.863281 1.859375 4.441406 2.933594 7.070312 2.933594.652344 0 1.3125-.070313 1.960938-.203125.628906-.128906 1.261718-.320312 1.871093-.570312.597657-.25 1.179688-.558594 1.71875-.917969.550781-.359375 1.0625-.78125 1.519531-1.238281.460938-.460938.882813-.972657 1.25-1.523438.359376-.539062.671876-1.117188.921876-1.726562.25-.601563.4375-1.230469.570312-1.871094.128906-.640625.1875-1.300782.1875-1.949219 0-.652344-.058594-1.3125-.1875-1.960937-.132812-.640626-.320312-1.261719-.570312-1.871094-.25-.597656-.5625-1.179688-.921876-1.71875-.367187-.550782-.789062-1.0625-1.25-1.519532-.457031-.460937-.96875-.882812-1.519531-1.25-.539062-.359374-1.121093-.671874-1.71875-.921874-.609375-.25-1.242187-.4375-1.871093-.570313-1.289063-.257813-2.621094-.257813-3.910157 0-.640625.132813-1.269531.320313-1.871093.570313-.609376.25-1.1875.5625-1.726563.921874-.550781.367188-1.0625.789063-1.523437 1.25-.457032.457032-.878907.96875-1.238282 1.519532-.359375.539062-.667968 1.121094-.917968 1.71875-.25.609375-.441407 1.230468-.570313 1.871094-.132813.648437-.203125 1.308593-.203125 1.960937 0 .648437.070312 1.308594.203125 1.949219.128906.640625.320313 1.269531.570313 1.867187zm0 0"/></svg>