<svg viewBox="0 -39 512.00002 512" xmlns="http://www.w3.org/2000/svg"><path d="m420.757812 120.785156h-17.851562v-.863281c0-1.035156.65625-2.1875 1.949219-3.421875 1.417969-1.355469 3.164062-2.730469 5.1875-4.089844 2.078125-1.390625 4.195312-2.929687 6.296875-4.570312 2.15625-1.683594 4.003906-3.765625 5.492187-6.179688 1.515625-2.464844 2.285157-5.140625 2.285157-7.957031 0-4.238281-1.589844-7.691406-4.71875-10.257813-3.089844-2.527343-6.792969-3.808593-11.003907-3.808593-4 0-7.523437 1.199219-10.46875 3.5625-3 2.40625-4.519531 5.589843-4.519531 9.457031 0 4.480469 2.515625 5.417969 4.621094 5.417969 1.53125 0 2.785156-.390625 3.726562-1.164063.988282-.8125 1.488282-1.777344 1.488282-2.878906 0-1.808594.46875-3.109375 1.429687-3.976562.984375-.886719 2.222656-1.316407 3.789063-1.316407 1.84375 0 3.183593.507813 4.09375 1.558594.9375 1.078125 1.394531 2.28125 1.394531 3.675781 0 1.558594-.6875 3.160156-2.039063 4.761719-1.429687 1.691406-3.191406 3.328125-5.230468 4.851563l-6.433594 4.664062c-1.960938 1.601562-3.648438 3.410156-5.023438 5.378906-1.425781 2.042969-2.148437 4.148438-2.148437 6.261719v6.5c0 .707031.273437 1.726563 1.582031 2.574219.949219.613281 1.921875.925781 2.894531.925781h23.269531c.953126 0 1.789063-.5 2.480469-1.488281.632813-.902344.953125-1.957032.953125-3.128906 0-1.1875-.332031-2.226563-.992187-3.089844-.703125-.929688-1.546875-1.398438-2.503907-1.398438zm0 0"/><path d="m454.445312 109.714844h-2.382812v-6.589844c0-1.195312-.570312-2.15625-1.640625-2.78125-.957031-.554688-2.117187-.832031-3.445313-.832031-1.328124 0-2.488281.277343-3.445312.832031-1.070312.625-1.640625 1.585938-1.640625 2.78125v6.589844h-5.839844l12.265625-24.527344c.277344-.554688.410156-1.035156.410156-1.46875 0-1.199219-.621093-2.207031-1.84375-2.996094-1.121093-.722656-2.210937-1.085937-3.242187-1.085937-2.011719 0-3.515625.925781-4.332031 2.65625l-15.800782 30.804687c-.367187.683594-.558593 1.382813-.558593 2.078125 0 1.09375.363281 1.984375 1.070312 2.652344.695313.65625 1.578125.988281 2.617188.988281h15.253906v7.464844c0 .800781.289063 1.925781 1.671875 2.738281.976562.574219 2.128906.867188 3.414062.867188 1.335938 0 2.496094-.292969 3.457032-.871094 1.066406-.648437 1.628906-1.589844 1.628906-2.734375v-7.464844h2.382812c.964844 0 1.808594-.496094 2.511719-1.476562.644531-.898438.972657-1.925782.972657-3.042969 0-1.1875-.285157-2.234375-.851563-3.109375-.628906-.964844-1.535156-1.472656-2.632813-1.472656zm0 0"/><path d="m476.742188 109.96875c-1.664063-1.941406-3.65625-2.925781-5.914063-2.925781-1.476563 0-2.78125.371093-3.882813 1.113281-.347656.234375-.667968.488281-.960937.761719v-11.335938c0-.558593-.210937-1.351562-1.214844-1.933593-.675781-.390626-1.492187-.589844-2.417969-.589844-.996093 0-1.824218.203125-2.460937.601562-.933594.585938-1.128906 1.367188-1.128906 1.921875v29.738281c0 .507813.199219 1.246094 1.152343 1.886719.671876.453125 1.492188.683594 2.4375.683594.917969 0 1.734376-.238281 2.433594-.703125.796875-.527344 1.199219-1.152344 1.199219-1.863281v-10.488281c0-.984376.285156-1.753907.875-2.351563.582031-.59375 1.242187-.882813 2.015625-.882813.824219 0 1.53125.328126 2.160156 1 .640625.6875.953125 1.417969.953125 2.234376v10.488281c0 .582031.214844 1.398437 1.246094 1.980469.6875.386718 1.476563.582031 2.34375.582031.898437 0 1.703125-.195313 2.386719-.582031 1.03125-.582032 1.25-1.402344 1.25-1.984376v-10.519531c-.003906-2.625-.832032-4.925781-2.472656-6.832031zm0 0"/><path d="m23.015625 232.527344c-5.480469.664062-9.386719 5.652344-8.71875 11.132812.714844 5.875 1.679687 11.789063 2.875 17.582032.972656 4.730468 5.136719 7.984374 9.78125 7.984374.667969 0 1.347656-.066406 2.03125-.207031 5.40625-1.113281 8.890625-6.402343 7.777344-11.8125-1.085938-5.257812-1.960938-10.628906-2.609375-15.960937-.667969-5.480469-5.652344-9.378906-11.136719-8.71875zm0 0"/><path d="m131.5625 44.78125c1.605469 0 3.230469-.386719 4.742188-1.203125 9.882812-5.339844 20.285156-9.851563 30.914062-13.414063 5.238281-1.753906 8.0625-7.417968 6.308594-12.65625-1.753906-5.238281-7.421875-8.058593-12.660156-6.308593-11.714844 3.925781-23.175782 8.898437-34.066407 14.78125-4.859375 2.625-6.671875 8.695312-4.042969 13.550781 1.804688 3.351562 5.246094 5.25 8.804688 5.25zm0 0"/><path d="m267.210938 23.527344c11.03125 2.109375 21.949218 5.195312 32.445312 9.167968 1.167969.441407 2.363281.648438 3.539062.648438 4.039063 0 7.839844-2.460938 9.355469-6.460938 1.953125-5.167968-.648437-10.9375-5.816406-12.894531-11.570313-4.378906-23.601563-7.777343-35.761719-10.105469-5.421875-1.042968-10.664062 2.515626-11.699218 7.941407-1.042969 5.421875 2.515624 10.664062 7.9375 11.703125zm0 0"/><path d="m34.507812 147.355469c1.25.515625 2.539063.761719 3.8125.761719 3.925782 0 7.652344-2.332032 9.246094-6.183594 4.285156-10.367188 9.503906-20.441406 15.511719-29.949219 2.949219-4.667969 1.558594-10.84375-3.113281-13.792969-4.667969-2.949218-10.84375-1.558594-13.792969 3.109375-6.621094 10.472657-12.367187 21.570313-17.085937 32.992188-2.113282 5.105469.316406 10.953125 5.421874 13.0625zm0 0"/><path d="m69.34375 85.835938c1.914062 1.726562 4.308594 2.574218 6.699219 2.574218 2.730469 0 5.449219-1.109375 7.425781-3.300781 7.527344-8.339844 15.820312-16.085937 24.648438-23.027344 4.339843-3.414062 5.09375-9.699219 1.679687-14.042969-3.414063-4.339843-9.699219-5.09375-14.042969-1.679687-9.714844 7.640625-18.847656 16.167969-27.132812 25.351563-3.699219 4.101562-3.378906 10.421874.722656 14.125zm0 0"/><path d="m22.460938 217.015625c.164062.007813.328124.011719.492187.011719 5.300781 0 9.722656-4.164063 9.980469-9.519532.542968-11.25 2.050781-22.492187 4.488281-33.417968 1.199219-5.390625-2.195313-10.734375-7.585937-11.9375-5.394532-1.199219-10.734376 2.195312-11.9375 7.585937-2.679688 12.035157-4.34375 24.417969-4.945313 36.804688-.265625 5.519531 3.992187 10.203125 9.507813 10.472656zm0 0"/><path d="m198.46875 22.367188c.5 0 1.007812-.039063 1.515625-.113282 9.820313-1.496094 19.875-2.253906 29.886719-2.253906h.019531c1.257813 0 2.515625.011719 3.765625.035156 5.476562.109375 10.082031-4.289062 10.1875-9.8125.101562-5.519531-4.292969-10.082031-9.816406-10.1835935-1.375-.0234375-2.753906-.0390625-4.136719-.0390625-.003906 0-.011719 0-.019531 0-11.011719 0-22.078125.835938-32.890625 2.476562-5.460938.832032-9.214844 5.929688-8.382813 11.390626.75 4.953124 5.011719 8.5 9.871094 8.5zm0 0"/><path d="m330.144531 47.351562c4.621094 2.730469 9.1875 5.691407 13.574219 8.800782 1.753906 1.242187 3.773438 1.839844 5.769531 1.839844 3.132813 0 6.222657-1.472657 8.171875-4.222657 3.191406-4.507812 2.125-10.75-2.382812-13.941406-4.832032-3.421875-9.859375-6.683594-14.949219-9.691406-4.75-2.8125-10.882813-1.238281-13.699219 3.515625-2.8125 4.753906-1.238281 10.886718 3.515625 13.699218zm0 0"/><path d="m426.152344 284.523438c-5.132813-2.046876-10.949219.457031-12.992188 5.589843-3.898437 9.792969-8.636718 19.355469-14.074218 28.417969-2.84375 4.734375-1.308594 10.878906 3.425781 13.722656 1.613281.964844 3.386719 1.425782 5.136719 1.425782 3.398437 0 6.710937-1.730469 8.585937-4.855469 5.992187-9.984375 11.210937-20.519531 15.507813-31.3125 2.042968-5.128907-.457032-10.945313-5.589844-12.988281zm0 0"/><path d="m437.3125 218.953125c-5.515625-.308594-10.234375 3.914063-10.542969 9.429687-.589843 10.566407-2.039062 21.136719-4.300781 31.414063-1.1875 5.394531 2.222656 10.730469 7.617188 11.917969.722656.15625 1.445312.234375 2.160156.234375 4.589844 0 8.726562-3.183594 9.757812-7.855469 2.492188-11.320312 4.085938-22.960938 4.734375-34.597656.308594-5.511719-3.914062-10.230469-9.425781-10.542969zm0 0"/><path d="m332.660156 385.519531c-9.007812 5.511719-18.523437 10.328125-28.273437 14.308594-5.113281 2.089844-7.566407 7.925781-5.480469 13.039063 1.582031 3.875 5.320312 6.222656 9.261719 6.222656 1.257812 0 2.539062-.238282 3.777343-.742188 10.746094-4.390625 21.230469-9.695312 31.152344-15.765625 4.710938-2.882812 6.195313-9.039062 3.3125-13.75-2.882812-4.710937-9.039062-6.191406-13.75-3.3125zm0 0"/><path d="m274.167969 409.394531c-10.261719 2.355469-20.816407 3.890625-31.375 4.574219-5.511719.355469-9.691407 5.109375-9.332031 10.625.339843 5.289062 4.738281 9.351562 9.96875 9.351562.214843 0 .433593-.003906.652343-.019531 11.625-.75 23.253907-2.445312 34.554688-5.039062 5.382812-1.234375 8.746093-6.597657 7.511719-11.980469-1.230469-5.382812-6.597657-8.742188-11.980469-7.511719zm0 0"/><path d="m394.722656 343.140625c-4.21875-3.566406-10.53125-3.03125-14.09375 1.1875-6.8125 8.066406-14.328125 15.644531-22.335937 22.523437-4.1875 3.597657-4.667969 9.910157-1.070313 14.101563 1.976563 2.304687 4.777344 3.484375 7.589844 3.484375 2.308594 0 4.625-.792969 6.511719-2.414062 8.816406-7.570313 17.089843-15.910157 24.585937-24.792969 3.5625-4.21875 3.03125-10.527344-1.1875-14.089844zm0 0"/><path d="m211.058594 413.496094c-10.53125-.996094-21.039063-2.855469-31.230469-5.519532-5.339844-1.40625-10.804687 1.796876-12.203125 7.140626s1.796875 10.808593 7.140625 12.207031c11.230469 2.9375 22.804687 4.984375 34.40625 6.082031.320313.03125.640625.046875.957031.046875 5.097656 0 9.453125-3.882813 9.941406-9.058594.519532-5.5-3.515624-10.378906-9.011718-10.898437zm0 0"/><path d="m149.8125 397.449219c-4.90625-2.183594-9.78125-4.597657-14.492188-7.179688-4.84375-2.652343-10.921874-.875-13.574218 3.96875s-.875 10.921875 3.96875 13.574219c5.191406 2.84375 10.5625 5.503906 15.96875 7.910156 1.320312.585938 2.699218.863282 4.058594.863282 3.828124 0 7.484374-2.210938 9.140624-5.9375 2.246094-5.042969-.023437-10.957032-5.070312-13.199219zm0 0"/><path d="m434.964844 28.667969c-42.480469 0-77.035156 34.558593-77.035156 77.035156 0 38.730469 28.734374 70.863281 66 76.234375.878906 4.855469 1.585937 9.792969 2.09375 14.707031.53125 5.144531 4.875 8.972657 9.9375 8.972657.34375 0 .6875-.019532 1.039062-.054688 5.492188-.566406 9.488281-5.480469 8.917969-10.976562-.429688-4.144532-.988281-8.304688-1.65625-12.429688 38.105469-4.605469 67.738281-37.125 67.738281-76.453125 0-42.476563-34.558594-77.035156-77.035156-77.035156zm0 134.070312c-31.449219 0-57.035156-25.585937-57.035156-57.035156s25.585937-57.035156 57.035156-57.035156c31.449218 0 57.035156 25.585937 57.035156 57.035156s-25.585938 57.035156-57.035156 57.035156zm0 0"/><path d="m301.90625 328.195312c.433594-3.832031.550781-7.5625.664062-11.167968.167969-5.183594.324219-10.082032 1.390626-14.464844.808593-3.308594 1.496093-6.351562 2.160156-9.292969 3.628906-16.070312 5.628906-24.921875 17.761718-35.652343 26.417969-23.367188 39.375-58.84375 34.648438-94.890626-2.425781-18.523437-10.4375-35.582031-22.554688-48.03125-13.515624-13.886718-30.941406-20.519531-49.078124-18.6875-8.023438.8125-19.0625 3.214844-29.738282 5.535157-2.160156.472656-4.316406.941406-6.449218 1.398437-13.714844 2.9375-27.617188 2.9375-41.332032 0-2.132812-.457031-4.289062-.929687-6.449218-1.398437-10.675782-2.320313-21.714844-4.726563-29.738282-5.535157-18.136718-1.835937-35.5625 4.804688-49.078125 18.6875-12.117187 12.449219-20.128906 29.507813-22.554687 48.03125-5.167969 39.433594 5.53125 73.132813 30.128906 94.890626 14.589844 12.902343 19.085938 22.992187 24.441406 44.945312 1.066406 4.382812 1.222656 9.28125 1.386719 14.464844.117187 3.605468.234375 7.335937.664063 11.167968.292968 2.609376.757812 5.160157 1.375 7.585938 3.625 14.171875 16.488281 24.066406 31.285156 24.066406 13.53125 0 24.78125-10.578125 25.609375-24.085937l2.390625-38.894531c.363281-5.90625 5.285156-10.535157 11.203125-10.535157s10.839843 4.628907 11.203125 10.535157l2.390625 38.894531c.832031 13.507812 12.082031 24.085937 25.609375 24.085937 14.796875 0 27.664062-9.894531 31.285156-24.0625.621094-2.421875 1.082031-4.976562 1.375-7.589844zm-15.296875-39.328124c-.644531 2.855468-1.3125 5.8125-2.078125 8.957031-1.5625 6.402343-1.757812 12.585937-1.949219 18.566406-.105469 3.363281-.207031 6.535156-.550781 9.574219-.1875 1.695312-.484375 3.332031-.875 4.863281-1.359375 5.3125-6.253906 9.019531-11.90625 9.019531-2.984375 0-5.464844-2.332031-5.648438-5.3125l-2.390624-38.894531c-1.011719-16.4375-14.699219-29.308594-31.164063-29.308594-16.46875 0-30.15625 12.871094-31.167969 29.308594l-2.390625 38.894531c-.183593 2.980469-2.664062 5.3125-5.648437 5.3125-5.652344 0-10.546875-3.707031-11.90625-9.019531-.390625-1.53125-.6875-3.171875-.875-4.863281-.34375-3.039063-.445313-6.210938-.550782-9.574219-.191406-5.980469-.386718-12.164063-1.949218-18.566406-5.921875-24.28125-12.011719-38.730469-30.617188-55.1875-26.261718-23.230469-26.03125-58.410157-23.550781-77.3125 3.460937-26.417969 23.03125-52.117188 49.789063-49.421875 6.894531.699218 17.367187 2.980468 27.496093 5.183594 1.335938.289062 2.65625.574218 3.984375.863281 7.304688 6.0625 31.753906 24.03125 65.925782 24.878906.085937.003906.167968.003906.253906.003906 5.40625 0 9.855468-4.316406 9.988281-9.753906.140625-5.519531-4.226563-10.105469-9.746094-10.242187-7.414062-.183594-14.292969-1.402344-20.507812-3.160157 2.109375-.335937 4.21875-.730469 6.324219-1.179687 2.152343-.460938 4.332031-.9375 6.515624-1.410156 10.128907-2.203126 20.601563-4.484376 27.496094-5.183594 26.742188-2.699219 46.328125 23.003906 49.792969 49.421875 3.859375 29.449219-6.636719 58.351562-28.070313 77.3125-16.972656 15.007812-20.082031 28.785156-24.023437 46.230469zm0 0"/><path d="m175.335938 195.4375c-10.082032-14.917969-.910157-33.914062-.695313-34.355469 2.492187-4.90625.546875-10.90625-4.355469-13.421875-4.917968-2.519531-10.941406-.574218-13.460937 4.339844-.613281 1.199219-14.894531 29.722656 1.941406 54.636719 1.933594 2.855469 5.085937 4.398437 8.292969 4.398437 1.925781 0 3.875-.554687 5.589844-1.714844 4.578124-3.089843 5.78125-9.308593 2.6875-13.882812zm0 0"/><path d="m194.640625 223.921875c-.25-.609375-.5625-1.191406-.921875-1.730469-.359375-.550781-.777344-1.058594-1.238281-1.519531-.460938-.460937-.96875-.882813-1.519531-1.25-.539063-.351563-1.121094-.660156-1.730469-.910156-.601563-.25-1.230469-.449219-1.871094-.570313-1.289063-.257812-2.621094-.257812-3.910156 0-.628907.121094-1.257813.320313-1.871094.570313-.597656.25-1.179687.558593-1.71875.910156-.550781.367187-1.058594.789063-1.53125 1.25-.457031.460937-.867187.96875-1.238281 1.519531-.359375.539063-.667969 1.121094-.917969 1.730469-.25.601563-.441406 1.230469-.570313 1.867187-.132812.644532-.191406 1.300782-.191406 1.953126 0 .648437.058594 1.308593.191406 1.949218.128907.640625.320313 1.269532.570313 1.871094.25.609375.558594 1.1875.917969 1.726562.371094.550782.789062 1.0625 1.25 1.523438.460937.457031.96875.878906 1.519531 1.238281.539063.359375 1.121094.671875 1.71875.921875.613281.25 1.242187.449219 1.871094.566406.652343.132813 1.3125.199219 1.960937.199219.648438 0 1.308594-.066406 1.949219-.199219.640625-.117187 1.269531-.316406 1.871094-.566406.609375-.25 1.191406-.5625 1.730469-.921875.550781-.359375 1.058593-.78125 1.519531-1.238281.460937-.460938.878906-.972656 1.238281-1.523438.359375-.539062.671875-1.117187.921875-1.726562.25-.601562.4375-1.230469.570313-1.871094.128906-.640625.199218-1.300781.199218-1.949218 0-.652344-.070312-1.3125-.199218-1.953126-.132813-.636718-.320313-1.265624-.570313-1.867187zm0 0"/><path d="m126.1875 305.484375c-.019531-5.007813-2.203125-9.757813-6-13.03125-3.800781-3.277344-8.824219-4.742187-13.796875-4.023437l-5.625.8125c-7.617187 1.109374-15.40625-.824219-21.933594-5.4375l-8.0625-5.699219c-4.589843-3.242188-10.761719-3.242188-15.351562 0l-8.0625 5.699219c-6.527344 4.613281-14.3125 6.550781-21.929688 5.4375-.007812 0-.011719 0-.015625 0l-5.613281-.8125c-4.96875-.71875-9.996094.746093-13.800781 4.023437-3.792969 3.273437-5.9765628 8.023437-5.996094 13.03125-.0820312 24.914063 4.78125 85.074219 51.617188 105.5625 3.644531 1.59375 7.5625 2.390625 11.476562 2.390625s7.828125-.796875 11.476562-2.390625c46.832032-20.488281 51.699219-80.648437 51.617188-105.5625zm-59.632812 87.238281c-2.199219.960938-4.722657.960938-6.921876 0-33.808593-14.789062-39.132812-60.230468-39.59375-83.054687l64.011719 70.417969c-4.761719 5.203124-10.515625 9.582031-17.496093 12.636718zm28.8125-29.917968-50.570313-55.636719c4.957031-1.582031 9.710937-3.929688 14.101563-7.03125l4.195312-2.964844 4.195312 2.964844c10.730469 7.585937 23.636719 10.742187 36.347657 8.898437l2.53125-.367187c-.195313 13.410156-2.054688 35.394531-10.800781 54.136719zm0 0"/></svg>