<svg viewBox="-97 1 511 511.99827" xmlns="http://www.w3.org/2000/svg"><path d="m206.742188 441.039062h-36.378907c-5.519531 0-9.996093 4.476563-9.996093 9.996094 0 5.523438 4.476562 10 9.996093 10h36.378907c5.523437 0 10-4.476562 10-10 0-5.519531-4.476563-9.996094-10-9.996094zm0 0"/><path d="m227.917969 310.539062c19.949219-15.207031 34.007812-36.027343 40.652343-60.210937 3.121094-11.335937 5.46875-22.925781 7.035157-34.558594h2.792969c21.644531 0 39.253906-17.609375 39.253906-39.253906 0-10.46875-4.082032-20.324219-11.496094-27.753906-7.40625-7.410157-17.265625-11.488281-27.757812-11.488281h-.449219v-76.839844c0-.015625-.003907-.03125-.003907-.042969 0-.03125 0-.058594 0-.089844-.054687-21.664062-13.949218-40.609375-34.601562-47.160156-55.054688-17.5-113.246094-17.519531-168.304688-.066406-.074218.019531-.148437.042969-.21875.066406-20.707031 6.578125-34.617187 25.585937-34.617187 47.300781v76.832032h-.449219c-21.644531 0-39.253906 17.605468-39.253906 39.242187 0 10.472656 4.078125 20.328125 11.488281 27.75 7.40625 7.417969 17.265625 11.503906 27.765625 11.503906h2.777344c.007812.058594.015625.113281.023438.171875 1.558593 11.535156 3.925781 23.105469 7.027343 34.386719 9.636719 35.042969 35.019531 62.921875 68.609375 75.835937v7.6875l-33.949218 11.128907c-.234376.027343-.46875.050781-.703126.082031v-3.082031c0-5.523438-4.476562-10-9.996093-10-5.523438 0-10 4.476562-10 10v8.535156c-9.375 4.0625-17.878907 10.078125-24.929688 17.773437-12.414062 13.550782-19.25 31.136719-19.25 49.523438v84.1875c0 5.519531 4.480469 10 10 10h259.425781c5.519532 0 10-4.480469 10-10v-84.1875c0-37.847656-29.207031-69.648438-66.734374-73.023438l-33.355469-10.9375v-7.234374c10.457031-3.890626 20.265625-9.261719 29.21875-16.078126zm-35.617188 92.007813c-.035156.066406-.078125.144531-.246093.171875-.160157.023438-.230469-.035156-.285157-.089844l-19.546875-18.160156 21.21875-31.292969 22.128906 7.253907zm-67.707031 0-23.28125-42.117187 22.140625-7.257813 21.214844 31.296875-19.558594 18.167969c-.054687.050781-.109375.105469-.273437.082031-.164063-.027344-.207032-.105469-.242188-.171875zm-53.484375 11.019531c.777344.195313 1.589844.3125 2.433594.3125.839843 0 1.652343-.117187 2.433593-.3125 5.621094 1.132813 9.867188 6.109375 9.867188 12.058594 0 6.78125-5.519531 12.300781-12.300781 12.300781-6.785157 0-12.304688-5.519531-12.304688-12.300781 0-5.949219 4.246094-10.925781 9.871094-12.058594zm107.59375-81.492187v7.199219l-20.257813 29.878906-20.257812-29.878906v-7.429688c.347656.066406.699219.109375 1.046875.171875 1.140625.203125 2.285156.394531 3.4375.5625.523437.074219 1.046875.140625 1.574219.210937 1.082031.140626 2.167968.269532 3.257812.382813.507813.050781 1.015625.097656 1.523438.140625 1.152344.105469 2.3125.1875 3.46875.253906.433594.023438.867187.054688 1.300781.074219 1.351563.0625 2.710937.097656 4.066406.113281.238281 0 .476563.011719.710938.011719.167969 0 .332031.007813.5.007813 1.484375 0 2.960937-.03125 4.4375-.089844.03125 0 .0625-.003906.089843-.003906 1.53125-.0625 3.054688-.160157 4.578126-.28125.421874-.03125.84375-.074219 1.265624-.113282 1.140626-.105468 2.273438-.222656 3.40625-.359375.515626-.066406 1.027344-.128906 1.542969-.199219 1.089844-.144531 2.179688-.3125 3.269531-.496093.34375-.054688.695313-.097657 1.039063-.15625zm-118.136719-138.050781c-.234375-4.367188-.367187-8.746094-.367187-13.105469v-48.113281l6.417969-.894532v60.652344c0 1.769531-1.4375 3.210938-3.207032 3.210938-1.242187 0-2.308594-.714844-2.84375-1.75zm190.964844-62.117188 6.421875.898438v48.113281c0 4.359375-.132813 8.742187-.367187 13.105469-.535157 1.035156-1.601563 1.75-2.84375 1.75-1.769532 0-3.210938-1.4375-3.210938-3.210938zm26.867188 25.363281c5.152343 0 9.988281 2 13.613281 5.625 3.636719 3.648438 5.644531 8.484375 5.644531 13.621094 0 10.621094-8.636719 19.257813-19.257812 19.257813h-.675782c.144532-1.050782.226563-2.121094.226563-3.210938v-35.292969zm-197.628907-125.039062c.070313-.019531.136719-.039063.203125-.058594 51.132813-16.234375 105.183594-16.222656 156.320313.027344 6.636719 2.105469 12.085937 6.367187 15.726562 11.855469-21.316406-5.921876-43.285156-6.410157-44.492187-6.433594-.0625 0-.125 0-.1875 0-5.4375 0-9.894532 4.355468-9.992188 9.816406-.101562 5.519531 4.292969 10.078125 9.816406 10.179688.3125.003906 29.191407.636718 49.789063 9.171874v45.820313l-22.375-3.125c-24.996094-3.496094-50.160156-5.257813-75.316406-5.3125-.382813 0-.765625-.007813-1.148438-.007813-.011719 0-.023437 0-.035156 0-3.046875 0-6.09375.027344-9.136719.078126-.136718 0-.269531 0-.402344.003906-3.105468.050781-6.214843.132812-9.316406.238281-.085937.003906-.171875.007813-.257812.007813-6.320313.21875-12.632813.550781-18.945313.984374-.0625.003907-.125.007813-.1875.011719-3.027343.210938-6.050781.449219-9.074219.710938-.160156.011719-.320312.023437-.480468.035156-2.949219.257813-5.898438.542969-8.847656.847656-.230469.023438-.460938.042969-.691407.066407-1.53125.160156-3.058593.347656-4.589843.519531-4.824219.542969-9.640626 1.132812-14.453126 1.804687l-7.433593 1.039063c-.007813 0-.019531 0-.027344 0l-15.035156 2.101562v-11.898437c9.921875-2.203125 27.945312-5.679688 42.867187-5.679688 5.523438 0 10-4.480468 10-10 0-5.523437-4.476562-10-10-10-14.832031 0-31.671875 2.882813-42.867187 5.214844v-19.804688c0-12.929687 8.265625-24.253906 20.570312-28.214843zm-54.628906 157.910156c-3.636719-3.648437-5.644531-8.484375-5.644531-13.625 0-10.613281 8.636718-19.246094 19.257812-19.246094h.449219v35.296875c0 1.085938.082031 2.160156.226563 3.207032h-.675782c-5.152344 0-9.984375-2-13.613281-5.632813zm42.71875 54.886719c-2.640625-9.617188-4.695313-19.460938-6.132813-29.273438.230469.007813.453126.015625.683594.015625 12.796875 0 23.207032-10.410156 23.207032-23.207031v-63.4375c24.050781-3.304688 48.269531-4.96875 72.5-4.964844 24.1875 0 48.382812 1.660156 72.417968 4.960938v63.441406c0 12.796875 10.410156 23.207031 23.207032 23.207031.230468 0 .453124-.007812.679687-.015625-1.4375 9.851563-3.484375 19.660156-6.128906 29.273438-5.480469 19.925781-17.0625 37.082031-33.488281 49.605468-9.035157 6.878907-19.117188 12.007813-29.964844 15.242188-8.664063 2.589844-17.667969 3.902344-26.761719 3.902344-1.1875 0-2.371094-.019532-3.554687-.066406-2.367188-.089844-4.722657-.269532-7.070313-.535157-5.859375-.667969-11.640625-1.886719-17.273437-3.652343-.003907 0-.007813 0-.011719-.003907-30.53125-9.535156-53.820313-33.644531-62.308594-64.492187zm209.929687 172.785156v74.191406h-25.722656v-15.242187c0-5.519531-4.476562-10-9.996094-10-5.523437 0-10 4.480469-10 10v15.242187h-146.488281v-15.242187c0-5.519531-4.476562-10-10-10-5.523437 0-10 4.480469-10 10v15.242187h-27.222656v-74.191406c0-18.734375 9.507813-35.230469 24.183594-44.75v21.855469c-12.933594 4.21875-22.304688 16.386719-22.304688 30.707031 0 17.808594 14.492188 32.296875 32.300781 32.296875 17.808594 0 32.300782-14.488281 32.300782-32.296875 0-14.320312-9.371094-26.488281-22.300782-30.707031v-25.296875l23.550782 42.601562c3.046875 5.519532 8.367187 9.25 14.59375 10.242188.484375.078125.96875.132812 1.453125.175781.136719.011719.273437.019531.410156.03125.386719.027344.777344.039063 1.164063.042969.070312.003906.144531.011718.21875.011718.027343 0 .054687-.003906.082031-.003906.558593-.003906 1.117187-.03125 1.671875-.078125.105468-.011719.207031-.019531.3125-.03125.5625-.058593 1.125-.132812 1.679687-.238281.03125-.003906.0625-.015625.097657-.019531.539062-.105469 1.074218-.234375 1.605468-.382813.078125-.023437.15625-.042968.234375-.066406.53125-.15625 1.058594-.335938 1.578125-.535156.089844-.035156.183594-.074219.273438-.109375.527344-.214844 1.050781-.441407 1.558594-.699219.015624-.007812.027343-.015625.042968-.023438.496094-.253906.980469-.53125 1.457032-.828124.085937-.050782.167968-.097657.25-.152344.464843-.296875.921874-.617188 1.367187-.953125.085937-.066407.171875-.132813.257813-.199219.453124-.355469.898437-.726562 1.324218-1.125l19.722656-18.316406 19.703126 18.308594c.425781.398437.871093.765624 1.324218 1.121093.089844.070313.175782.140625.265625.207031.441407.335938.894531.652344 1.359375.949219.089844.054688.179688.109375.269532.167969.464843.285156.933593.554688 1.414062.800781.027344.011719.054688.03125.082031.042969.5.253906 1.011719.476562 1.527344.6875.105469.042969.210937.085938.316406.125.507813.195312 1.019531.371094 1.542969.523438.09375.03125.191406.054687.285156.078124.503906.140626 1.007813.265626 1.519532.363282.058593.011718.113281.027344.167968.035156.542969.101562 1.089844.175781 1.636719.234375.121094.011719.238281.023437.359375.035156.542969.046875 1.089844.074219 1.640625.074219.03125 0 .0625.003906.089844.003906.082031 0 .167969-.007812.25-.007812.375-.003906.757812-.019532 1.136719-.046875.136718-.007813.273437-.015625.410156-.027344.484375-.042969.96875-.097656 1.457031-.175781 6.226563-.992188 11.546875-4.726563 14.597656-10.246094l25.84375-46.769531c24.652344 4.800781 43.144531 26.675781 43.144531 52.363281zm0 0"/><path d="m140.011719 161.839844c0-5.523438-4.476563-10-10-10h-26.898438c-5.519531 0-10 4.476562-10 10 0 5.519531 4.480469 10 10 10h26.898438c5.523437-.003906 10-4.480469 10-10zm0 0"/><path d="m188.136719 171.835938h26.902343c5.519532 0 9.996094-4.476563 9.996094-9.996094 0-5.523438-4.476562-10-9.996094-10h-26.902343c-5.519531 0-9.996094 4.476562-9.996094 10 0 5.519531 4.476563 9.996094 9.996094 9.996094zm0 0"/><path d="m127.03125 197.273438c.550781-.359376 1.058594-.777344 1.519531-1.238282.460938-.460937.878907-.972656 1.25-1.519531.359375-.539063.667969-1.121094.917969-1.730469.25-.601562.441406-1.230468.570312-1.867187.132813-.644531.191407-1.300781.191407-1.953125 0-.648438-.0625-1.308594-.191407-1.957032-.128906-.632812-.320312-1.261718-.570312-1.871093-.25-.601563-.558594-1.179688-.917969-1.71875-.371093-.550781-.789062-1.0625-1.25-1.519531-.460937-.460938-.96875-.882813-1.519531-1.242188-.539062-.367188-1.121094-.667969-1.71875-.917969-.609375-.25-1.242188-.449219-1.871094-.582031-1.300781-.257812-2.621094-.257812-3.910156 0-.640625.132812-1.269531.332031-1.867188.582031-.613281.25-1.191406.550781-1.730468.917969-.550782.359375-1.058594.78125-1.519532 1.242188-.460937.457031-.882812.96875-1.242187 1.519531-.359375.539062-.667969 1.121093-.917969 1.71875-.25.609375-.441406 1.238281-.570312 1.871093-.128906.648438-.199219 1.308594-.199219 1.957032 0 .652344.070313 1.308594.199219 1.953125.128906.636719.320312 1.265625.570312 1.867187.25.609375.558594 1.191406.917969 1.730469.359375.550781.78125 1.058594 1.242187 1.519531.460938.460938.96875.878906 1.519532 1.238282.539062.359374 1.117187.671874 1.730468.921874.597657.25 1.226563.4375 1.867188.570313.640625.128906 1.300781.199219 1.949219.199219.652343 0 1.3125-.070313 1.960937-.199219.628906-.132813 1.261719-.320313 1.871094-.570313.597656-.25 1.179688-.5625 1.71875-.921874zm0 0"/><path d="m205.898438 185.136719c-.25-.601563-.558594-1.179688-.917969-1.71875-.363281-.550781-.78125-1.0625-1.242188-1.519531-.460937-.460938-.96875-.882813-1.519531-1.25-.539062-.359376-1.117188-.660157-1.730469-.910157-.597656-.25-1.226562-.449219-1.867187-.582031-1.289063-.25-2.621094-.25-3.910156 0-.628907.132812-1.261719.332031-1.871094.582031-.601563.25-1.179688.550781-1.71875.910157-.550782.367187-1.058594.789062-1.519532 1.25-.460937.457031-.882812.96875-1.25 1.519531-.359374.539062-.671874 1.121093-.921874 1.71875-.25.609375-.4375 1.238281-.570313 1.871093-.128906.648438-.1875 1.308594-.1875 1.957032 0 .652344.058594 1.308594.1875 1.953125.132813.636719.320313 1.265625.570313 1.867187.25.609375.558593 1.191406.921874 1.730469.367188.550781.789063 1.058594 1.25 1.519531.460938.460938.96875.878906 1.519532 1.238282.539062.359374 1.117187.671874 1.71875.921874.609375.25 1.242187.4375 1.871094.570313.648437.128906 1.308593.199219 1.960937.199219.648437 0 1.308594-.070313 1.949219-.199219.640625-.132813 1.269531-.320313 1.867187-.570313.613281-.25 1.191407-.558593 1.730469-.921874.550781-.359376 1.058594-.777344 1.519531-1.238282.460938-.460937.878907-.972656 1.242188-1.519531.359375-.539063.667969-1.121094.917969-1.730469.25-.601562.441406-1.230468.570312-1.867187.128906-.644531.199219-1.300781.199219-1.953125 0-.648438-.070313-1.308594-.199219-1.957032-.128906-.632812-.320312-1.261718-.570312-1.871093zm0 0"/><path d="m159.074219 289.484375c10.351562 0 20.703125-2.519531 30.140625-7.554687 4.871094-2.601563 6.710937-8.65625 4.113281-13.527344-2.601563-4.871094-8.65625-6.714844-13.527344-4.113282-12.980469 6.921876-28.46875 6.921876-41.445312 0-4.871094-2.597656-10.929688-.761718-13.53125 4.113282-2.597657 4.871094-.757813 10.925781 4.117187 13.527344 9.433594 5.035156 19.785156 7.554687 30.132813 7.554687zm0 0"/><path d="m138.261719 73.246094h5.628906v5.632812c0 5.519532 4.476563 9.996094 10 9.996094s10-4.476562 10-9.996094v-5.632812h5.628906c5.523438 0 10-4.476563 10-9.996094 0-5.523438-4.476562-10-10-10h-5.628906v-5.632812c0-5.519532-4.476563-9.996094-10-9.996094s-10 4.476562-10 9.996094v5.632812h-5.628906c-5.523438 0-10 4.476562-10 10 0 5.519531 4.476562 9.996094 10 9.996094zm0 0"/></svg>