<svg viewBox="-20 0 512 512.00136" xmlns="http://www.w3.org/2000/svg"><path d="m67.660156 302.949219c5.410156-1.117188 8.886719-6.410157 7.765625-11.816407-7.558593-36.484374-3.164062-64.988281 3.46875-79.5 2.296875-5.023437.085938-10.957031-4.933593-13.25-5.023438-2.300781-10.957032-.085937-13.253907 4.9375-3.855469 8.4375-15.609375 40-4.863281 91.867188.976562 4.726562 5.136719 7.972656 9.78125 7.972656.667969 0 1.351562-.066406 2.035156-.210937zm0 0"/><path d="m82.519531 324.726562c-.25-.597656-.558593-1.179687-.917969-1.71875-.371093-.550781-.789062-1.058593-1.25-1.519531-.460937-.460937-.96875-.882812-1.519531-1.25-.539062-.351562-1.121093-.660156-1.722656-.910156-.609375-.25-1.238281-.449219-1.867187-.570313-3.25-.660156-6.710938.410157-9.03125 2.730469-.460938.460938-.878907.96875-1.238282 1.519531-.363281.539063-.671875 1.121094-.921875 1.71875-.25.609376-.441406 1.242188-.570312 1.882813-.128907.640625-.199219 1.300781-.199219 1.949219 0 2.628906 1.070312 5.210937 2.929688 7.070312 1.859374 1.859375 4.441406 2.929688 7.070312 2.929688.648438 0 1.308594-.070313 1.960938-.199219.628906-.132813 1.257812-.320313 1.867187-.570313.601563-.25 1.183594-.5625 1.722656-.921874.550781-.359376 1.058594-.777344 1.519531-1.238282 1.859376-1.859375 2.929688-4.441406 2.929688-7.070312 0-.648438-.058594-1.308594-.191406-1.949219-.128906-.640625-.320313-1.269531-.570313-1.882813zm0 0"/><path d="m339.792969 48.113281c5.523437 0 10-4.476562 10-10v-28.113281c0-5.523438-4.476563-10-10-10-5.523438 0-10 4.476562-10 10v28.113281c0 5.523438 4.476562 10 10 10zm0 0"/><path d="m459.472656 60.363281c-2.707031-4.8125-8.800781-6.523437-13.617187-3.8125l-34.710938 19.523438c-4.816406 2.710937-6.523437 8.804687-3.816406 13.621093 1.835937 3.261719 5.230469 5.097657 8.726563 5.097657 1.660156 0 3.34375-.414063 4.894531-1.285157l34.710937-19.523437c4.8125-2.710937 6.519532-8.804687 3.8125-13.621094zm0 0"/><path d="m463.378906 158.496094-31.222656-2.558594c-5.507812-.453125-10.332031 3.648438-10.78125 9.152344-.453125 5.503906 3.644531 10.332031 9.148438 10.78125l31.222656 2.554687c.277344.023438.550781.035157.828125.035157 5.152343 0 9.527343-3.957032 9.953125-9.1875.453125-5.5-3.644532-10.328126-9.148438-10.777344zm0 0"/><path d="m399.601562 128.039062c-29.53125-40.40625-72.242187-53.976562-102.875-58.242187-31.136718-4.335937-63.167968-.332031-72.433593 5.972656-8.757813 5.945313-14.644531 16.738281-15.003907 27.5-.261718 7.933594 2.417969 14.90625 7.582032 19.933594-6.734375 1.335937-13.769532 2.238281-21.160156 2.375-19.675782-.375-36.765626-6.046875-53.292969-11.53125-29.660157-9.84375-60.332031-20.023437-95.785157 8.355469-20.109374 16.09375-35.085937 46.226562-42.175781 84.851562-8.417969 45.851563-4.828125 99.632813 10.109375 151.433594 15.71875 54.507812 42.691406 103.96875 78.003906 143.039062 5.984376 6.617188 14.351563 10.273438 23.097657 10.273438 1.738281 0 3.496093-.144531 5.25-.4375 10.644531-1.789062 19.515625-8.785156 23.734375-18.710938 7.445312-17.515624 13.464844-33.511718 17.886718-47.519531.671876-2.109375 1.523438-4.117187 2.546876-6.007812 6.058593-11.273438 17.792968-18.273438 30.625-18.273438 7.4375 0 14.546874 2.320313 20.550781 6.707031 6.007812 4.398438 10.363281 10.464844 12.601562 17.558594 4.464844 14.109375 10.484375 30.101563 17.890625 47.535156 4.21875 9.925782 13.09375 16.921876 23.734375 18.710938 10.578125 1.777344 21.175781-1.898438 28.347657-9.835938 66.070312-73.089843 101.902343-183.878906 90.566406-278.222656.078125-.042968.15625-.074218.230468-.117187 14.1875-7.707031 23.859376-23.46875 25.867188-42.15625 1.902344-17.667969-3.742188-36.554688-15.898438-53.191407zm-115.601562 360.273438c-2.609375 2.890625-6.324219 4.179688-10.195312 3.523438-3.933594-.660157-7.082032-3.144532-8.640626-6.8125-7.0625-16.609376-13.019531-32.425782-17.230468-45.738282-3.527344-11.171875-10.394532-20.738281-19.863282-27.671875-9.460937-6.914062-20.652343-10.566406-32.359374-10.566406-4.640626 0-9.183594.589844-13.554688 1.699219 8.601562-12.183594 20.882812-22.925782 37.46875-22.925782 5.523438 0 10-4.476562 10-10 0-5.519531-4.476562-10-10-10-50.410156 0-70.042969 61.816407-72.714844 71.128907-1.347656 2.636719-2.507812 5.421875-3.4375 8.335937-4.234375 13.425782-10.03125 28.8125-17.226562 45.738282-1.558594 3.667968-4.707032 6.148437-8.644532 6.8125-3.863281.652343-7.582031-.636719-10.195312-3.523438-65.683594-72.671875-99.933594-186.761719-83.28125-277.449219 6.132812-33.398437 18.890625-59.949219 35.003906-72.847656 13.066406-10.460937 24.722656-14.214844 36.574219-14.214844 12.609375 0 25.445313 4.257813 40.414063 9.226563 17.164062 5.695312 36.617187 12.152344 59.417968 12.550781.113282 0 .230469.003906.347656 0 15.492188-.265625 29.257813-3.285156 41.886719-6.972656.003907.007812.003907.015625.003907.023437.0625.535156.113281 1.097656.148437 1.679688.003906.019531.003906.039062.003906.058594.039063.589843.0625 1.203124.082031 1.828124v.035157c.015626.636719.027344 1.289062.03125 1.949219v.007812c.003907.667969.003907 1.34375.007813 2.027344.007813 7.355468.019531 15.695312 4.710937 23.277344 8.394532 13.597656 26.132813 15.425781 39.066407 11.363281 6.613281-2.082031 12.320312-5.269531 17.84375-8.351563 3.640625-2.035156 7.082031-3.957031 10.546875-5.425781 6.226562-2.632813 14.339844-3.664063 18.417968-.027344 3.539063 3.15625 4.167969 8.984375 4.785157 18.210938.550781 8.25 1.175781 17.605469 5.980469 25.921875.375.652344.773437 1.289062 1.195312 1.90625.144531.210937.304688.40625.453125.613281.289063.402344.570313.804687.878906 1.191406.191407.238281.398438.464844.597657.699219.285156.335938.5625.675781.863281 1 .21875.242188.457031.46875.6875.703125.292969.300781.582031.605469.886719.894531.25.234375.515624.457032.769531.683594.304687.269531.605469.542969.917969.800781.273437.226563.5625.4375.839843.65625.316407.242188.625.488281.949219.71875.296875.214844.605469.410157.90625.617188.324219.214843.648438.4375.980469.644531.316406.199219.644531.378906.96875.570312.332031.191407.660156.390626 1 .574219.339843.179688.683593.347657 1.027343.519531.339844.167969.679688.339844 1.023438.5.355469.164063.71875.316407 1.082031.46875.34375.144532.691407.292969 1.042969.433594.371094.144532.75.273438 1.125.410156.351562.121094.703125.25 1.058594.363282.390625.125.78125.234375 1.171875.347656.355469.101562.710937.207031 1.070312.296875.402344.101563.804688.195313 1.210938.285156.359375.082031.71875.160157 1.082031.230469.414062.082031.828125.148438 1.242188.214844.363281.0625.726562.117187 1.09375.167968.417968.054688.839843.101563 1.261718.144532.371094.039062.738282.074218 1.109375.101562.421875.03125.847657.050782 1.269531.070313.21875.007812.429688.03125.644532.035156 9.910156 88.402344-23.90625 191.789063-85.808594 260.265625zm111.617188-309.222656c-1.289063 11.976562-7.242188 22.21875-15.523438 26.71875-1.277344.691406-2.660156 1.230468-4.125 1.605468-7.285156 1.875-15.015625-.355468-18.589844-5.21875-.238281-.324218-.457031-.660156-.660156-1.007812-2.476562-4.292969-2.898438-10.589844-3.34375-17.257812-.71875-10.769532-1.535156-22.980469-11.433594-31.804688-.546875-.488281-1.113281-.945312-1.695312-1.386719-.089844-.070312-.179688-.140625-.269532-.207031-.558593-.414062-1.132812-.804688-1.71875-1.175781-.109374-.070313-.222656-.136719-.332031-.207031-.601562-.363282-1.210937-.714844-1.832031-1.035157-.078125-.039062-.15625-.074219-.234375-.113281-.628906-.316406-1.265625-.613281-1.917969-.886719-.046875-.019531-.09375-.042969-.140625-.0625-.667969-.273437-1.351562-.519531-2.039062-.746093-.117188-.039063-.230469-.078126-.347657-.113282-.679687-.214844-1.367187-.40625-2.066406-.578125-.117187-.027343-.238281-.054687-.355468-.082031-.722657-.167969-1.453126-.316406-2.195313-.4375-.042969-.007812-.085937-.011719-.128906-.019531-.738281-.113281-1.484375-.207031-2.238281-.273438-.089844-.007812-.175782-.019531-.265626-.027343-.75-.066407-1.511718-.101563-2.28125-.121094-.132812 0-.269531-.003906-.402343-.007813-.167969 0-.335938-.007812-.503907-.007812-.46875 0-.945312.023437-1.417968.039062-.214844.007813-.425782.007813-.640625.019531-.832031.042969-1.667969.105469-2.511719.199219-.136719.019531-.277344.042969-.414062.058594-.703126.085937-1.410157.1875-2.121094.308594-.285156.046875-.574219.109375-.863282.164062-.570312.105469-1.140624.222657-1.714843.355469-.324219.070312-.648438.152344-.96875.234375-.558594.136719-1.113281.289063-1.675781.449219-.320313.089844-.640626.183594-.964844.28125-.597656.183594-1.195313.386718-1.792969.59375-.28125.097656-.558594.1875-.839844.289062-.878906.320313-1.753906.660156-2.632812 1.03125-4.472657 1.894532-8.554688 4.175782-12.5 6.378906-4.855469 2.710938-9.445313 5.273438-14.09375 6.738282-4.691407 1.46875-10.703125 1.382812-14.136719-.878906-.789062-.523438-1.445312-1.160157-1.914062-1.921876-1.714844-2.769531-1.722657-7.636718-1.730469-12.792968-.011719-8.40625-.027344-18.871094-7.957031-26.695313-.046876-.050781-.09375-.097656-.140626-.144531-4.085937-4-8.972656-5.867188-12.898437-7.367188-2.324219-.886718-4.515625-1.722656-5.796875-2.722656-1.390625-1.085937-2.054688-2.875-1.972656-5.324218.144531-4.316407 2.707031-9.136719 6.125-11.53125 3.675781-1.890626 28.226562-7.324219 60.179687-2.558594 26.277344 3.914062 62.855469 15.769531 87.871094 49.996094 9.210937 12.609374 13.53125 26.550781 12.164063 39.253906zm0 0"/></svg>