<svg viewBox="0 -64 511.9995 511" xmlns="http://www.w3.org/2000/svg"><path d="m498.414062 248.652344-115.320312-59.222656c-.046875-.023438-.097656-.039063-.148438-.0625-.289062-.144532-.585937-.273438-.890624-.390626-.09375-.035156-.1875-.066406-.277344-.101562-.316406-.105469-.636719-.199219-.964844-.277344-.058594-.011718-.117188-.03125-.175781-.042968-.382813-.082032-.769531-.144532-1.164063-.179688-.085937-.007812-.171875-.007812-.257812-.015625-.230469-.015625-.457032-.035156-.6875-.035156h-204.097656v-28.828125c0-6.660156 5.421874-12.082032 12.085937-12.082032h133.351563c5.523437 0 10-4.476562 10-10 0-5.523437-4.476563-10-10-10h-133.351563c-17.691406 0-32.085937 14.390626-32.085937 32.082032v28.828125h-5.441407l-74.945312-94.363281 1.429687-3.039063c10.429688-22.152344 10.191406-47.441406-.652344-69.394531-3.59375-7.28125-10.253906-12.457032-18.261718-14.203125l-28.945313-6.296875c-.421875-.09375-.847656-.171875-1.269531-.242188-.847656-.132812-1.699219-.222656-2.546875-.261718-1.269531-.058594-2.535156-.011719-3.789063.140624-4.167968.503907-8.15625 2.167969-11.523437 4.882813-4.046875 3.257813-6.796875 7.707031-7.917969 12.648437-.375 1.648438-.566406 3.351563-.566406 5.082032v64.058594c0 .476562.0117188.949218.03125 1.421874.0078125.171876.0234375.339844.0351562.511719.015625.300781.0351558.605469.0585938.90625.019531.1875.039062.375.0625.566407.027344.285156.058594.570312.09375.855468.023438.175782.054688.347656.078125.519532.046875.304687.09375.609374.148437.914062.023438.140625.054688.28125.082032.421875.0625.34375.132812.6875.207031 1.027344.023437.097656.046875.195312.070313.289062.089843.390625.1875.78125.292968 1.171875.015625.046875.027344.097656.042969.148438.121094.4375.25.875.390625 1.308594.003906.007812.007812.015624.007812.027343 1.207032 3.738281 3.070313 7.261719 5.53125 10.363281l120.921876 152.328126c7.167968 9.03125 17.894531 14.210937 29.421874 14.210937h15.265626v11.910156c0 14.667969 11.933593 26.601563 26.601562 26.601563h4.390625l2.816406 50.125h-62.464843c-5.523438 0-10 4.480468-10 10.003906 0 5.519531 4.476562 10 10 10h227.117187c5.523437 0 10-4.480469 10-10 0-5.523438-4.476563-10.003906-10-10.003906h-64.15625l2.816406-50.125h4.390625c14.667969 0 26.601563-11.933594 26.601563-26.601563v-11.910156h14.121093c14.167969 0 26.304688-8.832031 31.214844-21.28125l90.488282 40.742187c3.363281 1.519532 6.878906 2.238282 10.335937 2.238282 9.230469 0 18.035156-5.136719 22.40625-13.96875 6.039063-12.199219 1.101563-27.1875-11.007813-33.40625zm-477.382812-227.53125c.066406-.054688.152344-.113282.242188-.171875.027343-.015625.050781-.03125.078124-.046875.09375-.058594.203126-.117188.324219-.167969.023438-.011719.054688-.023437.082031-.035156.113282-.042969.234376-.082031.367188-.117188.027344-.003906.050781-.011719.082031-.019531.148438-.03125.3125-.046875.484375-.050781h.125c.175782.003906.355469.015625.546875.058593l28.945313 6.300782c1.996094.433594 3.710937 1.746094 4.582031 3.515625 8.128906 16.453125 8.308594 35.414062.492187 52.015625l-1.375 2.914062h-36.007812v-62.039062c0-1.152344.648438-1.84375 1.03125-2.15625zm9.675781 84.199218h26.816407l76.128906 95.851563c-3.304688 8.988281-4.863282 18.511719-4.597656 28.039063zm256.304688 257.644532h-60.429688l-2.816406-50.125h66.0625zm33.839843-76.726563c0 3.640625-2.957031 6.597657-6.597656 6.597657h-114.914062c-3.636719 0-6.597656-2.957032-6.597656-6.597657v-11.910156h128.109374zm34.125-31.910156h-197.5c-.625 0-1.246093-.042969-1.859374-.105469-.234376-.023437-.464844-.066406-.699219-.101562-.28125-.042969-.5625-.089844-.839844-.144532l-3.375-13.363281c-2.707031-10.710937-2.121094-21.972656 1.609375-32.289062h216.210938v13h-79.507813c-5.523437 0-10 4.480469-10 10.003906s4.476563 10 10 10h79.480469c-.289063 7.214844-6.234375 13-13.519532 13zm136.519532 18.859375c-1.210938 2.449219-4.113282 3.488281-6.605469 2.367188l-96.363281-43.390626v-17.460937l100.75 51.742187c2.441406 1.253907 3.4375 4.277344 2.21875 6.742188zm0 0"/><path d="m258.242188 227.503906c-.25-.609375-.558594-1.1875-.917969-1.730468-.359375-.546876-.78125-1.058594-1.242188-1.519532-.460937-.460937-.96875-.878906-1.519531-1.238281-.539062-.359375-1.121094-.671875-1.730469-.921875-.597656-.25-1.230469-.4375-1.867187-.570312-1.292969-.257813-2.621094-.257813-3.902344 0-.640625.132812-1.269531.320312-1.878906.570312-.601563.25-1.179688.5625-1.71875.921875-.550782.359375-1.0625.777344-1.523438 1.238281-.457031.460938-.878906.972656-1.238281 1.519532-.359375.542968-.671875 1.121093-.921875 1.730468-.25.601563-.449219 1.230469-.566406 1.871094-.132813.640625-.203125 1.300781-.203125 1.949219 0 .652343.070312 1.3125.203125 1.960937.117187.628906.316406 1.257813.566406 1.871094.25.597656.5625 1.179688.921875 1.71875.359375.550781.78125 1.0625 1.238281 1.519531 1.863282 1.859375 4.441406 2.929688 7.074219 2.929688.648437 0 1.308594-.058594 1.949219-.1875.640625-.132813 1.269531-.320313 1.871094-.570313.609374-.25 1.1875-.5625 1.726562-.917968.550781-.371094 1.0625-.792969 1.523438-1.25.457031-.460938.878906-.972657 1.238281-1.523438.359375-.539062.667969-1.121094.917969-1.71875.25-.609375.453124-1.242188.570312-1.871094.132812-.648437.203125-1.308594.203125-1.960937 0-.648438-.070313-1.308594-.203125-1.949219-.121094-.640625-.320312-1.269531-.570312-1.871094zm0 0"/></svg>