<svg viewBox="0 -4 512.00127 512" xmlns="http://www.w3.org/2000/svg"><path d="m204.445312 446.871094-2.46875-115.367188c-.257812-12.179687-5.890624-23.496094-15.449218-31.046875l-16.570313-13.09375c-10.957031-8.660156-25.160156-12.402343-38.957031-10.269531-10.597656 1.640625-20.375 6.652344-27.890625 14.128906l-26.171875-22.367187c-1.371094-1.171875-2.257812-2.800781-2.503906-4.589844l-15.605469-114.007813c-1.992187-14.5625-14.578125-25.542968-29.277344-25.542968-8.519531 0-16.625 3.679687-22.238281 10.089844-5.609375 6.414062-8.179688 14.933593-7.050781 23.378906l17.882812 133.625c1.644531 12.289062 7.566407 23.691406 16.675781 32.101562l82.207032 75.90625c3.472656 3.207032 5.464844 7.757813 5.464844 12.484375v36.984375c-6.257813 3.648438-10.484376 10.417969-10.484376 18.167969v16.484375c0 11.601562 9.4375 21.035156 21.039063 21.035156h67.058594c11.601562 0 21.035156-9.4375 21.035156-21.035156v-16.484375c.003906-10.109375-7.171875-18.574219-16.695313-20.582031zm-156.054687-137.65625c-5.695313-5.253906-9.394531-12.378906-10.421875-20.058594l-17.882812-133.625c-.371094-2.769531.4375-5.449219 2.277343-7.554688 1.839844-2.101562 4.394531-3.261718 7.1875-3.261718 4.75 0 8.816407 3.550781 9.460938 8.257812l15.605469 114.007813c.910156 6.652343 4.222656 12.71875 9.328124 17.078125l10.65625 9.109375 43.335938 37.125c1.886719 1.617187 4.199219 2.40625 6.5 2.40625 2.820312 0 5.621094-1.183594 7.601562-3.492188 3.589844-4.195312 3.105469-10.507812-1.089843-14.101562l-12.605469-10.796875c4.34375-3.9375 9.738281-6.523438 15.710938-7.449219 8.449218-1.296875 16.796874.894531 23.503906 6.195313l16.570312 13.09375c4.859375 3.839843 7.71875 9.589843 7.851563 15.78125l2.449219 114.484374h-41.9375v-34.113281c0-10.292969-4.335938-20.199219-11.898438-27.179687zm152.753906 174.722656c0 .570312-.46875 1.039062-1.039062 1.039062h-67.058594c-.570313 0-1.039063-.46875-1.039063-1.039062v-16.480469c0-.574219.46875-1.039062 1.039063-1.039062h67.058594c.570312 0 1.039062.464843 1.039062 1.039062zm0 0"/><path d="m504.6875 134.804688c-5.613281-6.410157-13.71875-10.089844-22.238281-10.089844-14.695313 0-27.28125 10.980468-29.277344 25.542968l-15.605469 114.011719c-.242187 1.785157-1.132812 3.414063-2.503906 4.585938l-10.414062 8.902343c-.003907 0-.007813.003907-.007813.003907l-.269531.230469-15.480469 13.230468c-7.515625-7.476562-17.292969-12.488281-27.894531-14.125-13.800782-2.136718-27.996094 1.609375-38.953125 10.265625l-16.570313 13.09375c-9.558594 7.550781-15.1875 18.867188-15.449218 31.046875l-2.46875 115.367188c-9.523438 2.007812-16.695313 10.472656-16.695313 20.585937v16.480469c0 11.601562 9.4375 21.039062 21.035156 21.039062h67.058594c11.601563 0 21.039063-9.4375 21.039063-21.039062v-16.480469c0-7.753906-4.226563-14.523437-10.484376-18.171875v-36.984375c0-4.726562 1.992188-9.277343 5.464844-12.484375l82.210938-75.90625c9.105468-8.410156 15.027344-19.808594 16.671875-32.097656l17.886719-133.625c1.125-8.449219-1.445313-16.96875-7.054688-23.382812zm-124.699219 349.132812c0 .570312-.464843 1.039062-1.035156 1.039062h-67.058594c-.570312 0-1.039062-.46875-1.039062-1.039062v-16.480469c0-.574219.46875-1.039062 1.039062-1.039062h67.058594c.570313 0 1.035156.464843 1.035156 1.039062zm111.925781-328.40625-17.882812 133.625c-1.027344 7.679688-4.726562 14.804688-10.421875 20.058594l-82.207031 75.910156c-7.558594 6.980469-11.898438 16.886719-11.898438 27.175781v34.117188h-41.9375l2.449219-114.484375c.132813-6.191406 2.996094-11.945313 7.855469-15.78125l16.570312-13.097656c6.707032-5.296876 15.050782-7.492188 23.5-6.191407 5.976563.921875 11.367188 3.511719 15.710938 7.445313l-12.601563 10.800781c-4.195312 3.589844-4.683593 9.902344-1.089843 14.097656 1.976562 2.308594 4.777343 3.496094 7.597656 3.496094 2.304687 0 4.617187-.792969 6.503906-2.40625l43-36.839844 10.992188-9.394531c5.101562-4.363281 8.414062-10.429688 9.324218-17.078125l15.605469-114.011719c.644531-4.707031 4.714844-8.253906 9.464844-8.253906 2.792969 0 5.347656 1.15625 7.1875 3.261719 1.839843 2.101562 2.648437 4.78125 2.277343 7.550781zm0 0"/><path d="m134.109375 78.847656c1.957031 1.96875 4.523437 2.949219 7.089844 2.949219 2.550781 0 5.101562-.96875 7.054687-2.910156 3.914063-3.894531 3.933594-10.226563.039063-14.140625l-44.695313-44.941406c-3.894531-3.914063-10.226562-3.933594-14.140625-.039063-3.917969 3.894531-3.933593 10.226563-.039062 14.144531zm0 0"/><path d="m370.800781 81.796875c2.566407 0 5.136719-.980469 7.089844-2.949219l44.695313-44.9375c3.894531-3.917968 3.875-10.25-.039063-14.144531-3.917969-3.894531-10.25-3.875-14.144531.039063l-44.695313 44.941406c-3.894531 3.914062-3.875 10.246094.039063 14.140625 1.953125 1.941406 4.503906 2.910156 7.054687 2.910156zm0 0"/><path d="m209.210938 46.46875c1.257812 4.386719 5.257812 7.242188 9.605468 7.242188.914063 0 1.839844-.125 2.761719-.390626 5.308594-1.519531 8.378906-7.0625 6.855469-12.371093l-9.667969-33.703125c-1.523437-5.308594-7.0625-8.378906-12.371094-6.855469-5.308593 1.523437-8.378906 7.0625-6.855469 12.371094zm0 0"/><path d="m290.421875 53.320312c.921875.265626 1.847656.394532 2.761719.394532 4.347656 0 8.347656-2.859375 9.605468-7.246094l9.671876-33.707031c1.519531-5.308594-1.546876-10.847657-6.855469-12.367188-5.3125-1.527343-10.847657 1.546875-12.371094 6.851563l-9.667969 33.707031c-1.523437 5.308594 1.546875 10.847656 6.855469 12.367187zm0 0"/><path d="m302.503906 171.417969c-.960937 5.4375 2.671875 10.628906 8.109375 11.585937.589844.105469 1.171875.15625 1.75.15625 4.761719 0 8.980469-3.414062 9.835938-8.265625 4.921875-27.90625-9.882813-54.253906-10.515625-55.363281-2.738282-4.796875-8.847656-6.460938-13.640625-3.726562-4.796875 2.738281-6.46875 8.847656-3.730469 13.640624.121094.210938 11.8125 21.4375 8.191406 41.972657zm0 0"/><path d="m296.757812 295.421875c5.828126 0 11.402344-2.4375 15.390626-6.847656 18.476562-20.441407 32.582031-46.292969 40.792968-74.757813 7.8125-27.09375 9.679688-55.269531 5.257813-79.347656-2.214844-12.0625-8.175781-34.09375-23.230469-46.144531-20.132812-16.117188-37.796875-10.253907-53.382812-5.082031-8.039063 2.667968-16.351563 5.425781-25.585938 5.621093-9.234375-.195312-17.546875-2.953125-25.585938-5.621093-15.582031-5.171876-33.246093-11.035157-53.378906 5.082031-15.054687 12.050781-21.019531 34.082031-23.234375 46.144531-4.421875 24.074219-2.554687 52.253906 5.261719 79.347656 8.207031 28.464844 22.3125 54.316406 40.789062 74.757813 4.78125 5.289062 11.839844 7.738281 18.890626 6.554687 7.078124-1.1875 12.976562-5.84375 15.785156-12.445312 3.847656-9.058594 6.96875-17.351563 9.273437-24.644532 1.6875-5.339843 6.589844-8.925781 12.199219-8.925781 5.613281 0 10.515625 3.585938 12.203125 8.925781 2.304687 7.292969 5.425781 15.585938 9.273437 24.640626 2.804688 6.605468 8.707032 11.261718 15.785157 12.449218 1.167969.195313 2.335937.292969 3.496093.292969zm-40.757812-66.308594c-14.375 0-26.941406 9.203125-31.273438 22.898438-2.113281 6.6875-5.011718 14.375-8.609374 22.851562-.054688.125-.195313.460938-.695313.542969-.445313.074219-.632813-.132812-.734375-.246094-32.488281-35.9375-49.4375-92.308594-41.214844-137.078125 2.867188-15.625 8.871094-28.390625 16.058594-34.140625 5.503906-4.410156 10.226562-6.136718 15.460938-6.136718 5.371093 0 11.277343 1.816406 19.121093 4.421874 9.074219 3.011719 19.355469 6.421876 31.710938 6.636719.117187.003907.234375.003907.351562 0 12.355469-.214843 22.636719-3.625 31.710938-6.636719 15.488281-5.140624 23.429687-7.214843 34.582031 1.714844 7.1875 5.75 13.191406 18.515625 16.058594 34.140625 8.222656 44.769531-8.726563 101.140625-41.214844 137.082031-.101562.109376-.292969.3125-.734375.242188-.496094-.082031-.640625-.417969-.695313-.546875-3.601562-8.472656-6.496093-16.160156-8.609374-22.847656-4.332032-13.695313-16.898438-22.898438-31.273438-22.898438zm0 0"/><path d="m316.339844 201.328125c-.25-.597656-.558594-1.179687-.917969-1.71875-.371094-.550781-.792969-1.0625-1.25-1.519531-.460937-.460938-.972656-.882813-1.523437-1.25-.539063-.359375-1.117188-.671875-1.71875-.921875-.609376-.25-1.242188-.4375-1.871094-.570313-1.289063-.257812-2.621094-.257812-3.910156 0-.640626.132813-1.269532.320313-1.867188.570313-.609375.25-1.191406.5625-1.730469.921875-.550781.367187-1.0625.789062-1.519531 1.25-.460938.457031-.882812.96875-1.242188 1.519531-.359374.539063-.667968 1.121094-.917968 1.71875-.25.613281-.441406 1.242187-.570313 1.871094-.128906.648437-.199219 1.308593-.199219 1.960937 0 .648438.070313 1.308594.199219 1.949219.128907.640625.320313 1.269531.570313 1.871094.25.609375.558594 1.1875.917968 1.726562.359376.550781.78125 1.0625 1.242188 1.523438.457031.460937.96875.878906 1.519531 1.238281.539063.359375 1.121094.671875 1.730469.921875.597656.25 1.226562.4375 1.867188.566406.640624.132813 1.300781.203125 1.949218.203125.652344 0 1.3125-.070312 1.960938-.203125.628906-.128906 1.261718-.316406 1.871094-.566406.601562-.25 1.179687-.5625 1.71875-.921875.550781-.359375 1.0625-.777344 1.523437-1.238281 1.867187-1.871094 2.929687-4.441407 2.929687-7.070313 0-.652344-.0625-1.3125-.191406-1.960937-.128906-.628907-.320312-1.257813-.570312-1.871094zm0 0"/></svg>