<svg viewBox="-64 0 512 512.00254" xmlns="http://www.w3.org/2000/svg"><path d="m57.699219 55.582031c4.132812 0 8-2.582031 9.441406-6.703125 1.820313-5.210937-.925781-10.917968-6.140625-12.738281l-47.695312-16.683594c-5.210938-1.820312-10.917969.925781-12.738282 6.136719-1.824218 5.214844.921875 10.917969 6.136719 12.742188l47.695313 16.683593c1.09375.382813 2.207031.5625 3.300781.5625zm0 0"/><path d="m64.46875 109.738281c-1.164062-5.398437-6.488281-8.835937-11.882812-7.664062l-31.351563 6.769531c-5.398437 1.164062-8.832031 6.488281-7.664063 11.886719 1.011719 4.6875 5.152344 7.890625 9.761719 7.890625.699219 0 1.410157-.074219 2.121094-.226563l31.351563-6.769531c5.398437-1.167969 8.832031-6.488281 7.664062-11.886719zm0 0"/><path d="m92.691406 165.097656c-4.289062-3.484375-10.585937-2.828125-14.066406 1.457032l-28.644531 35.277343c-3.480469 4.285157-2.828125 10.585938 1.460937 14.066407 1.851563 1.503906 4.082032 2.234374 6.296875 2.234374 2.90625 0 5.792969-1.261718 7.769531-3.695312l28.644532-35.277344c3.476562-4.285156 2.824218-10.582031-1.460938-14.0625zm0 0"/><path d="m366.1875 456.792969c-.171875-13.734375-10.515625-25.054688-23.832031-26.761719v-12.699219c0-8.636719-7.027344-15.660156-15.671875-15.660156h-3.949219v-34.671875c0-5.523438-4.476563-10-10-10-5.519531 0-10 4.476562-10 10v34.671875h-15.808594v-143.0625c2.601563.445313 5.242188.691406 7.898438.691406 2.660156 0 5.304687-.246093 7.910156-.695312v28.394531c0 5.523438 4.476563 10 10 10s10-4.476562 10-10v-36.929688c11.796875-8.761718 18.917969-22.679687 18.917969-37.601562 0-25.816406-21.007813-46.816406-46.828125-46.816406-.945313 0-1.894531.039062-2.839844.09375l-120.546875-120.546875-5.105469-30.203125c-1.65625-9.769532-10.957031-16.382813-20.753906-14.746094l-20.746094 3.507812c-9.226562 1.558594-15.464843 10.332032-13.90625 19.558594l.804688 4.777344c-11.671875 2.117188-21.871094 8.578125-28.757813 18.265625-6.992187 9.832031-9.734375 21.804687-7.726562 33.703125l8.539062 50.542969c2.007813 11.898437 8.53125 22.300781 18.367188 29.292969 7.730468 5.5 16.78125 8.371093 26.078125 8.371093 2.425781 0 4.863281-.203125 7.300781-.597656 2.320312 6.867187 8.816406 11.535156 16.066406 11.535156.933594 0 1.882813-.078125 2.835938-.234375l20.75-3.511718c4.742187-.800782 8.886718-3.398438 11.675781-7.324219 2.777344-3.914063 3.871094-8.679688 3.074219-13.433594l-3.410156-20.191406 63.714843 63.714843c-1.460937 4.589844-2.234375 9.410157-2.234375 14.246094 0 14.917969 7.125 28.832032 18.921875 37.597656v151.601563h-4.902343c-8.640626 0-15.667969 7.023437-15.667969 15.660156v12.851563c-12.8125 2.148437-22.625 13.234375-22.792969 26.609375-10.804688 4.054687-18.519531 14.492187-18.519531 26.699219 0 15.71875 12.789062 28.511718 28.511719 28.511718 15.722656 0 28.511718-12.792968 28.511718-28.511718 0-12.199219-7.703125-22.625-18.496094-26.6875.175782-3.890626 3.386719-7.003907 7.320313-7.003907h5.445313.019531 76 .019531 6.488281c3.933594 0 7.140625 3.113281 7.316407 7.003907-10.792969 4.0625-18.492188 14.492187-18.492188 26.6875 0 15.71875 12.789062 28.511718 28.507812 28.511718 15.722657 0 28.511719-12.792968 28.511719-28.511718 0-12.207032-7.710937-22.644532-18.519531-26.699219zm-44.53125-244.324219c0 9.730469-5.285156 18.71875-13.796875 23.460938-3.949219 2.207031-8.457031 3.371093-13.035156 3.371093-4.570313 0-9.074219-1.164062-13.027344-3.375-8.507813-4.742187-13.789063-13.730469-13.789063-23.457031 0-4.273438.96875-8.351562 2.882813-12.121094.238281-.464844.488281-.925781.753906-1.375 3.945313-6.75 10.730469-11.527344 18.457031-12.902344 1.546876-.277343 3.136719-.417968 4.722657-.417968 14.792969 0 26.832031 12.03125 26.832031 26.816406zm-207.914062-68.871094c-5.480469-3.894531-9.117188-9.691406-10.234376-16.324218l-8.539062-50.542969c-1.121094-6.632813.410156-13.304688 4.304688-18.78125 3.792968-5.332031 9.382812-8.917969 15.789062-10.140625l16.917969 100.183594c-6.445313.949218-12.90625-.601563-18.238281-4.394532zm40.339843 15.148438-.703125-4.144532c-.003906-.023437-.003906-.050781-.007812-.074218l-20.253906-119.917969c-.003907-.003906-.003907-.007813-.003907-.011719l-1.964843-11.625 15.796874-2.671875 5.292969 31.324219c.003907.015625.003907.035156.007813.050781l9.339844 55.28125c0 .003907 0 .011719.003906.019531l8.292968 49.097657zm23.101563-79.515625 93.277344 93.28125c-.1875.113281-.363282.242187-.550782.363281-.519531.324219-1.03125.660156-1.535156 1.007812-.316406.214844-.628906.433594-.9375.65625-.511719.367188-1.011719.753907-1.507812 1.144532-.28125.21875-.5625.429687-.832032.652344-.574218.472656-1.128906.960937-1.675781 1.457031-.183594.160156-.367187.316406-.542969.480469-.71875.667968-1.414062 1.359374-2.085937 2.070312-.027344.027344-.054688.050781-.078125.074219l-79.941406-79.9375zm56.371094 412.769531c-4.691407 0-8.511719-3.816406-8.511719-8.511719 0-4.691406 3.816406-8.507812 8.511719-8.507812 4.691406 0 8.507812 3.816406 8.507812 8.507812 0 4.695313-3.816406 8.511719-8.507812 8.511719zm88.800781-70.328125v8.128906h-56v-8.128906zm33.839843 70.328125c-4.691406 0-8.511718-3.816406-8.511718-8.511719 0-4.691406 3.820312-8.507812 8.511718-8.507812 4.695313 0 8.511719 3.816406 8.511719 8.507812 0 4.695313-3.820312 8.511719-8.511719 8.511719zm0 0"/><path d="m321.046875 321.449219c-.359375-.550781-.78125-1.058594-1.242187-1.519531-2.328126-2.328126-5.777344-3.390626-9.027344-2.738282-.632813.128906-1.261719.328125-1.871094.578125-.601562.25-1.179688.550781-1.71875.921875-.550781.359375-1.0625.777344-1.523438 1.238282-.46875.460937-.878906.96875-1.25 1.519531-.359374.542969-.667968 1.121093-.917968 1.730469-.25.601562-.441406 1.230468-.570313 1.871093-.128906.640625-.191406 1.300781-.191406 1.949219s.0625 1.308594.191406 1.949219c.128907.640625.320313 1.269531.570313 1.871093.25.609376.558594 1.1875.917968 1.730469.371094.546875.78125 1.058594 1.25 1.519531.460938.460938.972657.878907 1.523438 1.238282.539062.359375 1.117188.671875 1.71875.921875.609375.25 1.238281.449219 1.871094.578125.648437.128906 1.308594.191406 1.957031.191406 2.632813 0 5.210937-1.070312 7.070313-2.933594.460937-.457031.882812-.96875 1.242187-1.519531.359375-.539063.667969-1.117187.917969-1.730469.25-.597656.441406-1.226562.570312-1.867187s.199219-1.300781.199219-1.949219c0-.652344-.070313-1.3125-.199219-1.949219-.128906-.640625-.320312-1.273437-.570312-1.871093-.25-.609376-.558594-1.1875-.917969-1.730469zm0 0"/></svg>