<svg viewBox="-142 1 511 511.99975" xmlns="http://www.w3.org/2000/svg"><path d="m225.667969 486.082031-6.914063-20.742187c-.003906-.011719-.007812-.023438-.011718-.035156-.394532-1.183594-.753907-2.371094-1.105469-3.566407-.089844-.296875-.175781-.597656-.261719-.898437-.324219-1.140625-.628906-2.285156-.914062-3.433594-.078126-.328125-.152344-.65625-.230469-.980469-.21875-.921875-.421875-1.84375-.613281-2.765625-.074219-.355468-.152344-.707031-.21875-1.058594-.222657-1.109374-.417969-2.222656-.601563-3.339843-.0625-.398438-.125-.792969-.183594-1.191407-.160156-1.074218-.3125-2.152343-.441406-3.230468-.011719-.105469-.027344-.210938-.039063-.316406-.003906-.015626-.007812-.03125-.007812-.046876-.488281-4.234374-.710938-8.496093-.671875-12.78125.257813-26.941406.261719-97.277343-5.230469-168.277343-6.804687-87.929688-19.082031-142.140625-37.535156-165.722657-3.257812-4.160156-7.75-7.007812-12.800781-8.230468v-63.660156c0-9.125-5.765625-17.339844-14.351563-20.433594 0-.003906 0-.003906 0-.003906-19.855468-7.15625-41.71875-7.15625-61.570312.003906-8.585938 3.09375-14.351563 11.308594-14.351563 20.433594v64.136718c-4.363281 1.40625-8.234375 4.0625-11.121093 7.753906-18.457032 23.582032-30.734376 77.792969-37.535157 165.722657-5.492187 71-5.488281 141.335937-5.234375 168.277343.039063 4.285157-.183594 8.550782-.671875 12.78125 0 .015626-.003906.03125-.007812.046876-.011719.105468-.027344.210937-.039063.3125-.128906 1.082031-.28125 2.160156-.441406 3.238281-.0625.394531-.121094.789062-.183594 1.183593-.183594 1.117188-.382812 2.238282-.601562 3.351563-.066406.34375-.144532.6875-.214844 1.03125-.195312.9375-.402344 1.878906-.625 2.8125-.074219.3125-.144531.625-.222656.9375-.285156 1.164063-.59375 2.320313-.921875 3.476563-.082031.277343-.164063.558593-.246094.835937-.355469 1.21875-.726563 2.429687-1.128906 3.636719l-6.910157 20.742187c-.625 1.871094-.957031 3.804688-1.003906 5.734375-.101562 4.25 1.167969 8.484375 3.707032 12.003906 2.769531 3.839844 6.820312 6.519532 11.335937 7.621094 1.503906.367188 3.0625.554688 4.640625.554688h31.878906c.015625 0 .027344.003906.042969.003906s.027344-.003906.042969-.003906h121.1875c.015625 0 .03125.003906.046875.003906.011719 0 .027343-.003906.039062-.003906h33.5625c1.578125 0 3.136719-.1875 4.640625-.554688 4.515625-1.101562 8.566406-3.78125 11.332032-7.621094 2.539062-3.519531 3.808593-7.753906 3.707031-12.003906-.046875-1.929687-.375-3.863281-1-5.734375zm-138.054688-460.277343c0-.726563.457031-1.375 1.140625-1.621094 15.476563-5.582032 32.519532-5.582032 47.996094 0 .679688.246094 1.136719.898437 1.136719 1.621094v20.683593h-19.296875c-5.523438 0-10 4.476563-10 10 0 5.523438 4.476562 10 10 10h19.296875v22.296875h-50.273438zm-15.371093 84.214843c.605468-.769531 1.613281-1.230469 2.703124-1.230469h77.289063c1.085937 0 2.09375.460938 2.699219 1.230469 30.320312 38.746094 39.699218 197.398438 38.519531 321.484375-.011719 1.394532.011719 2.78125.046875 4.167969h-159.824219c.035157-1.386719.0625-2.773437.046875-4.167969-1.179687-124.085937 8.199219-282.738281 38.519532-321.484375zm30.507812 345.652344v36.324219h-38.589844l6.847656-36.324219zm20 0h31.742188l6.847656 36.324219h-38.589844zm-95.351562 15.992187c.492187-1.476562.949218-2.96875 1.386718-4.46875.148438-.511718.285156-1.027343.429688-1.542968.269531-.972656.53125-1.945313.773437-2.921875.164063-.640625.316407-1.28125.46875-1.921875.203125-.871094.394531-1.746094.582031-2.621094.140626-.671875.285157-1.339844.417969-2.015625.03125-.167969.070313-.332031.105469-.5h19.09375l-6.847656 36.324219h-23.191406zm154.292968 20.332032-6.847656-36.324219h20.773438c.03125.167969.070312.328125.101562.496094.132812.683593.28125 1.363281.425781 2.042969.183594.863281.371094 1.722656.570313 2.578124.15625.65625.3125 1.3125.476562 1.964844.242188.953125.496094 1.902344.757813 2.851563.152343.539062.292969 1.078125.453125 1.613281.433594 1.492188.886718 2.976562 1.378906 4.445312l6.777344 20.332032zm0 0"/><path d="m113.589844 376.898438c31 0 55.285156-39.511719 55.285156-89.953126 0-7.222656-.511719-14.410156-1.519531-21.359374-.792969-5.46875-5.875-9.25-11.332031-8.460938-5.46875.792969-9.253907 5.867188-8.460938 11.332031.871094 6.003907 1.3125 12.222657 1.3125 18.488281 0 41.222657-18.597656 69.953126-35.285156 69.953126-16.691406 0-35.289063-28.730469-35.289063-69.953126 0-41.226562 18.597657-69.953124 35.289063-69.953124 3.90625 0 7.824218 1.445312 11.644531 4.296874 4.421875 3.300782 10.6875 2.394532 13.996094-2.03125 3.304687-4.425781 2.394531-10.691406-2.03125-13.996093-7.351563-5.488281-15.292969-8.269531-23.609375-8.269531-31.003906 0-55.289063 39.511718-55.289063 89.953124 0 50.441407 24.285157 89.953126 55.289063 89.953126zm0 0"/><path d="m139.839844 233.433594c-.25.609375-.453125 1.226562-.570313 1.867187-.132812.652344-.199219 1.300781-.199219 1.960938 0 .648437.066407 1.3125.199219 1.949219.117188.640624.320313 1.273437.570313 1.871093.25.597657.558594 1.191407.917968 1.730469.359376.550781.78125 1.058594 1.242188 1.519531.457031.460938.96875.878907 1.519531 1.242188.539063.359375 1.117188.667969 1.71875.917969.609375.25 1.242188.441406 1.871094.570312.648437.128906 1.308594.199219 1.960937.199219.648438 0 1.308594-.070313 1.949219-.199219s1.269531-.320312 1.867188-.570312c.613281-.25 1.191406-.558594 1.730469-.917969.550781-.363281 1.0625-.78125 1.519531-1.242188.460937-.460937.882812-.96875 1.242187-1.519531.359375-.539062.667969-1.128906.917969-1.730469.25-.601562.441406-1.230469.570313-1.871093.132812-.640626.199218-1.300782.199218-1.949219 0-.660157-.066406-1.308594-.199218-1.960938-.128907-.640625-.320313-1.257812-.570313-1.867187-.25-.601563-.558594-1.183594-.917969-1.722656-.359375-.550782-.78125-1.058594-1.242187-1.519532-.457031-.46875-.96875-.878906-1.519531-1.25-.539063-.359375-1.117188-.667968-1.730469-.917968-.597657-.25-1.226563-.441407-1.867188-.570313-1.289062-.261719-2.621093-.261719-3.910156 0-.628906.128906-1.261719.320313-1.871094.570313-.601562.25-1.179687.558593-1.71875.917968-.550781.371094-1.0625.78125-1.519531 1.25-.460938.460938-.882812.96875-1.242188 1.519532-.359374.539062-.667968 1.121093-.917968 1.722656zm0 0"/></svg>