<svg viewBox="0 -94 512.00004 512" xmlns="http://www.w3.org/2000/svg"><path d="m509.402344 145.984375c-4.210938-22.933594-13.257813-40.945313-25.472656-50.722656-21.949219-17.570313-41.316407-11.140625-58.402344-5.472657-9.046875 3.003907-18.394532 6.105469-28.867188 6.320313-10.46875-.214844-19.820312-3.316406-28.867187-6.320313-17.085938-5.667968-36.453125-12.097656-58.398438 5.472657-8.691406 6.953125-15.765625 18.09375-20.648437 32.1875-4.882813-14.09375-11.957032-25.234375-20.644532-32.1875-21.949218-17.570313-41.316406-11.140625-58.402343-5.472657-9.046875 3.003907-18.398438 6.105469-28.867188 6.320313-10.472656-.214844-19.820312-3.316406-28.867187-6.320313-17.089844-5.667968-36.457032-12.097656-58.402344 5.46875-12.214844 9.78125-21.261719 27.792969-25.472656 50.726563-4.894532 26.65625-2.824219 57.867187 5.832031 87.882813 9.101563 31.550781 24.730469 60.195312 45.199219 82.839843 4.226562 4.675781 10.128906 7.257813 16.300781 7.257813 1.230469 0 2.46875-.105469 3.707031-.3125 7.5-1.261719 13.753906-6.191406 16.726563-13.191406 4.273437-10.058594 7.738281-19.261719 10.296875-27.351563 2.03125-6.421875 7.929687-10.738281 14.679687-10.738281s12.652344 4.3125 14.683594 10.738281c2.554687 8.089844 6.019531 17.292969 10.292969 27.355469 2.972656 6.996094 9.226562 11.925781 16.726562 13.1875 7.464844 1.253906 14.945313-1.339844 20.007813-6.945313 20.472656-22.644531 36.101562-51.289062 45.199219-82.839843.351562-1.21875.675781-2.445313 1.003906-3.671876.332031 1.226563.65625 2.449219 1.007812 3.671876 9.097656 31.550781 24.726563 60.195312 45.199219 82.839843 5.066406 5.605469 12.546875 8.199219 20.007813 6.945313 7.5-1.261719 13.75-6.191406 16.726562-13.1875 4.269531-10.058594 7.734375-19.261719 10.292969-27.355469 2.03125-6.425781 7.929687-10.738281 14.683593-10.738281 6.75 0 12.648438 4.3125 14.679688 10.738281 2.558594 8.085937 6.019531 17.289063 10.296875 27.355469 2.972656 6.996094 9.226563 11.925781 16.726563 13.1875 1.238281.207031 2.476562.3125 3.703124.3125 6.171876 0 12.078126-2.582032 16.304688-7.257813 20.46875-22.644531 36.097656-51.289062 45.195312-82.839843 8.65625-30.015626 10.726563-61.226563 5.832032-87.882813zm-281.699219 157.3125c-.492187.542969-1.113281.757813-1.851563.632813-.535156-.089844-1.253906-.386719-1.636718-1.285157-4.023438-9.476562-7.265625-18.074219-9.632813-25.5625-4.347656-13.761719-16.410156-23.3125-30.574219-24.566406 3.007813-2.152344 6.464844-3.527344 10.390626-3.527344 5.523437 0 10.003906-4.480469 10.003906-10.003906 0-5.519531-4.480469-10-10.003906-10-30.851563 0-43.113282 35.816406-45.261719 42.996094-.804688 1.625-1.496094 3.328125-2.058594 5.101562-2.367187 7.488281-5.605469 16.085938-9.632813 25.558594-.382812.902344-1.097656 1.199219-1.632812 1.289063-.738281.128906-1.363281-.089844-1.855469-.632813-36.417969-40.289063-55.417969-103.492187-46.199219-153.699219 3.246094-17.671875 10.089844-32.148437 18.304688-38.722656 7.210938-5.773438 13.382812-7.515625 20.0625-7.058594-6.144531 10.195313-12.476562 25.105469-9.695312 40.464844.195312 1.085938.394531 2.152344.589843 3.195312.519531 2.816407.988281 5.351563 1.339844 7.699219.03125.453125.089844.90625.1875 1.359375 1.300781 9.917969-.003906 16.53125-9.84375 26.851563-3.8125 3.996093-3.664063 10.328125.335937 14.136719 1.933594 1.847656 4.417969 2.765624 6.898438 2.765624 2.640625 0 5.273438-1.039062 7.238281-3.101562 12.273438-12.867188 15.699219-23.929688 15.777344-34.546875 7.984375-.582031 19.800781 1.125 24.675781 14.863281 1.453125 4.097656 5.308594 6.660156 9.425782 6.660156 1.109374 0 2.238281-.1875 3.34375-.578124 5.203124-1.847657 7.925781-7.566407 6.078124-12.769532-5.675781-16.003906-17.984374-25.882812-34.65625-27.820312-4.105468-.476563-7.972656-.417969-11.316406-.132813-.132812-.710937-.261718-1.417969-.394531-2.144531-2.023437-11.171875 4.988281-24.046875 10.449219-31.652344 9.808594 3.253906 20.902344 6.8125 34.097656 7.042969h.347656c13.59375-.238281 24.960938-4.011719 34.992188-7.339844 16.300781-5.410156 26.136718-8.675781 39.605468 2.105469 8.214844 6.574219 15.054688 21.050781 18.300782 38.722656 9.21875 50.207032-9.777344 113.410156-46.199219 153.699219zm215.832031 0c-.492187.542969-1.117187.757813-1.855468.632813-.535157-.089844-1.253907-.386719-1.636719-1.285157-4.023438-9.480469-7.265625-18.078125-9.632813-25.5625-4.667968-14.78125-18.234375-24.710937-33.75-24.710937s-29.082031 9.929687-33.753906 24.710937c-2.367188 7.488281-5.605469 16.089844-9.632812 25.5625-.382813.898438-1.101563 1.195313-1.632813 1.285157-.742187.125-1.363281-.089844-1.855469-.632813-36.417968-40.289063-55.417968-103.492187-46.195312-153.699219 3.242187-17.671875 10.085937-32.148437 18.300781-38.722656 6.492187-5.199219 12.140625-7.128906 18.082031-7.128906 6.375 0 13.082032 2.226562 21.519532 5.027344 10.03125 3.328124 21.398437 7.101562 34.992187 7.335937.117187.003906.230469.003906.347656 0 13.59375-.234375 24.964844-4.007813 34.992188-7.335937 16.300781-5.410157 26.140625-8.675782 39.605469 2.101562 8.214843 6.578125 15.054687 21.050781 18.300781 38.722656 9.222656 50.207032-9.777344 113.410156-46.195313 153.699219zm0 0"/><path d="m63.664062 67.496094c1.90625 2.980468 5.132813 4.609375 8.429688 4.609375 1.847656 0 3.714844-.511719 5.382812-1.582031 4.652344-2.976563 6.007813-9.160157 3.03125-13.8125l-19.632812-30.667969c-2.980469-4.652344-9.164062-6.011719-13.816406-3.03125s-6.007813 9.164062-3.03125 13.816406zm0 0"/><path d="m56.480469 96.582031-46.960938 2.253907c-5.515625.261718-9.773437 4.949218-9.5078122 10.464843.2578122 5.355469 4.6757812 9.523438 9.9804692 9.523438.160156 0 .324218-.003907.488281-.011719l46.957031-2.253906c5.515625-.265625 9.773438-4.953125 9.507812-10.46875-.261718-5.519532-4.933593-9.792969-10.464843-9.507813zm0 0"/><path d="m112.027344 67.8125c1.273437.542969 2.601562.796875 3.90625.796875 3.890625 0 7.589844-2.28125 9.210937-6.089844l20.660157-48.605469c2.160156-5.082031-.207032-10.953124-5.289063-13.113281-5.082031-2.160156-10.957031.207031-13.117187 5.289063l-20.664063 48.605468c-2.160156 5.082032.210937 10.953126 5.292969 13.117188zm0 0"/><path d="m348.738281 168.398438c.75-5.472657-3.074219-10.515626-8.546875-11.269532-5.46875-.746094-10.515625 3.078125-11.269531 8.546875-1.230469 8.964844-4.980469 36.242188 8.722656 62.730469 1.777344 3.4375 5.269531 5.40625 8.890625 5.40625 1.546875 0 3.117188-.359375 4.585938-1.121094 4.90625-2.535156 6.828125-8.570312 4.289062-13.476562-9.671875-18.691406-8.441406-37.953125-6.671875-50.816406zm0 0"/><path d="m338.585938 139.460938c.539062.359374 1.121093.671874 1.730468.921874.601563.25 1.230469.449219 1.871094.578126.640625.128906 1.300781.191406 1.949219.191406.648437 0 1.308593-.0625 1.949219-.191406.640624-.128907 1.269531-.328126 1.878906-.578126.601562-.25 1.183594-.5625 1.722656-.921874.550781-.359376 1.058594-.777344 1.519531-1.238282 1.859375-1.859375 2.929688-4.441406 2.929688-7.070312 0-.652344-.058594-1.3125-.191407-1.949219-.128906-.640625-.328124-1.273437-.578124-1.882813-.25-.597656-.550782-1.179687-.910157-1.71875-.371093-.550781-.789062-1.0625-1.25-1.519531-.460937-.460937-.96875-.882812-1.519531-1.25-.539062-.359375-1.121094-.660156-1.722656-.910156-.609375-.25-1.238282-.449219-1.878906-.582031-1.289063-.25-2.609376-.25-3.898438 0-.640625.132812-1.269531.332031-1.871094.582031-.609375.25-1.191406.550781-1.730468.910156-.550782.367188-1.058594.789063-1.519532 1.25-.460937.457031-.878906.96875-1.238281 1.519531-.363281.539063-.671875 1.121094-.921875 1.71875-.25.609376-.441406 1.242188-.570312 1.882813-.128907.636719-.199219 1.296875-.199219 1.949219 0 2.628906 1.070312 5.207031 2.929687 7.070312.460938.457032.96875.878906 1.519532 1.238282zm0 0"/></svg>