<svg viewBox="-1 0 511 511.99819" xmlns="http://www.w3.org/2000/svg"><path d="m102.78125 468.109375 73.308594-126.972656 13.707031-23.742188s.003906-.003906.003906-.007812l10.816407-18.734375c3.4375-5.945313 4.347656-12.875 2.570312-19.511719-1.414062-5.277344-4.402344-9.859375-8.554688-13.242187-.070312-.054688-.136718-.117188-.210937-.171876-.167969-.132812-.34375-.261718-.515625-.394531-.03125-.023437-.066406-.050781-.101562-.074219l19.976562-34.597656c0-.003906.003906-.003906.003906-.007812 5.410156-9.390625 2.308594-21.382813-6.871094-27.03125l43.714844-75.714844 22.710938 13.113281 35.074218 23.492188c3.046876 2.042969 6.636719 3.109375 10.261719 3.109375 1.386719 0 2.777344-.15625 4.144531-.472656 4.941407-1.148438 9.234376-4.332032 11.769532-8.722657l42.351562-73.355469s.003906-.003906.003906-.003906l14.929688-25.863281c2.539062-4.390625 3.144531-9.695313 1.667969-14.550781-1.472657-4.851563-4.929688-8.921875-9.484375-11.164063l-37.882813-18.628906-20.488281-11.828125c-5.21875-3.0117188-11.300781-3.8125-17.125-2.253906-5.820312 1.5625-10.6875 5.296875-13.699219 10.515625l-4.199219 7.265625v.003906l-12.699218 21.996094-39.660156 68.691406s0 .003906-.003907.007812l-48.703125 84.359376c-9.484375-5.121094-21.429687-1.804688-26.859375 7.585937l-19.960937 34.589844c-5.269532-2.253907-11.101563-2.6875-16.722656-1.183594-4.917969 1.316406-9.234376 3.996094-12.539063 7.71875-.011719.015625-.023437.027344-.039063.042969-.1875.214844-.371093.4375-.554687.65625-.101563.121094-.203125.242187-.304687.367187-.074219.09375-.144532.191407-.214844.285157-.707032.914062-1.367188 1.875-1.960938 2.902343l-10.816406 18.75c-.003906.003907-.007812.011719-.007812.015625l-92.152344 159.609375c-14.355469 24.859375-5.804688 56.765625 19.054687 71.117188 8.179688 4.722656 17.117188 6.964843 25.941407 6.964843 18.007812 0 35.542968-9.335937 45.175781-26.019531l5.136719-8.898437s.003906-.003906.003906-.003906c0-.003907 0-.003907.003906-.007813zm14.667969-80.023437c-8.679688-5.015626-11.667969-16.15625-6.652344-24.839844 3.363281-5.824219 9.488281-9.085938 15.777344-9.085938 3.082031 0 6.203125.78125 9.058593 2.433594l6.328126 3.652344-18.179688 31.492187zm10.316406-131.5c.378906-.652344.867187-1.210938 1.445313-1.65625.011718-.007813.019531-.019532.03125-.027344.273437-.207032.570312-.390625.878906-.546875.027344-.011719.050781-.027344.074218-.039063.3125-.152344.640626-.273437.980469-.371094.074219-.019531.152344-.035156.230469-.054687.144531-.03125.289062-.0625.433594-.085937.109375-.015626.214844-.027344.320312-.039063.109375-.007813.21875-.015625.328125-.019531.113281-.003906.222657-.011719.335938-.007813.132812.003907.265625.015625.394531.027344.15625.011719.3125.035156.464844.0625.121094.019531.246094.042969.367187.070313.09375.023437.1875.054687.28125.082031.128907.039062.257813.082031.386719.128906.078125.03125.15625.058594.234375.09375.195313.082031.386719.175781.574219.28125.007812.003906.019531.011719.027344.015625l5.941406 3.429688c.011718.007812.023437.015624.035156.023437l13.007812 7.507813 26.675782 15.402343c.644531.375 1.195312.859375 1.640625 1.429688.011719.019531.027343.035156.042969.050781.207031.269531.386718.566406.542968.875.011719.023438.027344.046875.039063.074219.152343.316406.277343.648437.375 1 .007812.023437.011719.046875.019531.074219.085938.339843.144531.683593.167969 1.027343.003906.042969.003906.089844.003906.136719.019531.324219.007813.644531-.027344.964844-.007812.050781-.019531.097656-.027343.148437-.046876.324219-.117188.640625-.222657.953125-.007812.03125-.023437.058594-.035156.089844-.113281.324219-.253906.640625-.429687.945312 0 .003907-.003907.011719-.007813.015626l-5.820313 10.082031-55.535156-32.058594zm236.859375-190.175782-7.667969-4.425781c-4.78125-2.761719-10.898437-1.121094-13.660156 3.660156s-1.121094 10.898438 3.660156 13.660157l7.667969 4.425781-16.28125 28.195312-7.664062-4.425781c-4.78125-2.761719-10.898438-1.121094-13.660157 3.660156s-1.121093 10.898438 3.660157 13.660156l7.664062 4.425782-10.21875 17.703125-26.160156-17.519531 26.742187-46.320313 26.742188-46.316406 28.253906 13.894531zm-50.882812-46.3125c.464843-.128906 1.183593-.183594 1.945312.253906l12.121094 7-26.421875 45.757813-26.417969 45.761719-14.339844-8.28125 34.46875-59.703125 17.082032-29.59375c.441406-.761719 1.09375-1.070313 1.5625-1.195313zm-133.652344 191.089844 16.371094 9.46875s0 .003906-.007813.011719l-19.871094 34.421875-16.386719-9.460938zm-119.242188 270.769531c-8.273437 2.214844-16.910156 1.078125-24.328125-3.203125s-12.722656-11.195312-14.9375-19.46875c-2.21875-8.269531-1.082031-16.910156 3.203125-24.328125l87.160156-150.96875 55.535157 32.0625-15.519531 26.875-6.328126-3.652343c-18.234374-10.527344-41.628906-4.257813-52.15625 13.976562-10.527343 18.230469-4.257812 41.628906 13.976563 52.15625l6.328125 3.652344-23.324219 40.398437-6.421875-3.707031c-4.78125-2.757812-10.898437-1.121094-13.660156 3.660156-2.761719 4.785156-1.121094 10.898438 3.660156 13.660156l6.421875 3.707032-.140625.242187c-4.28125 7.417969-11.195312 12.722657-19.46875 14.9375zm0 0"/><path d="m56.105469 431.964844c-.25-.609375-.5625-1.191406-.921875-1.730469-.367188-.550781-.777344-1.058594-1.25-1.519531-.457032-.460938-.96875-.878906-1.519532-1.238282-.539062-.359374-1.121093-.671874-1.71875-.921874-.601562-.25-1.230468-.4375-1.871093-.570313-1.289063-.257813-2.621094-.257813-3.910157 0-.640624.132813-1.269531.320313-1.871093.570313-.597657.25-1.1875.5625-1.726563.921874-.550781.359376-1.0625.777344-1.523437 1.238282-.457031.460937-.878907.96875-1.238281 1.519531-.359376.539063-.671876 1.121094-.921876 1.730469-.25.597656-.4375 1.230468-.566406 1.871094-.132812.636718-.203125 1.296874-.203125 1.949218 0 .648438.070313 1.308594.203125 1.960938.128906.628906.316406 1.257812.566406 1.867187.25.601563.5625 1.179688.921876 1.722657.359374.546874.78125 1.058593 1.238281 1.519531.460937.457031.972656.878906 1.523437 1.25.539063.359375 1.128906.660156 1.726563.910156.601562.257813 1.230469.449219 1.871093.578125.652344.128906 1.300782.191406 1.949219.191406.660157 0 1.3125-.0625 1.960938-.191406.640625-.128906 1.269531-.320312 1.871093-.578125.597657-.25 1.179688-.550781 1.71875-.910156.550782-.371094 1.0625-.792969 1.519532-1.25.460937-.460938.882812-.972657 1.25-1.519531.359375-.542969.671875-1.121094.921875-1.722657.25-.609375.4375-1.238281.570312-1.867187.128907-.652344.199219-1.3125.199219-1.960938 0-.652344-.070312-1.3125-.199219-1.949218-.132812-.640626-.320312-1.273438-.570312-1.871094zm0 0"/><path d="m496.035156 16.179688c-6.617187-3.949219-14.371094-5.082032-21.839844-3.199219-7.46875 1.886719-13.757812 6.566406-17.707031 13.183593l-111.589843 186.9375c-1.136719 1.90625-2.164063 3.859376-3.101563 5.851563-.003906.003906-.003906.007813-.007813.011719-2.546874 5.417968-4.355468 11.136718-5.378906 17.078125l-15.628906 90.78125-46.527344-27.773438c-4.328125-2.582031-9.398437-3.324219-14.285156-2.089843-4.882812 1.230468-8.996094 4.292968-11.578125 8.621093l-69.847656 117.011719c-5.332031 8.929688-2.402344 20.535156 6.527343 25.863281l48.175782 28.757813c-2.175782 11.746094 2.984375 24.148437 13.824218 30.617187 4.613282 2.753907 9.773438 4.167969 15.007813 4.167969 2.414063 0 4.84375-.300781 7.246094-.90625 7.609375-1.921875 14.015625-6.691406 18.039062-13.429688l74.289063-124.460937c7.613281-12.75 12.675781-26.648437 15.054687-41.304687l11.839844-72.945313c.707031-4.351563 2.003906-8.53125 3.871094-12.484375.027343-.054688.050781-.109375.074219-.164062.632812-1.320313 1.324218-2.617188 2.078124-3.882813l23.222657-38.898437c2.828125-4.746094 1.28125-10.882813-3.460938-13.714844-4.742187-2.828125-10.882812-1.28125-13.710937 3.460937l-20.988282 35.160157-15.242187-8.964844 109.269531-183.050782c2.5-4.1875 7.9375-5.558593 12.121094-3.0625 4.1875 2.5 5.558594 7.9375 3.0625 12.125l-52.394531 87.769532c-2.828125 4.742187-1.28125 10.882812 3.460937 13.710937 4.742188 2.828125 10.882813 1.28125 13.710938-3.460937l52.394531-87.769532c8.148437-13.65625 3.671875-31.394531-9.980469-39.546874zm-292.566406 403.675781 18.425781 10.59375c1.570313.902343 3.285157 1.332031 4.972657 1.332031 3.464843 0 6.832031-1.800781 8.679687-5.015625 2.75-4.789063 1.101563-10.902344-3.683594-13.652344l-18.144531-10.429687 12.484375-20.914063 19.191406 11.449219c1.605469.960938 3.371094 1.414062 5.113281 1.414062 3.40625 0 6.726563-1.738281 8.597657-4.875 2.828125-4.746093 1.277343-10.882812-3.464844-13.710937l-19.1875-11.449219 12.636719-21.175781 19.503906 11.636719c1.609375.960937 3.371094 1.414062 5.117188 1.414062 3.40625 0 6.726562-1.738281 8.59375-4.875 2.832031-4.746094 1.28125-10.882812-3.460938-13.710937l-19.5-11.636719 5.632812-9.4375 45.636719 27.242188-68.679687 115.058593-45.636719-27.242187zm153.496094-91.160157c-1.972656 12.160157-6.171875 23.683594-12.484375 34.261719l-74.292969 124.457031c-1.285156 2.152344-3.332031 3.675782-5.761719 4.289063-2.433593.613281-4.957031.242187-7.105469-1.039063-4.3125-2.574218-5.800781-8.085937-3.460937-12.46875.050781-.078124.105469-.144531.15625-.226562l78.933594-132.230469c.140625-.238281.265625-.484375.386719-.730469l5.519531-9.246093c.628906-1.058594 1.058593-2.21875 1.269531-3.429688l15.996094-92.894531c.082031-.492188.183594-.976562.285156-1.464844l14.566406 8.570313c-.9375 3-1.660156 6.074219-2.167968 9.207031zm0 0"/><path d="m437.621094 163.902344c-.25-.601563-.558594-1.179688-.917969-1.71875-.363281-.550782-.78125-1.0625-1.242187-1.519532-.460938-.460937-.980469-.882812-1.519532-1.242187-.539062-.359375-1.128906-.667969-1.730468-.917969-.597657-.25-1.230469-.441406-1.871094-.570312-1.289063-.261719-2.617188-.261719-3.910156 0-.628907.128906-1.257813.320312-1.867188.570312-.601562.25-1.179688.558594-1.722656.917969-.546875.359375-1.058594.78125-1.519532 1.242187-.46875.460938-.878906.96875-1.25 1.519532-.359374.539062-.667968 1.117187-.917968 1.71875-.25.609375-.441406 1.238281-.570313 1.878906-.128906.640625-.191406 1.300781-.191406 1.949219 0 .652343.0625 1.3125.191406 1.953125.128907.636718.320313 1.269531.570313 1.878906.25.601562.558594 1.179688.917968 1.71875.371094.550781.78125 1.0625 1.25 1.519531.460938.460938.972657.882813 1.519532 1.25.542968.363281 1.121094.671875 1.722656.921875.609375.25 1.238281.441406 1.867188.570313.652343.128906 1.3125.1875 1.960937.1875.652344 0 1.3125-.058594 1.949219-.1875.640625-.128907 1.273437-.320313 1.871094-.570313.601562-.25 1.179687-.558594 1.730468-.921875.539063-.367187 1.058594-.789062 1.519532-1.25.460937-.457031.878906-.96875 1.242187-1.519531.359375-.539062.667969-1.117188.917969-1.71875.25-.609375.441406-1.242188.570312-1.878906.128906-.640625.199219-1.300782.199219-1.953125 0-.648438-.070313-1.308594-.199219-1.949219s-.320312-1.269531-.570312-1.878906zm0 0"/></svg>