<svg viewBox="0 -97 511.99944 511" xmlns="http://www.w3.org/2000/svg"><path d="m509.402344 139.316406c-4.210938-22.933594-13.257813-40.949218-25.476563-50.726562-21.945312-17.570313-41.3125-11.136719-58.398437-5.46875-9.046875 3-18.398438 6.105468-28.867188 6.320312-10.46875-.214844-19.820312-3.320312-28.867187-6.320312-17.089844-5.671875-36.457031-12.097656-58.402344 5.46875-8.6875 6.957031-15.761719 18.09375-20.644531 32.191406-4.878906-14.09375-11.953125-25.234375-20.648438-32.195312-21.941406-17.558594-41.308594-11.136719-58.394531-5.46875-2.5625.851562-5.171875 1.710937-7.820313 2.515624-8.878906-11.328124-27.75-17.90625-34.109374-19.867187-20.148438-6.203125-41-6.964844-57.203126-2.078125-42.78125 12.894531-57.050781 60.683594-56.203124 89.652344.292968 10.363281 4.542968 19.996094 11.390624 26.378906 2.578126 47.59375 22.335938 95.996094 53.359376 130.320312 5.066406 5.605469 12.546874 8.207032 20.011718 6.945313 7.503906-1.261719 13.753906-6.195313 16.722656-13.1875 4.292969-10.109375 7.761719-19.3125 10.304688-27.363281 2.023438-6.417969 7.921875-10.730469 14.671875-10.730469 3.300781 0 6.449219 1.027344 9.09375 2.960937 2.671875 1.960938 4.605469 4.648438 5.59375 7.773438 2.5625 8.113281 6.027344 17.320312 10.289063 27.355469 2.96875 6.996093 9.222656 11.929687 16.722656 13.191406 1.242187.210937 2.480468.3125 3.710937.3125 6.175781 0 12.078125-2.582031 16.300781-7.253906 20.472657-22.648438 36.101563-51.292969 45.199219-82.84375.351563-1.21875.675781-2.445313 1.007813-3.667969.328125 1.222656.652344 2.449219 1.003906 3.667969 9.097656 31.550781 24.730469 60.195312 45.199219 82.839843 4.222656 4.675782 10.128906 7.257813 16.300781 7.257813 1.230469 0 2.46875-.105469 3.707031-.3125 7.5-1.261719 13.753907-6.191406 16.726563-13.191406 4.273437-10.0625 7.738281-19.261719 10.292968-27.351563 2.03125-6.421875 7.929688-10.738281 14.683594-10.738281 6.75 0 12.648438 4.316406 14.679688 10.738281 2.558594 8.089844 6.019531 17.289063 10.292968 27.355469 2.976563 6.996094 9.230469 11.925781 16.730469 13.1875 7.460938 1.253906 14.9375-1.339844 20.003907-6.945313 20.472656-22.644531 36.101562-51.289062 45.199218-82.839843 8.660156-30.019531 10.730469-61.226563 5.835938-87.882813zm-393.058594-56.480468c5.15625-1.554688 11.152344-2.320313 17.570312-2.320313 8.789063 0 18.371094 1.441406 27.683594 4.277344 13.5625 4.132812 20.972656 9.355469 23.820313 12.328125-.179688.074218-.371094.144531-.566407.207031-.039062.011719-.082031.023437-.125.035156-.140624.042969-.285156.082031-.429687.113281-.074219.019532-.152344.035157-.226563.046876-.121093.023437-.238281.039062-.355468.054687-.082032.007813-.160156.019531-.242188.023437-.1875.015626-.378906.019532-.558594.003907-1.957031-.152344-4.214843-.679688-6.609374-1.238281-3.457032-.808594-7.496094-1.75-11.867188-1.773438-1.984375-.007812-4.039062.171875-6.140625.640625-10.054687 2.246094-16.261719 9.808594-21.253906 15.882813-3.421875 4.167968-6.660157 8.105468-9.976563 9.132812-2.003906.621094-5.011718.5625-8.1875.503906-6.636718-.117187-15.726562-.289062-22.714844 6.582032-8.234374 8.117187-6.75 18.808593-5.667968 26.613281.496094 3.582031 1.003906 7.265625.5 9.691406-.074219.347656-.167969.667969-.285156.960937-.507813 1.265626-1.941407 1.964844-2.753907 2.269532-2.09375.785156-4.589843.707031-6.386719-.214844-.222656-.113281-.453124-.246094-.699218-.398438-3.734375-2.355468-6.347656-7.773437-6.511719-13.492187-.640625-21.953125 10.191406-60.347656 41.984375-69.929687zm111.359375 213.792968c-.492187.542969-1.113281.757813-1.855469.632813-.53125-.089844-1.25-.386719-1.632812-1.289063-4.015625-9.453125-7.257813-18.054687-9.628906-25.566406-2.277344-7.199219-6.714844-13.378906-12.839844-17.875-5.246094-3.839844-11.332032-6.113281-17.746094-6.679688 3.007812-2.15625 6.46875-3.535156 10.398438-3.535156 5.523437 0 10-4.480468 10-10 0-5.523437-4.476563-10-10-10-30.855469 0-43.117188 35.820313-45.265626 42.996094-.800781 1.625-1.492187 3.324219-2.050781 5.097656-2.351562 7.441406-5.59375 16.042969-9.640625 25.566406-.378906.898438-1.097656 1.195313-1.632812 1.285157-.738282.125-1.359375-.089844-1.851563-.632813-26.15625-28.9375-43.449219-69.007812-47.550781-109.269531.210938-.011719.421875-.039063.632812-.054687.304688-.023438.609376-.050782.914063-.082032.503906-.050781 1.003906-.121094 1.503906-.199218.292969-.046876.589844-.089844.882813-.144532.539062-.101562 1.074218-.230468 1.605468-.363281.246094-.0625.492188-.109375.734376-.179687.773437-.214844 1.539062-.457032 2.289062-.738282 6.734375-2.519531 11.816406-7.335937 14.304688-13.546875 1.277343-3.171875 1.796874-6.398437 1.902343-9.535156.140625-4.03125-.394531-7.90625-.867187-11.316406-.28125-2.027344-.621094-4.480469-.675782-6.429688-.003906-.214843-.007812-.425781-.003906-.628906.003906-.402344.023438-.777344.0625-1.113281.078125-.671875.238282-1.179688.507813-1.441406.988281-.972657 5.050781-.898438 8.308593-.835938 4.40625.082031 9.390626.175781 14.464844-1.394531 9.058594-2.800781 14.621094-9.574219 19.53125-15.546875 3.507813-4.277344 6.824219-8.3125 10.160156-9.058594 2.257813-.503906 5.425782.234375 9.09375 1.089844 2.882813.675781 6.144532 1.4375 9.640626 1.703125 7.046874.535156 14.515624-2.15625 19.492187-7.023438.441406-.429687.847656-.878906 1.238281-1.332031.121094-.140625.230469-.28125.34375-.421875.269532-.335937.527344-.671875.773438-1.015625.109375-.15625.21875-.308594.324218-.464844.257813-.386718.496094-.777344.71875-1.175781.058594-.105469.128907-.210937.183594-.316406.019532-.03125.039063-.058594.054688-.089844 4.003906-1.125 7.785156-2.378906 11.476562-3.605469 16.300782-5.40625 26.140625-8.671875 39.597656 2.097656 8.222657 6.585938 15.058594 21.0625 18.296876 38.734376 9.222656 50.203124-9.773438 113.402343-46.195313 153.699218zm215.832031-.003906c-.492187.546875-1.117187.761719-1.855468.632812-.535157-.089843-1.253907-.386718-1.636719-1.285156-4.023438-9.476562-7.265625-18.078125-9.628907-25.5625-4.671874-14.78125-18.238281-24.710937-33.753906-24.710937s-29.082031 9.929687-33.753906 24.710937c-2.363281 7.484375-5.605469 16.085938-9.628906 25.5625-.382813.898438-1.105469 1.195313-1.640625 1.285156-.734375.128907-1.359375-.085937-1.851563-.632812-36.417968-40.289062-55.417968-103.488281-46.199218-153.695312 3.246093-17.675782 10.089843-32.148438 18.304687-38.726563 6.492187-5.195313 12.140625-7.125 18.078125-7.125 6.375 0 13.085938 2.226563 21.523438 5.027344 10.03125 3.328125 21.398437 7.101562 34.992187 7.335937.117187.003906.230469.003906.351563 0 13.59375-.234375 24.960937-4.007812 34.988281-7.335937 16.304687-5.410157 26.140625-8.675781 39.605469 2.101562 8.214843 6.574219 15.054687 21.050781 18.300781 38.722657 9.21875 50.203124-9.777344 113.40625-46.195313 153.695312zm0 0"/><path d="m63.664062 60.824219c1.90625 2.984375 5.132813 4.609375 8.429688 4.609375 1.847656 0 3.714844-.507813 5.382812-1.578125 4.652344-2.976563 6.007813-9.164063 3.03125-13.8125l-19.632812-30.667969c-2.980469-4.65625-9.164062-6.011719-13.816406-3.03125s-6.007813 9.164062-3.03125 13.816406zm0 0"/><path d="m43.152344 89.921875-33.816406 2.253906c-5.511719.367188-9.679688 5.128907-9.3125005 10.640625.3515625 5.285156 4.7460935 9.335938 9.9687505 9.335938.222656 0 .449218-.007813.675781-.023438l33.816406-2.253906c5.511719-.367188 9.679687-5.128906 9.3125-10.640625s-5.125-9.695313-10.644531-9.3125zm0 0"/><path d="m124.53125 48.75c.328125.03125.652344.046875.976562.046875 5.089844 0 9.441407-3.867187 9.941407-9.039063l2.742187-28.292968c.53125-5.496094-3.492187-10.382813-8.992187-10.917969-5.503907-.5351562-10.382813 3.492187-10.917969 8.992187l-2.738281 28.292969c-.535157 5.496094 3.492187 10.386719 8.988281 10.917969zm0 0"/><path d="m192.445312 138.378906c-.003906 0-.003906 0 0 0-1.886718 1.503906-3.398437 3.152344-4.730468 4.601563-.613282.667969-1.457032 1.585937-2.070313 2.148437-.136719-.03125-.273437-.0625-.394531-.09375-1.195312-.28125-2.828125-.667968-4.722656-.773437-11.089844-.617188-18.933594 8.3125-21.796875 17.402343-3.21875 10.222657-1.761719 21.59375 3.90625 30.429688 1.824219 2.839844 4.488281 5.351562 8.148437 7.679688 6.855469 4.355468 14.585938 6.507812 22.269532 6.507812 9.265624 0 18.464843-3.128906 25.972656-9.289062l.234375-.191407c8.453125-7.011719 14.082031-15.53125 16.285156-24.632812 2.824219-11.695313-.378906-23.738281-8.355469-31.425781-9.582031-9.234376-24.84375-10.273438-34.746094-2.363282zm23.65625 29.09375c-1.488281 6.160156-6.046874 10.980469-9.597656 13.921875l-.164062.136719c-7.042969 5.777344-17.019532 6.324219-24.824219 1.363281-1.566406-.996093-2.046875-1.609375-2.050781-1.609375v.003906c-2.460938-3.839843-3.097656-9.054687-1.660156-13.617187.535156-1.695313 1.46875-2.902344 2.015624-3.363281.257813.054687.566407.128906.820313.1875 1.613281.382812 3.828125.902344 6.488281.773437 7.609375-.371093 12.246094-5.421875 15.316406-8.761719.925782-1.007812 1.800782-1.960937 2.480469-2.503906 1.988281-1.585937 6.140625-1.023437 8.386719 1.140625 2.796875 2.699219 3.921875 7.652344 2.789062 12.328125zm0 0"/><path d="m347.542969 161.730469c.753906-5.472657-3.074219-10.515625-8.542969-11.269531-5.480469-.753907-10.519531 3.074218-11.269531 8.542968-1.234375 8.964844-4.984375 36.246094 8.71875 62.730469 1.78125 3.4375 5.273437 5.40625 8.890625 5.40625 1.546875 0 3.117187-.359375 4.589844-1.121094 4.90625-2.535156 6.824218-8.570312 4.285156-13.476562-9.671875-18.691407-8.441406-37.953125-6.671875-50.8125zm0 0"/><path d="m333.707031 128.304688c.25.601562.558594 1.183593.917969 1.730468.371094.542969.789062 1.050782 1.25 1.511719.460938.46875.972656.878906 1.523438 1.25.539062.359375 1.117187.667969 1.71875.917969.609374.25 1.238281.441406 1.871093.570312.648438.132813 1.296875.191406 1.957031.191406.652344 0 1.300782-.0625 1.953126-.191406.636718-.128906 1.269531-.320312 1.867187-.570312.601563-.25 1.179687-.558594 1.730469-.917969.539062-.371094 1.0625-.78125 1.523437-1.25.457031-.460937.878907-.96875 1.238281-1.511719.359376-.546875.667969-1.128906.917969-1.730468.25-.597657.441407-1.230469.570313-1.867188.128906-.652344.199218-1.300781.199218-1.949219 0-.660156-.070312-1.3125-.199218-1.960937-.128906-.640625-.320313-1.273438-.570313-1.871094-.25-.601562-.558593-1.191406-.917969-1.730469-.359374-.550781-.78125-1.058593-1.238281-1.519531-.460937-.460938-.980469-.878906-1.523437-1.242188-.550782-.359374-1.128906-.667968-1.730469-.917968s-1.230469-.441406-1.867187-.570313c-1.292969-.261719-2.621094-.261719-3.910157 0-.632812.128907-1.261719.320313-1.871093.570313-.601563.25-1.179688.558594-1.71875.917968-.550782.363282-1.0625.78125-1.523438 1.242188s-.878906.96875-1.25 1.519531c-.359375.539063-.667969 1.128907-.917969 1.730469s-.441406 1.230469-.570312 1.871094c-.128907.648437-.191407 1.300781-.191407 1.960937 0 .648438.0625 1.296875.191407 1.949219.128906.636719.320312 1.269531.570312 1.867188zm0 0"/></svg>