<svg viewBox="-23 0 512 512.00003" xmlns="http://www.w3.org/2000/svg"><path d="m75.074219 166.21875h306.449219c14.832031 0 26.898437-12.066406 26.898437-26.898438v-93.136718c0-9.417969-5.3125-17.71875-13.855469-21.671875-8.546875-3.945313-18.3125-2.609375-25.484375 3.488281l-75.039062 63.847656-42.277344-78.039062c-.027344-.050782-.054687-.101563-.085937-.148438-4.824219-8.554687-13.566407-13.660156-23.378907-13.660156 0 0 0 0-.003906 0-9.8125 0-18.554687 5.105469-23.382813 13.65625-.027343.050781-.054687.101562-.082031.152344l-42.285156 78.035156-75.035156-63.84375c-7.175781-6.105469-16.941407-7.4375-25.484375-3.488281-8.546875 3.949219-13.855469 12.253906-13.855469 21.667969v61.765624c0 .03125-.007813.0625-.007813.097657v31.277343c0 14.832032 12.074219 26.898438 26.910157 26.898438zm306.449219-19.996094h-306.449219c-3.8125 0-6.910157-3.097656-6.910157-6.902344v-21.277343h97.988282.023437 28.121094c.03125.101562.066406.207031.101563.308593.050781.179688.109374.355469.167968.535157.109375.34375.226563.683593.34375 1.019531.0625.175781.125.351562.191406.527344.136719.359375.277344.714844.425782 1.070312.054687.140625.109375.28125.167968.417969.210938.492187.429688.980469.660157 1.460937.015625.035157.035156.066407.054687.101563.214844.441406.4375.878906.667969 1.308594.078125.144531.160156.285156.238281.429687.179688.320313.363282.640625.554688.957032.09375.160156.1875.316406.285156.472656.1875.304687.382812.605468.582031.902344.097657.148437.191407.292968.292969.4375.234375.347656.476562.683593.722656 1.019531.0625.085937.125.179687.191406.265625.316407.421875.644532.835937.976563 1.246094.074219.089843.152344.175781.226563.265624.265624.3125.53125.621094.804687.925782.117187.132812.234375.257812.355469.386718.242187.261719.488281.519532.738281.773438.128906.132812.257813.261719.386719.390625.261718.257813.527344.511719.796875.757813.117187.113281.234375.222656.355469.332031.371093.332031.746093.660156 1.128906.976562.019531.019531.039062.035157.058594.054688.40625.332031.824218.660156 1.246093.976562.121094.089844.242188.179688.367188.269531.300781.222657.605469.441407.917969.652344.152343.105469.304687.207032.457031.308594.296875.195312.59375.386719.894531.574219.15625.09375.308594.191406.464844.285156.332031.199219.667968.390625 1.003906.578125.125.070312.25.144531.375.210938.464844.25.9375.496093 1.414062.726562.074219.035156.148438.066406.222657.101562.40625.191407.8125.378907 1.226562.554688.160157.070312.324219.136719.484375.199219.335938.140625.671875.273437 1.007813.402343.183593.066407.363281.132813.542969.199219.339843.117188.679687.234375 1.023437.34375.171875.054688.34375.113281.519531.167969.410156.125.824219.242188 1.242188.351562.105468.03125.207031.0625.3125.085938.519531.136719 1.046875.257812 1.578125.367188.140625.03125.28125.050781.421875.082031.394531.074219.789062.148437 1.1875.210937.191406.03125.382812.058594.574218.085938.359376.050781.71875.097656 1.082032.136718.199218.023438.398437.042969.597656.0625.378906.035157.757812.0625 1.140625.085938.179687.011719.355469.027344.53125.035156.558594.027344 1.117187.042969 1.679687.042969s1.125-.015625 1.679688-.042969c.179688-.007812.355469-.023437.53125-.03125.382812-.023437.761719-.050781 1.140625-.089844.203125-.015624.402344-.039062.601563-.0625.359374-.039062.722656-.085937 1.078124-.136718.191407-.027344.386719-.054688.574219-.085938.402344-.0625.796875-.132812 1.191407-.210937.140624-.027344.28125-.050781.421874-.082031.53125-.109376 1.058594-.230469 1.582032-.363282.101562-.027344.207031-.058594.308594-.085937.417968-.113281.832031-.230469 1.246093-.355469.171875-.050781.34375-.109375.519531-.167969.34375-.109375.683594-.222656 1.019532-.34375.183594-.066406.363281-.132812.542968-.199219.339844-.128906.675782-.261718 1.007813-.398437.164063-.066406.328125-.132813.488281-.203125.414063-.175781.824219-.359375 1.226563-.554688.074219-.035156.148437-.066406.222656-.101562.476563-.230469.945313-.472656 1.414063-.726562.125-.066407.25-.140626.378906-.210938.335937-.1875.667968-.378906 1-.578125.15625-.09375.3125-.1875.46875-.285156.296875-.1875.59375-.378907.886718-.570313.15625-.105468.3125-.207031.464844-.3125.308594-.210937.613282-.429687.914063-.648437.121093-.09375.25-.179688.371093-.273438.421876-.316406.835938-.640625 1.242188-.976562.027344-.019531.050781-.042969.078125-.066407.378906-.3125.746094-.632812 1.109375-.960937.125-.109375.242188-.226563.367188-.335937.265624-.246094.527343-.496094.785156-.75.132812-.132813.265625-.265626.394531-.398438.246094-.25.488281-.507812.726563-.765625.125-.128906.246093-.261719.367187-.394531.269531-.296875.53125-.601563.789063-.910156.078124-.097657.160156-.1875.242187-.285157.332031-.402343.65625-.816406.96875-1.234375.074219-.097656.140625-.195312.214844-.292968.238281-.328126.472656-.65625.703125-.988282.101562-.152344.203125-.304687.300781-.457031.195313-.292969.382813-.585937.570313-.882813.097656-.164062.199218-.328124.296874-.492187.183594-.304687.363282-.617187.535157-.929687.085937-.152344.171875-.300782.253906-.457032.222656-.40625.433594-.820312.636719-1.238281.027344-.058594.058594-.113281.085937-.171875.230469-.476562.445313-.957031.652344-1.441406.066406-.152344.128906-.308594.191406-.460938.136719-.339844.273438-.679687.402344-1.023437.070313-.1875.136719-.375.203125-.5625.117188-.324219.226562-.648438.332031-.976563.0625-.1875.125-.382812.179688-.574218.03125-.097657.066406-.195313.09375-.292969h28.117187c.007813 0 .019532.003906.027344.003906h97.980469v21.277344c.003906 3.800781-3.089844 6.898437-6.894531 6.898437zm-168.660157-38.179687c0-8.511719 6.921875-15.433594 15.429688-15.433594 8.515625 0 15.441406 6.921875 15.441406 15.433594s-6.929687 15.4375-15.441406 15.4375c-8.507813 0-15.429688-6.925781-15.429688-15.4375zm169.175781-64.8125c1.640626-1.394531 3.296876-.953125 4.136719-.5625.839844.386719 2.246094 1.359375 2.246094 3.511719v51.863281h-70.796875zm-159.671874-19.800781c1.777343-3.09375 4.734374-3.429688 5.929687-3.429688h.003906c1.191407 0 4.148438.335938 5.929688 3.425781l40.421875 74.617188h-12.355469c-.03125-.109375-.066406-.210938-.097656-.316407-.054688-.171874-.109375-.34375-.164063-.515624-.113281-.347657-.230468-.695313-.351562-1.039063-.0625-.171875-.125-.34375-.1875-.511719-.136719-.367187-.28125-.730468-.429688-1.089844-.054687-.132812-.109375-.269531-.164062-.402343-.210938-.496094-.429688-.980469-.664063-1.460938-.015625-.03125-.03125-.0625-.046875-.09375-.214844-.445312-.441406-.886719-.675781-1.320312-.078125-.144531-.160156-.285157-.238281-.425781-.179688-.324219-.363282-.644532-.554688-.960938-.09375-.15625-.1875-.3125-.285156-.46875-.191406-.304688-.382812-.605469-.582031-.90625-.097657-.144531-.191407-.292969-.289063-.4375-.234375-.339844-.476562-.675781-.71875-1.007812-.070312-.09375-.132812-.1875-.199218-.277344-.320313-.417969-.644532-.832032-.976563-1.242188-.078125-.089844-.15625-.175781-.230469-.265625-.261718-.3125-.527344-.621093-.800781-.925781-.117187-.128906-.238281-.257812-.359375-.390625-.242188-.257813-.484375-.515625-.734375-.769531-.128906-.132813-.261719-.261719-.390625-.390625-.261719-.257813-.523438-.507813-.792969-.757813-.121093-.109375-.238281-.222656-.359375-.332031-.363281-.328125-.734375-.648437-1.109375-.960937-.027343-.023438-.050781-.046876-.078125-.070313-.40625-.332031-.824218-.65625-1.242187-.976563-.125-.089843-.25-.179687-.371094-.269531-.300781-.21875-.605469-.4375-.914063-.652343-.15625-.101563-.308593-.207032-.464843-.308594-.292969-.195313-.585938-.382813-.886719-.570313-.15625-.097656-.3125-.195312-.472656-.289062-.328125-.199219-.660156-.386719-.996094-.574219-.125-.070312-.253906-.144531-.382812-.214844-.464844-.25-.933594-.496094-1.410157-.726562-.074219-.03125-.144531-.0625-.214843-.097656-.40625-.191407-.816407-.378907-1.234376-.558594-.160156-.070313-.324218-.132813-.488281-.203125-.332031-.136719-.667969-.269531-1.007812-.394531-.179688-.070313-.359375-.136719-.539063-.199219-.339844-.121094-.679687-.234375-1.019531-.347657-.175781-.054687-.351563-.113281-.523437-.164062-.410157-.128906-.824219-.242188-1.242188-.355469-.105469-.027343-.207031-.058593-.3125-.085937-.523438-.132813-1.050781-.253906-1.578125-.367188-.140625-.027344-.285156-.050781-.425781-.078125-.394532-.078125-.789063-.148437-1.1875-.214843-.191406-.027344-.382813-.054688-.574219-.082032-.359375-.050781-.722656-.097656-1.082031-.136718-.199219-.023438-.398438-.046876-.597656-.066407-.378907-.035156-.761719-.0625-1.144532-.085937-.175781-.011719-.351562-.023438-.527344-.03125-.554687-.027344-1.117187-.042969-1.679687-.042969-.566406 0-1.125.015625-1.679687.042969-.175782.007812-.351563.019531-.527344.03125-.382813.023437-.765625.054687-1.144532.085937-.199218.019531-.398437.042969-.597656.066407-.363281.039062-.722656.085937-1.082031.136718-.191406.027344-.382813.054688-.574219.082032-.394531.066406-.792968.136718-1.1875.214843-.140625.027344-.28125.050781-.421875.078125-.53125.113282-1.058593.234375-1.578125.367188-.109375.027344-.210937.058594-.316406.085937-.417969.113281-.828125.226563-1.238281.355469-.175781.050781-.351563.109375-.523438.167969-.34375.109375-.683593.222656-1.019531.34375-.183594.0625-.363281.128906-.542969.199219-.339843.125-.671875.257812-1.007812.394531-.160157.070312-.324219.132812-.488281.203125-.414063.179687-.824219.363281-1.226563.558594-.074219.03125-.148437.0625-.21875.097656-.476563.230468-.949219.476562-1.414063.726562-.128906.070313-.253906.144532-.382812.214844-.335938.1875-.667969.375-.996094.574219-.15625.09375-.3125.191406-.472656.289062-.296875.1875-.59375.375-.882812.570313-.15625.101562-.3125.203125-.464844.308594-.308594.214843-.613282.433593-.914063.652343-.125.089844-.25.179688-.371093.269531-.421876.316407-.835938.644532-1.242188.976563-.027344.023437-.050781.046875-.078125.070313-.375.3125-.746094.632812-1.109375.957031-.121094.113281-.242188.226562-.363281.339843-.265625.246094-.527344.496094-.785157.75-.136718.132813-.265624.261719-.394531.394532-.25.253906-.492187.507812-.734375.769531-.117187.128906-.242187.257813-.359375.390625-.269531.300781-.535156.609375-.796875.917969-.078125.09375-.15625.183593-.234375.273437-.332031.40625-.660156.820313-.972656 1.242188-.070313.089844-.136719.1875-.207031.28125-.242188.332031-.480469.664062-.710938 1-.101562.148437-.199218.296875-.296875.449218-.195312.292969-.386719.589844-.574219.890626-.097656.160156-.195312.320312-.292968.480468-.1875.3125-.367188.628906-.542969.945313-.082031.144531-.167969.292969-.246094.441406-.230469.421875-.449219.847656-.660156 1.28125-.019531.042969-.042969.085937-.0625.128906-.230469.480469-.449219.964844-.660156 1.453125-.058594.140625-.117188.289063-.175781.433594-.144532.347656-.285157.699219-.417969 1.054688-.066407.179687-.128907.355468-.191407.535156-.121093.335937-.234374.671875-.34375 1.007812-.058593.183594-.117187.363282-.171874.546875-.03125.101563-.066407.199219-.097657.304688h-12.363281zm-151.949219 19.238281c.839843-.390625 2.492187-.832031 4.132812.5625l64.417969 54.8125h-70.800781v-51.863281c0-2.152344 1.410156-3.125 2.25-3.511719zm0 0"/><path d="m22.910156 160.554688c-3.792968-4.011719-10.125-4.1875-14.136718-.390626-4.011719 3.792969-4.1875 10.125-.390626 14.136719l40.28125 42.578125c1.964844 2.078125 4.613282 3.125 7.265626 3.125 2.464843 0 4.9375-.90625 6.871093-2.734375 4.011719-3.796875 4.1875-10.125.390625-14.136719zm0 0"/><path d="m46.246094 267.242188-42.566406 34.734374c-4.28125 3.492188-4.917969 9.792969-1.425782 14.070313 1.976563 2.421875 4.851563 3.679687 7.753906 3.679687 2.222657 0 4.457032-.738281 6.3125-2.253906l42.566407-34.734375c4.28125-3.492187 4.917969-9.789062 1.429687-14.070312-3.492187-4.277344-9.792968-4.917969-14.070312-1.425781zm0 0"/><path d="m46.953125 251.378906c5.523437 0 10-4.480468 10-10 0-5.523437-4.476563-10-10-10h-28.183594c-5.523437 0-10 4.476563-10 10 0 5.519532 4.476563 10 10 10zm0 0"/><path d="m417.742188 216.878906 40.28125-42.578125c3.796874-4.011719 3.621093-10.34375-.394532-14.136719-4.007812-3.796874-10.339844-3.621093-14.136718.390626l-40.28125 42.578124c-3.792969 4.011719-3.617188 10.339844.394531 14.136719 1.933593 1.828125 4.402343 2.734375 6.871093 2.734375 2.652344 0 5.300782-1.046875 7.265626-3.125zm0 0"/><path d="m462.730469 301.976562-42.566407-34.734374c-4.28125-3.492188-10.582031-2.851563-14.070312 1.425781-3.492188 4.28125-2.855469 10.578125 1.425781 14.070312l42.566407 34.734375c1.855468 1.515625 4.09375 2.253906 6.316406 2.253906 2.898437 0 5.777344-1.257812 7.753906-3.679687 3.488281-4.277344 2.851562-10.578125-1.425781-14.070313zm0 0"/><path d="m419.453125 231.378906c-5.523437 0-10 4.476563-10 10 0 5.519532 4.476563 10 10 10h28.183594c5.523437 0 10-4.480468 10-10 0-5.523437-4.476563-10-10-10zm0 0"/><path d="m357.195312 187.703125c-29.972656-23.992187-55.71875-15.445313-80.613281-7.1875-13.492187 4.480469-27.441406 9.109375-43.378906 9.417969-15.9375-.308594-29.886719-4.9375-43.378906-9.417969-24.894531-8.261719-50.640625-16.804687-80.613281 7.1875-16.902344 13.527344-29.472657 38.742187-35.394532 71-6.988281 38.058594-4.015625 82.679687 8.375 125.640625 13.03125 45.191406 35.402344 86.203125 64.691406 118.605469 6.320313 6.988281 15.644532 10.230469 24.960938 8.664062 9.367188-1.578125 17.175781-7.734375 20.890625-16.472656 6.152344-14.484375 11.136719-27.722656 14.8125-39.347656 3.546875-11.226563 13.859375-18.769531 25.65625-18.769531 11.800781 0 22.109375 7.542968 25.660156 18.769531 3.671875 11.625 8.65625 24.863281 14.8125 39.347656 3.710938 8.738281 11.519531 14.894531 20.886719 16.472656 1.546875.257813 3.09375.386719 4.625.386719 7.699219 0 15.066406-3.222656 20.335938-9.050781 29.289062-32.402344 51.660156-73.414063 64.695312-118.605469 12.390625-42.960938 15.363281-87.582031 8.375-125.640625-5.925781-32.257813-18.496094-57.472656-35.398438-71zm-52.507812 301.835937c-2.476562 2.738282-5.585938 2.554688-6.808594 2.351563-1.25-.210937-4.3125-1.078125-5.796875-4.570313-5.90625-13.898437-10.667969-26.535156-14.148437-37.554687-6.191406-19.585937-24.167969-32.742187-44.730469-32.742187s-38.539063 13.15625-44.730469 32.742187c-3.480468 11.019531-8.242187 23.65625-14.144531 37.554687-1.484375 3.492188-4.550781 4.359376-5.800781 4.570313-1.21875.203125-4.332032.386719-6.808594-2.351563-53.8125-59.527343-81.871094-152.964843-68.234375-227.222656 4.984375-27.125 15.269531-48.628906 28.226563-59 21.488281-17.199218 38.402343-11.585937 61.816406-3.816406 14.265625 4.734375 30.4375 10.101562 49.5 10.433594.117187.003906.234375.003906.351562 0 19.0625-.332032 35.234375-5.695313 49.5-10.433594 23.410156-7.769531 40.328125-13.382812 61.816406 3.816406 12.957032 10.371094 23.242188 31.875 28.226563 58.996094 13.636719 74.261719-14.421875 167.699219-68.234375 227.226562zm0 0"/><path d="m152.972656 219.832031c-4.511718-3.1875-10.753906-2.109375-13.9375 2.402344-1.023437 1.449219-24.996094 36.0625-20.769531 86.355469.441406 5.21875 4.8125 9.164062 9.957031 9.164062.277344 0 .5625-.011718.847656-.035156 5.503907-.464844 9.589844-5.300781 9.125-10.804688-3.589843-42.71875 16.949219-72.816406 17.195313-73.175781 3.164063-4.507812 2.085937-10.730469-2.417969-13.90625zm0 0"/><path d="m140.933594 340.179688c-.25-.609376-.558594-1.1875-.917969-1.730469-.359375-.550781-.78125-1.058594-1.242187-1.519531-.460938-.460938-.96875-.878907-1.519532-1.242188-.539062-.367188-1.121094-.667969-1.730468-.917969-.597657-.25-1.226563-.449219-1.867188-.582031-1.292969-.25-2.609375-.25-3.902344 0-.640625.132812-1.269531.332031-1.867187.582031-.613281.25-1.191407.550781-1.730469.917969-.550781.363281-1.0625.78125-1.519531 1.242188-.460938.460937-.882813.96875-1.25 1.519531-.363281.542969-.671875 1.121093-.921875 1.730469-.25.601562-.441406 1.230468-.570313 1.871093-.128906.636719-.1875 1.296875-.1875 1.949219 0 .648438.058594 1.308594.1875 1.949219.128907.640625.320313 1.269531.570313 1.867187.25.613282.558594 1.191406.921875 1.730469.367187.550781.789062 1.0625 1.25 1.519531.457031.460938.96875.882813 1.519531 1.242188.539062.359375 1.117188.667968 1.730469.917968.597656.25 1.226562.441407 1.867187.570313.640625.132813 1.300782.203125 1.949219.203125.652344 0 1.3125-.070312 1.953125-.203125.640625-.128906 1.269531-.320313 1.867188-.570313.609374-.25 1.191406-.558593 1.730468-.917968.550782-.359375 1.058594-.78125 1.519532-1.242188.460937-.457031.882812-.96875 1.242187-1.519531.359375-.539063.667969-1.117187.917969-1.730469.25-.597656.449218-1.226562.570312-1.867187.128906-.640625.199219-1.300781.199219-1.949219 0-.652344-.070313-1.3125-.199219-1.949219-.121094-.640625-.320312-1.273437-.570312-1.871093zm0 0"/></svg>