<svg viewBox="-58 0 512 512.00199" xmlns="http://www.w3.org/2000/svg"><path d="m55.214844 341.644531c-19.710938 19.710938-19.710938 51.777344 0 71.488281 9.851562 9.851563 22.796875 14.777344 35.742187 14.777344 12.941407 0 25.890625-4.925781 35.742188-14.777344 19.707031-19.710937 19.707031-51.777343 0-71.488281-19.710938-19.707031-51.777344-19.707031-71.484375 0zm57.34375 57.34375c-11.910156 11.910157-31.292969 11.914063-43.203125 0-11.910157-11.910156-11.910157-31.289062 0-43.203125 11.910156-11.90625 31.289062-11.910156 43.203125 0 11.910156 11.914063 11.910156 31.292969 0 43.203125zm0 0"/><path d="m239.71875 283.277344c12.945312 0 25.890625-4.925782 35.742188-14.78125 19.710937-19.707032 19.710937-51.773438 0-71.484375-19.707032-19.707031-51.773438-19.707031-71.484376 0-19.707031 19.710937-19.707031 51.777343 0 71.484375 9.855469 9.855468 22.796876 14.78125 35.742188 14.78125zm-21.601562-72.125c11.910156-11.910156 31.289062-11.910156 43.203124 0 11.910157 11.910156 11.910157 31.292968 0 43.203125-11.910156 11.910156-31.289062 11.910156-43.203124 0-11.910157-11.910157-11.910157-31.292969 0-43.203125zm0 0"/><path d="m55.214844 197.011719c-19.710938 19.710937-19.710938 51.777343 0 71.484375 9.851562 9.855468 22.796875 14.78125 35.742187 14.78125 12.941407 0 25.890625-4.925782 35.742188-14.78125 19.707031-19.707032 19.707031-51.773438 0-71.484375-19.710938-19.707031-51.777344-19.707031-71.484375 0zm57.34375 57.34375c-11.910156 11.910156-31.292969 11.910156-43.203125 0-11.910157-11.910157-11.910157-31.292969 0-43.203125 11.910156-11.910156 31.289062-11.910156 43.203125 0 11.910156 11.910156 11.910156 31.292968 0 43.203125zm0 0"/><path d="m239.71875 138.644531c12.945312 0 25.890625-4.929687 35.742188-14.78125 19.710937-19.710937 19.710937-51.777343 0-71.484375-19.707032-19.707031-51.773438-19.707031-71.484376 0-19.707031 19.707032-19.707031 51.773438 0 71.484375 9.855469 9.855469 22.796876 14.78125 35.742188 14.78125zm-21.601562-72.125c11.910156-11.910156 31.289062-11.910156 43.203124 0 11.910157 11.910157 11.910157 31.292969 0 43.203125-11.910156 11.910156-31.289062 11.910156-43.203124 0-11.910157-11.910156-11.910157-31.292968 0-43.203125zm0 0"/><path d="m55.214844 52.378906c-19.710938 19.707032-19.710938 51.773438 0 71.484375 9.851562 9.855469 22.796875 14.78125 35.742187 14.78125 12.941407 0 25.890625-4.929687 35.742188-14.78125 19.707031-19.710937 19.707031-51.777343 0-71.484375-19.710938-19.707031-51.777344-19.707031-71.484375 0zm57.34375 57.34375c-11.910156 11.910156-31.292969 11.910156-43.203125 0-11.910157-11.910156-11.910157-31.292968 0-43.203125 11.910156-11.910156 31.289062-11.910156 43.203125 0 11.910156 11.910157 11.910156 31.292969 0 43.203125zm0 0"/><path d="m370.132812 327.929688c-11.703124-8.285157-25.578124-11.953126-39.457031-10.703126v-260.96875c0-31.019531-25.238281-56.257812-56.261719-56.257812h-218.152343c-31.023438 0-56.261719 25.238281-56.261719 56.257812v364.394532c0 31.019531 25.238281 56.257812 56.261719 56.257812h171.449219c3.089843 6.929688 7.449218 13.125 12.898437 18.375.015625.011719.027344.023438.039063.039063.640624.613281 1.292968 1.210937 1.960937 1.800781.144531.125.289063.25.4375.378906.558594.480469 1.128906.953125 1.710937 1.417969.191407.152344.378907.308594.570313.460937.695313.539063 1.398437 1.066407 2.121094 1.582032.050781.035156.097656.074218.148437.113281.449219.3125.898438.613281 1.351563.914063.195312.128906.386719.265624.582031.394531.253906.167969.511719.320312.769531.480469.414063.261718.824219.523437 1.246094.773437.105469.066406.214844.125.320313.1875 9.136718 5.375 19.40625 8.175781 29.917968 8.175781 3.367188 0 6.761719-.289062 10.148438-.867187 11.949218-2.046875 22.738281-7.566407 31.253906-15.828125.035156-.035156.066406-.070313.101562-.105469.753907-.734375 1.488282-1.492187 2.207032-2.273437.175781-.1875.347656-.378907.523437-.574219.597657-.667969 1.183594-1.347657 1.753907-2.046875.179687-.214844.359374-.429688.535156-.648438.71875-.898437 1.417968-1.816406 2.089844-2.761718l53.90625-76.179688c18.917968-26.746094 12.554687-63.882812-14.171876-82.789062zm-313.871093 128.980468c-19.996094 0-36.261719-16.265625-36.261719-36.257812v-364.394532c0-19.992187 16.265625-36.257812 36.261719-36.257812h218.152343c19.996094 0 36.261719 16.265625 36.261719 36.257812v266.324219c-.078125.035157-.148437.078125-.226562.113281-.964844.453126-1.910157.933594-2.847657 1.4375-.183593.101563-.371093.195313-.554687.296876-.976563.539062-1.933594 1.101562-2.875 1.691406-.1875.117187-.371094.242187-.558594.359375-.910156.585937-1.804687 1.191406-2.679687 1.824219-.058594.046874-.125.085937-.183594.132812-.910156.664062-1.796875 1.363281-2.667969 2.082031-.1875.152344-.371093.308594-.558593.464844-.851563.71875-1.6875 1.460937-2.496094 2.230469-.121094.109375-.234375.226562-.351563.339844-.746093.71875-1.46875 1.457031-2.175781 2.214843-.136719.144531-.273438.285157-.40625.429688-.753906.824219-1.484375 1.675781-2.199219 2.546875-.152343.1875-.304687.378906-.457031.570312-.71875.898438-1.421875 1.816406-2.09375 2.765625-.003906.003907-.007812.007813-.011719.015625l-5.34375 7.554688c-1.882812-2.859375-4.058593-5.546875-6.523437-8.011719-19.707032-19.695313-51.777344-19.695313-71.488282 0-19.710937 19.710937-19.710937 51.78125.003907 71.496094 6.800781 6.792969 15.339843 11.402343 24.503906 13.496093-.335937.6875-.65625 1.382813-.96875 2.082032-.007813.023437-.019531.046875-.027344.070312-3.273437 7.457032-4.980469 15.503906-4.980469 23.765625 0 .730469.011719 1.457031.039063 2.183594.019531.554687.054687 1.109375.089844 1.664063.011719.171874.019531.339843.03125.511718zm215.777343-58.570312 64.316407 45.511718-22.289063 31.496094c-11.699218 16.535156-33.90625 21.3125-51.230468 11.710938-.101563-.058594-.207032-.109375-.308594-.167969-.390625-.222656-.777344-.460937-1.160156-.695313-.1875-.113281-.378907-.222656-.5625-.339843-.335938-.210938-.664063-.441407-.996094-.667969-.21875-.148438-.441406-.285156-.65625-.441406-.03125-.019532-.0625-.042969-.09375-.066406-.480469-.34375-.953125-.695313-1.414063-1.054688-.125-.097656-.242187-.199219-.367187-.296875-.390625-.3125-.777344-.628906-1.15625-.957031-.089844-.078125-.175782-.15625-.265625-.234375-5.863281-5.160157-9.871094-11.789063-11.863281-18.941407-.070313-.253906-.136719-.511718-.203126-.769531-.25-.976562-.46875-1.957031-.644531-2.949219-.015625-.097656-.039062-.199218-.054687-.296874-.097656-.585938-.1875-1.167969-.257813-1.757813-.011719-.074219-.015625-.148437-.027343-.222656-.132813-1.136719-.21875-2.277344-.253907-3.421875-.003906-.085938-.007812-.175782-.007812-.261719-.171875-6.855469 1.441406-13.804687 4.957031-20.101563.085938-.152343.171875-.304687.261719-.457031.214843-.375.4375-.746093.667969-1.117187.105468-.167969.207031-.335938.3125-.503906.308593-.476563.625-.953126.953124-1.421876.019532-.023437.035157-.050781.054688-.074218l7.835938-11.078125zm-31.273437 9.566406c-8.382813.285156-16.644531-2.917969-22.648437-8.914062-11.910157-11.914063-11.910157-31.296876-.003907-43.207032 5.960938-5.953125 13.78125-8.929687 21.609375-8.929687 7.824219 0 15.644532 2.976562 21.601563 8.925781 3.515625 3.515625 6.078125 7.753906 7.535156 12.417969zm127.214844-8.738281-20.070313 28.359375-64.320312-45.515625 20.066406-28.359375c.308594-.4375.628906-.871094.953125-1.296875.613281-.792969 1.25-1.554688 1.910156-2.292969 3.933594-4.390625 8.75-7.804688 14.207031-10.050781.976563-.402344 1.976563-.765625 2.996094-1.09375.007813 0 .011719-.003907.015625-.003907 4.011719-1.289062 8.113281-1.925781 12.179688-1.925781 8.015625 0 15.886719 2.472657 22.660156 7.269531 17.730469 12.539063 21.945313 37.167969 9.402344 54.910157zm0 0"/><path d="m165.335938 118.289062c5.523437 0 10-4.480468 10-10v-57.46875c0-5.523437-4.476563-10-10-10-5.519532 0-9.996094 4.476563-9.996094 10v57.46875c0 5.523438 4.476562 10 9.996094 10zm0 0"/><path d="m165.335938 178.285156c-5.519532 0-9.996094 4.480469-9.996094 10v237.800782c0 5.523437 4.476562 10 9.996094 10 5.523437 0 10-4.476563 10-10v-237.800782c0-5.519531-4.476563-10-10-10zm0 0"/><path d="m165.640625 138.273438c-5.523437 0-10 4.492187-10 10.011718 0 5.523438 4.476563 10 10 10 5.519531 0 9.996094-4.476562 9.996094-10v-.027344c0-5.523437-4.476563-9.984374-9.996094-9.984374zm0 0"/></svg>