<svg viewBox="-31 0 511 511.9986" xmlns="http://www.w3.org/2000/svg"><path d="m446.671875 350.367188c-1.933594-10.5-7.148437-29.695313-20.359375-40.269532-17.808594-14.25-33.292969-9.113281-46.953125-4.578125-7.058594 2.34375-13.730469 4.554688-21.378906 4.722657-.113281 0-.222657-.003907-.339844-.007813.023437-1.292969.035156-2.582031.035156-3.863281.015625-55.289063-15.679687-94.886719-46.660156-117.6875-32.53125-23.945313-73.589844-23.089844-98.746094-19.429688 5.273438-9.128906 11.792969-17.324218 19.535157-24.558594 1.546874.625 3.136718 1.171876 4.769531 1.605469 12.492187 3.34375 24.160156 5.011719 34.972656 5.011719 20.386719 0 37.726563-5.933594 51.792969-17.761719 44.660156-37.5625 37.785156-120.695312 37.46875-124.21875-.421875-4.734375-4.046875-8.738281-8.769532-9.2656248-4.691406-.5195312-9.027343 2.0859378-10.515624 6.5507818-.898438 1.953124-11.683594 22.824218-60.808594 24.769531-36.183594 1.433593-54.273438 16.695312-63.078125 29.246093-11.933594 17.015626-14.8125 40.527344-7.703125 62.902344.152344.472656.335937.933594.554687 1.378906 1.371094 2.785157 3.046875 5.371094 4.972657 7.734376-11.882813 11.738281-21.144532 25.453124-27.726563 41.039062h-16.261719c-14.808594-25.597656-37.554687-44.132812-65.929687-53.621094-5.234375-1.753906-10.898438 1.074219-12.648438 6.308594-1.753906 5.238281 1.074219 10.898438 6.308594 12.648438 18.109375 6.058593 33.085937 16.101562 44.710937 29.945312-25.289062-3.402344-65.0625-3.609375-96.746093 19.710938-30.980469 22.800781-46.683594 62.398437-46.667969 117.6875.007812 36.589843 9.179688 73.761718 26.519531 107.496093 15.648438 30.4375 37.535157 56.984375 61.625 74.757813 20.871094 15.398437 42.03125 23.378906 61.296875 23.378906 6.527344 0 12.84375-.917969 18.851563-2.769531 1.046875-.324219 2.035156-.820313 2.921875-1.460938l1.003906-.730469c3.585938-2.59375 8.304688-2.730468 12.019531-.355468l2.199219 1.410156c.761719.488281 1.582031.871094 2.445312 1.136719 17.734376 5.46875 38.28125 2.769531 59.425782-7.804688 16.109375-8.054687 31.96875-20.363281 46.433594-35.957031 4.203124 6.335938 8.792968 12.265625 13.71875 17.714844 4.414062 4.882812 10.9375 7.144531 17.441406 6.054687 6.535156-1.101562 11.988281-5.398437 14.585937-11.5 3.304688-7.785156 5.984375-14.90625 7.96875-21.164062 1.246094-3.949219 4.871094-6.601563 9.019531-6.601563 2.03125 0 3.964844.632813 5.609376 1.835938 1.628906 1.1875 2.8125 2.835937 3.421874 4.765625 1.976563 6.257812 4.660157 13.378906 7.96875 21.167969 2.59375 6.097656 8.046876 10.394531 14.582032 11.496093 6.503906 1.085938 13.027344-1.171875 17.441406-6.054687.003906 0 .003906 0 .003906-.003906 31.84375-35.230469 47.785156-88.601563 39.667969-132.8125zm-212.671875-278.25c9.039062-12.882813 25.019531-19.867188 47.507812-20.753907 29.042969-1.152343 47.75-8.535156 59.605469-16.464843-1.125 25.007812-6.945312 63.421874-30.640625 83.355468-16.234375 13.652344-39.359375 16.59375-68.734375 8.738282-2.136719-.570313-4.136719-1.472657-5.953125-2.644532-.019531-.011718-.039062-.027344-.058594-.042968-2.90625-1.890626-5.320312-4.484376-6.976562-7.585938-4.9375-16.226562-2.996094-32.847656 5.25-44.601562zm-53.042969 121.792968c-.03125-.074218-.058593-.152344-.085937-.230468h.140625c-.019531.078124-.035157.15625-.054688.230468zm211.992188 275c-2.863281-6.800781-5.175781-12.976562-6.882813-18.363281-1.902344-6.019531-5.597656-11.167969-10.675781-14.875-5.082031-3.722656-11.101563-5.691406-17.414063-5.691406-12.910156 0-24.195312 8.265625-28.082031 20.566406-1.703125 5.390625-4.015625 11.5625-6.878906 18.363281-6.585937-7.421875-12.476563-15.878906-17.515625-25.144531 0-.003906 0-.003906 0-.003906-8.378906-15.425781-14.167969-32.746094-16.75-50.085938-.8125-5.460937-5.902344-9.222656-11.359375-8.414062-5.460937.8125-9.226563 5.894531-8.414063 11.355469 2.582032 17.367187 8.015626 34.710937 15.800782 50.570312-13.960938 16.082031-29.386719 28.597656-44.910156 36.359375-15.921876 7.964844-30.878907 10.355469-43.355469 6.941406l-.992188-.640625c-10.539062-6.742187-23.867187-6.453125-34.113281.707032-17.078125 4.527343-39.15625-1.980469-60.894531-18.019532-39.820313-29.371094-80.003907-92.144531-80.023438-166.167968-.011719-48.53125 12.925781-82.6875 38.445313-101.523438 34.960937-25.804688 84.828125-16.363281 99.632812-12.757812 1.804688 3.863281 3.214844 7.480468 4.3125 10.671874-1.582031-.734374-3.132812-1.554687-4.628906-2.496093-4.671875-2.933594-10.84375-1.53125-13.78125 3.144531-2.9375 4.671875-1.53125 10.84375 3.140625 13.78125 10.175781 6.394531 21.832031 9.589844 33.492187 9.589844 11.660157 0 23.316407-3.195313 33.492188-9.589844 4.671875-2.9375 6.078125-9.109375 3.140625-13.78125-2.9375-4.675781-9.105469-6.082031-13.777344-3.144531-1.464843.917969-2.980469 1.71875-4.523437 2.445312.875-3.875 1.902344-7.640625 3.082031-11.296875 17.625-3.90625 63.796875-10.875 96.734375 13.433594 25.429688 18.773438 38.355469 52.761719 38.433594 101.027344-.359375-.117188-.722656-.234375-1.078125-.351563-13.660157-4.53125-29.140625-9.667969-46.960938 4.585938-1.964843 1.574219-3.871093 3.449219-5.652343 5.570312-3.558594 4.222657-3.015626 10.527344 1.207031 14.082031 1.875 1.578126 4.160156 2.351563 6.433593 2.351563 2.847657 0 5.675782-1.210937 7.652344-3.5625.945313-1.121094 1.910156-2.082031 2.855469-2.839844 8.953125-7.160156 15.105469-5.546875 28.167969-1.214843 4.433594 1.46875 9.457031 3.136718 14.925781 4.28125h.011719c.003906 0 .003906 0 .007812.003906h.007813c.003906 0 .007812 0 .011719.003906 4.304687.902344 8.398437 1.378906 12.519531 1.453125.121093.003906.242187.003906.363281 0 10.769531-.1875 19.660156-3.140625 27.503906-5.742187 13.058594-4.332032 19.210938-5.949219 28.164063 1.214843 5.863281 4.691407 10.792969 15.265625 13.1875 28.273438 6.871093 37.449219-7.117188 84.523437-34.0625 114.929687zm0 0"/><path d="m114.457031 421.105469c-49.996093-38.398438-50.757812-114.269531-50.757812-115.03125-.007813-5.511719-4.480469-9.984375-9.996094-9.984375-5.519531 0-9.996094 4.476562-9.996094 9.996094 0 3.507812.667969 86.402343 58.578125 130.871093 1.8125 1.394531 3.953125 2.070313 6.078125 2.070313 3 0 5.96875-1.347656 7.9375-3.910156 3.359375-4.375 2.535157-10.652344-1.84375-14.011719zm0 0"/><path d="m288.097656 352.90625c-.25-.597656-.558594-1.179688-.917968-1.71875-.371094-.550781-.789063-1.058594-1.25-1.519531-2.320313-2.320313-5.765626-3.386719-9.015626-2.738281-.640624.128906-1.269531.320312-1.867187.570312-.609375.25-1.191406.558594-1.730469.917969-.550781.371093-1.058594.789062-1.519531 1.25-.457031.457031-.878906.96875-1.238281 1.519531-.359375.539062-.671875 1.117188-.917969 1.71875-.25.609375-.441406 1.238281-.570313 1.867188-.132812.648437-.199218 1.300781-.199218 1.960937 0 .648437.066406 1.308594.199218 1.949219.128907.636718.320313 1.269531.570313 1.867187.25.601563.558594 1.179688.917969 1.730469.359375.539062.78125 1.058594 1.238281 1.519531.460937.460938.96875.878907 1.519531 1.238281.539063.359376 1.121094.671876 1.730469.917969.597656.25 1.226563.441407 1.867187.570313.640626.132812 1.300782.203125 1.949219.203125 2.640625 0 5.210938-1.070313 7.066407-2.929688.460937-.460937.882812-.980469 1.25-1.519531.359374-.550781.671874-1.128906.921874-1.730469.25-.597656.4375-1.230469.570313-1.867187.128906-.640625.1875-1.300782.1875-1.949219 0-.652344-.058594-1.3125-.1875-1.960937-.132813-.628907-.324219-1.257813-.574219-1.867188zm0 0"/></svg>