<svg viewBox="-32 0 512 512.00088" xmlns="http://www.w3.org/2000/svg"><path d="m215.492188 152.59375c-28.066407 0-50.90625 22.835938-50.90625 50.902344 0 28.070312 22.835937 50.910156 50.90625 50.910156 28.070312 0 50.90625-22.839844 50.90625-50.910156 0-28.066406-22.835938-50.902344-50.90625-50.902344zm0 81.808594c-17.042969 0-30.90625-13.863282-30.90625-30.90625 0-17.039063 13.863281-30.902344 30.90625-30.902344 17.042968 0 30.90625 13.863281 30.90625 30.902344 0 17.042968-13.863282 30.90625-30.90625 30.90625zm0 0"/><path d="m155.71875 109.613281c-17.359375 11.074219-31.296875 26.691407-40.304688 45.167969-2.421874 4.964844-.359374 10.949219 4.605469 13.371094 4.964844 2.425781 10.949219.359375 13.371094-4.605469 15.4375-31.664063 46.898437-51.332031 82.101563-51.332031 36.136718 0 68.925781 21.359375 83.539062 54.421875 1.652344 3.734375 5.3125 5.957031 9.152344 5.957031 1.351562 0 2.722656-.273438 4.039062-.855469 5.050782-2.230469 7.335938-8.136719 5.101563-13.1875-17.8125-40.296875-57.78125-66.335937-101.828125-66.335937-21.261719 0-41.929688 6.015625-59.777344 17.398437zm0 0"/><path d="m439.511719 1.484375c-66.273438-3.488281-126.273438-.820313-178.347657 7.921875-41.984374 7.054688-79 18.0625-110.007812 32.722656-2.332031 1.105469-4.570312 2.210938-6.769531 3.320313-15.359375 6.9375-29.535157 16.050781-42.132813 26.949219-16.578125 13.621093-22.992187 23.917968-23.421875 24.625 0 .003906-.003906.007812-.003906.011718-21.582031 27.644532-34.96875 61.980469-36.488281 99.324219-23.714844 2.21875-42.339844 22.230469-42.339844 46.515625v218.855469c0 27.71875 22.550781 50.269531 50.269531 50.269531h330.445313c27.71875 0 50.273437-22.550781 50.273437-50.269531v-218.855469c0-24.285156-18.625-44.292969-42.339843-46.515625-3.347657-82.152344-64.136719-149.742187-143.191407-163.578125 47.683594-9.792969 110.800781-15.652344 193.003907-11.324219 5.507812.289063 10.21875-3.945312 10.511718-9.460937.289063-5.515625-3.945312-10.222656-9.460937-10.511719zm-28.527344 241.390625v174.761719h-271.484375c-5.523438 0-10 4.480469-10 10.003906 0 5.519531 4.476562 10 10 10h271.484375v24.089844c0 16.691406-13.578125 30.269531-30.269531 30.269531h-330.445313c-16.691406 0-30.269531-13.578125-30.269531-30.269531v-218.855469c0-14.738281 11.992188-26.726562 26.730469-26.726562h27.78125c9.839843 0 18.589843 6.273437 21.773437 15.613281 17.386719 51.023437 65.292969 85.304687 119.207032 85.304687 53.917968 0 101.824218-34.28125 119.207031-85.304687 3.183593-9.339844 11.933593-15.613281 21.777343-15.613281h27.777344c14.738282-.003907 26.730469 11.988281 26.730469 26.726562zm-42.355469-46.730469h-12.15625c-18.402344 0-34.761718 11.722657-40.703125 29.167969-14.625 42.917969-54.921875 71.753906-100.277343 71.753906-45.355469 0-85.652344-28.835937-100.277344-71.757812-5.945313-17.441406-22.300782-29.164063-40.703125-29.164063h-12.15625c2.03125-42.910156 21.792969-81.253906 52.101562-107.863281 8.84375-7.332031 21.292969-16.007812 38.265625-24.644531 19.171875-8.636719 40.417969-13.457031 62.769532-13.457031 82.078124.003906 149.292968 64.824218 153.136718 145.964843zm0 0"/><path d="m99.464844 417.636719c-5.523438 0-10 4.480469-10 10 0 5.523437 4.476562 10 10 10h.035156c5.523438 0 9.980469-4.476563 9.980469-10 0-5.519531-4.492188-10-10.015625-10zm0 0"/></svg>