<svg viewBox="0 -13 511.99945 511" xmlns="http://www.w3.org/2000/svg"><path d="m441.234375 71.265625c-45.632813-45.632813-106.304687-70.765625-170.835937-70.765625-64.535157 0-125.210938 25.128906-170.84375 70.765625-45.628907 45.632813-70.757813 106.300781-70.757813 170.835937 0 7.117188.316406 14.246094.929687 21.269532-.886718.640625-1.769531 1.296875-2.644531 1.996094-11.792969 9.449218-20.523437 26.820312-24.582031 48.914062-4.710938 25.640625-2.71875 55.65625 5.601562 84.515625 8.75 30.332031 23.777344 57.875 43.460938 79.648437 4.132812 4.574219 9.90625 7.101563 15.945312 7.101563 1.199219 0 2.410157-.097656 3.621094-.304687 7.335938-1.230469 13.449219-6.054688 16.351563-12.890626 4.09375-9.625 7.425781-18.472656 9.890625-26.285156 1.898437-5.996094 7.410156-10.023437 13.707031-10.023437 3.078125 0 6.023437.960937 8.5 2.765625 2.484375 1.820312 4.285156 4.324218 5.207031 7.246094 2.46875 7.828124 5.796875 16.675781 9.890625 26.285156 2.902344 6.84375 9.011719 11.667968 16.347657 12.902344 7.296874 1.226562 14.617187-1.304688 19.582031-6.796876 3.433593-3.804687 6.746093-7.839843 9.921875-12.027343 28.546875 11.464843 58.738281 17.289062 89.871094 17.289062 64.53125 0 125.203124-25.132812 170.835937-70.761719 45.632813-45.632812 70.765625-106.304687 70.765625-170.84375 0-64.53125-25.132812-125.203124-70.765625-170.835937zm-286.886719 394.253906c-.601562-.101562-1.023437-.4375-1.265625-1-3.789062-8.90625-6.980469-17.371093-9.226562-24.488281-2.210938-7-6.515625-13.003906-12.476563-17.375-4.792968-3.488281-10.292968-5.628906-16.085937-6.335938 2.605469-1.675781 5.535156-2.722656 8.804687-2.722656 5.523438 0 10.003906-4.476562 10.003906-10 0-5.523437-4.476562-10-10.003906-10-29.871094 0-41.730468 34.570313-43.816406 41.539063-.773438 1.5625-1.441406 3.191406-1.980469 4.894531-2.246093 7.117188-5.433593 15.582031-9.230469 24.496094-.292968.695312-.847656.921875-1.261718.992187-.839844.140625-1.261719-.324219-1.402344-.484375-34.875-38.570312-53.0625-99.078125-44.238281-147.140625 3.097656-16.863281 9.609375-30.660156 17.421875-36.917969 1.839844-1.476562 3.6875-2.722656 5.480468-3.699218 9.6875-5.277344 18.097657-2.902344 32.128907 1.753906 6.738281 2.238281 14.105469 4.675781 22.398437 6.027344.125.019531.246094.035156.371094.054687.605469.097657 1.21875.191407 1.835938.273438.246093.035156.488281.0625.730468.09375.5.0625.996094.125 1.5.179687.335938.035156.667969.0625 1 .09375.417969.042969.835938.082032 1.257813.117188.433593.03125.863281.054687 1.296875.082031.332031.023437.660156.046875.996094.0625.773437.035156 1.542968.0625 2.316406.078125h.003906c.113281.003906.230469.003906.34375 0 13.109375-.226562 24.050781-3.859375 33.703125-7.0625 16.800781-5.574219 25.417969-7.820312 37.617187 1.949219 1.464844 1.171875 2.886719 2.613281 4.246094 4.289062 1.8125 2.230469 3.519532 4.882813 5.089844 7.882813 0 .003906.003906.011718.007812.015625 2.582032 4.945312 4.773438 10.847656 6.449219 17.371093.609375 2.375 1.160157 4.824219 1.625 7.351563.269531 1.480469.507813 2.980469.730469 4.484375.066406.457031.125.917969.1875 1.378906.144531 1.0625.277344 2.128906.398438 3.203125.058593.546875.117187 1.09375.171874 1.644531.101563 1.023438.191407 2.058594.269532 3.09375.042968.550782.089844 1.097657.125 1.648438.089844 1.324219.15625 2.65625.207031 3.992188.03125.792968.046875 1.585937.0625 2.382812.019531.882812.039063 1.765625.042969 2.65625.003906.871094-.003906 1.746094-.015625 2.621094-.003907.644531-.015625 1.285156-.03125 1.925781-.023438.984375-.050781 1.972656-.09375 2.957031-.015625.441406-.042969.882813-.0625 1.324219-.195313 3.878906-.515625 7.789063-.984375 11.71875 0 .011719 0 .027344-.003906.039063-.164063 1.386718-.347657 2.773437-.542969 4.164062-.011719.0625-.019531.121094-.027344.179688-1.621094 11.316406-4.339844 22.71875-8.070313 33.851562-.007812.023438-.015624.046875-.019531.066406-.429687 1.277344-.875 2.546875-1.328125 3.816406-.121094.339844-.246094.675782-.371094 1.015626-1.425781 3.914062-2.96875 7.785156-4.644531 11.601562-.023437.054688-.046875.109375-.070312.164062-1.699219 3.871094-3.53125 7.679688-5.476563 11.414063-.160156.308594-.324218.621094-.484375.925781-.597656 1.128906-1.199219 2.25-1.816406 3.363282-.226563.410156-.460937.808593-.691406 1.214843-.894531 1.582031-1.808594 3.140625-2.742188 4.6875-.578125.949219-1.15625 1.898438-1.75 2.832031-.359375.570313-.71875 1.136719-1.082031 1.703126-.980469 1.507812-1.972656 3.011718-2.992188 4.484374-4.078124 5.882813-8.496093 11.464844-13.121093 16.589844-.136719.15625-.566407.625-1.414063.484375zm116.050782-1.816406c-27.09375 0-53.398438-4.789063-78.371094-14.25.027344-.050781.058594-.101563.089844-.15625.683593-1.140625 1.355468-2.292969 2.019531-3.449219.109375-.1875.214843-.375.320312-.5625 4.714844-8.25 8.890625-16.914062 12.503907-25.933594 20.308593 7.277344 41.597656 10.96875 63.4375 10.96875 103.785156 0 188.21875-84.433593 188.21875-188.21875 0-34.105468-9.222657-67.527343-26.675782-96.648437-3.65625-6.101563-7.679687-12.023437-11.960937-17.601563-3.363281-4.386718-9.640625-5.210937-14.019531-1.851562-4.382813 3.359375-5.210938 9.640625-1.851563 14.019531 3.816406 4.980469 7.410156 10.269531 10.675781 15.71875 15.589844 26.011719 23.832032 55.878907 23.832032 86.363281 0 92.757813-75.464844 168.21875-168.222657 168.21875-19.578125 0-38.660156-3.316406-56.851562-9.855468 6.550781-22.019532 9.425781-44.476563 8.433593-65.460938-.011718-.292968-.03125-.582031-.046874-.875-.082032-1.601562-.1875-3.195312-.316407-4.78125-.085937-1.082031-.175781-2.164062-.285156-3.234375-.066406-.652343-.144531-1.296875-.21875-1.941406-.128906-1.136719-.269531-2.265625-.421875-3.386719-.074219-.53125-.144531-1.066406-.222656-1.59375-.246094-1.648437-.507813-3.285156-.804688-4.90625-2.34375-12.789062-8.652344-36.152344-24.585937-48.917968-21.230469-16.996094-39.925781-10.792969-56.417969-5.320313-1.394531.464844-2.796875.929687-4.210938 1.382813-7.191406 2.320312-14.664062 4.390624-22.824218 4.640624-.183594.007813-.363282.019532-.542969.023438-1.011719-.023438-2.03125-.078125-3.0625-.15625-.121094-.007812-.246094-.015625-.367187-.027344-.980469-.078125-1.976563-.1875-2.976563-.324218-.160156-.019532-.316406-.039063-.472656-.0625-.132813-.019532-.273438-.046876-.410157-.066407-1.066406-7.703125-1.613281-15.53125-1.613281-23.351562 0-92.757813 75.460938-168.222657 168.21875-168.222657 26.988281 0 52.765625 6.199219 76.613281 18.421876 4.914063 2.519531 10.941407.574218 13.460938-4.339844 2.519531-4.914063.578125-10.941406-4.339844-13.460938-26.695312-13.683594-55.542968-20.621094-85.734375-20.621094-103.785156 0-188.21875 84.4375-188.21875 188.222657 0 5.9375.285157 11.878906.835938 17.78125-3.234375-1.074219-6.492188-2.144531-9.796875-3.0625-.046875-.011719-.09375-.027344-.140625-.039063-.640625-.175781-1.28125-.347656-1.925781-.511718-.042969-.011719-.085938-.023438-.128907-.035157-.648437-.164062-1.300781-.320312-1.953125-.46875-.109375-.027343-.222656-.050781-.335937-.074219-.550781-.125-1.101563-.242187-1.652344-.351562-.128906-.023438-.253906-.050781-.382813-.078125-.625-.121094-1.253906-.234375-1.882812-.335937-.140625-.023438-.28125-.042969-.425781-.066407-.511719-.078125-1.023438-.152343-1.539063-.21875-.171875-.019531-.34375-.042969-.511718-.0625-.621094-.074219-1.246094-.140625-1.871094-.191406-.144532-.011719-.292969-.019531-.441406-.03125-.511719-.039063-1.019532-.066406-1.53125-.089844-.191407-.007812-.382813-.015625-.574219-.023437-.628907-.015625-1.257813-.027344-1.890625-.019532-.132813 0-.265625.007813-.398438.011719-.53125.007813-1.066406.03125-1.597656.058594-.199219.011719-.398438.023437-.597656.039063-.644532.042968-1.292969.101562-1.945313.175781-.085937.011719-.171875.023437-.257812.035156-.589844.070313-1.183594.160156-1.777344.261719-.101563.015625-.199219.023437-.300781.042968-.238282-4.234374-.359375-8.492187-.359375-12.746093 0-122.191407 99.410156-221.601563 221.601562-221.601563 122.191407 0 221.601563 99.410156 221.601563 221.601563 0 122.191406-99.40625 221.597656-221.597656 221.597656zm0 0"/><path d="m49.21875 304.949219c-5.316406-1.5-10.84375 1.585937-12.34375 6.902343-3.511719 12.414063-4.242188 27.851563-2.167969 45.886719.585938 5.101563 4.910157 8.859375 9.921875 8.859375.382813 0 .765625-.019531 1.15625-.066406 5.484375-.628906 9.421875-5.589844 8.792969-11.074219-2.210937-19.222656-.378906-31.363281 1.542969-38.164062 1.5-5.316407-1.589844-10.84375-6.902344-12.34375zm0 0"/><path d="m341.988281 212.40625-66.59375 17.988281-37.230469-68.191406c-2.648437-4.847656-8.726562-6.632813-13.570312-3.988281-4.847656 2.648437-6.632812 8.726562-3.984375 13.570312l41.007813 75.109375c1.785156 3.269531 5.1875 5.210938 8.777343 5.210938.863281 0 1.742188-.113281 2.609375-.347657l74.203125-20.042968c5.332031-1.441406 8.484375-6.929688 7.046875-12.261719-1.445312-5.332031-6.929687-8.480469-12.265625-7.046875zm0 0"/><path d="m270.394531 124.164062c5.523438 0 10-4.480468 10-10.003906v-16.496094c0-5.523437-4.476562-10-10-10-5.523437 0-10 4.476563-10 10v16.496094c0 5.523438 4.476563 10.003906 10 10.003906zm0 0"/><path d="m270.394531 360.046875c-5.523437 0-10 4.476563-10 10v16.496094c0 5.523437 4.476563 10 10 10 5.523438 0 10-4.476563 10-10v-16.496094c0-5.523437-4.476562-10-10-10zm0 0"/><path d="m388.335938 242.105469c0 5.523437 4.480468 10 10.003906 10h16.496094c5.523437 0 10-4.476563 10-10 0-5.523438-4.480469-10-10-10h-16.496094c-5.523438 0-10.003906 4.476562-10.003906 10zm0 0"/><path d="m142.453125 232.105469h-16.496094c-5.523437 0-10 4.476562-10 10 0 5.523437 4.476563 10 10 10h16.496094c5.523437 0 10-4.476563 10-10 0-5.523438-4.476563-10-10-10zm0 0"/><path d="m390.882812 114.226562c.550782-.359374 1.0625-.78125 1.519532-1.242187.460937-.457031.882812-.96875 1.25-1.519531.359375-.539063.671875-1.117188.921875-1.730469.25-.601563.4375-1.230469.566406-1.871094.132813-.636719.191406-1.296875.191406-1.949219 0-.648437-.058593-1.308593-.191406-1.960937-.128906-.628906-.316406-1.257813-.566406-1.867187-.25-.601563-.5625-1.179688-.921875-1.722657-.367188-.546875-.789063-1.058593-1.25-1.519531-2.308594-2.320312-5.769532-3.390625-9.019532-2.738281-.640624.128906-1.269531.320312-1.871093.570312-.597657.25-1.1875.558594-1.730469.917969-.546875.371094-1.058594.789062-1.519531 1.25-.460938.460938-.878907.972656-1.238281 1.519531-.359376.542969-.671876 1.121094-.921876 1.722657-.25.609374-.4375 1.238281-.570312 1.867187-.128906.652344-.199219 1.3125-.199219 1.960937 0 .652344.070313 1.3125.199219 1.949219.132812.640625.320312 1.273438.570312 1.871094.25.609375.5625 1.191406.921876 1.730469.359374.550781.777343 1.0625 1.238281 1.519531.460937.460937.972656.882813 1.519531 1.242187.550781.359376 1.132812.667969 1.730469.917969.601562.25 1.230469.441407 1.871093.570313.640626.132812 1.300782.199218 1.949219.199218.652344 0 1.308594-.066406 1.960938-.199218.640625-.128906 1.257812-.320313 1.871093-.570313.597657-.25 1.179688-.558593 1.71875-.917969zm0 0"/></svg>