<svg viewBox="0 -60 512.00058 512" xmlns="http://www.w3.org/2000/svg"><path d="m509.035156 142.492188c-4.789062-26.09375-15.03125-46.546876-28.835937-57.59375-24.664063-19.742188-45.640625-12.78125-65.925781-6.050782-10.550782 3.5-21.460938 7.121094-33.78125 7.367188-12.324219-.246094-23.234376-3.867188-33.785157-7.367188-20.285156-6.734375-41.261719-13.691406-65.925781 6.050782-10.695312 8.558593-19.238281 22.785156-24.777344 40.886718-5.542968-18.105468-14.085937-32.332031-24.777344-40.882812-24.664062-19.753906-45.640624-12.789063-65.925781-6.058594-10.550781 3.503906-21.460937 7.125-33.785156 7.371094-6.222656-.121094-12.085937-1.109375-17.722656-2.507813 2.980469-1.679687 6.136719-3.066406 9.421875-4.121093l7.589844-2.4375c.011718-.003907.019531-.007813.027343-.011719 5.460938-1.769531 9.121094-6.816407 9.113281-12.550781-.011718-5.734376-3.683593-10.761719-9.140624-12.511719l-7.589844-2.441407c-15.585938-5.011718-27.882813-17.3125-32.894532-32.90625l-2.449218-7.609374c-1.769532-5.457032-6.800782-9.117188-12.53125-9.117188-.007813 0-.011719 0-.019532 0-5.734374.0078125-10.761718 3.683594-12.515624 9.140625l-2.4375 7.589844c-5.011719 15.59375-17.3125 27.890625-32.90625 32.902343l-7.585938 2.441407c-5.457031 1.75-9.132812 6.777343-9.140625 12.511719-.011719 5.734374 3.652344 10.78125 9.136719 12.5625l7.597656 2.441406c2.523438.808594 4.980469 1.832031 7.351562 3.03125-1.003906.726562-2.011718 1.476562-3.019531 2.28125-13.792969 11.046875-24.035156 31.5-28.832031 57.59375-5.601562 30.519531-3.222656 66.273437 6.699219 100.671875 10.429687 36.171875 28.34375 69.007812 51.804687 94.960937 5.492188 6.066406 13.589844 8.878906 21.679688 7.519532 8.132812-1.363282 14.914062-6.707032 18.144531-14.300782 4.898437-11.53125 8.875-22.101562 11.824219-31.414062 2.542968-8.050782 9.933594-13.457032 18.394531-13.457032 4.140625 0 8.082031 1.285157 11.410156 3.722657 3.332031 2.4375 5.746094 5.800781 6.988281 9.734375 2.929688 9.269531 6.914063 19.835937 11.832032 31.414062 3.21875 7.582032 9.992187 12.925782 18.117187 14.296875 1.347657.230469 2.699219.339844 4.035157.339844 6.6875 0 13.082031-2.792969 17.664062-7.847656.003906-.003907.007812-.007813.011719-.011719 23.453125-25.953125 41.363281-58.789062 51.792969-94.957031.964843-3.339844 1.832031-6.695313 2.652343-10.050781 1.023438 4.171874 2.148438 8.34375 3.390625 12.488281 2.445313 8.179687 10.136719 13.890625 18.699219 13.890625h5.664063v8.597656c0 13.25 10.78125 24.03125 24.03125 24.03125h34.84375l1.011718 16.75-2.917968.34375c-5.484376.640625-9.410157 5.609375-8.769532 11.09375.597656 5.089844 4.917969 8.839844 9.921875 8.839844.386719 0 .777344-.019532 1.175781-.066406l1.800782-.210938 1.015625 16.769531-5.140625.601563c-5.488282.644531-9.414063 5.609375-8.773438 11.097656.597656 5.089844 4.917969 8.839844 9.921875 8.839844.386719 0 .78125-.023438 1.175781-.070313l4.027344-.46875.171875 2.859375c.824219 13.632813 12.167969 24.3125 25.828125 24.3125h14.792969c13.65625 0 25-10.679687 25.824219-24.3125l.652344-10.730468 7.496093-.878907c5.484375-.640625 9.410157-5.609375 8.769531-11.09375-.640624-5.488281-5.609374-9.410156-11.097656-8.773437l-3.941406.460937 1.027344-17.007812 5.242187-.613281c5.484375-.644532 9.410157-5.609376 8.769531-11.097657-.640624-5.484375-5.609374-9.414062-11.097656-8.769531l-1.6875.199219.488282-8.074219h31.996093c13.25 0 24.03125-10.78125 24.03125-24.03125v-8.597656h8.511719c8.5625 0 16.253906-5.710938 18.699219-13.886719 10.550781-35.246094 13.199219-71.867187 7.460937-103.117187zm-433.6875-109.675782c6.867188 13.734375 18.046875 24.917969 31.777344 31.789063-8.167969 4.078125-15.503906 9.710937-21.582031 16.617187-4.078125 4.636719-7.488281 9.707032-10.203125 15.152344-3.222656-6.445312-7.417969-12.390625-12.429688-17.578125-.71875-.742187-1.449218-1.46875-2.199218-2.179687-.003907 0-.003907 0-.007813-.003907-5.070313-4.8125-10.886719-8.871093-17.148437-12.003906 13.738281-6.867187 24.925781-18.054687 31.792968-31.792969zm111.394532 291.890625c-1.242188 1.371094-2.757813 1.351563-3.546876 1.214844-.8125-.136719-2.289062-.628906-3.039062-2.394531-4.671875-10.992188-8.429688-20.964844-11.167969-29.617188-2.527343-8.019531-7.457031-14.886718-14.25-19.851562-6.769531-4.960938-14.800781-7.585938-23.21875-7.585938-.144531 0-.289062.007813-.429687.011719 4.363281-4.105469 9.695312-6.988281 16.082031-6.988281 5.523437 0 10-4.480469 10-10 0-5.523438-4.476563-10.003906-10-10.003906-34.71875 0-48.476563 40.859374-50.78125 48.625-.917969 1.839843-1.703125 3.769531-2.339844 5.78125-2.757812 8.710937-6.511719 18.683593-11.15625 29.621093-.753906 1.773438-2.238281 2.265625-3.054687 2.402344-.789063.132813-2.296875.152344-3.53125-1.207031-42.308594-46.804688-64.378906-120.253906-53.667969-178.605469 3.871094-21.050781 11.765625-37.667969 21.660156-45.589844 2.378907-1.898437 4.695313-3.460937 6.996094-4.703125.601563.734375 1.175781 1.488282 1.734375 2.257813.167969.226562.324219.460937.488281.691406.40625.578125.804688 1.164063 1.1875 1.757813.148438.238281.304688.472656.453125.714843.5.808594.988282 1.625 1.441406 2.460938.003907.003906.003907.003906.007813.007812.457031.839844.882813 1.695313 1.292969 2.558594.117187.253906.230468.507813.347656.761719.292969.648437.574219 1.300781.84375 1.964844.105469.257812.210938.519531.3125.777343.34375.894531.671875 1.796875.964844 2.707031l2.4375 7.589844c1.753906 5.457032 6.78125 9.132813 12.515625 9.140625h.019531c5.011719 0 9.496094-2.800781 11.726562-7.171875.320313-.625.59375-1.28125.8125-1.964844l2.445313-7.597656c.238281-.742187.5-1.476562.769531-2.203125.074219-.195312.148438-.386719.222656-.582031.242188-.628906.496094-1.253906.761719-1.871094.042969-.101562.085938-.207031.128907-.308594.3125-.703124.640624-1.398437.980468-2.085937.085938-.171875.171875-.339844.261719-.511719.289063-.566406.585937-1.128906.894531-1.683594.082032-.140624.160156-.285156.238282-.425781.382812-.667969.777343-1.324219 1.1875-1.96875.085937-.140625.179687-.277343.269531-.414062.191406-.296875.394531-.589844.59375-.882813 10.171875 3.285156 21.550781 6.457032 34.710937 6.683594h.347656c15.449219-.273438 28.445313-4.585938 39.910157-8.390625 18.632812-6.183594 30.941406-10.273437 47.125 2.6875 9.898437 7.917969 17.792969 24.535156 21.664062 45.59375 10.707031 58.347656-11.355469 131.785156-53.652343 178.597656zm207.007812 42.589844c-.191406 3.089844-2.761719 5.515625-5.863281 5.515625h-14.792969c-3.097656 0-5.671875-2.425781-5.863281-5.515625l-.238281-3.984375 27.1875-3.179688zm1.660156-27.445313-29.628906 3.464844-1.015625-16.769531 31.671875-3.707031zm2.253906-37.292968-34.109374 3.992187-.871094-14.425781h35.613281zm56.691407-34.464844c0 2.222656-1.804688 4.03125-4.027344 4.03125h-142.523437c-2.21875 0-4.027344-1.808594-4.027344-4.03125v-8.597656h150.578125zm28.167969-28.601562h-204.066407c-9.566406-32.148438-11.996093-65.300782-6.839843-93.386719 3.867187-21.050781 11.761718-37.667969 21.664062-45.59375 16.179688-12.953125 28.488281-8.867188 47.128906-2.683594 11.464844 3.804687 24.457032 8.121094 39.90625 8.390625h.347656c15.449219-.269531 28.441407-4.582031 39.910157-8.390625 18.636719-6.183594 30.945312-10.269531 47.128906 2.683594 9.898437 7.925781 17.796875 24.542969 21.660156 45.59375 5.15625 28.085937 2.726563 61.238281-6.839843 93.386719zm0 0"/><path d="m206.816406 127.929688c-4.835937 2.664062-6.613281 8.714843-3.949218 13.554687.640624 1.203125 15.523437 30.097656-.695313 78.75-1.746094 5.238281 1.085937 10.902344 6.328125 12.652344 1.046875.347656 2.113281.515625 3.164062.515625 4.1875 0 8.089844-2.652344 9.484376-6.84375 19.167968-57.496094.09375-93.171875-.726563-94.664063-2.667969-4.835937-8.765625-6.628906-13.605469-3.964843zm0 0"/><path d="m207.5625 248.574219c-.25-.601563-.558594-1.183594-.917969-1.722657-.371093-.550781-.792969-1.058593-1.25-1.519531-.460937-.472656-.972656-.878906-1.519531-1.25-.542969-.359375-1.121094-.671875-1.722656-.921875-.609375-.25-1.238282-.4375-1.867188-.570312-1.292968-.257813-2.621094-.257813-3.914062 0-.640625.132812-1.269532.320312-1.867188.570312-.613281.25-1.191406.5625-1.730468.921875-.550782.371094-1.0625.789063-1.523438 1.25-.457031.460938-.878906.96875-1.238281 1.519531-.359375.539063-.671875 1.121094-.921875 1.722657-.25.605469-.4375 1.226562-.566406 1.867187-.132813.648438-.199219 1.300782-.199219 1.960938 0 .648437.066406 1.308594.199219 1.949218.128906.640626.316406 1.269532.566406 1.871094.25.601563.5625 1.191406.921875 1.730469s.78125 1.058594 1.238281 1.519531c.460938.460938.972656.878906 1.523438 1.238282.539062.363281 1.117187.671874 1.730468.921874.597656.25 1.230469.441407 1.867188.570313.640625.128906 1.300781.199219 1.953125.199219.648437 0 1.308593-.070313 1.957031-.199219.632812-.128906 1.261719-.320313 1.871094-.570313.601562-.25 1.179687-.558593 1.71875-.921874.550781-.359376 1.0625-.777344 1.519531-1.238282.460937-.460937.882813-.980468 1.25-1.519531.363281-.539063.671875-1.128906.921875-1.730469.25-.601562.441406-1.230468.570312-1.871094.128907-.640624.191407-1.300781.191407-1.949218 0-.660156-.0625-1.3125-.191407-1.960938-.128906-.640625-.320312-1.257812-.570312-1.867187zm0 0"/></svg>