<svg viewBox="-14 0 511 511.9999" xmlns="http://www.w3.org/2000/svg"><path d="m480.644531 349.238281c-2.246093-12.1875-8.277343-34.453125-23.476562-46.625-13.296875-10.640625-25.4375-11.832031-36.808594-9.855469v-149.9375c0-.207031-.019531-.414062-.03125-.617187.011719-.207031.03125-.410156.03125-.617187v-45.914063c0-30.230469-23.796875-55.003906-53.640625-56.578125v-7.152344c0-8.535156-3.324219-16.554687-9.359375-22.589844-6.027344-6.03125-14.046875-9.351562-22.582031-9.351562-17.609375 0-31.9375 14.328125-31.9375 31.9375v7.070312h-60.460938v-7.070312c0-8.515625-3.320312-16.535156-9.367187-22.597656-6.039063-6.023438-14.058594-9.339844-22.582031-9.339844-17.613282 0-31.941407 14.328125-31.941407 31.9375v7.070312h-60.457031v-7.070312c0-8.515625-3.320312-16.535156-9.371094-22.597656-6.039062-6.023438-14.058594-9.339844-22.582031-9.339844-17.609375 0-31.9375 14.328125-31.9375 31.9375v7.152344c-29.84375 1.578125-53.640625 26.351562-53.640625 56.578125v45.917969c0 .207031.019531.410156.03125.617187-.011719.203125-.03125.40625-.03125.617187v225.101563c0 24.300781 19.769531 44.066406 44.070312 44.066406h230.542969c6.789063 34.828125 23.101563 68.371094 45.480469 93.117188 4.8125 5.324219 11.914062 7.796875 19 6.597656 7.121094-1.195313 13.0625-5.878906 15.890625-12.53125 3.929687-9.269531 7.085937-17.652344 9.382813-24.921875 1.71875-5.449219 6.726562-9.109375 12.460937-9.109375 2.808594 0 5.476563.871094 7.730469 2.519531 2.253906 1.652344 3.894531 3.933594 4.734375 6.589844 2.332031 7.378906 5.488281 15.765625 9.378906 24.925781 2.820313 6.640625 8.753906 11.324219 15.878906 12.523438 1.179688.199219 2.359375.296875 3.527344.296875 5.863281 0 11.476563-2.449219 15.488281-6.890625 18.6875-20.671875 32.953125-46.820313 41.253906-75.609375 7.902344-27.402344 9.792969-55.902344 5.324219-80.257813zm-157.804687-317.300781c0-6.582031 5.355468-11.9375 11.9375-11.9375 3.191406 0 6.191406 1.238281 8.441406 3.492188 2.257812 2.257812 3.5 5.257812 3.5 8.445312v29.261719c0 6.589843-5.355469 11.949219-11.941406 11.949219-6.582032 0-11.9375-5.359376-11.9375-11.949219zm-124.351563 0c0-6.582031 5.355469-11.9375 11.941407-11.9375 3.191406 0 6.191406 1.242188 8.4375 3.480469 2.265624 2.269531 3.511718 5.273437 3.511718 8.457031v29.261719c0 6.589843-5.359375 11.949219-11.949218 11.949219-6.585938 0-11.941407-5.359376-11.941407-11.949219zm-124.347656 0c0-6.582031 5.355469-11.9375 11.9375-11.9375 3.191406 0 6.195313 1.242188 8.441406 3.480469 2.261719 2.269531 3.507813 5.273437 3.507813 8.457031v29.261719c0 6.589843-5.359375 11.949219-11.949219 11.949219-6.582031 0-11.9375-5.359376-11.9375-11.949219zm-53.640625 335.984375v-215.101563h31.601562c5.519532 0 10-4.476562 10-10 0-5.523437-4.480468-10-10-10h-31.601562v-37.148437c0-19.199219 14.832031-34.996094 33.640625-36.539063v2.066407c0 17.617187 14.328125 31.949219 31.9375 31.949219 17.617187 0 31.949219-14.332032 31.949219-31.949219v-2.1875h60.460937v2.1875c0 17.617187 14.328125 31.949219 31.941407 31.949219 17.617187 0 31.949218-14.332032 31.949218-31.949219v-2.1875h60.460938v2.1875c0 17.617187 14.328125 31.949219 31.9375 31.949219 17.613281 0 31.941406-14.332032 31.941406-31.949219v-2.066407c18.808594 1.542969 33.640625 17.339844 33.640625 36.539063v37.148437h-268.261719c-5.523437 0-10 4.476563-10 10 0 5.523438 4.476563 10 10 10h268.261719v145.632813c-7.25 2.371094-14.773437 4.5625-23.03125 4.734375-9.371094-.195312-17.792969-2.988281-25.941406-5.695312-15.738281-5.222657-33.582031-11.144532-53.910157 5.121093-15.203124 12.175781-21.226562 34.441407-23.464843 46.632813-2.429688 13.230468-2.996094 27.820312-1.714844 42.742187h-227.726563c-13.273437 0-24.070312-10.796875-24.070312-24.066406zm398.730469 123.769531c-.097657.113282-.339844.375-.859375.289063-.566406-.097657-.730469-.488281-.789063-.625-3.644531-8.578125-6.578125-16.359375-8.71875-23.136719-2.136719-6.75-6.289062-12.523438-11.992187-16.695312-5.695313-4.175782-12.453125-6.382813-19.542969-6.382813-14.503906 0-27.175781 9.277344-31.53125 23.085937-2.105469 6.664063-5.042969 14.453126-8.71875 23.128907-.058594.128906-.226563.527343-.796875.625-.519531.085937-.753906-.175781-.855469-.289063-21.621093-23.910156-36.933593-57.144531-42.003906-91.171875-2.484375-16.707031-2.394531-33.191406.261719-47.664062 2.910156-15.84375 9-28.789063 16.292968-34.628907 11.335938-9.070312 19.394532-6.96875 35.109376-1.75 9.175781 3.042969 19.574218 6.496094 32.070312 6.710938h.347656c12.492188-.21875 22.894532-3.667969 32.074219-6.714844 1.25-.417968 2.488281-.824218 3.71875-1.222656.035156-.011719.070313-.023438.105469-.035156.007812-.003906.019531-.007813.027344-.011719 13.800781-4.453125 21.191406-5.019531 31.238281 3.023437 7.292969 5.839844 13.386719 18.785157 16.304687 34.628907 8.328125 45.34375-8.839844 102.433593-41.742187 138.835937zm0 0"/><path d="m316.976562 171.878906c-5.65625-6.753906-14.867187-8.910156-22.925781-5.359375-51.875 22.847657-91.335937 100.894531-105.078125 131.320313-16.902344-9.09375-43.363281-21.613282-60.59375-21.257813-.613281.015625-1.222656.046875-1.816406.09375-12.671875 1.007813-22.359375 10.667969-23.566406 23.484375-1.214844 12.953125 6.585937 24.371094 18.972656 27.757813 29.777344 8.148437 57.828125 34.472656 71.894531 49.441406 3.746094 3.984375 8.800781 6.140625 14.082031 6.140625 1.460938 0 2.941407-.164062 4.414063-.503906 6.785156-1.554688 12.082031-6.445313 14.171875-13.089844 20.214844-64.34375 70.859375-143.464844 91.695312-174.492188 4.914063-7.316406 4.410157-16.773437-1.25-23.535156zm-109.21875 191.058594c-15.730468-16.613281-46.5-45.007812-80.511718-54.308594-4.484375-1.230468-4.453125-5.359375-4.335938-6.601562.144532-1.511719.9375-5.074219 5.246094-5.417969.226562-.015625.453125-.027344.664062-.03125.125-.003906.253907-.003906.382813-.003906 10.183594 0 31.082031 8.128906 54.753906 21.320312 3.710938 2.066407 8.144531 2.472657 12.164063 1.117188 4.023437-1.359375 7.304687-4.367188 9.003906-8.265625 7.429688-17.046875 46.707031-102.566406 95.742188-125.359375-26.484376 39.546875-72.894532 113.949219-93.109376 177.550781zm0 0"/><path d="m92.125 132.820312h-.023438c-5.519531 0-9.988281 4.480469-9.988281 10 0 5.523438 4.492188 10 10.015625 10 5.523438 0 10-4.476562 10-10 0-5.519531-4.480468-10-10.003906-10zm0 0"/><path d="m425.179688 335c-5.152344 1.980469-7.726563 7.769531-5.742188 12.921875.117188.3125 11.789062 31.347656.046875 60.695313-2.050781 5.128906.445313 10.949218 5.570313 13 1.21875.488281 2.476562.71875 3.710937.71875 3.96875 0 7.726563-2.378907 9.289063-6.289063 14.621093-36.554687.648437-73.738281.046874-75.304687-1.980468-5.152344-7.765624-7.722657-12.921874-5.742188zm0 0"/></svg>