<svg xmlns="http://www.w3.org/2000/svg" height="600pt" version="1.1" viewBox="0 0 600 600" width="600pt">
<g id="surface1">
<path d="M 590 230 L 370 230 L 370 10 C 370 4.476562 365.523438 0 360 0 L 240 0 C 234.476562 0 230 4.476562 230 10 L 230 230 L 10 230 C 4.476562 230 0 234.476562 0 240 L 0 360 C 0 365.523438 4.476562 370 10 370 L 230 370 L 230 590 C 230 595.523438 234.476562 600 240 600 L 360 600 C 365.523438 600 370 595.523438 370 590 L 370 370 L 590 370 C 595.523438 370 600 365.523438 600 360 L 600 240 C 600 234.476562 595.523438 230 590 230 Z M 580 350 L 360 350 C 354.476562 350 350 354.476562 350 360 L 350 580 L 250 580 L 250 360 C 250 354.476562 245.523438 350 240 350 L 20 350 L 20 250 L 240 250 C 245.523438 250 250 245.523438 250 240 L 250 20 L 350 20 L 350 240 C 350 245.523438 354.476562 250 360 250 L 580 250 Z M 580 350 " style=" stroke:none;fill-rule:nonzero;fill:rgb(0%,0%,0%);fill-opacity:1;" />
</g>
</svg>