<?xml version="1.0" encoding="iso-8859-1"?>
<!-- Generator: Adobe Illustrator 19.0.0, SVG Export Plug-In . SVG Version: 6.00 Build 0)  -->
<svg version="1.1" id="Capa_1" xmlns="http://www.w3.org/2000/svg" xmlns:xlink="http://www.w3.org/1999/xlink" x="0px" y="0px"
	 viewBox="0 0 512 512" style="enable-background:new 0 0 512 512;" xml:space="preserve">
<g>
	<g>
		<path d="M431.431,176.594c-5.569-6.536-14.646-16.439-26.267-26.486C375.572,124.523,344.567,111,315.5,111
			c-36.771,0-69.049,21.167-89.652,38.925c-11.704,10.087-20.756,19.971-26.29,26.486c-11.617,13.68-11.617,15.862-11.617,18.625
			c0,2.886,0,4.793,11.627,18.441c5.569,6.538,14.646,16.44,26.267,26.487c29.592,25.585,60.597,39.108,89.664,39.108
			c36.771,0,69.049-21.167,89.652-38.924c11.704-10.088,20.756-19.972,26.29-26.487c11.617-13.681,11.617-15.862,11.617-18.626
			C443.058,192.149,443.058,190.243,431.431,176.594z M315.5,259.073c-50.13,0-92.87-48.615-105.273-64.232
			C223.344,177.906,267.086,131,315.5,131c50.126,0,92.87,48.614,105.273,64.232C407.662,212.164,363.922,259.073,315.5,259.073z"/>
	</g>
</g>
<g>
	<g>
		<path d="M315.517,144.862c-27.657,0-50.158,22.5-50.158,50.157s22.5,50.157,50.158,50.157c27.657,0,50.157-22.5,50.157-50.157
			S343.174,144.862,315.517,144.862z M315.517,225.177c-16.629,0-30.158-13.528-30.158-30.157c0-16.629,13.529-30.157,30.158-30.157
			c16.629,0,30.157,13.528,30.157,30.157C345.674,211.649,332.146,225.177,315.517,225.177z"/>
	</g>
</g>
<g>
	<g>
		<path d="M322.57,187.97c-1.86-1.87-4.44-2.93-7.07-2.93s-5.21,1.06-7.07,2.93c-1.86,1.86-2.93,4.43-2.93,7.07
			c0,2.63,1.07,5.21,2.93,7.069c1.86,1.86,4.44,2.921,7.07,2.921s5.21-1.061,7.07-2.921c1.86-1.859,2.93-4.439,2.93-7.069
			C325.5,192.399,324.43,189.83,322.57,187.97z"/>
	</g>
</g>
<g>
	<g>
		<path d="M452.39,36H299.985c-5.523,0-10,4.478-10,10s4.477,10,10,10H452.39c5.523,0,10-4.478,10-10S457.913,36,452.39,36z"/>
	</g>
</g>
<g>
	<g>
		<path d="M229.82,38.93c-1.86-1.86-4.44-2.93-7.07-2.93c-2.64,0-5.21,1.069-7.07,2.93c-1.86,1.86-2.93,4.44-2.93,7.07
			s1.07,5.21,2.93,7.069c1.86,1.861,4.43,2.931,7.07,2.931c2.63,0,5.21-1.07,7.07-2.931c1.86-1.859,2.93-4.439,2.93-7.069
			S231.68,40.79,229.82,38.93z"/>
	</g>
</g>
<g>
	<g>
		<path d="M193.07,38.93C191.21,37.07,188.63,36,186,36s-5.21,1.069-7.07,2.93C177.07,40.79,176,43.37,176,46s1.07,5.21,2.93,7.069
			C180.79,54.93,183.37,56,186,56s5.21-1.07,7.07-2.931C194.93,51.21,196,48.63,196,46S194.93,40.79,193.07,38.93z"/>
	</g>
</g>
<g>
	<g>
		<path d="M266.57,38.93c-1.86-1.86-4.44-2.93-7.07-2.93c-2.64,0-5.22,1.069-7.08,2.93c-1.86,1.861-2.92,4.44-2.92,7.07
			s1.06,5.21,2.92,7.069C254.29,54.93,256.86,56,259.5,56c2.63,0,5.21-1.07,7.07-2.931c1.86-1.859,2.93-4.439,2.93-7.069
			S268.43,40.79,266.57,38.93z"/>
	</g>
</g>
<g>
	<g>
		<path d="M502,0H129c-5.523,0-10,4.478-10,10v299c0,5.522,4.477,10,10,10h309v21.044c-0.302-0.027-0.606-0.046-0.915-0.046H20v-235
			h44c5.523,0,10-4.478,10-10c0-5.522-4.477-10-10-10H10c-5.523,0-10,4.478-10,10V408c0,5.522,4.477,10,10,10h169.037v33.996
			h-39.024c-5.523,0-10,4.478-10,10V502c0,5.522,4.477,10,10,10h178.049c5.523,0,10-4.478,10-10v-40.004c0-5.522-4.477-10-10-10
			h-39.024V418H448c5.523,0,10-4.478,10-10v-89h44c5.523,0,10-4.478,10-10V10C512,4.478,507.523,0,502,0z M308.06,471.996V492
			H150.012v-20.004h39.024h80H308.06z M199.037,451.996V418h60v33.996H199.037z M438.001,398H269.037h-80H20v-38.002h417.086
			c0.309,0,0.613-0.019,0.915-0.046V398z M492,299H139V92h352.891c0.037,0,0.073-0.005,0.109-0.005V299z M492,72.005
			c-0.037,0-0.072-0.005-0.109-0.005H139V20h353V72.005z"/>
	</g>
</g>
<g>
	<g>
		<path d="M71.07,235.21c-1.86-1.86-4.44-2.93-7.07-2.93c-2.64,0-5.21,1.069-7.07,2.93c-1.86,1.859-2.93,4.439-2.93,7.07
			c0,2.63,1.07,5.21,2.93,7.069c1.86,1.86,4.44,2.931,7.07,2.931s5.21-1.07,7.07-2.931c1.86-1.859,2.93-4.439,2.93-7.069
			C74,239.649,72.93,237.069,71.07,235.21z"/>
	</g>
</g>
<g>
	<g>
		<path d="M64,144.862c-5.523,0-10,4.478-10,10v50.669c0,5.522,4.477,10,10,10s10-4.478,10-10v-50.669
			C74,149.34,69.523,144.862,64,144.862z"/>
	</g>
</g>
<g>
	<g>
		<path d="M71.07,271.96c-1.86-1.86-4.44-2.93-7.07-2.93s-5.21,1.069-7.07,2.93c-1.86,1.859-2.93,4.439-2.93,7.07
			c0,2.63,1.07,5.21,2.93,7.069c1.86,1.86,4.44,2.931,7.07,2.931s5.21-1.07,7.07-2.931c1.86-1.859,2.93-4.439,2.93-7.069
			C74,276.399,72.93,273.819,71.07,271.96z"/>
	</g>
</g>
<g>
</g>
<g>
</g>
<g>
</g>
<g>
</g>
<g>
</g>
<g>
</g>
<g>
</g>
<g>
</g>
<g>
</g>
<g>
</g>
<g>
</g>
<g>
</g>
<g>
</g>
<g>
</g>
<g>
</g>
</svg>
