<svg height="512pt" viewBox="0 0 512 512" width="512pt" xmlns="http://www.w3.org/2000/svg"><path d="m256 40c-119.101562 0-216 96.898438-216 216s96.898438 216 216 216 216-96.898438 216-216-96.898438-216-216-216zm0 412c-108.074219 0-196-87.925781-196-196s87.925781-196 196-196 196 87.925781 196 196-87.925781 196-196 196zm0 0"/><path d="m452.511719 91.9375c-3.542969-4.238281-9.851563-4.800781-14.085938-1.257812-4.238281 3.539062-4.804687 9.847656-1.261719 14.085937 35.359376 42.308594 54.835938 96.019531 54.835938 151.234375 0 63.039062-24.546875 122.304688-69.121094 166.878906-44.574218 44.574219-103.839844 69.121094-166.878906 69.121094s-122.304688-24.546875-166.878906-69.121094c-44.574219-44.574218-69.121094-103.839844-69.121094-166.878906s24.546875-122.304688 69.121094-166.878906c44.574218-44.574219 103.839844-69.121094 166.878906-69.121094 40.222656 0 79.945312 10.308594 114.875 29.816406 4.820312 2.691406 10.914062.964844 13.605469-3.855468 2.695312-4.824219.96875-10.914063-3.855469-13.605469-37.902344-21.167969-81-32.355469-124.625-32.355469-68.378906 0-132.667969 26.628906-181.019531 74.980469-48.351563 48.351562-74.980469 112.640625-74.980469 181.019531s26.628906 132.667969 74.980469 181.019531c48.351562 48.351563 112.640625 74.980469 181.019531 74.980469s132.667969-26.628906 181.019531-74.980469c48.351563-48.351562 74.980469-112.640625 74.980469-181.019531 0-59.894531-21.128906-118.160156-59.488281-164.0625zm0 0"/><path d="m94.183594 219.488281v73.023438c0 5.519531 4.480468 10 10 10h33.953125c5.523437 0 10-4.480469 10-10 0-5.523438-4.476563-10-10-10h-23.953125v-53.023438h283.632812v53.023438h-169.683594c-5.523437 0-10 4.476562-10 10 0 5.519531 4.476563 10 10 10h179.683594c5.523438 0 10-4.480469 10-10v-73.023438c0-2.652343-1.054687-5.195312-2.929687-7.070312s-4.417969-2.929688-7.070313-2.929688h-303.632812c-5.523438 0-10 4.476563-10 10zm0 0"/><path d="m407.230469 74.738281c3.628906 2.425781 8.515625 2.164063 11.894531-.582031 3.15625-2.5625 4.414062-6.957031 3.160156-10.816406-1.28125-3.945313-4.992187-6.757813-9.144531-6.90625-4.183594-.152344-8.113281 2.429687-9.652344 6.316406-1.703125 4.300781-.148437 9.441406 3.742188 11.988281zm0 0"/><path d="m192.371094 288.691406c-1.617188-3.941406-5.707032-6.457031-9.949219-6.148437-4.144531.300781-7.753906 3.230469-8.898437 7.222656-1.144532 4.011719.390624 8.449219 3.796874 10.871094 3.371094 2.394531 7.917969 2.460937 11.371094.183593 3.921875-2.59375 5.484375-7.796874 3.679688-12.128906zm0 0"/></svg>