<svg height="511pt" viewBox="0 -25 511.999 511" width="511pt" xmlns="http://www.w3.org/2000/svg"><path d="m502.550781 357.851562-79.625-137.910156c-2.761719-4.785156-8.875-6.421875-13.65625-3.660156-4.785156 2.761719-6.421875 8.875-3.660156 13.65625l79.625 137.914062c8.980469 15.558594 8.980469 34.132813 0 49.691407-8.984375 15.554687-25.070313 24.84375-43.035156 24.84375h-372.398438c-17.964843 0-34.050781-9.289063-43.035156-24.84375-8.980469-15.558594-8.980469-34.132813 0-49.691407l186.199219-322.507812c8.984375-15.558594 25.070312-24.847656 43.035156-24.847656s34.050781 9.289062 43.03125 24.847656l61.703125 106.871094c2.761719 4.78125 8.875 6.417968 13.660156 3.65625 4.78125-2.757813 6.417969-8.875 3.65625-13.65625l-61.699219-106.871094c-12.597656-21.816406-35.160156-34.84375-60.351562-34.84375s-47.753906 13.023438-60.351562 34.84375l-186.199219 322.507812c-12.597657 21.820313-12.597657 47.871094 0 69.6875 12.59375 21.820313 35.15625 34.847657 60.351562 34.847657h372.398438c25.191406 0 47.753906-13.027344 60.351562-34.847657 12.597657-21.816406 12.597657-47.867187 0-69.6875zm0 0"/><path d="m80.429688 355.058594c2.761718-4.78125 1.125-10.898438-3.660157-13.65625-4.78125-2.761719-10.898437-1.125-13.65625 3.65625l-18.828125 32.609375c-5.378906 9.316406-5.378906 20.441406 0 29.761719 5.378906 9.3125 15.015625 14.875 25.773438 14.875h371.882812c10.757813 0 20.394532-5.5625 25.773438-14.875 5.378906-9.320313 5.378906-20.445313 0-29.761719l-185.945313-322.0625c-5.378906-9.316407-15.011719-14.878907-25.769531-14.878907s-20.394531 5.5625-25.773438 14.878907l-122.339843 211.898437c-2.761719 4.785156-1.121094 10.898438 3.660156 13.660156 4.78125 2.761719 10.898437 1.121094 13.660156-3.660156l122.339844-211.898437c2.328125-4.035157 5.882813-4.878907 8.453125-4.878907s6.125.84375 8.453125 4.878907l185.941406 322.0625c2.328125 4.03125 1.285157 7.535156 0 9.761719-1.285156 2.226562-3.792969 4.878906-8.453125 4.878906h-371.886718c-4.65625 0-7.164063-2.652344-8.453126-4.878906-1.285156-2.226563-2.328124-5.730469 0-9.761719zm0 0"/><path d="m256 322.078125c-18.242188 0-33.085938 14.84375-33.085938 33.085937 0 18.242188 14.84375 33.082032 33.085938 33.082032s33.082031-14.839844 33.082031-33.082032c0-18.242187-14.839843-33.085937-33.082031-33.085937zm0 46.171875c-7.214844 0-13.085938-5.871094-13.085938-13.085938 0-7.21875 5.871094-13.085937 13.085938-13.085937s13.085938 5.867187 13.085938 13.085937c0 7.214844-5.871094 13.085938-13.085938 13.085938zm0 0"/><path d="m287.703125 150.320312c-7.988281-9.164062-19.546875-14.421874-31.703125-14.421874-12.160156 0-23.714844 5.257812-31.707031 14.421874-7.988281 9.167969-11.617188 21.332032-9.957031 33.375l13.488281 97.945313c1.929687 14 14.042969 24.558594 28.175781 24.558594s26.242188-10.558594 28.171875-24.558594l13.492187-97.945313c1.65625-12.042968-1.972656-24.207031-9.960937-33.375zm-9.851563 30.648438-13.492187 97.941406c-.570313 4.15625-4.164063 7.292969-8.359375 7.292969s-7.792969-3.136719-8.363281-7.292969l-13.492188-97.945312c-.867187-6.316406 1.035157-12.695313 5.226563-17.503906 4.191406-4.804688 10.25-7.5625 16.628906-7.5625 6.375 0 12.4375 2.757812 16.625 7.5625 4.191406 4.808593 6.097656 11.1875 5.226562 17.507812zm0 0"/><path d="m101.164062 318.464844c3-3 3.753907-7.6875 1.886719-11.488282-1.910156-3.898437-6.28125-6.144531-10.566406-5.445312-4.105469.667969-7.421875 3.910156-8.210937 7.988281-.769532 3.976563 1.042968 8.15625 4.46875 10.320313 3.898437 2.464844 9.160156 1.90625 12.421874-1.375zm0 0"/><path d="m382.359375 189.476562c1.578125 3.847657 5.554687 6.382813 9.714844 6.164063 4.121093-.214844 7.757812-3.003906 9.023437-6.929687 1.277344-3.976563-.117187-8.4375-3.425781-10.988282-3.351563-2.582031-8.117187-2.730468-11.632813-.382812-3.921874 2.613281-5.492187 7.789062-3.679687 12.136718zm0 0"/></svg>